<svg height="50" viewBox="0 0 50 50" width="50" xmlns="http://www.w3.org/2000/svg"><path d="m48.9518605 0h-47.90534887c-.57802326 0-1.04651163.46848837-1.04651163 1.04651163v8.98220927c0 .5780233.46848837 1.0465117 1.04651163 1.0465117h2.99418604c1.07395349 0 1.94767442.8737209 1.94767442 1.9475581s-.87372093 1.9475581-1.94767442 1.9475581h-2.99418604c-.57802326 0-1.04651163.4684884-1.04651163 1.0465117v17.9645348c0 .5780233.46848837 1.0465117 1.04651163 1.0465117h2.99418604c1.07395349 0 1.94767442.8737209 1.94767442 1.9475581s-.87372093 1.9475582-1.94767442 1.9475582h-2.99418604c-.57802326 0-1.04651163.4684883-1.04651163 1.0465116v8.9823256c0 .5780232.46848837 1.0465116 1.04651163 1.0465116h23.95267437c.5780233 0 1.0465117-.4684884 1.0465117-1.0465116v-8.9823256c0-.5780233-.4684884-1.0465116-1.0465117-1.0465116h-2.994186c-1.0738372 0-1.9475581-.873721-1.9475581-1.9476745 0-1.0738372.8736046-1.9474418 1.9475581-1.9474418h2.994186c.5780233 0 1.0465117-.4684884 1.0465117-1.0465117v-7.9356976h6.8893023v1.9476744c0 2.227907 1.8125581 4.0404651 4.0406977 4.0404651 2.2281395 0 4.0406976-1.8125581 4.0406976-4.0404651v-1.9476744h7.9356977c.5780233 0 1.0465117-.4684884 1.0465117-1.0465117v-23.95267437c-.0002326-.57802326-.468721-1.04651163-1.0467442-1.04651163zm-24.9991861 32.9348837h-1.9476744c-2.227907 0-4.0405814 1.8125582-4.0405814 4.0405814 0 2.2280233 1.8125581 4.0405814 4.0405814 4.0405814h1.9476744l.0001163 6.8893023h-21.85976744v-6.8893023h1.94767441c2.22802326 0 4.04069768-1.8126744 4.04069768-4.0406977 0-2.2279069-1.81255814-4.0404651-4.04069768-4.0404651h-1.94767441v-6.889186h7.93569764c.5780233 0 1.0465117-.4684884 1.0465117-1.0465117v-2.994186c0-1.0738372.8738372-1.9474419 1.9477907-1.9474419 1.0737209 0 1.9474418.8736047 1.9474418 1.9474419v2.994186c0 .5780233.4684884 1.0465117 1.0465116 1.0465117h7.935814v6.889186zm1.0465116-17.9645349c-.5780232 0-1.0465116.4684884-1.0465116 1.0465117v7.9358139h-6.8893023v-1.9476744c0-2.227907-1.8125581-4.0404651-4.0406977-4.0404651-2.2281395 0-4.04069766 1.8125581-4.04069766 4.0404651v1.9476744h-6.88895348v-6.8893023h1.94767441c2.22802326 0 4.04069768-1.8126744 4.04069768-4.0406977 0-2.227907-1.81255814-4.0404651-4.04069768-4.0404651h-1.94767441v-6.88918604h21.85965114v7.93569764c0 .5780233.4684884 1.0465117 1.0465116 1.0465117h2.9941861c1.0737209 0 1.9474419.8737209 1.9474419 1.9475581s-.8736047 1.9475581-1.9474419 1.9475581zm22.9061628 8.9823256h-7.9355814c-.5780232 0-1.0465116.4684884-1.0465116 1.0465116v2.9941861c0 1.0738372-.8737209 1.9474419-1.9476744 1.9474419-1.0738372 0-1.9475581-.8736047-1.9475581-1.9474419v-2.9941861c0-.5780232-.4684884-1.0465116-1.0465117-1.0465116h-7.9358139v-6.8893023h1.9476744c2.227907 0 4.0404651-1.8126744 4.0404651-4.0406977 0-2.227907-1.8125581-4.0404651-4.0404651-4.0404651h-1.9476744v-6.88918604h21.8596511z" fill="#fff" transform=""/></svg>