<svg height="100" viewBox="0 0 100 100" width="100" xmlns="http://www.w3.org/2000/svg"><g fill="none" fill-rule="evenodd" stroke="#00ae62" transform="translate(8)"><g stroke-linecap="round" stroke-linejoin="round" stroke-width="2"><path d="m14.2857143 20.1058201h38.0952381" fill="#00ae62" fill-rule="nonzero"/><path d="m14.2857143 36.5079365h38.0952381" fill="#00ae62" fill-rule="nonzero"/><path d="m14.2857143 52.3809524h38.0952381" fill="#00ae62" fill-rule="nonzero"/><path d="m14.2857143 68.7830688h38.0952381" fill="#00ae62" fill-rule="nonzero"/><path d="m14.2857143 84.6560847h38.0952381" fill="#00ae62" fill-rule="nonzero"/><path d="m62.4338624 16.8190294c1.0070125 1.7197196 1.8608374 3.5280187 2.5512266 5.4031928.6419487-4.5661898 2.9414624-8.7202828 6.4434824-11.6402116"/><path d="m62.4338624 33.7835994c1.0131409 1.7046943 1.8672887 3.5025106 2.5512266 5.3698398.6511164-4.5630017 2.9488763-8.7139266 6.4434824-11.6402117"/></g><path d="m83.0687831 29.1262136v-17.8105122c-.0183211-6.24185792-5.0560434-11.29731584-11.2760035-11.3157014h-60.5167761c-6.22756478 0-11.2760035 5.06621207-11.2760035 11.3157014v77.3685972c0 6.2494893 5.04843872 11.3157014 11.2760035 11.3157014h60.5167761c6.2275647 0 11.2760035-5.0662121 11.2760035-11.3157014v-26.9501171zm-3.9699539 26.5148979v33.0431871c.0000417 4.0546766-3.2656394 7.3468191-7.3060496 7.3652494h-60.5167761c-4.04585436-.0183303-7.32114458-3.3051513-7.33941057-7.3652494v-77.3685972c.01836569-4.05463473 3.29895864-7.33181292 7.33941057-7.33177104h60.5167761c1.9376848 0 3.7960071.77245223 5.1661572 2.14742601 1.3701501 1.37497379 2.1398924 3.23983843 2.1398924 5.18434503v15.567459z" fill-rule="nonzero"/><rect height="13.756614" rx="6.878307" width="14.285714" x="58.201058" y="11.640212"/><rect height="13.756614" rx="6.878307" width="14.285714" x="58.201058" y="28.571429"/><rect height="13.756614" rx="6.878307" width="14.285714" x="58.201058" y="44.973545"/><rect height="13.756614" rx="6.878307" width="14.285714" x="58.201058" y="60.846561"/><rect height="13.756614" rx="6.878307" width="14.285714" x="58.201058" y="77.248677"/></g></svg>