<svg height="104" viewBox="0 0 89 104" width="89" xmlns="http://www.w3.org/2000/svg"><g fill="none" stroke="#f5a623" stroke-width="2"><path d="m76.204 71.323c-10.531-4.029-16.85-8.139-16.85-8.139l-8.119 25.685-1.104 3.477-3.64-10.307c8.364-11.657-.634-12.209-2.188-12.23h-.082c-1.554.021-10.552.573-2.188 12.23l-3.64 10.307-1.105-3.477-8.118-25.685s-6.32 4.11-16.851 8.14c-11.636 4.211-10.92 13.761-11.145 31.676h86.155c-.245-17.914.47-27.464-11.125-31.677zm-31.635-47.178 4.723-4.724c-5.807-1.963-12.474-.634-17.096 3.988-6.482 6.483-6.482 17.014 0 23.497 6.483 6.483 17.015 6.483 23.497 0 4.622-4.622 5.951-11.288 3.988-17.096l-4.724 4.724c.164 3.026-.9 6.114-3.21 8.425a11.022 11.022 0 0 1 -15.604 0 11.022 11.022 0 0 1 0-15.603c2.311-2.311 5.399-3.374 8.426-3.21z"/><path d="m63.75 54.963c9.142-9.14 10.655-23.026 4.5-33.742l-4.52 4.52c3.865 8.138 2.434 18.18-4.294 24.907-8.569 8.569-22.434 8.569-31.002 0-8.569-8.568-8.569-22.433 0-31.002a21.913 21.913 0 0 1 24.908-4.294l4.519-4.52c-10.695-6.135-24.601-4.642-33.742 4.5-10.941 10.94-10.941 28.67 0 39.631 10.96 10.94 28.69 10.94 39.632 0z"/><path d="m45.468 29.646a5.445 5.445 0 0 0 -1.533-.204 5.717 5.717 0 0 0 -5.726 5.726 5.717 5.717 0 0 0 5.726 5.726 5.717 5.717 0 0 0 5.726-5.726c0-.532-.082-1.043-.205-1.534l15.971-15.971 2.577.347 8.078-8.077-6.115-.818-.817-6.115-8.057 8.078.348 2.576-15.972 15.992z"/></g></svg>