<svg height="150" viewBox="0 0 150 150" width="150" xmlns="http://www.w3.org/2000/svg"><g fill="#23b67f" fill-rule="evenodd"><path d="m75 0c-41.3625 0-75 33.6375-75 75s33.6375 75 75 75c41.362667 0 75-33.6375 75-75s-33.637333-75-75-75zm0 9.95783333c35.9805 0 65.042167 29.06166667 65.042167 65.04216667 0 35.980667-29.061667 65.042167-65.042167 65.042167s-65.04216667-29.0615-65.04216667-65.042167c0-35.9805 29.06166667-65.04216667 65.04216667-65.04216667z"/><path d="m60.6316667 31.6393333c-.9865 1.0285-.9523334 2.662.0761666 3.6486667.5003334.4798333 1.173.7381667 1.866.7166667 28.9773334-.5515 51.9604997 22.4526666 51.4106667 51.4748333-.0405 1.4245 1.0815 2.6125 2.506 2.653 1.424667.0406667 2.6125-1.0815 2.653-2.506.000333-.0158333.000667-.0315.001-.0473333.602667-31.8136667-24.8873333-57.3393334-56.6633333-56.7345-.6985.0035-1.366.2901666-1.8495.7946666zm4.8393333 13.3916667c-.9885 1.0266667-.9576667 2.6601667.0688333 3.6488333.5025.4838334 1.1796667.7436667 1.877.7201667 9.071-.1736667 17.4531667 3.1636667 23.7185 9.429 6.2866667 6.2866667 9.6351667 14.698 9.4646667 23.8041667-.035333 1.4246666 1.091 2.6085 2.515667 2.6438333 1.424666.0355 2.6085-1.0908333 2.643833-2.5155.000333-.0118333.0005-.0236667.000667-.0355.195166-10.4401667-3.702-20.2723333-10.9758337-27.5461667-7.252-7.252-17.0591666-11.1388333-27.4675-10.9398333-.697.0036667-1.3626666.2888333-1.8458333.791zm4.2655 13.5021667c-.9885 1.0266666-.9576667 2.6601666.0688333 3.6488333.5025.4838333 1.1796667.7436667 1.877.7201667 4.2451667-.0788334 8.1146667 1.479 11.0325 4.4043333 2.917 2.9238333 4.4673334 6.7948333 4.3866667 11.0505-.0405 1.4246667 1.0815 2.6125 2.506 2.653 1.4246667.0406667 2.6125-1.0815 2.653-2.506.0003333-.0156667.0006667-.0315.001-.0473333.1058333-5.5906667-1.9976667-10.8885-5.8941667-14.7956667-3.8988333-3.9105-9.1946666-6.0186667-14.7813333-5.9153333-.6976667.0016666-1.3648333.286-1.8495.7875z"/><path d="m51.7201667 40.2388333c-.0751667-.0795-.1528334-.1528333-.2303334-.2236666-1.5805-1.4526667-5.676-1.5056667-6.6693333-1.476-.9931667.0296666-3.2798333.3158333-5.629 2.1866666-.4756667.3788334-1.1101667.9041667-1.8165 1.597-.1.1-.2003333.198-.3038333.3036667-2.4863334 2.5418333-5.6855 7.108-6.1785 14.624-.6576667 10.024 6.0645 20.1755 7.0025 21.6005 8.7401666 14.7406667 17.9635 23.648167 33.269 33.268833 1.4248333.938167 11.5761666 7.66 21.6003333 7.0025 7.516333-.493 12.082-3.691833 14.624-6.1785.105667-.1035.203833-.204.303667-.303833.6925-.706167 1.218-1.3405 1.597-1.816333 1.870666-2.349 2.156666-4.636 2.1865-5.629334.0295-.993166-.023334-5.088833-1.476167-6.6689997-.070833-.0775-.143667-.1553333-.223667-.2303333-.558833-.5245-1.340833-.996-2.4355-1.4246667l-15.524833-5.336c-1.9876667-.8166666-4.1768333-.3496666-6.0683333 1.5418334-1.8916667 1.8916666-3.758 3.6786666-4.3948334 4.3948333-.6361666.716-1.8581666 1.887-3.8416666.8896667-11.3978334-6.4343334-19.6191667-13.5496667-25.8561667-25.8561667-.9971667-1.9833333.1736667-3.2055.8898333-3.8416667.7161667-.6366666 2.5031667-2.5031666 4.3946667-4.3946666 1.8918333-1.8918334 2.3588333-4.0808334 1.5423333-6.0685l-5.3361666-15.5246667c-.4286667-1.095-.9001667-1.8765-1.4248334-2.4355z"/></g></svg>