<svg height="100" viewBox="0 0 100 100" width="100" xmlns="http://www.w3.org/2000/svg"><path d="m52.4989474 17.3715789h-3.1705263v34.6263158l-18.8736843 20.7.5105264.4536842 18.3831579-20.16h24.2905263v-4.4736842h-21.14zm-40.0105263 52.7726316 1.0357894 2.0273684 5.0578948-2.5747368c-.38-.6494737-.7421053-1.3231579-1.0852632-1.9905263zm14.4336842 16.8747369 1.9210526 1.2347368 3.3-5.128421c-.6536842-.3810527-1.3031579-.7663158-1.94-1.1789474zm21.7157894 1.0726315v5.1831579h4.5526316v-5.1831579c-.7610526.0547369-1.5031579.1063158-2.2642105.1063158-.78 0-1.5221053-.0694736-2.2884211-.1063158zm39.6157895-39.6115789c.051579.7610526.1063158 1.5031579.1063158 2.2652632 0 .7789473-.0736842 1.5221052-.1063158 2.2831579h5.1842105v-4.5484211zm-7.76 25.1957895 4.7852632 3.3 1.2852631-1.8663158-4.7105263-3.2621053c-.4357895.6357895-.9105263 1.2305263-1.36 1.8284211zm-14.1589474 11.1894737 2.7568421 5.4715789 2.0273685-1.0157895-2.7568421-5.4347368c-.6673685.3442105-1.3557895.668421-2.0273685.9789474zm-51.0705263-56.2031579 3.7357895 2.5768421c.4-.6547369.7989474-1.2863158 1.2305263-1.9031579l-3.6621052-2.5389474zm55.4736842-9.6242106c.6547369.3989474 1.2905264.8157895 1.8842106 1.2473685l2.2694736-3.531579-1.9021052-1.2347368zm18.6021053 14.5905264-1.0347368-2.0273685-4.0936843 2.0831579c.3621053.6736842.6863158 1.3410527.9926316 2.051579zm-36.1673684-20.211579v-5.18315789h-4.5347369v5.18315789c.7663158-.0368421 1.5084211-.1063158 2.2684211-.1063158.7810526 0 1.5231579.0694737 2.2663158.1063158zm-39.7042105 37.3284211c0-.7621053.0736842-1.5042106.1105263-2.2652632h-5.18315793v4.5484211h5.18315793c-.0368421-.7610527-.1105263-1.5042106-.1105263-2.2831579zm21.1210526-33.6484211-1.8473684-3.6610526-2.0326316 1.0157894 1.8705263 3.6810527c.6494737-.3621053 1.3221053-.7105263 2.0094737-1.0357895zm15.408421 78.3736842c-25.0894736 0-45.48210523-20.3978947-45.48210523-45.468421 0-25.0894737 20.39263163-45.48631583 45.48210523-45.48631583 25.0747369 0 45.4673685 20.39684213 45.4673685 45.48631583 0 25.0705263-20.3926316 45.468421-45.4673685 45.468421zm-49.9978947-45.468421c0 27.5547368 22.4252632 49.9978947 49.9978947 49.9978947 27.5768421 0 50.0021053-22.4431579 50.0021053-49.9978947 0-27.5768421-22.4252632-50.0021053-50.0021053-50.0021053-27.5726315 0-49.9978947 22.4252632-49.9978947 50.0021053z" fill="#d0021b" fill-rule="evenodd"/></svg>