<svg height="144" viewBox="0 0 125 144" width="125" xmlns="http://www.w3.org/2000/svg"><g fill="none" fill-rule="evenodd" transform="translate(-8 1)"><path d="m70.7845687 0 61.3012343 35.3922844v70.7845686l-61.3012343 35.392284-61.30123469-35.392284v-70.7845686z" fill="#fff" stroke="#8b572a"/><g transform="translate(19.491403 19.491403)"><g transform="translate(25.008608 23.987849)"><path d="m23.1426598 52.9217308s-2.1583393-2.1844253-4.7822584-6.0394938c-.307362.2160608-.6532861.3799494-1.0252962.4814583-.6135899 2.5984-.9555443 4.1159292-1.0678279 4.1391798 2.1986026.9317266 4.4845368 1.5645975 7.0126179 1.8742279z" fill="#da3538"/><path d="m13.2131081 44.7972223c-5.06183298-.5614177-7.95171659-1.9575899-7.96759507-1.9655292 2.35625322 3.1785317 5.44178237 5.8461166 8.94865847 7.6885875.0011341-.0045367.307362-1.306005.8460962-3.3588659-.9328608-.4462987-1.625276-1.3162126-1.8271596-2.3641924" fill="#1b80c3"/><path d="m53.0106503 24.8278203c-.0499038.0952709-.889762 1.6757469-2.5507646 3.8987343.2336405.4553721.3674734.9702886.3674734 1.5175291 0 .5546127-.1366683 1.0763342-.3759797 1.535676.9867342 1.6972963 1.5197975 2.9585013 1.5197975 2.9585013.7440203-2.4566279 1.1426836-5.1100355 1.1313418-7.8093773-.0034026-.7077266-.0351595-1.4063798-.0918684-2.1010634" fill="#da3538"/><path d="m48.8532669 33.2848696c-.4088709.1814684-.8597063.2835443-1.3349266.2835443-.3793823 0-.7428861-.0669164-1.0820051-.1848709-3.7059241 3.7195343-9.0161419 7.6857521-16.0366991 9.7210332-3.9837975 1.1557266-7.5763039 1.689357-10.725347 1.8555139-.0045368.0192811-.0096405.0385621-.0147443.057276 1.6870886 2.3761013 3.8839899 5.0720406 6.9150786 8.5624711 10.8245876 0 20.1452561-6.4648103 24.2696917-15.8030586-.0147443-.0442329-1.151757-2.9675748-1.9910482-4.491909" fill="#da3538"/><path d="m44.8731555 28.2516746c-3.3157672-4.0291647-7.9148559-7.8553116-13.7343193-10.1327395-.6056507.7837165-1.5492862 1.2895595-2.6125773 1.2895595-.1973469 0-.390157-.0204152-.5784304-.0538734-.5699241.915281-1.1426836 1.8827342-1.7160102 2.9199393-3.7189672 6.7307748-6.1438381 13.7683446-7.7118381 19.2798789.4848607.3873216.8580051.9079089 1.0666937 1.5073216 3.8562026-.1083139 8.011828-.7508254 12.0081015-2.3715646 5.822866-2.361357 9.9977724-5.5790179 13.0742282-8.7609521-.2909165-.4945013-.460476-1.0695292-.460476-1.6853874 0-.748557.249519-1.4370026.6646279-1.9921823" fill="#f4c714"/><path d="m42.0615301 5.50722443c-.1032102.03402532-4.6478584 1.54815193-10.3323547 8.73826857.2795747.4876962.4423291 1.0513823.4423291 1.6547646 0 .0584101-.0062379.115119-.0090734.1723949 1.2595038.5030076 2.5320507 1.0837064 3.8216102 1.7562735 4.8259242 2.5178735 8.4167293 5.9334482 10.9567193 9.0376913.2903493-.083362.5960101-.1309974.9130126-.1309974.3980963 0 .7780456.0742886 1.1313418.2035848 1.5702684-2.1986026 2.6698533-4.1130938 3.5244558-5.3516153-1.350238-6.5912711-5.0845166-12.19013703-10.4480407-16.08036497" fill="#00ae62"/><path d="m8.98733388 11.4888185c.23761013-3.16718996.74685571-4.94161025.83475445-5.01192924-2.75775197 2.25134183-5.05672923 5.04708874-6.73531155 8.22562044 1.16820256-.1627544 2.31882537-.3141671 3.46094185-.4576405.1843038-1.3388962 1.16026332-2.4214684 2.43961525-2.7560507" fill="#1b80c3"/><path d="m10.4584752 29.6035004c-1.1222684-4.4584507-1.65022791-8.3923445-1.84303804-11.6950686-.97255699-.2648304-1.76761523-.9612152-2.16514435-1.8753621-2.04208613.3277773-3.50914439.7020557-4.43576719.9651849-1.24872915 3.0877975-1.96723043 6.4205773-1.96723043 9.9308559 0 4.9365064 1.28785826 9.5679192 3.61632413 13.5324357.17749874.0629469 4.25713428 1.4602532 9.90987368 2.0829165.3170025-.5716253.7967595-1.0383392 1.3768911-1.3394633-1.7426633-3.3106633-3.3889216-7.2179039-4.4919089-11.601499" fill="#1b80c3"/><path d="m25.2202456 16.152612c-.1100152-.0175797-.2171949-.0402633-.3277772-.0567088-4.6308457-.6986532-8.7320306-.8290836-12.1787952-.6827747-.2381772 1.0973164-1.0156557 1.9899139-2.0392507 2.3880101.1361013 3.0702178.5733266 6.4319192 1.5577925 9.8112003 1.6802835 5.7689925 2.7350684 9.3507242 4.6574988 12.9715851 1.1886178-3.9718887 2.6953722-8.5142686 4.3660153-12.3976915 1.4284962-3.3197367 3.0645469-6.5867343 4.9892457-9.6972154-.6164254-.5909063-1.0060152-1.4171544-1.0247292-2.3364051" fill="#f4c714"/><path d="m26.5654366.50034229c-5.3158888 0-10.263737 1.57423801-14.4136915 4.27981782-.0056709.02381772-.6918481 2.73790386-1.004314 6.84078999.8529013.3640709 1.5197975 1.0786026 1.8282938 1.9626938 4.3938026-.2841114 8.696871-.166157 13.0850028.7780455.5778633-.9708557 1.6309469-1.6224405 2.8388456-1.6224405.4831595 0 .9408.1066127 1.3547747.2937519 2.7084153-3.32824311 5.8897824-6.35082546 9.6915446-8.89421792-3.92879-2.31088613-8.4995243-3.63844059-13.380456-3.63844059" fill="#00ae62"/></g><path d="m51.5247647 95.8835141c-11.3151192 0-21.6486081-4.1964558-29.5362437-11.1160712l8.2460356-8.2432001c-7.1549571-6.0542382-11.6990382-15.1004358-11.6990382-25.2093576 0-5.9334482 1.5657317-11.4999901 4.3047697-16.31117l-4.5667646-4.569033c-3.8028963 6.0480002-6.0026331 13.2069269-6.0026331 20.880203 0 9.7028863 3.519352 18.5823599 9.3478888 25.4350588l-8.2239191 8.1898939c9.3444862 10.5115547 22.9625524 17.1362841 38.1299046 17.1362841 10.8864003 0 20.9749068-3.4144408 29.2589374-9.2276662l-4.4533469-4.4550482c-7.1039192 4.7306533-15.632365 7.4901065-24.8055905 7.4901065" fill="#f4c714"/><path d="m93.3259444 21.6904025-4.453914 4.4556153c4.6909571 7.0880407 7.4248913 15.5847295 7.4248913 24.7216613 0 11.2663497-4.1556254 21.5595752-11.0134281 29.4364362l-8.2647496-8.2777926c-6.0497014 7.3993723-15.2467446 12.1226534-25.5467752 12.1226534-5.9538635 0-11.5391193-1.5787747-16.3610738-4.3393621l-4.5644963 4.5667646c6.0570735 3.826147 13.2324458 6.0400609 20.9255701 6.0400609 9.8577015 0 18.8636358-3.6384406 25.7571651-9.6422078l8.3237268 8.3203243c10.4786635-9.3473218 17.0336413-23.1287094 17.0336413-38.2784819 0-10.8512408-3.4892967-20.8558182-9.2605576-29.1256716" fill="#da3538"/><path d="m72.1168867 17.8775255c-5.9861875-3.698552-13.0396357-5.8347748-20.592122-5.8347748-9.6609217 0-18.5046688 3.4938329-25.3431904 9.2843748l-8.4779749-8.4944204c-10.54444582 9.3501572-17.1935599 22.9999803-17.1935599 38.2053275 0 10.8676863 3.39799502 20.9397473 9.1845673 29.2169728l4.4544811-4.4567495c-4.70570136-7.0954128-7.44870901-15.6068459-7.44870901-24.7602233 0-11.2822281 4.16526591-21.5907651 11.04008131-29.4721627l8.5454584 8.4978229c6.0514026-7.1867141 15.1112104-11.7534787 25.2388461-11.7534787 5.8126584 0 11.2725876 1.5056203 16.0157168 4.1459849z" fill="#1b80c3"/><path d="m81.3218125 25.5523327 8.4258027-8.3645571c-10.7270483-12.14987371-25.0783601-17.18788902-38.0527806-17.18788902-10.7542686 0-20.7293574 3.33221274-28.955545 9.01670907l4.460152 4.46242035c7.0409723-4.60646086 15.4542991-7.28652168 24.495393-7.28652168 11.3179547 0 21.6548461 4.19872418 29.5436159 11.12174198l-4.0977824 4.0994837c-.0011342-.0005671-.0017013-.0011342-.0028355-.0022684l-4.4448406 4.447109c7.3239496 6.053671 11.9910889 15.2093168 11.9910889 25.4560411 0 5.7553824-1.4732962 11.1659749-4.0620558 15.8767801l4.5826432 4.5849115c3.6429773-5.9589672 5.7440406-12.9647801 5.7440406-20.4616916 0-9.8577015-3.6310684-18.8664713-9.6268964-25.762269" fill="#00ae62"/></g></g></svg>