<svg height="142" viewBox="0 0 142 142" width="142" xmlns="http://www.w3.org/2000/svg"><g fill="none" fill-rule="evenodd"><circle cx="71" cy="71" fill="#fff" r="70" stroke="#8b572a"/><g fill-rule="nonzero" transform="translate(25.230769 18.5)"><g fill="#fff"><path d="m9.41442904 20.9224252-.16255167-.2283785 13.61947883-10.82219817.162957.22756007zm-4.77277647 22.5104341-.25416433-.059755 4.60981943-22.8599597.2545697.059755zm16.33137573 1.6371225-16.1801743-2.1786008.03445609-.2770829 16.18017431 2.1786007zm.1884951 14.7341023-.154039-.0090042.2513268-14.7250981.154039.0081856zm-13.04142724 4.9113674-.08431607-.2750366 12.88738831-4.2270502.084316.274218z"/><path d="m22.5945436 80.7085538-13.81956713-16.9145987.2108818-.1753757 13.82039243 16.9145987zm.8373369-.4069042-.2129452-.1590995 7.628061-10.0135042.2129452.1586926zm26.949951-4.8828498-19.32189-5.0342181.0746959-.2555358 19.3214773 5.0334043zm-5.4523881 13.427837-.2509122-.101726 5.1139868-13.326111.2509122.1017261z"/><path d="m34.156682 94.6196476-.1536482-.2194321 10.0623172-6.6504508.1536481.2194322zm20.6775223.8082216-20.8311705-.5827278.010216-.2254938 20.8303532.5819195z"/><path d="m54.4655285 95.4278692-.1992266-.1848436 13.1356202-13.9716615.2000348.185248zm13.4467855-14.1565051-18.4953412-6.6191772.0937537-.2568395 18.4953412 6.6191773zm-23.3337593-30.7398394-.010911-.3624065 23.4279171-1.2554798.0105069.3624065zm-.4825083 0-22.1586052-5.7940553.0674865-.2730183 22.1586052 5.7940553zm-21.920584-6.0670736-.2380212-.1245772 7.0355683-13.6274562.2384253.1249817z"/><path d="m43.7367577 50.3983846-15.2180842-19.231631.220187-.1656854 15.2172717 19.231631zm.4915612-.4041107-.2721867-.0517262 6.2277958-30.6606915.2721867.0525344zm19.8346968-14.9520981-13.606901-15.5825109.2047495-.1778087 13.6077135 15.582915zm-.1275621.4041107-.0731248-.2521651 19.020574-5.0012747.0731248.2521651zm18.8085121-5.2534398-11.1629076-13.5619571.2120619-.1778087 11.1629076 13.5611488zm.2120619 18.1849841h.4062489v-18.1849841h-.4062489zm-15.0108973 1.6164431-.0203124-.3152064 15.4171462-1.3012367.0203124.3152064zm-37.1701503 20.2055379-.2250619-.1535621 13.5874011-19.2437543.2250619.1535621z"/><path d="m28.7764962 30.7124177-.2578227-.0939912 4.5915065-12.357824.2578226.0939911zm4.4379444-12.4518152-.2505487-.0522173 2.9823374-16.01464108.2505487.05221729z"/><path d="m23.1749752 9.92932655-.140662-.23206748 12.8310425-7.50351495.1406619.23206747zm27.4059683-6.10703876-14.1695601-1.26822838.0190521-.36031529 14.1687495 1.26741411zm12.5108035 3.25708733-12.8979278-3.79572815.0737766-.27563102 12.8979278 3.79654243zm7.5702056 9.77126198-7.496429-9.60026489.2047097-.17099709 7.4972397 9.60026498zm-42.4940874 14.6568931-18.91598783-10.7524596.1362029-.2402102 18.91598783 10.7524596zm22.009334-10.9926698-16.6033762-1.2902137.01662-.33833 16.6033762 1.2893995zm-.200656-.8142718-.1880897-.1966467 13.5947515-12.42456678.1876843.19623952zm-16.2134144 75.7272806-11.5395471-14.4907816.21606-.1661115 11.5395471 14.4907816zm-25.62195362-32.1637375-3.75368694-20.7207754.29997066-.0431564 3.75368695 20.7203683zm55.66077262-1.2214078-.2310585-.0626989 2.6065019-12.5585145.2310585.0631061zm-15.0492038 13.8426212-.1803878-.2080464 15.2231058-13.2274388.1807931.2080464zm18.6962796 6.1070388-.2298424-.1461618 11.5257647-18.1749545.2298424.1461618z"/><path d="m79.5559476 63.5650735-.285178-.0626234 3.8059197-15.3898962.2855872.0626234zm-.3125911.4066452-14.7020117-1.7253958.0274131-.3078304 14.7020117 1.7249891zm-35.4017633-13.4192933-.1669335-.2167419 19.880632-15.2357776.1677517.2167419zm38.952373-2.0332262-19.0709228-13.1948251.1587505-.2244682 19.0713319 13.1948251zm-27.1418292 58.5569158h-21.9092011c-1.0637918 0-1.9336462-.88364-1.9336462-1.96369v-.952363c0-1.079643.8698544-1.96369 1.9336462-1.96369h21.9092011c1.0637917 0 1.9336461.884047 1.9336461 1.96369v.952363c0 1.08005-.8698544 1.96369-1.9336461 1.96369m-2.4397656 5.286389h-17.4388207c-1.0547904 0-1.9185075-.884047-1.9185075-1.964097v-.951956c0-1.08005.8637171-1.96369 1.9185075-1.96369h17.4388207c1.0556088 0 1.9185076.88364 1.9185076 1.96369v.951956c0 1.08005-.863308 1.964097-1.9185076 1.964097m-6.1671283 6.099678h-5.5137147c-1.0719748 0-1.9483756-.88364-1.9483756-1.96369v-.951956c0-1.08005.8768099-1.964097 1.9483756-1.964097h5.5137147c1.0711565 0 1.9483755.884047 1.9483755 1.964097v.951956c0 1.08005-.877219 1.96369-1.9483755 1.96369"/></g><path d="m28.5186735 94.8794331c0-3.3317678 2.7010286-6.0327963 6.0327964-6.0327963s6.0327963 2.7010285 6.0327963 6.0327963c0 3.3321839-2.7010285 6.0327959-6.0327963 6.0327959s-6.0327964-2.700612-6.0327964-6.0327959" fill="#c1272d"/><path d="m34.9720337 98.0185655c.1466922-.3083365.2707542-.6324333.3738025-.9678453.2271102.0541509.4477547.120425.6635498.1980143-.2949093.318879-.6467092.5799538-1.0373523.769831zm-3.0344677-6.2778606c-.1480033.312991-.2730681.6363227-.3742065.9674411-.2246292-.0536913-.4461451-.1196604-.6635499-.1976101.2950608-.3188842.6469938-.579956 1.0377564-.769831zm3.7307505 2.9649606c-.0134464-.5967585-.0989289-1.1897079-.2545897-1.765964.2465075-.0747605.4930151-.1652813.7379062-.2707542.4722608.5775189.7463931 1.2915378.7819543 2.0367182h-1.2648666zm0 .3475353h1.2652708c-.0333073.6912092-.2727085 1.3566348-.6873924 1.9106356-.2635032-.0995287-.5330458-.1822677-.8070092-.2477199.1394183-.5394878.2166034-1.0971607.2291308-1.6625116zm-2.0383346 1.7889983c.4574534-.0040411.9161191.0404111 1.3723601.1317401-.13312.4312523-.3093961.8479788-.5261522 1.2438529-.2749775.0831331-.5592301.1317302-.8462079.1446717zm-1.6984775.215391c.4412976-.1130486.8927668-.1818181 1.3477093-.2052883v1.510162c-.2869733-.0129831-.5712208-.0615794-.8462079-.1446717-.2019755-.3707398-.3698333-.7590715-.5015014-1.160202zm-.3382407.0953702c.0969865.2950008.2113499.5847482.3455147.8668175-.3441088-.1664874-.6587368-.3880237-.9314753-.6558717.1918719-.0795484.3874122-.1499429.5859606-.2109458zm-.3523846-2.0993554c.0140247.5967103.0994972 1.1895907.2545897 1.765964-.2465075.0751646-.4930151.1652813-.7379062.2711583-.4724218-.5775491-.7464451-1.291795-.7815502-2.0371223zm0-.3475353h-1.2648667c.033257-.6912764.2725051-1.3568081.6869883-1.9110398.262672.1002195.5305974.1818499.8070092.2477199-.139926.5436781-.2168089 1.1016553-.2291308 1.6629158zm2.0383346-1.7889983c-.4574533.003637-.9161191-.0404111-1.371956-.1317401.1329829-.4312398.3091237-.8479666.5257481-1.2438529.2749871-.0830923.5592346-.1316886.8462079-.1446717zm1.6984776-.2149869c-.4413115.1129122-.8927805.1815463-1.3477094.2048841v-1.5101619c.2869778.0129414.5712304.0615386.8462079.1446717.2028636.3717819.3705696.7613446.5015015 1.1606061zm.3382407-.0957743c-.0967235-.2958242-.2121271-.5852105-.3455147-.8664135.3441539.1662395.6587995.3876517.9314753.6554677-.191872.0795483-.3874123.1499429-.5859606.2109458zm-1.6859501 2.0993554v-1.4507576c.4881587-.023971.9726173-.0974928 1.4459083-.2194322.1464659.5451609.2273214 1.1058587.24085 1.6701898zm-.4008779-1.4378261.0501097-.0004041v1.4386343h-1.6867583c.0129316-.5390837.0864797-1.0704894.2198363-1.5849224.4661514.0963191.9408155.1454643 1.4168123.1466922zm-1.3957986 3.4559552c-.1462285-.5452096-.2270799-1.1058789-.24085-1.6701897h1.6867583v1.4507576c-.488974.0242466-.9739069.0977948-1.4459083.2194321zm1.7966765-.2287267v-1.441463h1.6871624c-.0125367.5349934-.0864337 1.0667805-.2202404 1.5849224-.48267-.0986006-.9742943-.1466795-1.466922-.1434594zm-.1753841-5.454687c-2.1167321 0-3.8390522 1.7223201-3.8390522 3.8394563 0 2.1167322 1.7223201 3.8386481 3.8390522 3.8386481 2.1167322 0 3.8390522-1.7215118 3.8390522-3.8386481 0-2.1171362-1.72232-3.8394563-3.8390522-3.8394563z" fill="#fff"/><path d="m44.8659126 24.2364757c-2.7838697-2.7841976-2.7838697-7.2982317 0-10.0824293 2.785092-2.784605 7.2992551-2.784605 10.0835322 0 2.7838697 2.7841976 2.7838697 7.2982317 0 10.0824293-2.7842771 2.784605-7.2984402 2.784605-10.0835322 0" fill="#009245"/><path d="m54.843603 17.5499529-4.3862917 2.3504402-4.3886848-2.3504402zm-4.3874883 3.1339202-4.3874882 2.3504401v-4.7008802zm4.3874883 2.3504401h-8.7749765l4.3886848-2.3504401z" fill="#fff"/><path d="m54.843603 17.5499529v4.3874883l-4.3874883-2.1937441z" fill="#fff"/><path d="m64.1670155 69.1029397c-3.9375574 0-7.1296684-3.1921109-7.1296684-7.1296684 0-3.9375574 3.192111-7.1296683 7.1296684-7.1296683s7.1296684 3.1921109 7.1296684 7.1296683c0 3.9375575-3.192111 7.1296684-7.1296684 7.1296684" fill="#00a99d"/><path d="m60.1292007 61.2046443c0-1.2017693.9721252-2.1799713 2.167061-2.1799713s2.1670611.9778205 2.1670611 2.1799713c0 1.2025323-.9721253 2.1811159-2.1670611 2.1811159s-2.167061-.9785836-2.167061-2.1811159zm7.7014603 4.6907154-2.9968776-2.9704685c.3446132-.5074564.5285954-1.1068439.5280304-1.7202469 0-1.6927779-1.3750155-3.0704252-3.0655521-3.0704252-1.690155 0-3.0651705 1.3772658-3.0651705 3.0704252 0 1.6935409 1.3750155 3.0711882 3.0651705 3.0711882.6014444.0002583 1.1894225-.1780688 1.689392-.5123734l2.9980221 2.9716131c.2345972.2321646.6123879.2321646.8469852 0 .1122374-.1108829.1754067-.2620857.1754067-.4198563 0-.1577705-.0631693-.3089734-.1754067-.4198562z" fill="#fff"/><path d="m25.4943532 54.4168155c2.5699311 2.3559423 2.5699311 6.175737 0 8.5316793-2.5703424 2.3559423-6.7374314 2.3559423-9.3069511 0-2.5707538-2.3559423-2.5707538-6.175737 0-8.5316793 2.5695197-2.3559422 6.7366087-2.3559422 9.3069511 0" fill="#ed1e79"/><path d="m18.9742413 63.2905625h5.9263998v-8.1189426h-5.9263998zm-.3274163.3280169h6.5812324v-8.7749764h-6.5812324z" fill="#fff"/><path d="m18.646825 56.7320594h4.6406126v-.7915844h-4.6406126zm.8437477 1.435934h2.9531171v-.2485575h-2.9531171zm-.8437477 1.5831687h4.6406126v-.2485575h-4.6406126zm0-.3965837h4.6406126v-.2477659h-4.6406126zm0 3.167129h4.6406126v-.2485575h-4.6406126zm0-1.9797525h2.9531171v-.2477659h-2.9531171zm0 1.5839603h2.9531171v-.2485575h-2.9531171zm0-1.1873765h2.9531171v-.2485575h-2.9531171zm3.7968648.938819h1.6874955v-1.5831687h-1.6874955z" fill="#fff"/><path d="m43.769592 70.0945214c2.7837902-2.784605 7.2986391-2.784605 10.0824293 0 2.784605 2.7837902 2.784605 7.2986391 0 10.0824293-2.7837902 2.784605-7.2986391 2.784605-10.0824293 0-2.784605-2.7837902-2.784605-7.2986391 0-10.0824293" fill="#662d91"/><path d="m43.8748824 78.5482269h.822654v-3.4124908h-.822654zm1.6453081.4265614h.822654v-5.5452977h-.822654zm1.233981 0h.8226541v-7.6781044h-.8226541zm1.6453081 0h.8226541v-4.692175h-.8226541zm1.6453081 0h.822654v-6.8249817h-.822654zm1.2339811 0h.822654v-5.1187363h-.822654zm1.6453081 0h.822654v-7.6781044h-.822654z" fill="#fff"/><path d="m69.9841476 41.4654741c-3.2125443 3.2125444-8.42172 3.2125444-11.6342643 0-3.2125444-3.2125444-3.2125444-8.42172 0-11.6342644 3.2125443-3.2125443 8.42172-3.2125443 11.6342643 0 3.2125444 3.2125444 3.2125444 8.42172 0 11.6342644" fill="#1b1464"/><path d="m61.0057424 38.288864v-5.2810441l5.428727 2.640522-5.4295167 2.6405221zm2.064401-7.5764463c-2.7309482 0-4.9359243 2.2128735-4.9359243 4.9359242 0 2.7309482 2.2049761 4.9359243 4.9359243 4.9359243 2.7230507 0 4.9359243-2.2049761 4.9359243-4.9359243 0-2.7230507-2.2128736-4.9359242-4.9359243-4.9359242z" fill="#fff"/><path d="m44.9717544 38.3905221c6.6634792 0 12.0655927 5.4017045 12.0655927 12.0655926 0 6.6630702-5.4021135 12.0655927-12.0655927 12.0655927-6.6634791 0-12.0655926-5.4025225-12.0655926-12.0655927 0-6.6642971 5.4021135-12.0655926 12.0655926-12.0655926" fill="#c1272d"/><path d="m48.2623706 44.9717544v2.2002376h-6.4043334v4.8597136h-.2134361l-3.4969416 2.8118974v-2.8115025h-1.9508815v-7.0603461z" fill="#fff"/><path d="m51.5529868 48.2623706v6.1621228h-1.4753406v2.6128537l-2.6408864-2.6128537h-4.6587495v-6.1621228z" fill="#fff"/><path d="m37.29365 31.2608537c0 3.9376739-3.1924139 7.1296684-7.1296684 7.1296684-3.9380933 0-7.1296684-3.1919945-7.1296684-7.1296684s3.1915751-7.1296684 7.1296684-7.1296684c3.9372545 0 7.1296684 3.1919945 7.1296684 7.1296684" fill="#f15a24"/><path d="m32.7037357 31.2033176h-2.558362c-.1053647-.0004728-.1929462-.0851525-.201829-.1951419l-.2217725-2.6856042c-.0030926-.0374994-.0154658-.0735059-.0358985-.1044657l-.4698706-.7053524c-.0394724-.059764-.1055227-.0940436-.1748229-.0907321-.0693003.0033116-.1320973.0437484-.1662123.1070287l-1.912589 3.5100475c-.0357718.0662953-.1028105.1073164-.1755034.1073907h-.5440608v-.0188038c0-.2402711-.1846775-.435413-.4120343-.435413h-1.4969648c-.0540211.0002209-.1057399.0229434-.1437513.0631566-.0380115.0402132-.0591936.0946144-.0588755.151207v5.0757793c-.0003181.0565927.020864.1109938.0588755.151207.0380114.0402133.0897302.0629357.1437513.0631567h1.4969648c.2273568 0 .4120343-.1947241.4120343-.4354131v-.0179681h5.256329c.0890983-.0004721.1674476-.0618623.1930538-.1512663l1.204592-4.1117699c.0193815-.0645604.008339-.1349271-.0297517-.1895894-.0380906-.0546622-.0987007-.0871209-.1633021-.0874536" fill="#fff"/><path d="m5.4843603 47.1654985c-3.02939813 0-5.4843603-2.2097145-5.4843603-4.9359242s2.45536842-4.9359243 5.4843603-4.9359243 5.4843603 2.2097146 5.4843603 4.9359243-2.45536842 4.9359242-5.4843603 4.9359242" fill="#1b1464"/><path d="m4.38748824 41.7500476c-.74108665 0-1.34097595-.5702444-1.34097595-1.2744363 0-.7038047.5998893-1.2744363 1.34057708-1.2744363.74028893 0 1.34017823.5706316 1.34017823 1.2744363 0 .704579-.5998893 1.2744363-1.34017823 1.2744363zm0-3.3595255c-1.21214334 0-2.19374412.9329864-2.19374412 2.0850892s2.19374412 4.4961431 2.19374412 4.4961431 2.19374412-3.3440403 2.19374412-4.4961431-.98279737-2.0850892-2.19374412-2.0850892z" fill="#fff"/><path d="m23.5827493 15.3562088c-2.7258148 0-4.9359243-2.2097145-4.9359243-4.9359242 0-2.72502511 2.2097146-4.9359243 4.9359243-4.9359243s4.9359242 2.21050432 4.9359242 4.9359243c0 2.7266045-2.2097145 4.9359242-4.9359242 4.9359242" fill="#9e005d"/><path d="m25.9563804 7.06125099c-.0767988.00115107-.1402382-.05593708-.1421546-.1279227.0019165-.0722128.0655523-.12948506.1425934-.12833403.0794135 0 .1430321.05758578.1430321.12833403-.0008046.0347666-.0163432.06780179-.0431821.09180559-.026839.0240038-.0627689.03700013-.09985.03611711zm-3.7934223 5.29377881h3.9368932v-4.9663625h-3.9368932zm1.968666.6433154c-.1482972 0-.2689531-.1073563-.2689531-.2398036 0-.13327.1206559-.240215.2689531-.240215.1474196 0 .2685142.106945.2685142.240215 0 .1324473-.1210946.2398036-.2685142.2398036zm-1.058701-5.98357416h2.1169631v-.1628855h-2.1169631zm-1.1354819 6.14769366h4.3874882v-6.58123234h-4.3874882z" fill="#fff"/><path d="m54.2951669 100.912229c-2.7262097 0-4.9359242-2.210109-4.9359242-4.9359238s2.2097145-4.9359243 4.9359242-4.9359243 4.9359243 2.2101095 4.9359243 4.9359243-2.2097146 4.9359238-4.9359243 4.9359238" fill="#2e3192"/><path d="m55.8539218 97.9927432c-.299357.1934774-.6510636.2965327-1.0107177.2961554-.3594.0003402-.7108406-.1027185-1.00992-.2961554-.5073809-.3260393-.812851-.8770086-.8136797-1.4676149 0-.6108932.322281-1.1501671.8116854-1.4664534.2993377-.1946585.6516003-.2984285 1.0119143-.2980911.3749308 0 .7231378.1099453 1.0131109.2980911.5064986.3260077.8110907.8765779.8112865 1.4664534-.0005418.5906766-.3060803 1.1417692-.8136797 1.4676149zm.3035345-3.1624758v-1.5961424h-2.6273078v1.5961424c-.5532625.3978895-.8797675 1.0265241-.8802897 1.6948609 0 .6918037.3462128 1.3073425.8802897 1.6940867v1.5961424h2.6273078v-1.5961424c.5528995-.3979715.8792092-1.0263713.8798908-1.6944738-.0005555-.6682389-.3268786-1.2968081-.8798908-1.6948609z" fill="#fff"/><path d="m53.5639189 95.0622452c-.1009643 0-.182812.0818477-.182812.182812s.0818477.182812.182812.182812.182812-.0818477.182812-.182812-.0818477-.182812-.182812-.182812m0-.731248c-.0653125.0000653-.1256288.0349694-.1582285.0915643-.0325996.0565949-.0325299.1262824.0001829.182812.0327127.0565296.0930988.091313.1584112.0912477.1009643-.000101.1827302-.0820305.1826292-.1829948s-.0820305-.1827302-.1829948-.1826292m-.731248.731248c-.1009643 0-.1828121.0818477-.1828121.182812s.0818478.182812.1828121.182812c.1009642 0 .182812-.0818477.182812-.182812s-.0818478-.182812-.182812-.182812m.731248 1.096872c-.1009643 0-.182812.0818477-.182812.182812s.0818477.182812.182812.182812.182812-.0818477.182812-.182812-.0818477-.182812-.182812-.182812m1.0968721-1.096872c-.1009643 0-.1828121.0818477-.1828121.182812s.0818478.182812.1828121.182812c.1009642 0 .182812-.0818477.182812-.182812s-.0818478-.182812-.182812-.182812" fill="#fff"/><path d="m21.9374412 85.5560206c-3.0289919 0-5.4843603-2.4553684-5.4843603-5.4843603s2.4553684-5.4843603 5.4843603-5.4843603 5.4843603 2.4553684 5.4843603 5.4843603-2.4553684 5.4843603-5.4843603 5.4843603" fill="#9e005d"/><path d="m23.0343132 78.7920829c.0000713-.326535-.1899198-.6283006-.4984055-.7916247-.3084856-.163324-.6885995-.1633937-.9971564-.0001827-.3085569.1632109-.4986797.4649068-.4987509.7914418-.0002203.5047794.4460433.9141475.9967575.9143495.5507143.0002019.997335-.4088389.9975553-.9136183m-2.3931754.365228c0-.5047794-.4464421-.9139839-.9971564-.9139839s-.9971564.4092045-.9971564.9139839c0 .5047793.4464421.9139838.9971564.9139838s.9971564-.4092045.9971564-.9139838" fill="#fff"/><path d="m20.7034601 80.4080344c-.2533774.2154744-.4203762.5888984-.4203762 1.0100973v.8472727h-1.6362589v-.8804226c0-.5898734.3706057-1.0695721.8255333-1.0695721h.8950476c.1192849 0 .2344564.0331499.3360542.0926247m4.5245973-1.3113715c0-.6730952-.4603935-1.2187467-1.0283176-1.2187467s-1.0283175.5456515-1.0283175 1.2187467c0 .6730953.4603934 1.2187468 1.0283175 1.2187468s1.0283176-.5456515 1.0283176-1.2187468" fill="#fff"/><path d="m25.2280574 80.6732947v.4952377h-1.7453429v-.4765909c0-.2369244-.178132-.4469754-.4484013-.568454.1115345-.0339728.2339445-.051693.3580191-.0518272h.9547174c.485695 0 .8810077.2698306.8810077.6016344" fill="#fff"/><path d="m24.1311853 80.9351209v1.3302835h-3.2906162v-1.3302835c0-.3466108.1727574-.6440818.4195536-.7800937.0948822-.0551211.2012767-.0837947.3093179-.0833621h1.8328732c.1110583 0 .2167694.0289574.3097293.0833621.2472075.1360119.4191422.4334829.4191422.7800937" fill="#fff"/><path d="m70.7482478 21.9374412c-2.7262097 0-4.9359242-2.2097146-4.9359242-4.9359243 0-2.7258148 2.2097145-4.9359242 4.9359242-4.9359242 2.7258148 0 4.9359243 2.2101094 4.9359243 4.9359242 0 2.7262097-2.2101095 4.9359243-4.9359243 4.9359243" fill="#93278f"/><path d="m71.8451199 14.6019265c-1.3246723.0016124-2.3980161 1.0752834-2.3992248 2.399956.0016116 1.3243872 1.0748377 2.3976132 2.3992248 2.3992249 1.3243871-.0016117 2.3976131-1.0748377 2.3992248-2.3992249-.0012088-1.3246726-1.0745526-2.3983436-2.3992248-2.399956zm0 5.1417706c-1.5118553 0-2.7421802-1.2299592-2.7421802-2.7421802 0-1.5122209 1.2303249-2.7421801 2.7421802-2.7421801s2.7421801 1.2299592 2.7421801 2.7421801c0 1.512221-1.2303248 2.7421802-2.7421801 2.7421802z" fill="#fff"/><path d="m71.2966839 15.7554703c-.9907357.000967-1.7937123.8037473-1.7949215 1.7944826.000967.990978.8039438 1.794151 1.7949215 1.7953602.9906356-.0012082 1.793471-.8038474 1.7949214-1.7944827-.0007256-.991078-.8038436-1.7943923-1.7949214-1.7953601zm0 3.9882268c-1.2096306 0-2.1937442-.9841136-2.1937442-2.1937442 0-1.2096305.9841136-2.1937441 2.1937442-2.1937441 1.2096305 0 2.1937441.9841136 2.1937441 2.1937441 0 1.2096306-.9841136 2.1937442-2.1937441 2.1937442z" fill="#fff"/><path d="m71.2966839 15.7216866c-.4032102 0-.7313943.3277454-.7313943.7313943.013652.394082.3370758.7064955.7313943.7064955.3943184 0 .7177422-.3124135.7313942-.7064955 0-.4036489-.3281841-.7313943-.7313942-.7313943zm0 1.8282663c-.6054851-.0007252-1.0961468-.491387-1.0968721-1.096872 0-.6054734.4922762-1.0968721 1.0968721-1.0968721.6045958 0 1.096872.4913987 1.096872 1.0968721 0 .6045959-.4922762 1.096872-1.096872 1.096872z" fill="#fff"/><path d="m75.6841721 14.4194794v-.3150215h-.6460177l.4182438-.4181274-.2966766-.296594-.4182438.4181274v-.6453992h-.3142314v.9604206l-.2352348.2347305v-.6449604h-.3146703v.9595431l-2.5199956 2.5192943c-.0594207.0602459-.0770085.1501929-.0446554.2283739.0323532.078181.1083653.1294155.1929937.1300837.055563.0002754.1088873-.0218709.1478994-.0614248l2.5204345-2.519733h.9602492v-.3145828h-.64514l.2347959-.2347304z" fill="#fff"/><path d="m51.0043375 7.67810441c-2.12025-.00011778-3.8389567-1.71901548-3.838839-3.83926547.0001178-2.12024999 1.7190155-3.83895673 3.8392655-3.83883894s3.8389567 1.71901549 3.838839 3.83926548c-.0001178 2.12024998-1.7190155 3.83895672-3.8392655 3.83883893" fill="#2e3192"/><path d="m50.4559554 4.71039874c.274197 0 .5198776.16744185.6262661.42591649l.0065807.01681731c.2253518-.08265548.4328319-.20761423.6112767-.36815271l-.0021936-.00292475c-.1751205-.24019496-.1915724-.5388849-.0577642-.77981105.1316879-.24092798.3962729-.37799076.6690408-.34658269l.0182798.00219356c.0219358-.1191835.0329037-.24238852.0329037-.36742152 0-.1246674-.0109679-.24787243-.0329037-.36742152l-.0164518.00219356c-.2732495.03243075-.5387843-.10445985-.6708688-.3458515-.1263684-.22730735-.1195102-.50526989.0179142-.7260688v-.02559155l.0402156-.03290342c-.1778952-.1595292-.3844577-.283838-.6087175-.36632474l-.0073119.01754849c-.1031586.25560948-.3506269.42347646-.6262661.42481971-.2752344-.0016672-.5223208-.16908439-.6259005-.42408852l-.007312-.01827968c-.2075466.07626501-.4000919.18837609-.5688675.33122776l.0014624.09505433c.1352706.21789375.1433137.49720723.0164518.72387523-.131727.2418255-.3974169.37908561-.6708688.34658269l-.0164518-.00219356c-.0441189.24245862-.0442428.49087818-.0003656.73338067l.003656-.00146238h.0314412c.2537237-.03107545.5173185.10455976.652589.34731388.1336647.24109246.1171747.53748501-.0424091.76226256l-.0164518.02120443c.1773079.15930168.3832518.28348751.6068895.36595914l.0102367-.0168173c.1036258-.2550176.3506379-.42252876.6259005-.42445412zm.4727157.77396156-.0771408-.09286077c-.0209547-.05181606-.0356816-.10593729-.0438715-.16122675-.0619691-.13911239-.1994186-.22926831-.3517034-.23068954-.1506256 0-.2880897.09066721-.3528003.23324869-.0078878.05452249-.0222474.10791025-.0427747.1590332l-.0237637.0394841-.0438716.05045191-.1334425.00036559-.0153551-.01827967c-.3371221-.10168437-.6445025-.2837276-.8957104-.53047625h-.0329036l-.076044-.16268913.0508178-.06873159c.0343661-.04679597.0731192-.08774245.1147972-.12137706.0848183-.1305169.0906678-.30015231.0146238-.43761548-.0714113-.13256452-.2134971-.21138945-.3637681-.20180764-.051956.0209139-.1063907.03504471-.161959.04204326l-.1623247.01974205v-.14623742c-.0463981-.18530205-.0696082-.37564818-.0690977-.56667001 0-.17402253.019011-.34475472.0559362-.50927182l-.0387531-.0453336.1444104-.14623742.0698289.00877424c.0548394.00658068.108582.02083883.1608622.04167767.1480665.00987102.2895522-.06690362.3648649-.20217324.0767752-.13746318.0705601-.30746418-.0149894-.43798108-.042956-.03536095-.0813896-.07588174-.1144316-.12064587l-.074216-.09907585.1308834-.13197928c.2516863-.24676515.5593929-.42890408.8968072-.53084184l.0146239-.01754849.1338081-.00036559.0690977.09139839c.020839.05264547.0354628.10711891.0431403.16159235.0658073.14002233.2018091.22959275.3517035.22959275s.2858961-.08957042.3517034-.22959275c.0076775-.05410785.0219358-.10821569.0431403-.16122676l.0329037-.04935513.0438715-.04460241.1272275.00475272.013527.01535492c.3536147.10677585.6743712.30149261.93227.56593883l.0990766.09139838-.077872.10492535c-.0223013.03034427-.0475275.05849497-.0745816.08445211v.07896821l-.0643449.0003656c-.0610545.12320502-.0584954.2720016.0098711.39484103.0749472.13490403.2167985.21094748.3648649.20180765.0519146-.02083884.1056573-.03509699.1604967-.04167767l.0701944-.00877424.1440449.14477504-.0387532.04606479c.0793421.35480688.07471.72324177-.0135271 1.07594183v.14477505l-.161959-.01827968c-.0557621-.00680932-.1103579-.02107297-.1623247-.04240885-.150136-.0085589-.2917132.07034778-.3634025.20253882-.076044.13782877-.0701945.30782978.0149894.43871227.0420436.03363461.0804312.0738499.1147972.12064587l.0500867.068366-.0745816.16122675-.0325381.00073119c-.2513342.24720056-.558974.42962522-.8964416.53157303l-.0131614.01462374-.1268619.0054839z" fill="#fff"/><path d="m50.4561147 2.47234962c-.4464269 0-.8098572.36708652-.8098572.81826656 0 .45154566.3634303.81863218.8098572.81863218.446427 0 .8098572-.36708652.8098572-.81863218 0-.45118004-.3634302-.81826656-.8098572-.81826656zm0 1.91513862c-.6047421 0-1.096872-.49212993-1.096872-1.09687206s.4921299-1.09687206 1.096872-1.09687206c.6047422 0 1.0968721.49212993 1.0968721 1.09687206s-.4921299 1.09687206-1.0968721 1.09687206z" fill="#fff"/><path d="m82.2654044 52.6498588c-2.4226565 0-4.3874882-1.9648316-4.3874882-4.3874882 0-2.4226565 1.9648317-4.3874882 4.3874882-4.3874882 2.4234196 0 4.3874883 1.9648317 4.3874883 4.3874882 0 2.4226566-1.9640687 4.3874882-4.3874883 4.3874882" fill="#f15a24"/><path d="m83.4500263 49.3499193-.058234.0884353c-.1994313.303148-.371341.5655746-.5751598.7280488l-.0167522.0131625h-.1986336l.6696903-2.5749072c.0701641-.008849.1231712-.0698402.1240462-.1427305-.0013111-.0806168-.0654084-.1450646-.1435905-.1443758-.0308419-.000149-.0609107.0099467-.0857554.0287929l-.2804004-.1768706-.1025077.236513-.1304281-.2949214-.1284337.2949214-.1300292-.2949214-.1284338.2957441-.1284337-.2957441-.1304281.2949214-.1288326-.2949214-.1300292.2949214-.1029065-.236513-.2800015.1768706c-.0246762-.0185768-.0544062-.0286526-.0849578-.0287929-.0797725 0-.1439893.0645784-.1439893.1443758 0 .0715709.0518521.130802.1236474.1423192l.6692913 2.5749071h-.1974369l-.0167523-.0131624c-.2018244-.1604176-.3729365-.4203763-.5711712-.7210563l-.0630202-.0950165c-.5141339-.7786421-.7861582-1.4528071-.7861582-1.9509241 0-1.238917.8368137-2.1841465 1.9464494-2.1993656h.0494589c1.1096357.0152191 1.9464494.9604486 1.9464494 2.1993656 0 .4977057-.2720243 1.172282-.7861582 1.9509241zm-.9620565.8296466h-.4455295l-.6760721-2.6024661c.0357543-.0267964.056948-.0695914.0570374-.1151716 0-.0041132 0-.0094605-.0011966-.0152191l.171112-.105711.1535621.3545639.1308269-.2957442.1288326.2957442.1300292-.2957442.0997157.2291092.008775.0193324h.0414817l.1076929-.2484416.1296303.2957442.1288326-.2957442.1304281.2957442.1543598-.3545639.1699154.105711-.0003988.0152191c0 .0468913.0215385.089258.0574362.1155829zm-.0853566-5.2032869v-.0045246l-.2736198.0016453v.002468c-1.1766445.0756842-2.0573331 1.105647-2.0573331 2.4227162 0 .5524122.2776084 1.2516681.8248478 2.0788467l.0598294.0909033c.1555564.2361017.2919674.4442332.4459283.611232-.0776688.0463739-.1254583.1319453-.125376.2244975.0000822.0925523.0480237.1780332.1257749.2242602-.03088.1138739.0166509.2348933.1156702.2945102-.0207953.0797299-.0042927.1649005.0446162.2302673.048909.0653669.1246128.10343.2046729.1029076h.089744c.0215386.0723935.0777782.1377945.1148725.174814.0446726.0452459.1356132.1221641.2285482.1221641h.1292315c.086952 0 .1727075-.0662237.2301437-.1229868.0438749-.0444233.0941315-.106945.1136758-.1739913h.090143c.1427928 0 .2592606-.1172282.2592606-.2611927-.0001403-.024244-.0036322-.0483436-.0103704-.0715709.1002564-.0593411.1483217-.181562.1164679-.2961554.077322-.0464066.1248875-.1317083.1248875-.2239676s-.0475655-.177561-.1248875-.2239676c.1531632-.1665874.2895742-.3747189.4463272-.6132886l.0586328-.0884353c.5472394-.8271786.8248478-1.5264345.8248478-2.0784354 0-1.3174805-.8798909-2.3474433-2.0565354-2.4227162z" fill="#fff"/><path d="m21.3890052 47.1654985c-1.5144643 0-2.7421802-1.2277158-2.7421802-2.7421801s1.2277159-2.7421801 2.7421802-2.7421801c1.5144642 0 2.7421801 1.2277158 2.7421801 2.7421801s-1.2277159 2.7421801-2.7421801 2.7421801" fill="#22b573"/><path d="m10.4202846 23.0343132c-1.51446431 0-2.74218019-1.2277158-2.74218019-2.7421801s1.22771588-2.7421802 2.74218019-2.7421802c1.5144642 0 2.7421801 1.2277159 2.7421801 2.7421802s-1.2277159 2.7421801-2.7421801 2.7421801" fill="#009245"/><path d="m8.22654044 66.9091956c-1.51446427 0-2.74218014-1.2277159-2.74218014-2.7421801 0-1.5144643 1.22771587-2.7421802 2.74218014-2.7421802 1.51446428 0 2.74218016 1.2277159 2.74218016 2.7421802 0 1.5144642-1.22771588 2.7421801-2.74218016 2.7421801" fill="#f7931e"/><path d="m31.2608537 73.490428c-1.5144643 0-2.7421802-1.2277159-2.7421802-2.7421802s1.2277159-2.7421801 2.7421802-2.7421801 2.7421801 1.2277158 2.7421801 2.7421801-1.2277158 2.7421802-2.7421801 2.7421802" fill="#1b1464"/><path d="m44.4233184 91.0403809c-1.5144643 0-2.7421801-1.2277159-2.7421801-2.7421801 0-1.5144643 1.2277158-2.7421802 2.7421801-2.7421802s2.7421801 1.2277159 2.7421801 2.7421802c0 1.5144642-1.2277158 2.7421801-2.7421801 2.7421801" fill="#fbb03b"/><path d="m67.4576316 85.5560206c-1.5144642 0-2.7421801-1.2277158-2.7421801-2.7421801s1.2277159-2.7421802 2.7421801-2.7421802c1.5144643 0 2.7421802 1.2277159 2.7421802 2.7421802s-1.2277159 2.7421801-2.7421802 2.7421801" fill="#006837"/><path d="m79.5232243 66.9091956c-1.5144643 0-2.7421802-1.2277159-2.7421802-2.7421801 0-1.5144643 1.2277159-2.7421802 2.7421802-2.7421802s2.7421801 1.2277159 2.7421801 2.7421802c0 1.5144642-1.2277158 2.7421801-2.7421801 2.7421801" fill="#2e3192"/><path d="m82.8138405 32.9061618c-1.5144643 0-2.7421802-1.2277159-2.7421802-2.7421802 0-1.5144642 1.2277159-2.7421801 2.7421802-2.7421801s2.7421801 1.2277159 2.7421801 2.7421801c0 1.5144643-1.2277158 2.7421802-2.7421801 2.7421802" fill="#ed1e79"/><path d="m67.4576316 52.6498588c-1.5144642 0-2.7421801-1.2277158-2.7421801-2.7421801s1.2277159-2.7421802 2.7421801-2.7421802c1.5144643 0 2.7421802 1.2277159 2.7421802 2.7421802s-1.2277159 2.7421801-2.7421802 2.7421801" fill="#9e005d"/><path d="m32.3577257 20.8405691c-1.5144642 0-2.7421801-1.2277158-2.7421801-2.7421801s1.2277159-2.7421802 2.7421801-2.7421802c1.5144643 0 2.7421802 1.2277159 2.7421802 2.7421802s-1.2277159 2.7421801-2.7421802 2.7421801" fill="#c1272d"/><path d="m64.1670155 9.87184853c-1.5144643 0-2.7421802-1.22771587-2.7421802-2.74218014 0-1.51446428 1.2277159-2.74218015 2.7421802-2.74218015 1.5144642 0 2.7421801 1.22771587 2.7421801 2.74218015 0 1.51446427-1.2277159 2.74218014-2.7421801 2.74218014" fill="#fbb03b"/><path d="m36.745214 5.4843603c-1.5144643 0-2.7421802-1.22771587-2.7421802-2.74218015s1.2277159-2.74218015 2.7421802-2.74218015 2.7421801 1.22771587 2.7421801 2.74218015-1.2277158 2.74218015-2.7421801 2.74218015" fill="#662d91"/><g transform="translate(0 12.065593)"><path d="m10.3193392 0c3.9080546 0 7.0760025 3.18728624 7.0760025 7.11910166 0 3.93140764-3.1679479 7.11828614-7.0764078 7.11828614-3.90845986 0-7.07640783-3.1868785-7.07640783-7.11828614 0-3.93181542 3.16794797-7.11910166 7.07681313-7.11910166z" fill="#3b5998"/><path d="m11.1806352 4.90100813h.9119605v-1.35532038h-1.0720602v.00489285c-1.29903703.04607437-1.56532949.78081785-1.5888378 1.55225773h-.00243189v.67684472h-.88520962v1.32718648h.8848043v3.55751217h1.33308351v-3.55751217h1.0919207l.2107642-1.32718648h-1.3022796v-.408961c0-.26095218.1722592-.46971392.4174753-.46971392z" fill="#fff"/><g transform="translate(0 44.443418)"><ellipse cx="7.042767" cy="7.084444" fill="#55acee" rx="7.042361" ry="7.084444"/><path d="m11.3565422 5.09142167c-.3073015.13693083-.6332947.22668172-.9670834.26625277.3516265-.21146125.6148173-.54433574.7405119-.93657368-.3305014.19733538-.6921246.33634011-1.0692229.41099968-.52115621-.56032944-1.35167243-.69819077-2.02414856-.33599802s-1.01888394 1.13394029-.84427111 1.88091648c-1.35362532-.06822221-2.6147836-.71146219-3.46950289-1.76958197-.44778401.77364753-.21958344 1.76425729.52083075 2.26090599-.26747328-.00823111-.52907277-.08094344-.76280426-.21202364v.02120236c.00028824.80613695.5650721 1.50047748 1.35051211 1.66030825-.24787648.06824537-.50802537.07828942-.76037236.02935712.22056015.6897627.8524862 1.1622795 1.57262514 1.17591576-.70525112.55737813-1.60191481.80969193-2.4922866.70130903.76956276.4977047 1.66536213.7618502 2.58024012.7608387 3.0966124 0 4.78961636-2.58016473 4.78961636-4.81823741 0-.0733928-.0016213-.1467856-.0048638-.21895519.3297522-.2395231.6142986-.53640223.8402195-.87663623z" fill="#f1f2f2"/></g><path d="m69.0901242 63.6070939c3.9080545 0 7.0760025 3.1872862 7.0760025 7.1191016 0 3.931-3.167948 7.1182862-7.0764078 7.1182862-3.9084599 0-7.0764078-3.1872862-7.0764078-7.1182862 0-3.9309999 3.1679479-7.1191016 7.0768131-7.1191016z" fill="#0e76a8"/><path d="m66.0008075 73.3883155h1.3253825v-4.4431186h-1.3253825zm5.1625068-4.5968357c-.6432361 0-1.2187845.2364879-1.6269375.7575768v-.6185383h-1.3294356v4.4577972h1.3294356v-2.4105458c0-.5096722.4640866-1.0062968 1.0453094-1.0062968s.7242992.4966246.7242992.993657v2.4227779h1.3253826v-2.5218582c0-1.7516415-.8248176-2.0745698-1.4680537-2.0745698zm-4.5058953-.2903093c.3665539-.0002252.6635231-.2993341.6632993-.6680784-.0002239-.3687443-.297556-.6674881-.6641099-.6672629s-.6635231.2993341-.6632993.6680784c.0002239.3687443.297556.667488.6641099.6672629z" fill="#fff"/><g transform="translate(76.199363 10.193445)"><ellipse cx="7.09181" cy="7.134188" fill="#d42428" rx="7.09181" ry="7.134188"/><path d="m12.1067817 2.08884065c2.7695226 2.78648 2.7695226 7.30380688 0 10.09028685-2.76992789 2.7860723-7.26082649 2.7860723-10.03034907 0l10.02994377-10.09028685z" fill="#cc202d"/><path d="m14.0758057 8.36881796-4.77259309-4.80152011-.38504998.38735089-.38504997-.38735089-.4219337.42445503.28331571.28541644-.09241199.09296422-.73524278-.73963634-.03120932.03180355-.98978108-.99569566-.4219337.42404729.11510967.11661301-.16942199.17043439-.71376105-.71802623-.2958805.29764858.69592716 1.68599572-.3137144 1.29456746.85724283.8623654-2.16762868.15249393-.03242526 3.78339886 3.48733679 3.512661c3.26806093-.233226 5.93625463-2.6922926 6.48951063-5.8795788z" fill="#ba202e"/><path d="m9.62868116 8.78878787h-.45760149l.00243189-.26747598c0-.1186517.09687047-.21610102.21522267-.21610102h.02958805c.1183522 0 .21562798.09744932.21562798.21610102zm-1.71529629-.57287158c-.11592031 0-.2107642.07869339-.2107642.17451177v1.29946031c0 .09581838.09484389.17410403.2107642.17410403.11632562 0 .21116951-.07828565.21116951-.17410403v-1.29946031c0-.09581838-.09484389-.17451177-.21116951-.17451177zm2.78532993-.72658873v2.47170643c0 .59325851-.5111032 1.07805871-1.13610011 1.07805871h-4.6708588c-.62540222 0-1.13610007-.485208-1.13610007-1.07805871v-2.47170643c0-.59325847.51069785-1.07846643 1.13610007-1.07846643h4.6708588c.62499691 0 1.13610011.48520796 1.13610011 1.07846643zm-5.49567641 2.73999794v-2.60381352h.57879091v-.38571994l-1.54344241-.00203869v.37919614l.48192043.00122321v2.6111528zm1.7359674-2.21564715h-.48313639v1.39038584c0 .20101472.01215947.30172595-.00040531.33719914-.03931563.10764277-.2160333.22221709-.28453167.0118244-.01175415-.03710414-.00162126-.14841656-.00162126-.33964558l-.00243189-1.3997638h-.47989386l.00162126 1.37774596c0 .21120817-.00486379.36859496.00162126.44035681.01215948.12639871.00729569.27399978.12443194.35758608.21684393.1577945.63310322-.0232411.73767468-.24831236l-.00121595.28704736.38748187.0008155v-2.21523935zm1.54425304 1.59221604-.00081064-1.15756756c-.00040531-.44117228-.32830576-.70538637-.77415309-.34820807l.00202657-.86032672-.48232575.00040774-.00202658 2.96996202.39639881-.0061161.03607311-.1851129c.5066447.4684907.8256282.147601.82481757-.41303841zm1.51101714-.15330941-.36194697.00163095-.00121595.04933627v.20346116c0 .10886598-.08916946.19734508-.19779409.19734508h-.07052494c-.10869976.00022661-.19712471-.08799761-.19779409-.19734508v-.53454423h.82887073v-.3139581c0-.22914863-.00567442-.458705-.02431895-.58958883-.05958141-.41507706-.63837232-.48113058-.9310103-.26829146-.09160136.06605352-.16172098.15494036-.20265787.27440753-.0409369.11946717-.061608.28215454-.061608.48928534v.68989232c.00040532 1.14696637 1.38536926.98468677 1.22040575-.00163095zm-1.85675149-3.74670247c.02431895.06116067.06322926.1100892.11592031.14800881.05850903.03854252.12750439.05778284.19738878.0550446.06625865.00120932.13111704-.01925158.18482398-.0583065.053907-.03873509.09889705-.09663385.13578078-.17410403l-.00932226.19082128h.53825932v-2.30249525h-.42396028v1.79200755c-.0045153.09476397-.0822058.1692623-.17651501.1692623-.09430922 0-.17199972-.07449833-.17651501-.1692623v-1.79200755h-.44179418v1.55266547c0 .19816056.00324253.32985987.00891695.39672886.00648505.06646126.02148173.13047609.04661131.19163676zm-1.63099061-1.30027578c0-.22099388.01864453-.39346696.05471763-.51782699.03647842-.12395228.10254489-.2234403.19779409-.29846405.0952492-.07583923.21724925-.11335111.36478418-.11335111.12443194 0 .23102998.02446427.32019945.07257733.08916947.0485208.15888378.11131241.20671104.18878259.04863789.07787792.08187378.15820226.09970767.23974982.01823921.08317851.02675084.208354.02675084.37715745v.58224955c0 .21365459-.00810631.37063364-.02472426.4705294-.01621263.09989575-.0514751.19285997-.10619273.27970811-.0495508.0822647-.12140074.14860323-.20711635.19122902-.08511631.04158926-.18239209.06197615-.29182734.06197615-.12281068 0-.2261662-.01712499-.31128251-.05300592-.08075547-.03162609-.15002752-.08723267-.19860472-.15942547-.05021324-.07846305-.08438441-.16620339-.10051831-.25809801-.02026578-.10071124-.02999336-.25198195-.02999336-.45381215v-.60997572zm.42152839.91496358c0 .13006835.09646515.23648791.21400672.23648791s.21360141-.10601182.21360141-.23648791v-1.22565977c0-.13047609-.09605984-.23648792-.21360141-.23648792s-.21400672.10601183-.21400672.23648792zm-1.48953541.61853821h.50786064l.00040532-1.76550459.59986732-1.51270717h-.55528259l-.3189835 1.12372532-.32344197-1.12657948h-.54920286l.63796701 1.51678454z" fill="#fff"/></g></g></g></g></svg>