<svg height="50" viewBox="0 0 50 50" width="50" xmlns="http://www.w3.org/2000/svg"><g fill="#fff" transform=""><path d="m26.4086207 31.6575c.8974138-.0675 1.7155172-.51 2.2465517-1.2158333l8.0715517-10.7866667c.2474138-.3308333.2103449-.7875-.0896551-1.0775-.3-.2891667-.7724138-.325-1.1146552-.0866667l-11.1603448 7.805c-.7275862.5116667-1.1853449 1.3025-1.2551724 2.17-.0698276.8675.2551724 1.7166667.8905172 2.3308334.5784483.56 1.3586207.87 2.1698276.87.0801724 0 .1603448-.0033334.2413793-.0091667zm-1.5827586-3.0616667c.0301724-.3808333.2318965-.7283333.5491379-.9516666l6.8077586-4.7608334-4.9232758 6.5791667c-.2327587.3091667-.5922414.5033333-.9862069.5333333-.3922414.025-.7775862-.1066666-1.0577587-.3775-.2775862-.2691666-.4206896-.6425-.3896551-1.0225z"/><path d="m45.7189655 16.3033333c-.0086207-.0175-.0086207-.0358333-.0181034-.0533333-.0103449-.0166667-.0267242-.0258333-.0379311-.0416667-.8715517-1.445-1.9025862-2.7891666-3.0732758-4.0075l1.8517241-1.7891666 1.2189655 1.1783333 3.6568966-3.53583333-3.6568966-3.535-3.6577586 3.535 1.2198276 1.17916666-1.8517241 1.78916667c-1.2603449-1.13166667-2.65-2.12916667-4.1456897-2.97166667-.0163793-.01083333-.0258621-.02666666-.0431034-.03666666-.0181035-.01-.037069-.00916667-.0551725-.01833334-2.6663793-1.485-5.6620689-2.47416666-8.8560344-2.83666666v-.9925h1.2931034c1.1887931 0 2.1551724-.93416667 2.1551724-2.08333334 0-1.14916666-.9672414-2.08333333-2.1560345-2.08333333h-7.7586207c-1.1887931 0-2.1551724.93416667-2.1551724 2.08333333 0 1.14916667.9663793 2.08333334 2.1551724 2.08333334h1.2931035v.96333333c-.9310345.09583333-1.8603448.2425-2.7793104.44583333-.4637931.1025-.7543103.55-.6474137.99833334.1060344.44833333.5689655.73 1.0327586.62583333.7931034-.17583333 1.5939655-.30833333 2.3965517-.3975l.925-.06916667c.2827586-.02083333.5431034-.03583333.7965517-.0475v1.6475c0 .46083334.3853449.83333334.862069.83333334s.862069-.3725.862069-.83333334v-1.64166666c3.2422413.14416666 6.2974137.98583333 9.0137931 2.37083333l-.85 1.4225c-.2379311.3991667-.0965518.9083333.3155172 1.1383333.1353448.0758334.2836207.1116667.4301724.1116667.2982759 0 .587931-.1491667.7474138-.4166667l.8474138-1.41916663c2.6974138 1.65416663 4.9887931 3.86916663 6.7 6.47666663l-1.4681034.8191667c-.4112069.23-.5525863.7391667-.3137932 1.1383333.1603449.2675.449138.4166667.7474138.4166667.1465518 0 .2948276-.0358333.4301725-.1116667l1.4715517-.8216666c1.4525862 2.6633333 2.325862 5.665 2.4560345 8.8491666h-1.7025862c-.4767242 0-.862069.3725-.862069.8333334 0 .4608333.3853448.8333333.862069.8333333h1.7025862c-.1301725 3.1841667-1.0034483 6.1858333-2.4560345 8.8491667l-1.4715517-.8216667c-.412069-.23-.9396552-.095-1.1775863.305-.237931.3991667-.0965517.9083333.3155173 1.1383333l1.4681034.8191667c-1.7112069 2.6075-4.0025862 4.8225-6.7 6.4766667l-.8474138-1.4191667c-.2387931-.4-.7672413-.5358333-1.1775862-.305-.412931.23-.5543103.74-.3155172 1.1383333l.85 1.4225c-2.7163793 1.385-5.7715517 2.2266667-9.0137931 2.3708334v-1.64c0-.4608334-.3853448-.8333334-.862069-.8333334-.4767241 0-.8620689.3725-.8620689.8333334v1.6466666c-1.3767242-.0458333-2.7577587-.2125-4.1172414-.5141666-.4637931-.1075-.9267242.1775-1.0327586.6258333-.1068966.4483333.1836207.8958333.6474138.9983333 1.7206896.3833334 3.4784482.5766667 5.2224137.5766667.0422414 0 .0827587-.0025.125-.0033333.0060345 0 .0103449.0033333.0155173.0033333.0068965 0 .012931-.0041667.0198276-.0041667 4.1439655-.0275 8.0318965-1.1091666 11.3956896-2.9775.0267242-.0116666.0551724-.0175.0810345-.0325.0172414-.01.0267242-.0258333.0431035-.0366666 3.4818965-1.9616667 6.3913793-4.7708334 8.425-8.1341667.0163793-.0225.0370689-.04.0517241-.065.0103448-.0175.0094828-.0358333.0181034-.0533333 1.9689656-3.3 3.1008621-7.1216667 3.1008621-11.1966667s-1.1318965-7.8966667-3.1-11.1966667zm-.0594827-9.42749997 1.2189655 1.17833334-1.2189655 1.17916666-1.2198276-1.17916666zm-20.8379311-1.85833333v-2.5175h-3.0172414c-.2370689 0-.4310344-.1875-.4310344-.41666667 0-.22916666.1939655-.41666666.4310344-.41666666h7.7586207c.237069 0 .4310345.1875.4310345.41666666 0 .22916667-.1939655.41666667-.4310345.41666667h-3.0172413v2.5175c-.3-.01166667-.5862069-.0175-.862069-.0175-.0241379 0-.0517241.00166667-.0758621.00166667-.0215517 0-.0431034-.00166667-.0646552-.00166667-.1413793 0-.2827586.00916667-.4241379.01166667-.1.0025-.1939655.00166666-.2974138.00583333z"/><path d="m17.925 11.6666667h-4.3103448c-.4767242 0-.862069.3725-.862069.8333333s.3853448.8333333.862069.8333333h4.3103448c.4767241 0 .862069-.3725.862069-.8333333s-.3853449-.8333333-.862069-.8333333z"/><path d="m17.925 17.5h-8.62068966c-.47672413 0-.86206896.3725-.86206896.8333333 0 .4608334.38534483.8333334.86206896.8333334h8.62068966c.4767241 0 .862069-.3725.862069-.8333334 0-.4608333-.3853449-.8333333-.862069-.8333333z"/><path d="m17.925 23.3333333h-12.93103448c-.47672414 0-.86206897.3725-.86206897.8333334 0 .4608333.38534483.8333333.86206897.8333333h12.93103448c.4767241 0 .862069-.3725.862069-.8333333 0-.4608334-.3853449-.8333334-.862069-.8333334z"/><path d="m17.925 29.1666667h-16.37931034c-.47672414 0-.86206897.3725-.86206897.8333333s.38534483.8333333.86206897.8333333h16.37931034c.4767241 0 .862069-.3725.862069-.8333333s-.3853449-.8333333-.862069-.8333333z"/><path d="m17.925 35h-11.20689655c-.47672414 0-.86206897.3725-.86206897.8333333 0 .4608334.38534483.8333334.86206897.8333334h11.20689655c.4767241 0 .862069-.3725.862069-.8333334 0-.4608333-.3853449-.8333333-.862069-.8333333z"/><path d="m17.925 40.8333333h-6.0344828c-.4767241 0-.8620689.3725-.8620689.8333334 0 .4608333.3853448.8333333.8620689.8333333h6.0344828c.4767241 0 .862069-.3725.862069-.8333333 0-.4608334-.3853449-.8333334-.862069-.8333334z"/></g></svg>