<svg height="24" viewBox="0 0 24 24" width="24" xmlns="http://www.w3.org/2000/svg"><path d="m12 24c-6.627 0-12-5.373-12-12s5.373-12 12-12 12 5.373 12 12-5.373 12-12 12zm-7.822-11.463c-.043 2.065 1.38 4.035 3.335 4.678 1.843.619 4.109.155 5.335-1.423.895-1.105 1.098-2.58 1.001-3.956-1.578-.015-3.156-.01-4.731-.008-.003.563 0 1.123.002 1.685.945.026 1.89.014 2.835.033-.239.817-.782 1.578-1.607 1.873-1.592.702-3.623-.215-4.124-1.885-.605-1.6.385-3.53 2.02-3.995 1.013-.356 2.057.045 2.924.572.44-.411.85-.85 1.255-1.295-.985-.824-2.252-1.33-3.553-1.219-2.554.031-4.789 2.389-4.692 4.94zm12.743-2.126c-.005.47-.01.943-.012 1.412-.472.005-.943.007-1.413.01v1.408c.47.002.943.004 1.413.01.005.47.005.94.01 1.412.467 0 .937-.002 1.407 0 .003-.473.005-.943.01-1.415l1.413-.007v-1.408c-.47-.002-.943-.005-1.413-.01l-.01-1.412z" fill="#fff"/></svg>