<svg height="19" viewBox="0 0 24 19" width="24" xmlns="http://www.w3.org/2000/svg"><g fill="#fff"><path d="m21.04.037h-18.11a2.933 2.933 0 0 0 -2.93 2.93v12.378a2.933 2.933 0 0 0 2.93 2.93h18.105a2.933 2.933 0 0 0 2.93-2.93v-12.372a2.93 2.93 0 0 0 -2.925-2.936zm1.591 15.308c0 .877-.714 1.591-1.591 1.591h-18.11a1.594 1.594 0 0 1 -1.591-1.591v-12.372c0-.878.714-1.592 1.592-1.592h18.104c.877 0 1.591.714 1.591 1.592v12.372z"/><path d="m15.114 9.002 5.861-5.256a.673.673 0 0 0 .05-.947.673.673 0 0 0 -.947-.05l-8.083 7.255-1.577-1.408c-.005-.005-.01-.01-.01-.015a.992.992 0 0 0 -.109-.094l-6.416-5.742a.669.669 0 0 0 -.947.054.669.669 0 0 0 .054.947l5.93 5.301-5.905 5.529a.672.672 0 0 0 .917.982l5.995-5.608 1.627 1.452a.669.669 0 0 0 .892-.004l1.671-1.498 5.96 5.663a.669.669 0 0 0 .923-.973l-5.885-5.589z"/></g></svg>