<svg height="100" viewBox="0 0 100 100" width="100" xmlns="http://www.w3.org/2000/svg"><g fill="none" stroke="#f5a623" stroke-width="2" transform="translate(7)"><path d="m75.204499 68.3231084c-10.5316974-4.0286299-16.8507158-8.1390593-16.8507158-8.1390593l-8.1186094 25.6850716-1.1042945 3.4764826-3.6400818-10.3067485c8.3640082-11.6564417-.6339468-12.208589-2.188139-12.2290388h-.0204499-.0204499-.0204499-.0204499c-1.5541922.0204498-10.5521472.5725971-2.1881391 12.2290388l-3.6400818 10.3067485-1.1042944-3.4764826-8.1186094-25.6850716s-6.3190185 4.1104294-16.8507158 8.1390593c-11.63599181 4.2126789-10.92024539 13.7627812-11.14519427 31.6768916h43.02658487.1022495 43.0265849c-.2453988-17.9141104.4703476-27.4642127-11.1247444-31.6768916z"/><path d="m43.5685072 21.1451943 4.7239263-4.7239264c-5.8077709-1.9631902-12.4744376-.6339468-17.0961145 3.9877301-6.4826176 6.4826175-6.4826176 17.0143149 0 23.4969325s17.0143149 6.4826176 23.4969325 0c4.6216769-4.6216769 5.9509203-11.2883436 3.9877301-17.0961145l-4.7239264 4.7239263c.1635992 3.0265849-.8997955 6.1145195-3.2106339 8.4253579-4.3149285 4.3149284-11.2883436 4.3149284-15.603272 0s-4.3149284-11.2883436 0-15.603272c2.3108384-2.3108384 5.398773-3.3742331 8.4253579-3.2106339z"/><path d="m62.7505112 51.9631902c9.1411043-9.1411043 10.6543968-23.0265849 4.4989776-33.7423313l-4.5194275 4.5194274c3.8650307 8.1390593 2.4335379 18.1799591-4.2944785 24.9079755-8.5685071 8.5685071-22.4335378 8.5685071-31.002045 0-8.5685071-8.5685072-8.5685071-22.4335379 0-31.002045 6.7484663-6.72801639 16.7689162-8.17995913 24.9079755-4.2944786l4.5194274-4.51942736c-10.6952965-6.13496933-24.601227-4.64212679-33.7423313 4.49897746-10.9406953 10.9406953-10.9406953 28.6707567 0 39.6319019 10.9611452 10.9406953 28.6912066 10.9406953 39.6319018 0z"/><path d="m44.4683027 26.6462168c-.4907976-.1431493-1.002045-.204499-1.5337424-.204499-3.1697341 0-5.7259713 2.5562372-5.7259713 5.7259714 0 3.1697341 2.5562372 5.7259713 5.7259713 5.7259713 3.1697342 0 5.7259714-2.5562372 5.7259714-5.7259713 0-.5316974-.0817996-1.0429448-.204499-1.5337424l15.9713702-15.9713701 2.5766871.3476482 8.0777096-8.07770956-6.1145194-.81799591-.8179959-6.11451943-8.0572598 8.07770961.3476483 2.57668709z"/></g></svg>