<svg height="60" viewBox="0 0 50 60" width="50" xmlns="http://www.w3.org/2000/svg"><g fill="#fff" transform=""><path d="m18.2382919 13.5792591c-1.5452773 0-2.80213 1.2568527-2.80213 2.80213 0 1.5453709 1.2568527 2.8026845 2.80213 2.8026845 1.545371 0 2.8031491-1.2573136 2.8031491-2.8026845-.0000001-1.5452773-1.2577781-2.80213-2.8031491-2.80213zm0 4.6788887c-1.0344434 0-1.876204-.8418508-1.876204-1.8767586 0-1.0344453.8417606-1.8762041 1.876204-1.8762041 1.0353707 0 1.8772232.8417589 1.8772232 1.8762041-.0000001 1.0349078-.8418525 1.8767586-1.8772232 1.8767586z"/><path d="m35.7802356 19.8835179c-.2703702-.7546284-.6880584-1.4418514-1.2432417-2.0431484-.1392612-.1500924-.3581471-.1962026-.5471265-.1166662l-1.1654642.4987046c-.3925005-.3001849-.8355564-.5429639-1.306668-.7156478l-.122035-1.173242c-.0217614-.2134252-.1817597-.3870363-.3924087-.4263877-.8192593-.1537041-1.6493515-.1537041-2.4686107 0-.2106489.0393514-.3706473.2124998-.3924087.4259251l-.1229603 1.1732401c-.4701862.1726857-.9141675.4159275-1.3065762.7161124l-.6224067-.2667604c.134076-.0673135.2337985-.1938891.2570364-.3494439.1202795-.8125005.1202795-1.6366658 0-2.4490745-.0324991-.2170369-.2106455-.3834257-.4294431-.4005548l-1.7171294-.134815c-.1329634-.458426-.3147232-.8974075-.5434266-1.3119442l1.1193523-1.3107415c.1420374-.1668515.1510179-.4104623.0199071-.5868515-.4891661-.65963-1.0714814-1.2419444-1.7306487-1.73111137-.1781482-.13111083-.4195355-.12296305-.5877778.02037065l-1.3101843 1.11944412c-.415092-.2297216-.8545381-.4119441-1.3111115-.5438885l-.1356477-1.71712941c-.0172227-.21888945-.1836106-.39694482-.4005556-.42907482-.8120378-.12203676-1.6366676-.12203676-2.4487036 0-.216945.03213-.383333.21018537-.4005556.42907482l-.1356477 1.71712941c-.4565751.1319444-.8960195.3141669-1.3111115.5438885l-1.310186-1.11944412c-.1682406-.14240741-.410555-.15055602-.5877778-.02037065-.6582402.48833337-1.2405555 1.07064857-1.7315741 1.73064867-.1311108.1768519-.1220368.4204627.0208343.5873142l1.1193523 1.3107415c-.2296307.4159256-.4113904.8549072-.5434266 1.3119442l-1.7171294.134815c-.2187968.0171291-.39694486.1830551-.42944486.400092-.12212944.8128714-.12212944 1.6370367 0 2.4499999.0325.2170368.21064816.3829638.42944486.4000929l1.7171294.1347224c.1320362.4571296.3137959.8961112.5434266 1.3120368l-1.1193523 1.3106487c-.1428711.1668507-.151945.4110178-.0208343.587315.4910186.660091 1.073334 1.2424063 1.7315741 1.7311097.1762973.1302789.4204627.1221303.5877778-.0202762l1.310186-1.1199087c.415092.2296307.8545363.4118513 1.3111115.5438893l.1356477 1.7171294c.0172227.2187959.1836106.396944.4005556.429074.406018.0610193.8156476.0912967 1.2243518.0912967.4087043 0 .8183338-.0302774 1.2243519-.0912967.216945-.03213.383333-.2102781.4005555-.429074l.1356478-1.7171294c.4565734-.132038.8960195-.3142586 1.3111115-.5438893l1.3101843 1.1199087c.0763893.0652772.1707413.0944438.2653704.1032405-.704352-.1455555-1.4216652-.1783336-2.136204-.0815744-.197128.0266658-.3535182.1781481-.3861109.373888l-.1962026 1.1872222c-.4792602.1464825-.936759.3680564-1.3454631.651575l-1.1203713-.5678707c-.1717585-.085926-.3806468-.0551859-.5199061.0795365-.5750939.5619455-1.0253712 1.2202792-1.3373146 1.9567595-.07963.1875931-.0225932.4055553.1374069.5312037l.9674991.7573146c-.1039806.4670373-.1337952.9503717-.0867579 1.4250931l-1.0561113.6428701c-.1736111.1057413-.2550002.3141686-.1989824.5095376.2179641.764536.5849997 1.4698134 1.0896294 2.0963881.1220368.1514823.3254644.2057428.5081495.1406492l1.1818515-.4362954c.3707409.3273152.7965741.5981481 1.2532411.7984233l.0497217 1.1985214c.0081486.1999042.1474081.3707391.3409262.4191646.5144437.1292581 1.0379633.1939809 1.564259.1939809.2821286 0 .5660181-.0186107.8490739-.0561114.1971298-.0262013.3544436-.1776836.3870364-.3738862l.195279-1.1872221c.4801839-.1469471.936759-.3680582 1.3454631-.6514831l1.1203696.5677788c.1726856.0863887.3806467.0561113.5199078-.0795365.5750939-.5619473 1.0253695-1.220742 1.3373128-1.9572223.0796318-.1875948.0226869-.4055552-.1374068-.5312037l-.9674991-.7568536c.1057413-.4701843.1347224-.947592.0867596-1.4249996l1.0562049-.6429637c.1736111-.1057395.2549984-.314165.1988871-.5095358-.1966653-.6894448-.5197208-1.3262043-.9478711-1.9025009l.2172224-.0930556c.3925005.3001849.8355564.5434266 1.3057425.716575l.1229604 1.1723147c.0217614.2129625.1817597.3861109.3915752.4259251.409536.0773147.8227772.1161116 1.2350931.1161116.4124075 0 .8256488-.0387969 1.2351848-.1161116.2098153-.0398142.3698137-.2129625.3915752-.4263878l.122035-1.171852c.4701862-.1731484.9141675-.4163901 1.306668-.716575l1.1654642.4986109c.1889793.0804636.4078653.0343517.5471265-.1165743.5551832-.6004616.9728713-1.2881474 1.2432416-2.0436111.0741641-.2079627-.001759-.439907-.1835187-.564259l-1.013611-.6889803c.0732386-.4598158.0732386-.9313901 0-1.3915751l1.013611-.6890739c.1826848-.1242582.2576824-.3562043.1835184-.564167zm-11.9362019-.211389-.1866676-.2186104c.2287034-.4145375.4104632-.8540736.5434266-1.3120368l.5875004-.046112c-.3978712.4783347-.7140742 1.0063896-.9442594 1.5767592zm-2.3188892 1.3348155c-.1563901-.1328698-.3825011-.1487043-.556944-.0411104-.5118529.3210174-1.0706496.5529616-1.6611117.6889803-.2007414.0462038-.3481477.2170368-.3643513.4223152l-.1311126 1.668704c-.4756468.0462038-.954907.0462038-1.4305556 0l-.1311109-1.668704c-.0162036-.2052784-.1636116-.3761114-.3643513-.4223152-.5904639-.1360187-1.1492588-.3679629-1.6611116-.6889803-.1744448-.1085194-.4005556-.0926866-.5569441.0411104l-1.2731482 1.0877787c-.3680564-.3033338-.7071301-.6419447-1.0118519-1.0112975l1.0877786-1.2731481c.1337952-.1564803.1510179-.3820367.0415732-.5565731-.3209256-.5122221-.5524071-1.0711123-.6889821-1.6614826-.0461102-.2007397-.2170368-.3481477-.4223135-.3644432l-1.6682413-.1311126c-.0470373-.4756468-.0470373-.9544443 0-1.4299993l1.6682413-.1311109c.2052767-.0162972.3762033-.1637035.4223135-.3644449.136575-.590463.3680565-1.1492588.6889821-1.6614816.1094447-.1745366.092222-.4001848-.0415732-.5570368l-1.0877786-1.2726855c.3047219-.3693518.6428701-.7079627 1.0118519-1.0113884l1.2731482 1.0877777c.1573139.1337961.3842583.1496297.5569441.0412031.5118528-.3210182 1.0706477-.5529624 1.6611116-.6890738.2007397-.0461111.3481477-.2170369.3643513-.4222225l.131111-1.66879569c.4756486-.04611102.9549087-.04611102 1.4305556 0l.1311126 1.66879579c.0162036.2051857.1636099.3761115.3643513.4222225.5904621.1361114 1.1492588.3680556 1.6611117.6890739.1736111.107593.3996284.0917594.556944-.0412031l1.2731482-1.0877777c.3689818.3037956.7071283.6420365 1.0109248 1.0109256l-1.0877769 1.2736109c-.1328698.1563893-.1500924.3820375-.0406476.5565741.3200919.5100002.5515734 1.0692596.6889802 1.6624071.046112.2002787.2170369.3472222.4223153.3635194l1.6682395.1311109c.046112.475555.046112.9543525 0 1.4299993l-1.6682395.1311126c-.2052784.0162955-.3762033.1632407-.4223153.3635177-.1374068.5931483-.3688883 1.1524077-.6889802 1.662408-.1094448.1745365-.0922221.4000928.0406476.5565731l1.0877769 1.2731481c-.3037965.3693528-.6419429.7079638-1.0109248 1.0117602zm1.5408323 2.0756475c.6591673-.4891661 1.2414826-1.0714814 1.7306487-1.7315741.0586121-.0788884.07963-.1726839.0827771-.2655542l.0754639.0512953c-.0732405.4601849-.0732405.9317592 0 1.3915751l-1.0145364.6889803c-.1835187.124352-.2586118.3562963-.1844459.5647235.2364829.660091.5920375 1.2632405 1.0459264 1.8048145l-.1371296.0506471c-.3716663-.3273151-.7975931-.598148-1.2533329-.7979622l-.0497217-1.1985178c-.0081486-.1999078-.1474081-.3702782-.3408344-.4191682-.0807409-.020278-.1623153-.0320364-.2435189-.0494444.1008333.0015753.2027775-.0262949.2887037-.0898149zm2.4015744 4.8905566c-.1573139.0962964-.2404637.278888-.2097236.4611104.0922238.5452774.0587993 1.0923156-.0994435 1.6258345-.0534235.1776836.0080567.3698137.153704.4841663l.9195363.719353c-.2051848.4064807-.4629629.7821295-.7703675 1.1212031l-1.0714831-.5429656c-.1591665-.0795365-.3462968-.0614802-.4847226.0487963-.4475929.3540745-.9602776.6012987-1.5236113.7356503-.1762955.0420358-.311018.1858323-.3408326.3652784l-.1862967 1.1329616c-.4747214.0339826-.95037.0081486-1.4187037-.0804619l-.0470373-1.1429645c-.0081486-.183056-.1248148-.3431461-.2975004-.4059262-.5343508-.193981-1.0253695-.5059243-1.4214798-.9020347-.1237975-.1242601-.3083336-.1640743-.4755568-.1048158l-1.1294435.416851c-.2639823-.3721307-.473796-.7731473-.6265747-1.1976842l1.0037034-.6112982c.158241-.0962964.2413891-.2793489.2097218-.462034-.0931475-.5443538-.0596293-1.0909275.0995372-1.6244464.0533333-.1776855-.0073133-.3702782-.1537959-.4846291l-.9195363-.719353c.2052767-.4063889.462963-.781665.7703693-1.1207404l1.0714814.5429639c.1574075.0782402.3454632.0601839.4847226-.0487963.4412033-.3490748.9684262-.6036122 1.5226858-.7356485.1772227-.0415749.3119433-.1857404.3417598-.3652784l.1872221-1.133426c.4774059-.0348145.9485175-.0076842 1.4177764.0804636l.0470374 1.1434254c.0081486.1830561.1248148.3436125.2975004.4059263.533519.1930554 1.0245376.5050924 1.4214816.9020381.1247212.1247212.3119433.1659252.475555.1048141l1.1302771-.417222c.2631506.37111.4729624.7721283.625741 1.1980551zm8.3044441-7.4580563c-.1663879.1134255-.2450908.3178703-.1980534.5140747.1257401.5257412.1257401 1.0813889 0 1.6067593-.0470374.1957399.0316655.4005556.1980534.5140746l.956666.6500915c-.1762991.3970376-.4041671.7686121-.6826825 1.1108328l-1.1103701-.4750923c-.1709267-.0732405-.3680582-.0412022-.5100003.0809263-.4240742.3707409-.9403723.6527777-1.494722.8160185-.1880575.0556487-.3246308.219723-.3444459.415092l-.1166662 1.1125935c-.4665763.0578704-.9359254.0578704-1.4025017 0l-.1165744-1.1130562c-.019907-.195369-.1564802-.3589807-.3445342-.4146294-.5542614-.1632407-1.0706478-.4452776-1.4947221-.8160185-.1419455-.1229621-.3381481-.1541668-.5099084-.0809263l-1.1095365.4755567c-.2785188-.3417598-.507224-.7138888-.684445-1.1112972l.9574997-.6500915c.1673133-.1130563.2460197-.3178702.1989824-.5140746-.1257402-.5253704-.1257402-1.081018 0-1.6067593.0470373-.1962044-.0316691-.4010183-.1989824-.5140747l-.9574997-.6501851c.177221-.3969439.4068516-.7685184.684445-1.1103701l1.1095365.475186c.1726857.0741658.3706473.0411104.5099084-.0809263.4240743-.370741.9404607-.6528713 1.4937931-.8151849.188983-.0550923.3255561-.2192603.3454632-.4145375l.1165744-1.1139817c.4665763-.0570368.9359254-.0570368 1.4025017 0l.1166662 1.113519c.0198152.1957399.1563884.3599079.3453714.4150002.5534242.1623136 1.0697223.4444439 1.4937965.8151849.1392577.1220367.3372193.1550921.5100003.0809263l1.1103701-.4751859c.2775899.3426852.5063834.7143515.6826825 1.1103701z"/><path d="m49.1057891 30.6866681c-.0171309-.2106489-.1075886-.4091687-.2531476-.5619473-.0334246-.0348127-3.2054619-3.3569424-5.1775897-6.1772205 1.0154618-3.6598153.5931465-6.9833332.2134217-8.7497217.5487972-.0365752 1.1266673-.1930572 1.5253703-.6130563.2432434-.2562965.6122236-.8264816.3490766-1.7659258-2.5020387-8.90935215-8.0159258-9.51611131-9.4690747-9.51611131-.0072232 0-.0144463 0-.0207406 0-1.1845377-.66592584-6.3549042-3.29907408-13.48472-3.30268519-7.1442586.01814815-21.89851862 4.58583343-21.89851862 18.5899999 0 7.9436108 2.52731463 12.0464802 4.75712972 15.6661122 1.6719438 2.7153686 3.11685139 5.0609235 2.97222223 8.5833338-.26768574 6.5000922-5.33499982 14.9292593-5.38648149 15.0137937-.17277842.2857421-.17907444.6428719-.01453731.9345373.16370343.2911108.47203694.4714824.80657444.4714824h27.59879423c.2865756 0 .5569459-.1333343.7324078-.360277.1753701-.2269462.2360203-.5226877.1637035-.8002776-.339999-1.2988903-.9359253-5.0437044.3625941-6.7526853.4601867-.604075 1.1356495-.9047225 2.0679615-.9187063 4.0553729-.0624056 6.5257426-.7410155 7.7753703-2.1358312 1.2008314-1.3404635 1.0425921-3.0011107.9033309-4.4659262-.0524062-.550648-.1022197-1.0774082-.0813873-1.5566684.5868523-.4760177.9187027-.9778693 1.0127774-1.5253703.1021315-.5986107-.1058332-1.086016-.3310169-1.4481474 1.0290747-.3110179 1.465741-.9083324 1.6502769-1.3712953.4104614-1.0285201-.0217614-2.1827769-.682686-3.3320357 3.9957436-1.3685191 3.9324089-3.630465 3.9088886-3.9053705zm-5.5609245 2.4599994c-.2912062.0718506-.5299074.2807406-.6393539.5601847-.1102765.2793524-.077682.5949056.0868515.8458314.3445378.5253721 1.3915769 2.123151 1.167315 2.684632-.0505553.1266657-.2712038.2441654-.604905.3228683-.3544454.0831498-1.1836122.2789815-1.4449084.9896314-.2369457.642501.1491653 1.1687031.3797213 1.4834263.0832417.1134237.2387047.3250934.2450943.3983321 0 0-.0479628.2047221-.5940756.5773156-.2151843.1474063-.3589807.378425-.394256.6370367-.1094465.7866683-.0334281 1.5837034.0388887 2.3545371.1184252 1.2442589.2206449 2.31852-.439446 3.0558339-.8562972.9558324-3.0174079 1.4666663-6.4245366 1.5191644-1.4955556.022595-2.7117588.5940755-3.5147208 1.652873-1.536295 2.0232412-1.2261106 5.4045359-.9213905 7.179073h-24.86796112c1.50999935-2.7700918 4.63046232-9.1013873 4.85203622-14.491943.1681487-4.0880557-1.49018501-6.7803701-3.24620316-9.6304647-2.10046324-3.4102757-4.48129621-7.2758339-4.48129621-14.6949997 0-12.60851852 13.50907387-16.72138889 20.05203737-16.73814815h.0678699c7.3911101 0 12.6437928 3.1449075 12.6962025 3.17657389.1717568.10444454.3724982.14916704.5760158.1311112.0442611-.01037037 5.4280564-.45074092 7.845928 8.15972226l.0009255.004537c-.2450943.0497226-.7324078.0298147-1.1149053-.053796-.3273187-.0755558-.6682431.0361107-.8906505.2848148-.2242583.2490742-.2957415.6003698-.1881494.9173146.0153719.0443521 1.4875023 4.4903702-.0089787 9.3655551-.0823162.2667604-.0388887.5564813.1166662.7879628 1.6881484 2.5114819 4.3547207 5.4294444 5.2887952 6.4281499-.2016669.4584242-.9412979 1.4264813-3.6386103 2.0928701z"/></g></svg>