<svg height="24" viewBox="0 0 24 24" width="24" xmlns="http://www.w3.org/2000/svg"><path d="m10.115 13.201c0 .693-.551 1.255-1.232 1.255-.68 0-1.232-.561-1.232-1.255 0-.693.551-1.255 1.232-1.255.68 0 1.232.562 1.232 1.255zm5.002-1.255c-.68 0-1.232.562-1.232 1.255 0 .694.552 1.255 1.232 1.255s1.232-.561 1.232-1.255c0-.693-.551-1.255-1.232-1.255zm8.883.556v2.385c0 1.198-.953 2.169-2.129 2.169h-1.545c-1.53 4.329-5.44 6.944-8.326 6.944s-6.795-2.615-8.326-6.944h-1.545c-1.176 0-2.129-.971-2.129-2.169v-2.385c0-.825.451-1.541 1.116-1.908.022-3.387.991-6.032 2.885-7.86 1.877-1.814 4.569-2.734 7.999-2.734s6.122.92 8 2.733c1.893 1.829 2.862 4.474 2.884 7.86a2.174 2.174 0 0 1 1.116 1.91zm-4.506.707c0-.558-.028-1.082-.07-1.59-.944-.88-2.66-1.549-4.824-1.797.284.326.53.754.678 1.318-1.325-1.065-3.928-.811-5.897-3.192a6.329 6.329 0 0 1 -.295-.376c0-.002-.002-.003-.003-.004-.35-.483-.47-.77-.476-.452-.058 2.737-1.962 4.87-4.077 5.171-.013.301-.024.605-.024.922 0 1.157.185 2.211.5 3.161 1.189 1.46 3.15 1.872 4.887 1.981.322-.522 1.045-.887 1.887-.887 1.142 0 2.068.67 2.068 1.495 0 .826-.926 1.495-2.068 1.495-.878 0-1.627-.397-1.926-.955-1.214-.072-2.548-.283-3.736-.855 1.671 2.51 4.263 3.838 5.882 3.838 2.543 0 7.494-3.273 7.494-9.273zm2.108-2.876c-.135-5.91-3.447-9.032-9.602-9.032s-9.467 3.122-9.602 9.032h.819c.3-1.992.932-3.63 1.893-4.89 1.532-2.007 3.85-3.025 6.89-3.025s5.358 1.018 6.89 3.025c.96 1.26 1.594 2.898 1.893 4.89h.82z" fill="#fff"/></svg>