<svg height="26" viewBox="0 0 27 26" width="27" xmlns="http://www.w3.org/2000/svg"><g fill="none" fill-rule="evenodd" stroke="#194b86" stroke-width=".5" transform="translate(1 1)"><path d="m23.5894531 18.8050334 1.3964356-7.4001567c.0790039-.4187012-.1827637-.8247884-.584668-.907135-.4023437-.082194-.7917969.1904805-.8708496.60908l-1.2788086 6.7765808h-1.8859863c.2700195-.0645447.520166-.2059428.7202636-.4122925.2836915-.2925618.4437989-.6907145.4448731-1.1065674l.013916-5.3012593c.0022949-.8691915-.6772949-1.57348634-1.5112793-1.5672811l-1.3802734.01027425c-.8335938.00620524-1.5026856.71975705-1.4895996 1.58762615l.0181152 1.196696 1.3174316-1.5263876-1.3555175 2.5308228h-3.0816407c-.4949218 0-.8960449.4178873-.8960449.933431 0 .5155436.4011719.933431.8960449.933431h3.6077637c.3248535 0 .6242188-.1831564.7824707-.4786683l1.3936524-2.6020304c-.2042481 1.0010783-.4972657 1.9701131-.8354981 2.8825887-.146875.3962199-.4802734.7009888-.9393555.7767232l-3.3091308-.0100708c-.3523926-.0026957-.6881836.1783244-.8915039.4890442-.2009278.306956-.2427246.6976827-.1114258 1.0431417l2.4408203 6.4252218c.2186523.5756124.8436035.8568827 1.395459.6293742.5521973-.2276103.8227051-.8784485.6041992-1.4536032l-.310791-.8181762.9687988-2.6166789h2.8167481l1.7152343 4.6328735c.0984375.265859.3850098.3974406.6392579.2952576.2548339-.1023865.3816894-.4005432.2834472-.6658936l-1.5779785-4.2622884h.1276856c.3544921-.0001017.6594238-.261383.7277343-.6236775zm-6.2377441 1.8271891-1.0093262-2.6570129.9711914.00295c-.2297363.1312764-.3855957.3855387-.3855957.6777445 0 .4266866.3320801.7726034.7416992.7726034h.1276856z"/><ellipse cx="18.176758" cy="6.73116" rx="1.977637" ry="2.060038"/><path d="m7.33041992 15.1616923h3.60776368c.4949219 0 .8960449-.4178874.8960449-.933431s-.4011719-.9332784-.8960449-.9332784h-3.0815918l-1.35561524-2.5307719 1.31738281 1.5263367.01811524-1.196696c.01313476-.8682759-.65634766-1.58142087-1.48959961-1.58762611l-1.38027344-.01027426c-.83442383-.00620524-1.51357422.69859827-1.51127929 1.56728107l.01391601 5.3012594c.00112305.4158528.16123047.8140055.44492188 1.1065674.20014648.2063497.45024414.3477478.72026367.4122924h-1.88598633l-1.27880859-6.7765808c-.07895508-.418752-.46894532-.6913248-.87084961-.60908-.40195313.0822958-.66376953.4884339-.58466797.907135l1.39648437 7.4001567c.06831055.3622945.37329102.6236267.72778321.6236267h.12763671l-1.57802734 4.2621358c-.09824219.2654521.02866211.563558.2834961.6658936.25439453.1022339.54091796-.0295512.63920898-.2952067l1.71523437-4.6328736h2.81674805l.96884766 2.6166281-.31079102.8181762c-.21850586.5752055.05195313 1.2259929.60419922 1.4536031.5519043.2275594 1.17685547-.0539652 1.39545898-.6293741l2.44082028-6.4252218c.13125-.3454081.089502-.7361349-.1114257-1.0431417-.1993653-.3045654-.5328125-.4890442-.8883301-.4890442-.0010254 0-.0020996 0-.0031739 0-3.51743159.0106812-3.29545893.0121562-3.3308105.006307-.4305664-.0712586-.77026367-.3782145-.91777343-.7729594l-.83549805-2.8825887 1.39375 2.6020813c.15820312.2955627.45761719.4786682.7824707.4786682zm0 4.2669169c.40961914 0 .74169922-.3459167.74169922-.7726542 0-.2922567-.15585937-.546519-.3855957-.6777446l.9711914-.00295-1.009375 2.6570638-.44570312-1.203715z"/><ellipse cx="6.823486" cy="6.73116" rx="1.977637" ry="2.060038"/><path d="m12.0226563.01795451c-1.9561036 0-3.54184575 1.18942261-3.54184575 2.65670776 0 .78898112.45893554 1.49724325 1.18696289 1.98384603l-.4909668 1.02132162c-.05009766.10421752-.02875976.23030598.05244141.31036376s.20327148.0954183.30039062.03758749l1.39184573-.82799276c.3466797.08499146.7165527.13158163 1.1010742.13158163 1.9562012 0 3.5418945-1.18947347 3.5418945-2.65670777.0000489-1.46728515-1.5856445-2.65670776-3.5417968-2.65670776z"/></g></svg>