<svg height="50" viewBox="0 0 50 50" width="50" xmlns="http://www.w3.org/2000/svg"><g fill="#fff" transform=""><path d="m49.21875 29.0964286-2.5446429-2.5446429c-1.0392857-1.0392857-2.7294642-1.0375-3.76875 0l-13.7410714 13.7419643-1.89375 6.9455357-.4633928.4633929c-.3464286.3464285-.3473215.9053571-.0053572 1.2544643l-.0044643.0178571.0169643-.0044643c.1732143.1696429.3982143.2571429.6241072.2571429.2285714 0 .4571428-.0875.63125-.2616072l.4642857-.4642857 6.9446428-1.89375 13.7410715-13.7419643c1.0392857-1.0392857 1.0392857-2.7303571-.0008929-3.7696428zm-17.9928571 11.6616071 9.1455357-9.1446428 3.7883928 3.7875-9.1455357 9.1455357zm-.80625 1.71875 2.875 2.875-3.9535715 1.0785714zm17.5366071-10.8732143-2.5348214 2.5348215-3.7883929-3.7875 2.5348214-2.5348215c.34375-.34375.9017858-.3428571 1.2446429-.0008928l2.5446429 2.5446428c.3428571.3419643.3428571.9008929-.0008929 1.24375z"/><path d="m24.1071429 11.4866071c-.4928572 0-.8928572.3991072-.8928572.8928572s.4.8928571.8928572.8928571h16.0714285c.4928572 0 .8928572-.3991071.8928572-.8928571s-.4-.8928572-.8928572-.8928572z"/><path d="m41.0714286 24.8794643c0-.49375-.4-.8928572-.8928572-.8928572h-16.0714285c-.4928572 0-.8928572.3991072-.8928572.8928572s.4.8928571.8928572.8928571h16.0714285c.4928572 0 .8928572-.4.8928572-.8928571z"/><path d="m18.375 7.2375c-.3732143-.32142857-.9375-.27946429-1.2589286.09642857l-5.5785714 6.50714283-3.4125-2.5589285c-.39464286-.2946429-.95357143-.2160715-1.25.1785714-.29642857.39375-.21607143.9535714.17857143 1.2491071l4.08124997 3.0616072c.1607143.1205357.3482143.1785714.5357143.1785714.2526786 0 .5026786-.10625.6785714-.3125l6.1223215-7.14285714c.3205357-.37321429.2776785-.93660715-.0964286-1.25714286z"/><path d="m18.375 19.7375c-.3732143-.3214286-.9375-.2794643-1.2589286.0964286l-5.5785714 6.5071428-3.4125-2.5589285c-.39464286-.2955358-.95357143-.2151786-1.25.1785714s-.21607143.9535714.17857143 1.2491071l4.08124997 3.0616072c.1607143.1205357.3482143.1785714.5357143.1785714.2526786 0 .5026786-.10625.6785714-.3125l6.1223215-7.1428571c.3205357-.3732143.2776785-.9366072-.0964286-1.2571429z"/><path d="m17.1151786 33.2267857-5.5785715 6.50625-3.4116071-2.5589286c-.39464286-.2955357-.95357143-.2151785-1.25.1785715s-.21607143.9535714.17857143 1.2491071l4.08124997 3.0616072c.1607143.1205357.3482143.1785714.5357143.1785714.2526786 0 .5026786-.10625.6785714-.3125l6.1223215-7.1419643c.3205357-.3741071.2776785-.9375-.0964286-1.2580357s-.9383929-.2776786-1.2598214.0973214z"/><path d="m22.3214286 47.2008929h-11.45c-5.00982146 0-9.08571431-4.0758929-9.08571431-9.0857143v-26.4723215c0-5.00982139 4.07589285-9.08482139 9.08571431-9.08482139h26.4714285c5.0098215 0 9.0857143 4.075 9.0857143 9.08482139v10.5571429c0 .49375.4.8928571.8928572.8928571.4928571 0 .8928571-.3991071.8928571-.8928571v-10.5571429c0-5.99464281-4.8767857-10.87142853-10.8714286-10.87142853h-26.4714285c-5.99464289.00089286-10.8714286 4.87678572-10.8714286 10.87142853v26.4714286c0 5.9946429 4.87678571 10.8714286 10.8714286 10.8714286h11.45c.4928571 0 .8928571-.3991072.8928571-.8928572s-.4-.8919642-.8928571-.8919642z"/></g></svg>