<svg height="80" viewBox="0 0 80 80" width="80" xmlns="http://www.w3.org/2000/svg"><g fill="none" fill-rule="evenodd" transform="translate(0 11)"><path d="m1.41295206 56.3386599h17.73679514v-10.1495255l1.3268438-1.8347889-3.5307092-1.4723719-3.0348764 2.5219235-3.356547-.5406673-2.75665509-1.9812562-6.38485125 3.3071608z" fill="#ff7f45"/><g transform="translate(.291562 .269134)"><path d="m28.0523092 18.8734442h2.2469107v-3.1008895l.7196222-2.6672841 2.5069722-.838202c4.4110361-1.2254952 7.7258444-1.2254952 9.9444249 0 2.2185805 1.2254951 3.8888775 2.1733708 5.0108909 2.8436271v3.4283042h2.97232l1.0502355-2.0524212.5292836-15.148199h-18.9572585c-4.5211347.85567518-6.996978 2.89104213-7.4275299 6.10610083-.4305519 3.21505867-.6458278 5.77046377-.6458278 7.66621517z" fill="#f4fafa"/><path d="m69.2555018 25.9501156c-2.6710558-1.3353746-7.6790939-1.3508594-7.8909754-1.3508594-.6350312 0-1.1498633.5148321-1.1498633 1.1498633s.5148321 1.1498634 1.1498633 1.1498634c1.2922931.0001533 5.0443738.1991563 6.8625377 1.1081616.1651203.0826368.3405128.1215789.513299.1215789.4217698 0 .8279015-.233039 1.0293576-.6357978.2840929-.5680325.0538136-1.2587171-.5142189-1.54281z" fill="#404f54" fill-rule="nonzero"/><path d="m74.9882604 42.3111377-4.7489355-1.3568387c-.2049823-.0585664-.3481786-.2483705-.3481786-.4616318v-1.585125c.3863541-.2676882.7549236-.5672659 1.0994226-.9016461 1.6696016-1.6202341 2.5890323-3.7934758 2.5890323-6.1195727v-2.1873467l.4591788-.9182042c.5039467-1.0080468.7702551-2.1365994.7702551-3.2634654v-5.925629c0-.6350312-.5148322-1.1498634-1.1498634-1.1498634h-11.0652114c-4.0236018 0-7.297186 3.2735843-7.297186 7.297186v.0685319c0 .9370619.2215403 1.8755037.6405505 2.7135241l.5888833 1.1777667v1.8781101c0 2.9764596 1.4667657 5.6470555 3.688455 7.2541045l.0003066 1.6613225c0 .2561896 0 .3622836-.9494805.6336514l-2.3172046.6620146-6.7030899-2.4374036c.0240704-.3162891-.0826369-.6379442-.3133761-.8803354l-2.1419654-2.2503592v-3.7776843c.2264464-.1865845.4496732-.3782284.6660008-.5809109 2.7021788-2.5327657 4.251888-6.1086873 4.251888-9.8107873v-3.0169347c.815943-1.7755423 1.2294338-3.654419 1.2294338-5.589409v-12.29433877c0-.63503119-.5148321-1.14986333-1.1498633-1.14986333h-17.2125341c-6.0574801 0-10.9854877 4.92816092-10.9854877 10.9854876v2.4590211c0 1.93499.4134909 3.8138667 1.2294339 5.589409v2.5957781c0 4.2983425 1.9112262 8.1707755 4.9178888 10.7237788v3.8666071l-2.1419654 2.2503591c-.2307393.2423912-.3374466.5640463-.3133761.8803354l-7.0747258 2.5724743c-.5126857.1864311-.9890358.4389411-1.4215377.7448048l-1.1109213-.5554607c3.307007-1.4394756 4.3546091-3.4640016 4.4048965-3.5645763.1619007-.3236482.1619007-.7047896 0-1.0284378-.8289748-1.6579496-.9293962-4.6968084-1.01004-7.1385048-.0268301-.8128768-.0522804-1.5808321-.1008813-2.2646175-.3920268-5.5153578-4.5848884-9.6746435-9.7531408-9.6746435-5.16825238 0-9.36126734 4.1591323-9.75314077 9.6746435-.04860089.6839387-.0740512 1.4518941-.10088134 2.2649241-.08064375 2.4415431-.18121846 5.4800953-1.01003995 7.1380449-.16190076.3236482-.16190076.7047896 0 1.0284378.05028736.1005747 1.0957431 2.1209612 4.40934259 3.5621233l-3.08577324 1.5428099c-1.64967059.8254486-2.67442879 2.4835515-2.67442879 4.327779v8.4950369c0 .6350312.51483214 1.1498634 1.14986333 1.1498634s1.14986333-.5148322 1.14986333-1.1498634v-8.4950369c0-.967725.53767609-1.8377883 1.40313989-2.2705968l3.84253662-1.9211917 1.33660114 1.2702157c.93460892.8881545 2.13353309 1.3320017 3.33291719 1.3320017 1.1990775 0 2.3986149-.4441539 3.3329172-1.3320017l1.3364478-1.2700624 1.2528911.6264456c-.5899565.9439611-.9247967 2.0508962-.9247967 3.2104184v8.8501148c0 .6350312.5148321 1.1498633 1.1498633 1.1498633s1.1498633-.5148321 1.1498633-1.1498633v-8.8501148c0-1.5785324.9967015-3.0016032 2.4803319-3.5411191l7.4590867-2.7122976 3.105091 4.6578663c.3969328.5954759 1.0330372.9773839 1.7451859 1.0479088.0794172.0078191.1583745.011652.2371785.011652.6282853 0 1.2300471-.2472973 1.6798736-.6969705l1.8943615-1.8943615v11.9775897c0 .6350312.5148322 1.1498633 1.1498634 1.1498633s1.1498633-.5148321 1.1498633-1.1498633v-11.9775897l1.8943615 1.8943615c.4496732.4498265 1.051435.6971238 1.6798737.6971238.0786506 0 .1577612-.0038329.2370251-.011652.712302-.0705249 1.3484064-.4524329 1.7453393-1.0479087l3.1052442-4.6577131 7.4589335 2.7122976c1.483477.5395159 2.4803318 1.9625867 2.4803318 3.5411191v8.8501148c0 .6350312.5148322 1.1498633 1.1498634 1.1498633.6350311 0 1.1498633-.5148321 1.1498633-1.1498633v-8.8501148c0-1.5987699-.6351845-3.0981917-1.7007245-4.2071199l.2840929-.0811037c.2865459-.0818703.6774994-.1939436 1.0699861-.3863541l2.9358311 2.9358311v10.5888614c0 .6350312.5148321 1.1498633 1.1498633 1.1498633s1.1498633-.5148321 1.1498633-1.1498633v-10.5888614l2.9154402-2.9154402c.1550016.078804.3178222.1453427.4892285.1942503l4.7490889 1.3568387c1.0839378.3096965 1.8411611 1.3134505 1.8411611 2.4409299v9.5122827c0 .6350312.5148322 1.1498633 1.1498634 1.1498633s1.1498633-.5148321 1.1498633-1.1498633v-9.5122827c0-2.1491713-1.4430018-4.0623905-3.5090763-4.652807zm-67.61150385-2.0309653c-2.15085769-.7739347-3.22973612-1.8057454-3.69029471-2.3691784.31398934-.8208491.51759181-1.7609774.6554221-2.7533861.63411129 1.520426 1.69612507 2.8183917 3.03487261 3.744415zm6.58718375 3.1119901c-.9807568.9318493-2.5171275.931696-3.4975776-.0001533l-1.06937293-1.0161725c.18045188-.3380599.27964676-.7213476.27964676-1.1228799v-1.225601c.80214467.2506702 1.65488327.3858941 2.53859157.3858941.8826351 0 1.7349138-.1358372 2.5384383-.3851275l-.0001533 1.2246811c0 .4016856.0990416.7851267.2796468 1.1233398zm-1.7484055-5.2786392c-3.43364526 0-6.22689326-2.7934013-6.22689326-6.2268933 0-.6350311-.51483214-1.1498633-1.14986333-1.1498633-.06439235 0-.12725154.0065926-.1887309.0168647.00337293-.0988883.00659255-.1979298.00996548-.2958982.02560362-.790646.05028736-1.5374439.09582195-2.1779944.14687587-2.0660745.97247774-3.9699415 2.32471702-5.3611228 1.36435117-1.4037532 3.18788114-2.176768 5.13467634-2.176768 1.9467953 0 3.7701719.7730148 5.1346764 2.176768 1.3522393 1.3911813 2.1778412 3.2950483 2.324717 5.3611228.0453813.6403972.0702184 1.3870418.0962819 2.1775345.0022997.0679186.0045995.136757.0068992.2051356-1.2510513-1.9274776-3.1831283-3.3479421-5.6795583-4.1500867-2.3063192-.740972-4.28991009-.6951308-4.37362014-.6929843-.30111088.0084323-.58689024.1344573-.79585874.3512449l-2.07466008 2.1516242c-.44078094.4571857-.42759584 1.1851258.02958982 1.6259068.45718566.4407809 1.1851258.4274425 1.62590675-.0295898l1.72632819-1.7902606c1.4866966.0726714 6.2696681.6288986 8.1298403 4.7250184-.468071 3.0184679-3.0624693 5.2602415-6.1502356 5.2602415zm4.8375517 2.170482.0001533-1.3714037c1.3376743-.9209638 2.4012212-2.2164765 3.0357925-3.7484011.1378303.990109.3412794 1.9280908.6546555 2.7471001-.4579522.558067-1.5418901 1.5990766-3.6906013 2.3727047zm11.0653648-18.6544628v-2.8528876c0-.1730927-.0390954-.3440391-.1143731-.4999605-.7398987-1.5322313-1.1150608-3.1579847-1.1150608-4.8321857v-2.4588678c0-4.7894107 3.8965035-8.68576092 8.685761-8.68576092h16.0626708v11.14478202c0 1.674201-.3751621 3.2999544-1.1150608 4.8321857-.0752777.1559214-.1143731.3268678-.1143731.4999605v3.2740442c0 3.1139832-1.2518179 6.0022866-3.5248677 8.1329067-.2837863.2658484-.5783046.5151388-.8827884.7474112-.0067459.0045994-.0131851.0096588-.0197777.0144116-2.1293935 1.6167078-4.7375902 2.4024478-7.4613864 2.2259821-5.8322602-.3776151-10.4007438-5.4474392-10.4007438-11.5420215zm11.144782 18.6995374-6.2268932-4.2563341v-2.1464115c1.6111885.8709831 3.4152474 1.4157117 5.333986 1.539897.303104.0196243.6043681.0292831.9047124.0292831 2.1986921 0 4.3147472-.5255642 6.215088-1.5231856v2.100417zm25.7895947 3.4552627-2.6094232-2.6092699c.0455346-.2068221.0712915-.4332685.0711382-.6830188l-.0001533-.4852423c.7241073.2376384 1.4873099.3786883 2.277036.4022988.0886162.0027597.1764657.0039862.2647752.0039862.8726696 0 1.7244884-.131851 2.5352187-.3834411v.4630117c0 .2293594.0288233.4541193.0830968.6701403zm4.3362113-7.4287304c-1.2187018 1.1826728-2.8286638 1.8072785-4.5284684 1.7548448-3.3275512-.0998082-6.0346361-3.0307331-6.0346361-6.5332168v-2.1496312c0-.1786121-.0415484-.3546179-.1214256-.5142189l-.7103089-1.4206178c-.2601757-.5205048-.3976994-1.1031022-.3976994-1.6850864v-.0685318c0-2.7556858 2.2419269-4.9974594 4.9974594-4.9974594h9.9153481v4.7757657c0 .7717883-.182445 1.5446497-.5275573 2.2350277l-.580451 1.160902c-.0798772.1597543-.1214256.3356068-.1214256.5142189v2.4588677c0 1.6987315-.6715201 3.2858495-1.8908352 4.4691355z" fill="#404f54" fill-rule="nonzero"/><path d="m34.5927951 44.776598c-.0079724.0079724-.0265235.0268301-.0640858.0228439-.0374088-.0036795-.0521271-.0256036-.058413-.0351091l-3.576075-5.3641891 1.1507833-1.2091963 5.4250551 3.7082326z" fill="#1caba0"/><path d="m44.0561703 44.7646394c-.0062859.0095055-.0210042.0314296-.0584131.0351092-.0375622.0047527-.05596-.0150249-.0640857-.022844l-2.8772647-2.8772647 5.4250552-3.7083859 1.1509365 1.2091963z" fill="#1caba0"/><g fill="#404f54" fill-rule="nonzero"><path d="m72.4295846 47.9591131c-.6350312 0-1.1498634.5148321-1.1498634 1.1498633v7.3767565c0 .6350312.5148322 1.1498634 1.1498634 1.1498634.6350311 0 1.1498633-.5148322 1.1498633-1.1498634v-7.3767565c0-.6348779-.5148322-1.1498633-1.1498633-1.1498633z"/><path d="m6.06775214 49.4790791c-.63503119 0-1.14986333.5148321-1.14986333 1.1498633v5.8567905c0 .6350312.51483214 1.1498634 1.14986333 1.1498634s1.14986333-.5148322 1.14986333-1.1498634v-5.8567905c0-.6348779-.51483214-1.1498633-1.14986333-1.1498633z"/><path d="m48.6824537 13.8711846c-4.3489364-4.34893639-13.4480349-3.5175085-17.1585672-2.958215-1.1687211.176159-2.0168603 1.1651948-2.0168603 2.3517005v2.6489784c0 .6350312.5148322 1.1498634 1.1498633 1.1498634.6350312 0 1.1498634-.5148322 1.1498634-1.1498634v-2.6491317c0-.0390954.0257569-.0725181.0600995-.0777308 1.4820972-.2233801 4.4231409-.5680325 7.4702788-.36489 3.5857338.2387117 6.1828918 1.1388247 7.7192625 2.6753487.4490599.44906 1.1771534.44906 1.62606 0 .44906-.44906.44906-1.1771534 0-1.6260601z"/><path d="m25.7391541 50.4181341c-.6350312 0-1.1498634.5148322-1.1498634 1.1498633v4.9178888c0 .6350312.5148322 1.1498634 1.1498634 1.1498634.6350311 0 1.1498633-.5148322 1.1498633-1.1498634v-4.9178888c0-.6348778-.5148322-1.1498633-1.1498633-1.1498633z"/><path d="m52.7873125 50.4181341c-.6350312 0-1.1498633.5148322-1.1498633 1.1498633v4.9178888c0 .6350312.5148321 1.1498634 1.1498633 1.1498634s1.1498633-.5148322 1.1498633-1.1498634v-4.9178888c0-.6348778-.5148321-1.1498633-1.1498633-1.1498633z"/></g></g></g></svg>