<svg height="300" viewBox="0 0 540 300" width="540" xmlns="http://www.w3.org/2000/svg" xmlns:xlink="http://www.w3.org/1999/xlink"><mask id="a" fill="#fff"><path d="m.043.09h493.844v37.71h-493.844z" fill="none"/></mask><g fill="none" fill-rule="evenodd"><path d="m64.483 248.104-.026 6.958 6.972-3.453zm9.059.028-.028 6.956 6.973-3.451zm9.059.027-.027 6.957 6.972-3.451z" fill="#b84552"/><path d="m278.17 10.244-9.061-5.574v11.147l9.06-5.573m-10.859.972v-1.946h-1.946v1.946h1.947m-3.894 0v-1.946h-1.947v1.946zm-5.842 0h1.948v-1.946h-1.948zm-1.947 0v-1.946h-1.945v1.946zm-3.892 0v-1.946h-1.947v1.946zm-3.894 0v-1.946h-1.947v1.946zm-5.842 0h1.947v-1.946h-1.947zm-3.894 0h1.948v-1.946h-1.948zm-1.947 0v-1.946h-1.948l.001 1.946zm-3.895 0v-1.946h-1.945v1.946zm-3.891 0-.001-1.946h-1.947v1.946zm-3.896 0v-1.946h-1.947l.001 1.946zm-3.893 0v-1.946h-1.948v1.946zm-3.894 0v-1.946h-1.949v1.946h1.948m-3.895 0v-1.946h-1.946l-.001 1.946zm-3.894 0v-1.946h-1.944v1.946zm-3.892 0v-1.946h-1.948v1.946zm-5.842 0h1.947v-1.946h-1.947zm-3.894 0h1.947v-1.946h-1.947zm-3.894 0h1.946v-1.946h-1.946z" fill="#de6037"/><path d="m462.926 10.137v-.002l-9.231-9.225a2.522 2.522 0 0 0 -3.567 3.565l4.924 4.922h-19.25v5.041h19.25l-4.922 4.921a2.52 2.52 0 1 0 3.565 3.566l9.23-9.225a2.518 2.518 0 0 0 0-3.564" fill="#f1b044"/><path d="m144.209 44.233c-2.43-1.536-4.263-1.08-7.229 3.27l-.718 1.31-1.745 2.598.212.85c-.087.33-.432 1.505-.432 1.505l-.069.091 6.559 3.162 1.546.746c.563-.855.898-1.36.898-1.36s3.1-5.474 3.972-7.405c.61-1.355-.198-3.005-2.994-4.767" fill="#f8dbb6"/><path d="m140.787 57.02-6.559-3.163-9.634 12.86-4.358 1.124-15.52 3.007c-3.106.604-5.102 3.817-4.45 7.181.35 1.8 1.39 3.271 2.758 4.165 4.755-.883 22.472-4.256 23.96-5.812 1.438-1.503 10.757-14.953 13.803-19.363" fill="#232c3f"/><path d="m126.984 76.382c-1.488 1.556-19.205 4.929-23.96 5.812 1.182.775 2.61 1.113 4.05.834l15.38-2.978s5.75-1.299 6.56-2.284c.684-.833 10.304-15.421 13.32-20l-1.547-.747c-3.046 4.41-12.365 17.86-13.803 19.363" fill="#1f2836"/><path d="m66.566 143.134s-5.224 6.788-4.41 7.822c.814 1.04 5.458 4.61 6.036 4.49.578-.114 2.625-1.049 2.346-.092-.276.961-.79.979.854 2.064 1.638 1.086 5.404 2.652 9.492 2.635.927-.005 4.588.269 4.583-.898-.013-2.753-6.962-4.49-8.876-7.44-.995-1.54-1.112-2.689-1.112-2.689m33.682 1.527s-.576 8.545.674 8.955c1.254.412 7.099.806 7.514.387.416-.417 1.6-2.329 1.903-1.377.302.95-.114 1.253 1.852 1.246 1.968-.008 12.58.306 13.41-.53.832-.84 2.138-2.273-.431-3.278-2.564-1.004-8.585-2.427-11.815-3.825-1.684-.726-2.421-1.62-2.421-1.62" fill="#29201c"/><path d="m103.059 62.713s3.672.971 7.15 2.912c1.19 2.023 3.034 5.597 3.579 9.152.823 5.375 1.538 15.895 1.538 15.895-1.448-2.246-3.977-6.577-7.738-14.417-3.102-6.47-4.467-10.77-5.054-13.493.332-.033.525-.05.525-.05" fill="#dee7ea"/><path d="m107.971 69.415 1.54-3.926 2.045 3.685-.602 1.74 4.523 17.061-.22 3.95-3.146-3.515-2.528-17.23z" fill="#d45f32"/><path d="m100.311 63.059c-.141.867-.416 2.891-.288 5.017.167 2.81.796 4.41.796 4.41l3.213-.277-1.792 2.9s.383 3.055 5.387 8.646c4.053 4.533 6.775 6.85 7.664 7.563l-1.026 18.374-29.512-4.648 1.853-33.188c.328-5.881 9.117-8.056 13.705-8.797" fill="#232c3f"/><path d="m112.072 93.262c-.033.566.4 1.05.965 1.08a1.02 1.02 0 0 0 1.08-.967 1.02 1.02 0 0 0 -.965-1.078c-.567-.031-1.05.4-1.08.965m-.303 5.394a1.027 1.027 0 0 0 2.049.114 1.025 1.025 0 0 0 -2.05-.114m-.3 5.397a1.026 1.026 0 1 0 2.048.115 1.026 1.026 0 0 0 -2.048-.115m-26.715.991 29.512 4.648-29.68-1.658z" fill="#1f2836"/><path d="m102.24 75.11 1.792-2.901-3.213.278s-.629-1.602-.796-4.411c-.128-2.126.147-4.15.288-5.017a45.46 45.46 0 0 1 2.223-.297c.587 2.723 1.952 7.024 5.054 13.493 3.761 7.84 6.29 12.171 7.738 14.417l-.035.646c-.889-.714-3.61-3.03-7.664-7.563-5.004-5.591-5.387-8.646-5.387-8.646" fill="#2d3952"/><path d="m114.513 73.186-.964-1.423.407-.271s-.159-.661-.73-2.129c-.339-.868-.939-1.973-1.374-2.724 2.535 1.722 4.591 4.01 4.432 6.874l-.851 15.265c-.004-2.946-.02-7.728-.112-9.615-.136-2.81-.808-5.977-.808-5.977" fill="#232c3f"/><path d="m113.788 74.777c-.545-3.555-2.39-7.13-3.58-9.152.56.311 1.112.653 1.644 1.014.435.751 1.035 1.856 1.374 2.724.571 1.468.73 2.129.73 2.129l-.407.271.964 1.423s.672 3.167.808 5.977c.092 1.887.108 6.669.112 9.615l-.107 1.894s-.715-10.52-1.538-15.895" fill="#2d3952"/><path d="m114.265 109.692s-13.612 18.674-19.384 24.498c-5.487 5.537-19.402 14.836-19.402 14.836l-8.913-5.892s10.273-11.085 13.589-17.723c3.314-6.637 4.43-17.377 4.43-17.377z" fill="#1f2836"/><path d="m114.265 109.692s1.785 10.652 4.74 17.362c2.937 6.674.842 23.458.842 23.458l-10.686.041s-2.933-17.263-4.677-18.38c-5.257-3.385-12.175-7.145-18.065-15.31-1.735-2.407-1.834-8.83-1.834-8.83z" fill="#232c3f"/><path d="m126.734 45.152c.588 11.327-7.189 20.937-17.355 21.465-10.159.523-18.88-8.238-19.461-19.574-.587-11.32 7.183-20.937 17.35-21.457 10.158-.525 18.884 8.236 19.466 19.566" fill="#f8dbb6"/><path d="m97.069 62.22 3.235-5.77s-3.915-1.414-2.952-6.824c.961-5.408 4.989-2.046 5.44-1.299.45.747 1.526 2.126 1.623 4.35.094 2.222.846-1.524.644-6.207-.202-4.68-.593-9.259 1.605-8.18 2.197 1.077 9.36 1.65 13.364 1.48 4.002-.174 10.435-.647 12.865-5.538 2.43-4.892.468-3.342-1.02-3.278-1.49.063 2.409-5.87-.46-4.135-2.87 1.735.42-8.179-3.13-4.315-3.552 3.867-6.454 2.33-11.192 1.263-4.74-1.065-14.541-3.873-20.228.379-5.684 4.252-5.423 3.458-5.507 1.508-.084-1.953-.413-2.72-1.27.053-.859 2.774.251 5.854-1.825 5.356-2.075-.497-3-.408-1.523.945 1.477 1.352.052 5.521.452 14.812.398 9.295 9.879 15.4 9.879 15.4" fill="#55463d"/><path d="m140.787 57.02-6.559-3.163 6.559 3.162" fill="#232c3f"/><path d="m140.787 57.02 1.546.745-1.546-.746" fill="#1f2836"/><path d="m76.557 115.124c-3.587.297-6.282 3.084-6.023 6.225l-1.729.143c-.33-3.978 3.086-7.506 7.627-7.882 4.54-.375 8.49 2.545 8.82 6.521l-1.73.143c-.26-3.14-3.379-5.447-6.965-5.15" fill="#865741"/><path d="m60.334 143.533 36.902-3.055-1.94-23.395-36.9 3.056z" fill="#865741"/><path d="m77.815 130.308c-10.189.843-18.884-3.71-19.42-10.17l36.901-3.055c.538 6.46-7.29 12.38-17.48 13.225" fill="#8e604b"/><path d="m76.44 132.962 3.168-.262-.331-3.99-3.167.26z" fill="#d3ca69"/><path d="m81.106 106.19s.322 1.157.425 1.477l2.04 1.97s.645 1.004 1.204 1.878c.556.866 1.529 3.714-.12 3.542-.984-.105-2.509-2.398-2.517-2.264-.195 5.159-2.07 5.562-4.892 5.55-3.242-.009-4.185-.027-4.385-1.472-.286-2.055-.558-8.221-.558-8.221l.035-1.6 8.775-.97z" fill="#f8dbb6"/><path d="m92.279 66.273c1.6.03 3.232.713 4.463 2.025 2.296 2.458 2.31 6.168.045 8.288l-11.335 10.581-3.037 3.207-1.302 15.705-7.1.786-1.675.185c.12-5.374.511-22.512.644-23.56.159-1.241 4.262-5.316 4.262-5.316l11.232-10.484c1.05-.982 2.413-1.443 3.803-1.416" fill="#232c3f"/><path d="m72.982 83.49c.159-1.241 4.262-5.316 4.262-5.316l11.232-10.484c1.05-.982 2.413-1.443 3.803-1.416-3.494 3.21-16.461 15.242-16.889 17.31-.41 1.997-1.144 18.033-1.377 23.282l-1.675.185c.12-5.374.511-22.512.644-23.56" fill="#1f2836"/><path d="m167.386 44.1-.792.005h-.002c-.036 0-.07.144-.098.395l-15.06.072c-.07 0-.133.495-.17 1.268l-12.29.059c-.063 0-.118.242-.158.634l-11.508.055c-.012-.044-.026-.075-.04-.075h-.23c-.078.002-.138.714-.134 1.591.004.878.07 1.59.149 1.588h.23c.013 0 .028-.03.04-.074l11.509-.054c.043.391.1.632.163.632l12.29-.058c.044.774.11 1.268.18 1.268h.002l15.06-.072c.03.25.064.397.101.395h.001l.793-.003c.125 0 .22-1.709.21-3.814s-.12-3.811-.246-3.811" fill="#4b4c49"/><path d="m167.526 48.017c.01 1.872-.074 3.389-.185 3.39-.113 0-.21-1.517-.218-3.388-.01-1.871.072-3.39.185-3.39.111 0 .21 1.517.218 3.388" fill="#3da2c6"/><path d="m136.98 47.503v.001c-.08.111 2.616-1.506 1.824-2.13-1.33-1.04-4.803.757-4.794 1.807.01 1.055.025 2.272.025 2.272l.482 1.958 2.675-1.513z" fill="#f8dbb6"/><path d="m136.77 49.008s2.556-.041 2.98 1.77c.427 1.809-.495 1.814-.495 1.814l-2.896-2.869.41-.715m2.697-4.3s-.152 1.328 1.474 1.974c1.63.646 4.537 1.692 5.218 1.005.68-.687.687-1.628-.466-2.236l-3.338-1.767z" fill="#f8dbb6"/><path d="m266.051 285.566c-3.96 0-7.18 3.22-7.18 7.177 0 3.956 3.22 7.177 7.18 7.177s7.181-3.22 7.181-7.177c0-3.958-3.22-7.177-7.18-7.177zm6.463 7.177c0 3.562-2.9 6.459-6.463 6.459s-6.463-2.897-6.463-6.46c0-3.561 2.9-6.459 6.463-6.459s6.463 2.898 6.463 6.46z" fill="#46a066"/><path d="m280.053 46.357c-3.96 0-7.18 3.22-7.18 7.177 0 3.958 3.22 7.177 7.18 7.177s7.181-3.219 7.181-7.177c0-3.957-3.221-7.177-7.18-7.177zm6.463 7.177c0 3.562-2.899 6.46-6.463 6.46s-6.463-2.898-6.463-6.46c0-3.56 2.9-6.46 6.463-6.46 3.564 0 6.463 2.9 6.463 6.46z" fill="#d58cb1"/><path d="m531.236 187.59c-3.959 0-7.18 3.22-7.18 7.177s3.221 7.177 7.18 7.177c3.96 0 7.181-3.22 7.181-7.177 0-3.958-3.221-7.177-7.18-7.177zm6.463 7.177c0 3.562-2.899 6.46-6.463 6.46-3.563 0-6.462-2.898-6.462-6.46s2.899-6.46 6.462-6.46c3.564 0 6.463 2.898 6.463 6.46z" fill="#b84552"/><path d="m179.322 90.136c-3.96 0-7.18 3.22-7.18 7.177 0 3.958 3.22 7.177 7.18 7.177s7.181-3.22 7.181-7.177c0-3.958-3.221-7.177-7.18-7.177zm6.463 7.177c0 3.562-2.899 6.459-6.463 6.459-3.563 0-6.462-2.897-6.462-6.46 0-3.56 2.899-6.459 6.462-6.459 3.564 0 6.463 2.9 6.463 6.46z" fill="#595956"/><path d="m396.891 26.338a4.298 4.298 0 0 0 -4.293 4.292 4.296 4.296 0 0 0 4.293 4.29 4.297 4.297 0 0 0 4.295-4.29 4.298 4.298 0 0 0 -4.295-4.292zm3.576 4.292a3.578 3.578 0 0 1 -3.576 3.573 3.577 3.577 0 0 1 -3.575-3.573 3.579 3.579 0 0 1 3.575-3.574 3.58 3.58 0 0 1 3.576 3.574z" fill="#f1b044"/><path d="m476.61 83.69a4.298 4.298 0 0 0 -4.295 4.293 4.298 4.298 0 0 0 4.295 4.29 4.297 4.297 0 0 0 4.293-4.29 4.298 4.298 0 0 0 -4.293-4.292zm3.575 4.293a3.579 3.579 0 0 1 -3.575 3.573 3.58 3.58 0 0 1 -3.576-3.573 3.58 3.58 0 0 1 3.576-3.575 3.58 3.58 0 0 1 3.575 3.575z" fill="#3da2c6"/><path d="m170.706 227.928a4.299 4.299 0 0 0 -4.294 4.292 4.297 4.297 0 0 0 4.294 4.29 4.297 4.297 0 0 0 4.293-4.29 4.298 4.298 0 0 0 -4.293-4.292zm3.575 4.292a3.579 3.579 0 0 1 -3.575 3.573 3.58 3.58 0 0 1 -3.576-3.573 3.58 3.58 0 0 1 3.576-3.575 3.58 3.58 0 0 1 3.575 3.575z" fill="#b1532d"/><path d="m476.34 264.302a4.297 4.297 0 0 0 -4.295 4.29 4.299 4.299 0 0 0 4.295 4.293 4.298 4.298 0 0 0 4.293-4.292 4.296 4.296 0 0 0 -4.293-4.29zm3.575 4.29a3.58 3.58 0 0 1 -3.575 3.575 3.58 3.58 0 0 1 -3.576-3.574 3.58 3.58 0 0 1 3.576-3.573 3.579 3.579 0 0 1 3.575 3.573zm-408.314-77.252a4.299 4.299 0 0 0 -4.294 4.292 4.298 4.298 0 0 0 4.294 4.291 4.297 4.297 0 0 0 4.293-4.29 4.298 4.298 0 0 0 -4.293-4.293zm3.575 4.292a3.58 3.58 0 0 1 -3.575 3.574 3.58 3.58 0 0 1 -3.576-3.574 3.58 3.58 0 0 1 3.576-3.574 3.579 3.579 0 0 1 3.575 3.574z" fill="#b84552"/><path d="m371.834 116.06h159.928v-2.87h-159.928z" fill="#f1b044"/><path d="m373.786 115.295-22.433 20.774-1.952-2.106 22.433-20.773zm150.443 8.778.004-19.2 15.064 9.604zm-155.129 50.783h125.39v-2.87h-125.39z" fill="#f1b044"/><path d="m371.052 174.09-41.361 38.303-1.953-2.106 41.361-38.302zm115.906 8.679.004-19.2 15.064 9.604zm-177.412 96.003h125.392v-2.87h-125.392z" fill="#f1b044"/><path d="m249.265 209.522 62.388 67.3-2.107 1.95-62.388-67.3zm178.14 77.35.004-19.2 15.064 9.604z" fill="#f1b044"/><path d="m252.23 98.27h181.942v-2.87h-181.942z" fill="#3da2c6"/><path d="m254.182 97.504-70.382 65.175-1.952-2.105 70.382-65.175zm172.457 8.866.004-19.198 15.063 9.603zm-226.971 106.023h242.762v-2.871h-242.762z" fill="#3da2c6"/><path d="m199.668 212.393-46.938-50.633 2.106-1.952 46.936 50.632-2.105 1.952m235.229 8.212.004-19.198 15.064 9.603z" fill="#3da2c6"/><g fill="#b84552"><path d="m334.278 61.033h171.224v-2.871h-171.224z"/><path d="m336.231 60.266-110.594 102.414-1.953-2.105 110.594-102.413zm161.738 8.903.004-19.199 15.064 9.603zm-153.213 169.348h159.928v-2.87h-159.928z"/><path d="m346.709 236.411-82.723-76.602-1.952 2.105 82.722 76.603zm150.441 10.209.004-19.198 15.064 9.604-15.068 9.595m-170.726-110.552h159.93v-2.871h-159.93z"/><path d="m328.377 135.303-29.564 27.377-1.952-2.106 29.563-27.376z"/><path d="m478.82 19.289.003-19.2 15.064 9.604-15.068 9.596m-478.776 18.511h298.77v-2.872h-298.77z" mask="url(#a)" transform="translate(0 124.88)"/></g></g></svg>