<svg height="76" viewBox="0 0 58 76" width="58" xmlns="http://www.w3.org/2000/svg"><g fill="none"><path d="m6.24527926 13.3133318-.10263337-.1428165 8.59919231-6.76766011.1028894.14230463zm-3.01347969 14.0768968-.16047663-.0373677 2.91059038-14.2954727.16073257.0373678zm10.31145493 1.0237744-10.21598798-1.3623877.02175521-.1732738 10.21598797 1.3623877zm.1190137 9.2139688-.0972585-.0056308.158685-9.208338.0972585.0051188zm-8.23421678 3.0713229-.05323627-.1719941 8.13695825-2.6433852.0532363.1714822z" fill="#fff"/><path d="m13.9455978 50.9370379-8.57078265-10.6393186.13078717-.1103117 8.57129448 10.6393186zm.5193095-.2559436-.1320669-.1000739 4.7308611-6.2985156.1320669.099818zm16.7141395-3.0713229-11.9832784-3.166534.0463258-.1607326 11.9830224 3.1660221zm-3.3815266 8.4461381-.1556137-.0639859 3.1716528-8.3821522.1556137.0639859z" fill="#f2f2f2"/><g fill="#fff"><path d="m21.5954954 60.1510067-.0962348-.1389774 6.3023547-4.2120634.0962348.1389773zm12.951001.5118872-13.0472358-.3690707.0063986-.1428165 13.0467239.3685588z"/><path d="m34.1666761 60.6628939-.1261801-.1169662 8.319446-8.8410591.1266921.1172222zm8.5165226-8.9580253-11.7140257-4.1885166.0593789-.1625242 11.7140257 4.1885166zm-14.7784381-19.451712-.0069105-.2293254 14.838073-.7944489.0066545.2293255zm-.3055967 0-14.0341542-3.6663917.0427425-.1727619 14.0341543 3.6663917zm-13.8834035-3.8391536-.1507507-.0788307 4.4559777-8.623251.1510067.0790865z"/><path d="m27.503697 31.9972131-9.5876465-12.1803549.1387214-.1049369 9.5871346 12.1803549zm.3096917-.2559436-.1714822-.0327608 3.9236151-19.4189512.1714822.0332727zm12.4961893-9.4699124-8.5725742-9.8691844.1289955-.1126152 8.5730861 9.8694403zm-.0803663.2559435-.0460699-.1597087 11.9832784-3.1675578.0460698.1597088zm11.8496758-3.3272665-7.0328177-8.5894665.1336026-.1126151 7.0328176 8.5889546zm.1336025 11.5174611h.2559436v-11.5174611h-.2559436zm-9.4571152 1.0237743-.0127972-.199636 9.7130588-.8241383.0127972.199636zm-23.4178137 12.7971789-.1417927-.0972585 8.5602889-12.1880333.1417928.0972586z"/><path d="m18.0793425 19.9678649-.163292-.0598908 2.9080309-7.8743602.1632921.0598908zm2.8107724-7.934251-.158685-.0332726 1.8888636-10.20447052.158685.03327266z"/><path d="m14.93354 6.40285519-.0888124-.14588784 8.1013821-4.71704015.0888124.14588784zm17.3038335-3.83915368-8.9465078-.79726424.0120293-.22651007 8.9459959.79675236zm7.8991866 2.04754863-8.1436128-2.38616198.0465818-.1732738 8.1436127 2.38667387zm4.7797463 6.14264586-4.7331646-6.03514955.1292516-.10749631 4.7336764 6.03514956zm-26.8303094 9.2139689-11.94335111-6.75947.08599704-.1510067 11.94335117 6.75947zm13.8964566-6.9104767-10.483193-.8110852.0104937-.2126891 10.483193.8105733zm-.126692-.5118871-.1187578-.1236208 8.5835798-7.81063016.1185018.12336481zm-10.2369753 47.6055056-7.2859459-9.1095438.1364179-.104425 7.2859459 9.1095438zm-16.17742582-20.2195427-2.37003754-13.0259925.18939825-.02713 2.37003754 13.0257365zm35.14361282-.7678307-.1458879-.0394153 1.6457172-7.8948357.1458879.0396713zm-9.5019054 8.7020816-.1138949-.1307871 9.6117052-8.315351.1141508.1307872zm11.8046297 3.8391537-.14512-.0918837 7.2772438-11.4255773.14512.0918837z"/><path d="m50.0873905 40.4433512-.1783927-.0394154 2.3807872-9.6864406.1786486.0394153zm-.1955409.2559435-9.1968206-1.0859686.0171482-.1937493 9.1968206 1.0857127zm-22.1455181-8.4461381-.104425-.1364179 12.4362985-9.5894381.1049368.136418zm24.3665965-1.2797179-11.9297862-8.3048572.0993062-.1412809 11.930042 8.3048573zm-16.9785292 36.8558754h-13.7052667c-.6654533 0-1.2095894-.5561654-1.2095894-1.2359516v-.5994198c0-.6795302.5441361-1.2359516 1.2095894-1.2359516h13.7052667c.6654533 0 1.2095894.5564214 1.2095894 1.2359516v.5994198c0 .6797862-.5441361 1.2359516-1.2095894 1.2359516m-1.5261915 3.6983847h-10.9088273c-.6598225 0-1.2001194-.5564214-1.2001194-1.2362075v-.5991639c0-.6797862.5402969-1.2359516 1.2001194-1.2359516h10.9088273c.6603344 0 1.2001194.5561654 1.2001194 1.2359516v.5991639c0 .6797861-.540041 1.2362075-1.2001194 1.2362075m-3.8578376 3.5234899h-3.4490957c-.6705721 0-1.2188033-.5561654-1.2188033-1.2359515v-.5991639c0-.6797862.5484871-1.2362075 1.2188033-1.2362075h3.4490957c.6700603 0 1.2188033.5564213 1.2188033 1.2362075v.5991639c0 .6797861-.548743 1.2359515-1.2188033 1.2359515"/></g><path d="m17.6601069 60.0230349c0-2.0495962 1.6615857-3.7111819 3.7111819-3.7111819s3.7111819 1.6615857 3.7111819 3.7111819c0 2.0498521-1.6615857 3.7111819-3.7111819 3.7111819s-3.7111819-1.6613298-3.7111819-3.7111819" fill="#c1272d"/><path d="m22.0764134 62.0112046c.0929075-.1952849.1714822-.4005517.2367478-.6129848.1438403.0342964.2835855.0762712.4202593.1254123-.1867808.2019621-.4095933.3673138-.6570071.4875725zm-1.9218804-3.9760835c-.0937378.198233-.1729477.4030151-.2370037.612729-.1422689-.0340054-.282566-.075787-.4202594-.1251564.1868768-.2019654.4097736-.3673152.6572631-.4875726zm2.3628712 1.8778581c-.0085164-.377957-.0626567-.7535016-.1612445-1.1184735.1561256-.0473495.3122512-.1046809.467353-.1714822.2991064.3657717.4727281.8179956.4952508 1.2899557h-.8011034zm0 .2201115h.8013593c-.0210952.4377774-.17272.8592247-.43536 1.2101012-.1668898-.0630365-.3376046-.1154393-.5111193-.1568934.0883005-.3416847.1371857-.6948868.14512-1.0529519zm-1.2909794 1.1330622c.2897281-.0025595.580224.0255943.8691843.0834376-.0843115.2731337-.195956.5370674-.3332385.7877943-.174157.0526524-.3541885.0834314-.5359458.0916278zm-1.0757309.1364179c.2794959-.0715993.5654339-.1151545.8535718-.1300193v.9564611c-.1817545-.0082228-.3617827-.0390013-.5359458-.0916278-.1279213-.2348081-.234234-.480758-.317626-.734814zm-.2142248.0604027c.0614265.1868388.1338585.3703504.2188318.548999-.2179413-.1054448-.417211-.2457549-.58995-.4153965.1215222-.0503819.2453676-.0949663.3711182-.1336025zm-.2231828-1.3296269c.0088826.3779265.0630166.7534274.1612445 1.1184734-.1561256.0476055-.3122512.104681-.467353.1717382-.2992084-.3657908-.4727611-.8181585-.4949949-1.2902116zm0-.2201115h-.8011034c.0210634-.4378199.1725911-.8593345.4351041-1.2103572.1663633.0634741.3360539.1151747.5111193.1568935-.0886221.3443385-.1373159.6977334-.14512 1.0532078zm1.2909794-1.1330622c-.2897281.0023035-.5802241-.0255944-.8689284-.0834376.0842247-.2731257.1957835-.5370597.3329826-.7877943.1741631-.0526265.3541913-.083405.5359458-.0916278zm1.0757309-.136162c-.2795046.071513-.5654426.1149824-.8535718.1297634v-.9564611c.1817573.0081964.3617888.0389754.5359458.0916278.1284837.2354681.2347003.4821977.317626.7350699zm.2142248-.0606586c-.0612598-.1873603-.1343507-.3706431-.2188318-.548743.2179699.1052877.4172507.2455192.58995.4151404-.1215222.050382-.2453676.0949664-.3711182.1336026zm-1.0677966 1.3296269v-.9188375c.3091753-.015182.6160072-.061747.9157661-.1389773.0927642.3452776.143974.7003956.1525423 1.0578148zm-.2538961-.9106473.031737-.0002559v.9111591h-1.0683085c.0081902-.3414287.054772-.6779945.1392333-1.0038107.2952371.0610037.5958656.0921298.8973382.0929075zm-.8840291 2.1888295c-.0926139-.3453086-.1438211-.7004085-.1525424-1.0578148h1.0683085v.9188375c-.3096917.0153566-.616824.0619383-.9157661.1389773zm1.1379252-.1448641v-.9129507h1.0685644c-.0079401.3388382-.0547428.6756455-.1394893 1.0038107-.3056991-.0624486-.6170694-.0928994-.9290751-.09086zm-.1110796-3.4547264c-1.3406324 0-2.431464 1.0908316-2.431464 2.43172 0 1.3406324 1.0908316 2.431208 2.431464 2.431208 1.3406325 0 2.431464-1.0903196 2.431464-2.431208s-1.0908315-2.43172-2.431464-2.43172z" fill="#fff"/><path d="m28.6976738 15.5845751c-1.7488625-1.7491184-1.7488625-4.5849732 0-6.33409165 1.7496303-1.74937436 4.5854851-1.74937436 6.3346035 0 1.7488625 1.74911845 1.7488625 4.58497325 0 6.33409165-1.7491184 1.7493744-4.5849732 1.7493744-6.3346035 0" fill="#009245"/><path d="m34.5523831 10.753896-2.8146115 1.5356615-2.8161472-1.5356615zm-2.8153793 2.0475487-2.8153794 1.5356614v-3.0713229zm2.8153793 1.5356614h-5.6307587l2.8161472-1.5356614z" fill="#fff"/><path d="m34.5523831 11.2657832v3.0713229l-2.8153793-1.5356614z" fill="#fff"/><path d="m40.695029 44.2825048c-2.5443351 0-4.6069844-2.0626493-4.6069844-4.6069844s2.0626493-4.6069844 4.6069844-4.6069844 4.6069844 2.0626493 4.6069844 4.6069844-2.0626493 4.6069844-4.6069844 4.6069844" fill="#00a99d"/><path d="m38.2261972 38.6640314c0-.8062223.6521443-1.4624616 1.4537596-1.4624616s1.4537595.6559834 1.4537595 1.4624616c0 .8067342-.6521442 1.4632294-1.4537595 1.4632294s-1.4537596-.6564952-1.4537596-1.4632294zm5.1664771 3.1468263-2.0104368-1.9927767c.2311817-.3404336.354605-.7425404.3542259-1.1540496 0-1.1356217-.9224206-2.0598339-2.0565066-2.0598339-1.1338301 0-2.0562507.9239563-2.0562507 2.0598339 0 1.1361335.9224206 2.0603458 2.0562507 2.0603458.4034752.0001733.7979167-.1194597 1.1333181-.3437322l2.0112047 1.9935445c.1573781.1557506.4108166.1557506.5681947 0 .0752939-.0743872.1176705-.1758235.1176705-.2816659s-.0423766-.2072787-.1176705-.2816659z" fill="#fff"/><path d="m16.2048117 34.6948584c1.5991355 1.5492265 1.5991355 4.0610567 0 5.6102832-1.5993914 1.5492265-4.1923558 1.5492265-5.7912353 0-1.59964738-1.5492265-1.59964738-4.0610567 0-5.6102832 1.5988795-1.5492265 4.1918439-1.5492265 5.7912353 0" fill="#ed1e79"/><path d="m11.7211921 40.2424354h3.6876351v-4.9729837h-3.6876351zm-.2037311.2009158h4.0950973v-5.3748152h-4.0950973z" fill="#fff"/><path d="m12.0293482 36.0923103h2.8153794v-.5118871h-2.8153794zm.5118872.9285633h1.791605v-.1607325h-1.791605zm-.5118872 1.0237743h2.8153794v-.1607325h-2.8153794zm0-.2564554h2.8153794v-.1602207h-2.8153794zm0 2.0480605h2.8153794v-.1607326h-2.8153794zm0-1.2802298h1.791605v-.1602207h-1.791605zm0 1.0242862h1.791605v-.1607326h-1.791605zm0-.7678307h1.791605v-.1607326h-1.791605zm2.3034922.6070981h1.0237743v-1.0237743h-1.0237743z" fill="#fff"/><path d="m27.6741554 44.3147537c1.7488625-1.7493743 4.5852292-1.7493743 6.3340917 0 1.7493743 1.7488625 1.7493743 4.5852292 0 6.3340917-1.7488625 1.7493744-4.5852292 1.7493744-6.3340917 0-1.7493744-1.7488625-1.7493744-4.5852292 0-6.3340917" fill="#662d91"/><path d="m27.8978501 49.65732h.5118871v-2.0475486h-.5118871zm1.0237743.2559436h.5118871v-3.3272666h-.5118871zm.7678307 0h.5118872v-4.6069845h-.5118872zm1.0237743 0h.5118872v-2.8153794h-.5118872zm1.0237744 0h.5118871v-4.0950973h-.5118871zm.7678307 0h.5118871v-3.071323h-.5118871zm1.0237743 0h.5118872v-4.6069845h-.5118872z" fill="#fff"/><path d="m43.8026959 26.1468547c-1.9989193 1.9989194-5.2401888 1.9989194-7.2391081 0-1.9989194-1.9989193-1.9989194-5.2401888 0-7.2391081 1.9989193-1.9989194 5.2401888-1.9989194 7.2391081 0 1.9989194 1.9989193 1.9989194 5.2401888 0 7.2391081" fill="#1b1464"/><path d="m38.717097 24.1108236v-3.4229895l3.5187124 1.7114948-3.5192243 1.7114947zm1.3380731-4.9107895c-1.7701058 0-3.1992948 1.4343078-3.1992948 3.1992948 0 1.7701057 1.429189 3.1992947 3.1992948 3.1992947 1.7649869 0 3.1992947-1.429189 3.1992947-3.1992947 0-1.764987-1.4343078-3.1992948-3.1992947-3.1992948z" fill="#fff"/><path d="m28.0258219 24.0629621c4.1698327 0 7.5503355 3.3802469 7.5503355 7.5503356 0 4.1695768-3.3805028 7.5503356-7.5503355 7.5503356-4.1698328 0-7.5503356-3.3807588-7.5503356-7.5503356 0-4.1703447 3.3805028-7.5503356 7.5503356-7.5503356" fill="#c1272d"/><path d="m30.7132294 28.414003v1.4261176h-3.9397395v3.1498976h-.131299l-2.1512058 1.8225742v-1.8223183h-1.2001194v-4.5762711z" fill="#fff"/><path d="m33.2726652 30.7174952v3.7743999h-.9897338v1.6004152l-1.7716414-1.6004152h-3.1253271v-3.7743999z" fill="#fff"/><path d="m23.0349221 19.9678649c0 2.4030542-1.9482425 4.3510408-4.3510409 4.3510408-2.4033102 0-4.3510408-1.9479866-4.3510408-4.3510408 0-2.4030543 1.9477306-4.3510409 4.3510408-4.3510409 2.4027984 0 4.3510409 1.9479866 4.3510409 4.3510409" fill="#f15a24"/><path d="m20.6014105 19.4687749h-1.6416221c-.0676093-.0002896-.1238076-.0521565-.1295074-.1195257l-.1423047-1.6449493c-.0019844-.0229687-.0099239-.0450229-.0230349-.0639859l-.3015015-.4320328c-.0253282-.0366058-.0677107-.0576023-.1121785-.055574-.0444678.0020284-.0847628.0267962-.1066533.0655558l-1.2272494 2.1499261c-.0229537.0406062-.0659704.0657319-.1126152.0657775h-.3491071v-.0115175c0-.1471676-.1185018-.2666932-.2643897-.2666932h-.9605562c-.0346637.0001353-.06785.014053-.0922408.0386838-.0243908.0246309-.0379827.0579519-.0377786.0926152v3.1089467c-.0002041.0346633.0133878.0679844.0377786.0926152.0243908.0246309.0575771.0385485.0922408.0386838h.9605562c.1458879 0 .2643897-.1192697.2643897-.2666932v-.0110055h3.3728245c.0571717-.0002892.107446-.0378911.1238767-.0926516l.7729496-2.5184848c.0124365-.0395437.0053509-.0826437-.0190907-.1161247s-.0633333-.0533621-.104786-.0535659" fill="#fff"/><path d="m3.45523831 29.9496644c-1.90857126 0-3.45523831-1.4322602-3.45523831-3.1992947s1.54692299-3.1992947 3.45523831-3.1992947 3.45523831 1.4322602 3.45523831 3.1992947-1.54692299 3.1992947-3.45523831 3.1992947" fill="#1b1464"/><path d="m3.19929473 27.0518712c-.47554317 0-.86048231-.3770049-.86048231-.8425662 0-.4653055.38493914-.8425663.86022637-.8425663.47503128 0 .85997042.3772608.85997042.8425663 0 .4658173-.38493914.8425662-.85997042.8425662zm0-2.2210783c-.77781253 0-1.40768968.616824-1.40768968 1.3785121s1.40768968 2.9725287 1.40768968 2.9725287 1.40768969-2.2108406 1.40768969-2.9725287-.63064498-1.3785121-1.40768969-1.3785121z" fill="#fff"/><path d="m15.2286429 9.73012172c-1.7667785 0-3.1992947-1.43226027-3.1992947-3.19929474 0-1.76626663 1.4322603-3.19929473 3.1992947-3.19929473 1.7670345 0 3.1992948 1.43277215 3.1992948 3.19929473 0 1.76729041-1.4322603 3.19929474-3.1992948 3.19929474" fill="#9e005d"/><path d="m15.9094528 4.65399272c-.0448004.00071624-.0818077-.03480621-.0829257-.07959845.001118-.0449336.0382399-.08057061.0831817-.0798544.0463258 0 .0834376.0358321.0834376.0798544-.0004693.02163312-.0095338.04218889-.0251902.05712499-.0156565.01493609-.0366162.02302291-.0582474.02247346zm-2.2128881 3.29399386h2.2965817v-3.09026277h-2.2965817zm1.1484188.40029575c-.0865089 0-.1568934-.06680127-.1568934-.1492151 0-.08292572.0703845-.14947105.1568934-.14947105.085997 0 .1566375.06654533.1566375.14947105 0 .08241383-.0706405.1492151-.1566375.1492151zm-.6175918-3.72321123h1.2349277v-.10135366h-1.2349277zm-.662382 3.82533272h2.5594358v-4.09509726h-2.5594358z" fill="#fff"/><path d="m34.1684678 63.9901604c-1.7670345 0-3.1992948-1.4325162-3.1992948-3.1992947 0-1.7667786 1.4322603-3.1992948 3.1992948-3.1992948 1.7670344 0 3.1992947 1.4325162 3.1992947 3.1992948 0 1.7667785-1.4322603 3.1992947-3.1992947 3.1992947" fill="#2e3192"/><path d="m35.0727164 61.7614037c-.1920925.1279135-.4177769.1960463-.648561.1957968-.2306211.000225-.4561348-.0679101-.6480492-.1957968-.3255779-.2155539-.5215931-.5798154-.5221249-.9702821 0-.403879.2068025-.7604084.5208452-.9695143.1920802-.1286943.4181213-.1972996.6493289-.1970765.240587 0 .4640257.0726879.6500967.1970765.3250118.215533.5204636.5795307.5205892.9695143-.0003476.3905132-.1964067.7548562-.5221249.9702821zm.1947731-2.0908031v-1.0552554h-1.6859004v1.0552554c-.3550195.2630561-.5645324.6786644-.5648675 1.120521 0 .4573712.2221591.8643215.5648675 1.1200091v1.0552554h1.6859004v-1.0552554c.3547866-.2631103.5641741-.6785634.5646115-1.120265-.0003564-.4417919-.2097526-.857357-.5646115-1.120521z" fill="#fff"/><path d="m34.1684678 60.4069503c-.0706769 0-.1279718.0572949-.1279718.1279718 0 .0706768.0572949.1279718.1279718.1279718.0706768 0 .1279717-.057295.1279717-.1279718 0-.0706769-.0572949-.1279718-.1279717-.1279718m0-.5118872c-.04572.0000457-.0879425.0244793-.1107629.0640968-.0228204.0396174-.0227716.0884.000128.1279717.0228995.0395718.0651709.0639208.1108908.0638751.0706769-.0000707.1279145-.0574229.1278438-.1280997-.0000707-.0706769-.0574229-.1279145-.1280997-.1278439m-.5118872.5118872c-.0706769 0-.1279718.0572949-.1279718.1279718 0 .0706768.0572949.1279718.1279718.1279718s.1279718-.057295.1279718-.1279718c0-.0706769-.0572949-.1279718-.1279718-.1279718m.5118872.7678307c-.0706769 0-.1279718.0572949-.1279718.1279718s.0572949.1279718.1279718.1279718c.0706768 0 .1279717-.0572949.1279717-.1279718s-.0572949-.1279718-.1279717-.1279718m.7678307-.7678307c-.0706769 0-.1279718.0572949-.1279718.1279718 0 .0706768.0572949.1279718.1279718.1279718s.1279718-.057295.1279718-.1279718c0-.0706769-.0572949-.1279718-.1279718-.1279718" fill="#fff"/><path d="m13.948925 54.0083608c-1.9083153 0-3.4552383-1.546923-3.4552383-3.4552383s1.546923-3.4552383 3.4552383-3.4552383c1.9083154 0 3.4552383 1.546923 3.4552383 3.4552383s-1.5469229 3.4552383-3.4552383 3.4552383" fill="#9e005d"/><g fill="#fff"><path d="m14.8447276 50.0412354c.0000457-.2285996-.1218685-.4398588-.3198187-.5541982-.1979502-.1143393-.441863-.1143881-.6398589-.0001279s-.3199946.3254705-.3200403.5540701c-.0001414.3533843.2862186.6399735.639603.6401149.3533843.0001413.6399735-.2862187.6401149-.639603m-1.5356615.2556876c0-.3533843-.2864746-.6398589-.639859-.6398589-.3533843 0-.6398589.2864746-.6398589.6398589 0 .3533844.2864746.639859.6398589.639859.3533844 0 .639859-.2864746.639859-.639859"/><path d="m13.3090661 50.9856672c-.1576613.113127-.2615743.3091798-.2615743.5303151v.4448299h-1.0181436v-.4622341c0-.3096917.2306052-.5615402.5136788-.5615402h.5569332c.0742236 0 .1458878.0174041.2091059.0486293m2.8153794-.6884883c0-.3533843-.2864747-.6398589-.639859-.6398589s-.6398589.2864746-.6398589.6398589c0 .3533844.2864746.639859.6398589.639859s.639859-.2864746.639859-.639859"/><path d="m16.1244455 51.4985781v.4622341h-1.0181436v-.4448299c0-.2211353-.1039131-.4171881-.2615743-.5305711.0650634-.0317088.1364712-.0482481.2088499-.0483733h.5569332c.2833296 0 .5139348.2518485.5139348.5615402"/><path d="m15.1006711 51.4407348v.776021h-2.0475486v-.776021c0-.2021954.1074963-.3757251.2610625-.4550676.0590394-.0321549.1252421-.0488817.1924695-.0486293h1.1404846c.0691048 0 .1348823.0168923.1927255.0486293.1538221.0793425.2608065.2528722.2608065.4550676"/></g><path d="m45.1740416 13.825219c-1.7670344 0-3.1992947-1.4322603-3.1992947-3.1992948 0-1.76677848 1.4322603-3.19929469 3.1992947-3.19929469 1.7667786 0 3.1992948 1.43251621 3.1992948 3.19929469 0 1.7670345-1.4325162 3.1992948-3.1992948 3.1992948" fill="#93278f"/><g fill="#fff"><path d="m45.4299852 9.20211011c-.9272951.00112874-1.6786556.75271826-1.6795018 1.68001369.0011282.9270955.7524063 1.6783735 1.6795018 1.6795017.9270955-.0011282 1.6783736-.7524062 1.6795018-1.6795017-.0008462-.92729543-.7522067-1.67888495-1.6795018-1.68001369zm0 3.59933459c-1.0583267 0-1.9195768-.8609942-1.9195768-1.9195769 0-1.05858262.8612501-1.91957682 1.9195768-1.91957682s1.9195769.8609942 1.9195769 1.91957682c0 1.0585827-.8612502 1.9195769-1.9195769 1.9195769z"/><path d="m45.3020134 9.96303037c-.5779444.00056411-1.0463598.46886503-1.0470652 1.04680923.0005641.5780858.4689796 1.0466157 1.0470652 1.0473211.5778861-.0007048 1.0462191-.4689233 1.0470652-1.0468092-.0004233-.5781442-.4689211-1.04675655-1.0470652-1.04732113zm0 2.32652713c-.7056364 0-1.2797179-.5740814-1.2797179-1.2797179 0-.7056364.5740815-1.27971788 1.2797179-1.27971788.7056365 0 1.2797179.57408148 1.2797179 1.27971788 0 .7056365-.5740814 1.2797179-1.2797179 1.2797179z"/><path d="m45.1740416 10.1992663c-.2352121 0-.4266579.1911898-.4266579.4266579.0079639.2298873.1966328.4121333.4266579.4121333.2300252 0 .4186941-.182246.426658-.4121333 0-.2354681-.1914458-.4266579-.426658-.4266579zm0 1.0665169c-.3532089-.0004231-.6394358-.28665-.6398589-.639859 0-.3532021.2871687-.63985891.6398589-.63985891.3526903 0 .639859.28665681.639859.63985891 0 .3526903-.2871687.639859-.639859.639859z"/><path d="m47.6055056 9.18368217v-.18376748h-.3767489l.2439142-.24391423-.1730178-.17301786-.2439143.24391423v-.37649301h-.1832556v.5602605l-.1371857.13692981v-.37623706h-.1835116v.55974861l-1.469628 1.46962802c-.0346533.0351444-.0449104.0876149-.0260424.1332217.0188679.0456068.0631972.0754944.1125513.0758842.0324036.0001607.0635017-.0127584.086253-.0358321l1.469884-1.46988396h.5600045v-.18351155h-.376237l.1369298-.13692982z"/></g><path d="m31.9929473 4.61125014c-1.2722543-.00007067-2.3035629-1.03149385-2.3034922-2.30374815.0000707-1.27225429 1.0314939-2.30356288 2.3037482-2.30349221 1.2722543.00007068 2.3035629 1.03149386 2.3034922 2.30374815-.0000707 1.2722543-1.0314939 2.30356289-2.3037482 2.30349221" fill="#2e3192"/><path d="m31.9929473 3.55753043c.1919577 0 .3639518.11722216.4384314.29817427l.004607.0117734c.1577625-.05786519.3030135-.14534591.4279376-.25773518l-.0015356-.00204755c-.122597-.16815493-.1341145-.37726083-.0404391-.54592765.092191-.1686681.2774196-.26462258.4683767-.24263452l.0127972.00153567c.0153566-.08343761.0230349-.1696906.0230349-.2572233 0-.08727676-.0076783-.17352975-.0230349-.2572233l-.0115174.00153566c-.1912944.02270402-.3771879-.07312992-.4696565-.24212262-.088467-.15913261-.0836658-.35372775.0125412-.50830395v-.01791605l.0281538-.02303492c-.1245394-.1116827-.269148-.19870842-.426146-.25645547l-.0051189.01228529c-.0722184.17894628-.245464.29646606-.4384314.29740644-.1926839-.00116716-.3656621-.11837206-.4381754-.29689455l-.0051188-.01279718c-.1452977.05339137-.2800932.13187774-.3982483.23188489l.0010238.06654533c.0946991.15254237.1003299.34808326.0115175.50676828-.0922184.16929643-.2782205.26538906-.4696565.24263451l-.0115174-.00153566c-.0308865.16973967-.0309732.34365245-.000256.51342282l.0025594-.00102377h.0220112c.1776248-.02175521.3621602.07319986.4568593.2431464.0935749.16878324.0820306.3762808-.0296895.53364236l-.0115174.01484473c.1241283.11152342.2683038.19846304.4248663.25619952l.0071664-.01177341c.0725455-.17853191.2454718-.2958026.4381754-.29715049zm.3309351.54183255-.0540041-.06500966c-.0146698-.03627523-.0249797-.07416425-.0307132-.11287112-.0433829-.09738936-.1396074-.16050544-.2462178-.1615004-.1054487 0-.2016835.06347401-.2469855.163292-.0055221.03816994-.0155748.07554547-.0299454.11133546l-.0166364.02764191-.0307132.03532021-.0934194.00025594-.0107496-.01279718c-.2360097-.07118687-.4511982-.19863112-.6270618-.37137413h-.0230349l-.0532363-.11389489.0355762-.04811739c.0240587-.03276078.0511887-.06142646.0803663-.08497327.0593789-.09137186.063474-.21012968.0102377-.30636447-.0499931-.09280534-.1494634-.14798885-.2546638-.14128085-.036373.01464134-.0744812.02453399-.1133831.02943351l-.1136389.01382095v-.10237743c-.032482-.12972567-.0487307-.26298259-.0483733-.39671254 0-.12182915.013309-.2413548.0391593-.35652941l-.02713-.031737.1010977-.10237743.0488852.00614264c.0383916.00460699.0760153.01458879.1126152.02917757.1036572.00691048.2027073-.04683768.2554317-.1415368.0537482-.09623479.0493971-.21524855-.0104937-.30662041-.0300722-.02475538-.0569785-.05312305-.0801103-.08446138l-.0519566-.06936071.0916278-.09239563c.1761986-.17275457.3916153-.30026582.6278296-.37163008l.0102378-.01228529.0936753-.00025594.0483734.06398589c.0145888.03685588.0248265.07499147.0302013.11312707.0460699.09802639.1412809.16073256.2462177.16073256.1049369 0 .2001479-.06270617.2462178-.16073256.0053748-.03787965.0153566-.0757593.0302013-.11287112l.0230349-.03455239.0307132-.03122511.0890684.00332726.0094699.01074963c.2475557.0747513.4721084.211068.6526562.39620066l.0693607.0639859-.054516.07345581c-.0156126.02124331-.0332727.04095097-.0522125.05912296v.05528382l-.0450461.00025594c-.0427426.08625298-.040951.19042202.0069105.27641906.0524684.09444318.1517745.14767945.2554317.14128086.036344-.01458878.0739677-.02457058.1123592-.02917757l.0491412-.00614264.1008418.10135365-.0271301.03224889c.0555452.24839208.0523025.50632482-.0094699.75324196v.10135365l-.113383-.01279718c-.0390375-.00476704-.0772584-.01475269-.1136389-.02968945-.105106-.00599189-.2042203.04924885-.2544079.14179274-.0532363.09649073-.0491412.21550449.0104936.3071323.0294336.0235468.0563076.0517006.0803663.08446138l.0350643.04786145-.0522125.11287111-.022779.00051189c-.175952.17305938-.3913221.30077066-.6275736.37214196l-.009214.01023775-.0888124.00383915z" fill="#fff"/><path d="m32.2488909 1.73495621c-.3125071 0-.566915.25696735-.566915.57280172 0 .31609032.2544079.57305768.566915.57305768s.566915-.25696736.566915-.57305768c0-.31583437-.2544079-.57280172-.566915-.57280172zm0 1.34063246c-.4233307 0-.7678307-.34450006-.7678307-.76783074 0-.42333067.3445-.76783073.7678307-.76783073s.7678307.34450006.7678307.76783073c0 .42333068-.3445.76783074-.7678307.76783074z" fill="#fff"/><path d="m52.3404618 33.5328745c-1.6252417 0-2.9433511-1.3181094-2.9433511-2.9433511s1.3181094-2.9433512 2.9433511-2.9433512c1.6257536 0 2.9433512 1.3181095 2.9433512 2.9433512s-1.3175976 2.9433511-2.9433512 2.9433511" fill="#f15a24"/><path d="m52.8446707 31.1382664-.0373678.0550279c-.1279718.1886304-.2382834.3519224-.3690706.4530201l-.0107496.0081902h-.1274599l.4297292-1.6022068c.0450232-.0055062.079037-.0434573.0795985-.0888124-.0008414-.0501629-.0419716-.0902649-.0921397-.0898362-.0197907-.0000928-.0390854.0061892-.0550279.017916l-.1799283-.1100557-.0657775.1471676-.0836936-.1835116-.0824138.1835116-.0834376-.1835116-.0824138.1840234-.0824139-.1840234-.0836935.1835116-.0826698-.1835116-.0834376.1835116-.0660335-.1471676-.1796723.1100557c-.0158343-.0115592-.0349116-.0178287-.054516-.017916-.0511887 0-.0923957.0401831-.0923957.0898362 0 .0445342.0332727.08139.0793426.0885565l.4294733 1.6022068h-.1266921l-.0107496-.0081902c-.1295075-.099818-.2393073-.2615744-.3665112-.4486691l-.0404391-.059123c-.3299113-.4845012-.5044648-.9039927-.5044648-1.2139404 0-.770902.5369696-1.3590604 1.2490047-1.3685303h.031737c.712035.0094699 1.2490046.5976283 1.2490046 1.3685303 0 .3096917-.1745535.7294392-.5044648 1.2139404zm-.6173359.5162382h-.285889l-.4338244-1.619355c.022943-.0166738.0365426-.0433025.0366-.0716642 0-.0025595 0-.0058867-.0007679-.0094699l.1097998-.0657775.0985383.2206233.0839495-.1840234.0826698.1840234.0834376-.1840234.0639859.1425606.0056307.0120293h.0266182l.0691047-.1545899.0831817.1840234.0826698-.1840234.0836935.1840234.0990502-.2206233.109032.0657775-.000256.0094699c0 .0291776.013821.0555397.0368559.0719201zm-.054772-3.2376863v-.0028153l-.1755772.0010237v.0015357c-.7550336.0470936-1.320157.6879763-1.320157 1.5075077 0 .3437322.1781367.7788363.5292913 1.2935388l.0383915.0565635c.099818.1469117.1873507.2764191.286145.3803322-.0498389.0288557-.0805046.0821015-.0804518.1396911.0000528.0575895.030816.1107791.0807077.1395434-.0198152.0708567.0106846.1461596.0742236.1832556-.0133439.049611-.0027545.1026074.0286296.1432812.031384.0406738.0799619.0643581.1313352.0640331h.0575873c.0138209.045046.049909.0857411.0737117.108776.0286657.0281538.0870208.0760152.1466557.0760152h.0829257c.0557957 0 .1108236-.0412069.1476795-.0765271.0281538-.0276419.0604026-.0665453.0729439-.1082641h.0578432c.0916278 0 .1663634-.072944.1663634-.1625242-.0000901-.0150856-.0023308-.0300813-.0066546-.0445342.0643329-.0369244.0951756-.1129749.0747355-.1842794.0496164-.0288759.0801383-.081954.0801383-.1393613s-.0305219-.1104853-.0801383-.1393612c.0982824-.1036572.1858151-.2331646.2864009-.3816119l.0376237-.0550279c.3511546-.5147025.5292913-.9498066.5292913-1.2932829 0-.8197873-.5646115-1.46067-1.3196451-1.5075077z" fill="#fff"/><path d="m13.6929815 30.205608c-.91887 0-1.6637613-.7448913-1.6637613-1.6637612 0-.91887.7448913-1.6637613 1.6637613-1.6637613.9188699 0 1.6637612.7448913 1.6637612 1.6637613 0 .9188699-.7448913 1.6637612-1.6637612 1.6637612" fill="#22b573"/><path d="m6.27061768 14.8489933c-.91879928 0-1.66363326-.744834-1.66363326-1.6636333s.74483398-1.6636332 1.66363326-1.6636332 1.66363326.7448339 1.66363326 1.6636332-.74483398 1.6636333-1.66363326 1.6636333" fill="#009245"/><path d="m5.50278694 41.9790126c-.91886996 0-1.66376123-.7448913-1.66376123-1.6637612 0-.91887.74489127-1.6637612 1.66376123-1.6637612s1.66376123.7448912 1.66376123 1.6637612c0 .9188699-.74489127 1.6637612-1.66376123 1.6637612" fill="#f7931e"/><path d="m19.3237402 46.0741099c-.9187993 0-1.6636333-.744834-1.6636333-1.6636333s.744834-1.6636332 1.6636333-1.6636332 1.6636333.7448339 1.6636333 1.6636332-.744834 1.6636333-1.6636333 1.6636333" fill="#1b1464"/><path d="m27.7698783 57.5915709c-.9187993 0-1.6636333-.744834-1.6636333-1.6636332 0-.9187993.744834-1.6636333 1.6636333-1.6636333s1.6636332.744834 1.6636332 1.6636333c0 .9187992-.7448339 1.6636332-1.6636332 1.6636332" fill="#fbb03b"/><path d="m42.6146058 53.4964737c-.9188699 0-1.6637612-.7448913-1.6637612-1.6637613 0-.9188699.7448913-1.6637612 1.6637612-1.6637612.91887 0 1.6637613.7448913 1.6637613 1.6637612 0 .91887-.7448913 1.6637613-1.6637613 1.6637613" fill="#006837"/><path d="m50.0369696 41.9790126c-.9187993 0-1.6636332-.744834-1.6636332-1.6636332 0-.9187993.7448339-1.6636333 1.6636332-1.6636333s1.6636333.744834 1.6636333 1.6636333c0 .9187992-.744834 1.6636332-1.6636333 1.6636332" fill="#2e3192"/><path d="m52.3404618 20.7356956c-.9188699 0-1.6637612-.7448913-1.6637612-1.6637612 0-.91887.7448913-1.6637613 1.6637612-1.6637613.91887 0 1.6637613.7448913 1.6637613 1.6637613 0 .9188699-.7448913 1.6637612-1.6637613 1.6637612" fill="#ed1e79"/><path d="m42.3586623 33.0209874c-.91887 0-1.6637613-.7448913-1.6637613-1.6637613 0-.9188699.7448913-1.6637612 1.6637613-1.6637612.9188699 0 1.6637612.7448913 1.6637612 1.6637612 0 .91887-.7448913 1.6637613-1.6637612 1.6637613" fill="#9e005d"/><path d="m20.8594017 13.5692754c-.9187993 0-1.6636333-.744834-1.6636333-1.6636333 0-.9187992.744834-1.6636332 1.6636333-1.6636332.9187992 0 1.6636332.744834 1.6636332 1.6636332 0 .9187993-.744834 1.6636333-1.6636332 1.6636333" fill="#c1272d"/><path d="m40.0551701 6.40285519c-.9187993 0-1.6636333-.74483398-1.6636333-1.66363326s.744834-1.66363326 1.6636333-1.66363326c.9187992 0 1.6636332.74483398 1.6636332 1.66363326s-.744834 1.66363326-1.6636332 1.66363326" fill="#fbb03b"/><path d="m23.1628939 3.33153225c-.9187993 0-1.6636333-.74483398-1.6636333-1.66363326s.744834-1.66363326 1.6636333-1.66363326c.9187992 0 1.6636332.74483398 1.6636332 1.66363326s-.744834 1.66363326-1.6636332 1.66363326" fill="#662d91"/><g transform="translate(0 8.19446)"><path d="m6.51632351 0c2.46780799 0 4.46826299 2.00071095 4.46826299 4.46877488 0 2.46780799-2.000455 4.468263-4.46851893 4.468263s-4.46851894-2.00045501-4.46851894-4.468263c0-2.46806393 2.00045501-4.46877488 4.46877488-4.46877488z" fill="#3b5998"/><path d="m7.06020362 3.07644182h.57587305v-.85075646h-.67697077v.00307132c-.82029917.02892163-.9884541.49013196-1.00329882.97437721h-.00153567v.42486634h-.55898077v.83309635h.55872483v2.23310772h.84179843v-2.23310772h.689512l.13309066-.83309635h-.82234672v-.25671141c0-.16380389.10877603-.294847.26362189-.294847z" fill="#fff"/><g transform="translate(0 27.89785)"><circle cx="4.447276" cy="4.44702" fill="#55acee" r="4.44702"/><path d="m7.17128313 3.19596747c-.19405083.08595369-.3999048.14229176-.61068138.16713115.22204057-.13273763.38823687-.34168832.46760892-.5879024-.20870076.1238706-.43705398.21112611-.67517916.25799113-.32909299-.35172782-.85353668-.4382656-1.27818326-.21091138-.42464657.22735423-.64339171.71179261-.53312945 1.1806816-.85476989-.04282418-1.6511499-.44659628-2.19087703-1.11079513-.28276088.48563103-.13865973 1.10745274.3288875 1.41920714-.16890059-.0051668-.33409207-.0508095-.48168582-.13309066v.01330907c.00018202.50602515.35682446.9418739.85280401 1.04220225-.15652585.04283872-.32080133.04914354-.48015016.01842794.13927649.43297517.53831702.72958158.99306109.73814128-.4453429.34987524-1.01155655.50825668-1.57379707.44022295.48595359.31241731 1.05162145.4782257 1.62933683.47759072 1.95540894 0 3.02448526-1.61961096 3.02448526-3.02448527 0-.04606984-.00102377-.09213969-.00307132-.1374417.20822769-.15035251.38790937-.33670833.53057104-.55027869z" fill="#f1f2f2"/></g><path d="m43.6281424 39.9271983c2.467808 0 4.468263 2.0007109 4.468263 4.4687749 0 2.467552-2.000455 4.468263-4.4685189 4.468263-2.468064 0-4.468519-2.000711-4.468519-4.468263 0-2.4675521 2.000455-4.4687749 4.4687749-4.4687749z" fill="#0e76a8"/><path d="m41.6773405 46.0670288h.8369355v-2.7890172h-.8369355zm3.2599533-2.8855079c-.4061824 0-.7696223.1484472-1.0273575.4755431v-.3882664h-.8394949v2.7982312h.8394949v-1.5131385c0-.3199294.2930554-.6316687.6600785-.6316687s.4573712.3117393.4573712.6237345v1.5208167h.8369355v-1.583011c0-1.0995336-.5208452-1.3022409-.9270277-1.3022409zm-2.8453247-.1822319c.2314667-.0001413.418993-.1878968.4188516-.4193635-.0001413-.2314667-.1878968-.418993-.4193635-.4188517-.2314668.0001414-.418993.1878968-.4188517.4193636.0001414.2314667.1878968.418993.4193636.4188516z" fill="#fff"/><g transform="translate(48.117393 6.398589)"><circle cx="4.478245" cy="4.478245" fill="#d42428" r="4.478245"/><path d="m7.64503469 1.31119895c1.74886248 1.74911842 1.74886248 4.58471733 0 6.33383574-1.74911841 1.74886248-4.58497326 1.74886248-6.33383574 0l6.3335798-6.33383574z" fill="#cc202d"/><path d="m8.8884086 5.25324195-3.01373564-3.01399158-.2431464.2431464-.2431464-.2431464-.26643726.26643727.17890456.1791605-.05835514.05835514-.46428165-.46428166-.01970766.0199636-.62501421-.62501422-.26643727.26618133.07268798.07319986-.10698442.10698442-.45071664-.45071665-.18683881.18683882.43945512 1.05832669-.19810033.81262087.54132067.54132066-1.36878626.0957229-.02047549 2.37490047 2.20213856 2.20495393c2.06367307-.14639973 3.74854965-1.68999545 4.09791263-3.6907064z" fill="#ba202e"/><path d="m6.08019565 5.51686384h-.2889603l.00153567-.16789899c0-.07447958.06117051-.1356501.13590604-.1356501h.01868388c.07473552 0 .13616198.06117052.13616198.1356501zm-1.08315322-.35960073c-.07319986 0-.13309066.04939711-.13309066.10954385v.81569219c0 .06014674.0598908.1092879.13309066.1092879.07345581 0 .1333466-.04914116.1333466-.1092879v-.81569219c0-.06014674-.05989079-.10954385-.1333466-.10954385zm1.75884427-.45609146v1.55152998c0 .3723979-.32274485.67671482-.71740985.67671482h-2.9494938c-.39492094 0-.71740985-.30457286-.71740985-.67671482v-1.55152998c0-.3723979.32248891-.67697076.71740985-.67697076h2.9494938c.394665 0 .71740985.30457286.71740985.67697076zm-3.47033898 1.71994085v-1.63445569h.36548743v-.24212263l-.97463315-.00127972v.23802753l.30431692.00076783v1.63906268zm1.09620635-1.39079741h-.30508475v.87276761c0 .12618018.00767831.18939825-.00025594.21166534-.02482653.0675691-.13641793.13948925-.17967239.00742236-.00742237-.02329086-.00102378-.09316346-.00102378-.213201l-.00153566-.87865431h-.3030372l.00102378.86483336c0 .13257877-.00307133.23137299.00102377.27641906.00767831.07934251.00460699.17199409.07857468.22446252.13692981.09905017.39978387-.01458878.46581731-.15586964l-.00076783.18018428.24468206.00051189v-1.39054147zm.97514503.99945968-.00051189-.72662382c-.00025594-.27693095-.20731429-.44278239-.48885223-.21857582l.00127972-.54004095-.30457286.00025595-.00127972 1.86429302.25031282-.00383915.02277898-.11619839c.31992947.29407918.52135707.09265158.52084518-.25927084zm.95415766-.09623479-.22855761.00102378-.00076783.03096917v.12771585c0 .06833693-.05630759.12387669-.12490047.12387669h-.04453418c-.06864033.00014225-.12447778-.05523752-.12490047-.12387669v-.33554203h.52340462v-.19707656c0-.14384029-.00358321-.28793653-.01535662-.37009441-.0376237-.26055057-.40311113-.30201343-.5879024-.16841088-.05784324.04146286-.10212148.09725856-.12797179.17225003-.0258503.07499147-.03890342.17711296-.03890342.30713229v.43305654c.00025594.71996929.87481515.61810374.77064612-.00102378zm-1.17247753-2.35186554c.01535661.03839154.0399272.06910477.07319986.09290752.03694653.02419376.08051484.03627122.12464453.03455238.04184016.00075911.0827961-.01208453.11671027-.03659993.03404049-.02431464.06245023-.06065863.0857411-.10928791l-.00588671.1197816h.33989308v-1.44531339h-.26771699v1.12487203c-.00285126.05948487-.05191026.10624867-.11146343.10624867-.05955316 0-.10861216-.0467638-.11146342-.10624867v-1.12487203h-.27897851v.97463315c0 .12438857.00204755.20705835.00563076.2490331.0040951.0417188.01356501.08190194.02943352.12029348zm-1.02991696-.81620407c0-.13872142.0117734-.24698556.03455238-.32504835.02303492-.07780685.06475373-.14025708.12490047-.1873507.06014674-.0476055.13718576-.07115231.23034922-.07115231.07857468 0 .14588784.01535661.20219543.04555796.05630758.03045728.10032988.06987259.13053122.11850187.03071323.04888523.0517006.09930611.06296212.15049483.01151746.05221249.01689228.13078716.01689228.23674781v.36548743c0 .13411443-.00511887.23265271-.01561256.29535889-.01023774.06270617-.03250484.12106131-.06705722.17557729-.0312897.05163888-.07666058.09328064-.13078717.12003754-.05374815.02610624-.11517461.03890342-.18427937.03890342-.07755091 0-.14281652-.01074963-.19656467-.03327266-.05099443-.01985221-.09473745-.05475736-.12541236-.10007394-.03170801-.04925252-.05328598-.10432855-.063474-.16201229-.01279718-.06321806-.01893983-.15817313-.01893983-.2848652v-.38289159zm.26618132.57433739c0 .081646.06091457.14844727.13513821.14844727s.13488227-.06654533.13488227-.14844727v-.7693664c0-.08190194-.06065863-.14844728-.13488227-.14844728s-.13513821.06654534-.13513821.14844728zm-.94059265.38826641h.3206973l.00025595-1.1082357.37879649-.94955068h-.3506427l-.2014276.70538051-.20424297-.70717211h-.34680355l.40285519.95211011z" fill="#fff"/></g></g></g></svg>