<svg height="27" viewBox="0 0 27 27" width="27" xmlns="http://www.w3.org/2000/svg"><g fill="none" fill-rule="evenodd" transform="translate(1 1)"><path d="m1.20967742 2.01612903v17.33870967h2.05685484c-.02661291-.1302419-.04072581-.2649193-.04072581-.4032258 0-1.1133064.90282258-2.016129 2.01612903-2.016129 1.11330646 0 2.01612904.9028226 2.01612904 2.016129 0 .1383065-.01411291.2729839-.04072581.4032258h3.30725809c-.0266129-.1302419-.0407258-.2649193-.0407258-.4032258 0-1.1133064.9028225-2.016129 2.016129-2.016129s2.016129.9028226 2.016129 2.016129c0 .1383065-.0141129.2729839-.0407258.4032258h3.3072581c-.0266129-.1302419-.0407258-.2649193-.0407258-.4032258 0-1.1133064.9028226-2.016129 2.016129-2.016129 1.1133065 0 2.016129.9028226 2.016129 2.016129 0 .1383065-.0141129.2729839-.0407258.4032258h2.0568549v-17.33870967z" fill="#b4d0f0" fill-rule="nonzero"/><g stroke="#194b86" stroke-width=".4"><path d="m14.6342742 5.52701613.6866935.68669355c-1.0580645.29354838-3.0306451 1.09314516-4.7471774 3.20967742-2.30564514 2.8427419-2.50161288 6.1423387-2.50927417 6.2814516l.80564516.0419355c.0016129-.0314516.18790323-3.1745968 2.32943551-5.81532259 1.5939516-1.96532258 3.4524193-2.69233871 4.3802419-2.94798387l-.2455645.98346774.7818548.19516129.458871-1.83427419-1.3709677-1.37096774z"/><path d="m19.1532258 7.25806452c.7782258 0 1.4112903-.63306452 1.4112903-1.41129033 0-.7782258-.6330645-1.41129032-1.4112903-1.41129032s-1.4112903.63306452-1.4112903 1.41129032c0 .77822581.6330645 1.41129033 1.4112903 1.41129033zm0-2.01612904c.3334677 0 .6048387.27137097.6048387.60483871 0 .33346775-.271371.60483871-.6048387.60483871s-.6048387-.27137096-.6048387-.60483871c0-.33346774.271371-.60483871.6048387-.60483871z"/><path d="m7.94637097 6.73669355.72298387-.72298387.72298387.72298387.57016129-.57016129-.72298387-.72298387.72298387-.72298387-.57016129-.57016129-.72298387.72298387-.72298387-.72298387-.57016129.57016129.72298387.72298387-.72298387.72298387z"/><path d="m3.9141129 11.5754032.72298387-.7229838.72298388.7229838.57016129-.5701613-.72298388-.7229838.72298388-.72298391-.57016129-.57016129-.72298388.72298387-.72298387-.72298387-.57016129.57016129.72298387.72298391-.72298387.7229838z"/><path d="m15.8439516 11.4084677-.7229839.7229839-.7229838-.7229839-.5701613.5701613.7229839.7229839-.7229839.7229839.5701613.5701613.7229838-.7229839.7229839.7229839.5701613-.5701613-.7229839-.7229839.7229839-.7229839z"/><path d="m0 0v2.41935484h25v-2.41935484zm24.1935484 1.61290323h-23.38709679v-.80645162h23.38709679z"/><path d="m6.23951613 21.1532258c.83709677-.3810484 1.42177419-1.2233871 1.42177419-2.2016129 0-1.3342742-1.08508064-2.4193548-2.41935484-2.4193548-1.33427419 0-2.41935483 1.0850806-2.41935483 2.4193548 0 .9782258.58467741 1.8205645 1.42177419 2.2016129-1.06451613.4044355-1.825 1.4322581-1.825 2.6370968v1.2096774h5.64516129v-1.2096774c0-1.2048387-.76048387-2.2326613-1.825-2.6370968zm-2.61048387-2.2016129c0-.8895161.72338709-1.6129032 1.61290322-1.6129032s1.61290323.7233871 1.61290323 1.6129032-.7233871 1.6129032-1.61290323 1.6129032-1.61290322-.7233871-1.61290322-1.6129032zm3.62903226 5.2419355h-4.03225807v-.4032258c0-1.1116936.90443549-2.0161291 2.01612903-2.0161291 1.11169355 0 2.01612904.9044355 2.01612904 2.0161291z"/><path d="m13.4975806 21.1532258c.8370968-.3810484 1.4217742-1.2233871 1.4217742-2.2016129 0-1.3342742-1.0850806-2.4193548-2.4193548-2.4193548s-2.4193548 1.0850806-2.4193548 2.4193548c0 .9782258.5846774 1.8205645 1.4217742 2.2016129-1.0645162.4044355-1.82500005 1.4322581-1.82500005 2.6370968v1.2096774h5.64516125v-1.2096774c0-1.2048387-.7604838-2.2326613-1.825-2.6370968zm-2.6104838-2.2016129c0-.8895161.7233871-1.6129032 1.6129032-1.6129032s1.6129032.7233871 1.6129032 1.6129032-.7233871 1.6129032-1.6129032 1.6129032-1.6129032-.7233871-1.6129032-1.6129032zm3.6290322 5.2419355h-4.032258v-.4032258c0-1.1116936.9044355-2.0161291 2.016129-2.0161291s2.016129.9044355 2.016129 2.0161291z"/><path d="m20.7556452 21.1532258c.8370967-.3810484 1.4217742-1.2233871 1.4217742-2.2016129 0-1.3342742-1.0850807-2.4193548-2.4193549-2.4193548s-2.4193548 1.0850806-2.4193548 2.4193548c0 .9782258.5846774 1.8205645 1.4217742 2.2016129-1.0645162.4044355-1.825 1.4322581-1.825 2.6370968v1.2096774h5.6451613v-1.2096774c0-1.2048387-.7604839-2.2326613-1.825-2.6370968zm-2.6104839-2.2016129c0-.8895161.7233871-1.6129032 1.6129032-1.6129032s1.6129032.7233871 1.6129032 1.6129032-.7233871 1.6129032-1.6129032 1.6129032-1.6129032-.7233871-1.6129032-1.6129032zm3.6290322 5.2419355h-4.032258v-.4032258c0-1.1116936.9044355-2.0161291 2.016129-2.0161291 1.1116936 0 2.016129.9044355 2.016129 2.0161291z"/></g></g></svg>