<svg height="50" viewBox="0 0 50 50" width="50" xmlns="http://www.w3.org/2000/svg"><path d="m46.8207071 33.7828125c.8579102-3.3050781-.703125-6.9275391-3.9981445-8.4639648l-5.3105469-2.4763672c-.3072266-.1432618-.6229492-.2464844-.9412109-.3143555.975-.8067383 1.5973632-2.0254883 1.5973632-3.3868164v-5.8595703c0-3.57998049-2.5824218-6.56621096-5.9818359-7.19902346-.619043-3.40205078-3.5868164-6.08271484-7.2022461-6.08271484-3.6124023 0-6.5826172 2.67802734-7.2022461 6.08271484-3.3994141.63271485-5.9818359 3.61894532-5.9818359 7.19902346v5.8595703c0 1.3613281.6222656 2.5800781 1.5973633 3.3868164-.3183594.0678711-.6339844.1709961-.9413086.3142578l-5.31054692 2.4763672c-3.29560547 1.5368164-4.85595703 5.1594727-3.99814453 8.4639648-2.86318359 2.0215821-3.98359375 5.8248047-2.47646484 9.0567383 1.50859375 3.2350586 5.16875 4.9524414 8.5602539 4.0913086 2.00986329 2.8191406 5.81249999 3.8966797 9.05810549 2.3833008l5.3105469-2.4763672c.5394531-.2515625 1.0046875-.6077148 1.384375-1.0342773.3795898.4265625.8448242.7827148 1.3842773 1.0342773l5.3105469 2.4763672c3.246875 1.5140625 7.0490234.4344727 9.0580078-2.3833008 3.3539062.8517578 7.0347656-.8197265 8.5602539-4.0913086 1.5071289-3.2318359.3867187-7.0351562-2.4765625-9.0566406zm-10.5466797-8.2848633 5.3104492 2.4761719c1.794043.8365234 2.7582032 2.7379883 2.4931641 4.6035156-3.2166992-.686914-6.6611328.8776367-8.1510742 4.0639649l2.4730468-5.303418c.3418946-.7332031.0246094-1.6048828-.708496-1.9467774l-2.6552735-1.2381835c-.7320312-.3413086-1.0499023-1.2146485-.7084961-1.9467774.3419922-.7335937 1.2128906-1.0508789 1.9466797-.7084961zm-11.2899414-22.56816404c2.3822266 0 4.3947266 2.05722656 4.3947266 4.49238281 0 2.42324219-1.9714844 4.39472653-4.3947266 4.39472653s-4.3947266-1.97148434-4.3947266-4.39472653c.0000977-2.43515625 2.0125977-4.49238281 4.3947266-4.49238281zm-10.2541992 10.35195314c0-1.9801758 1.3167969-3.65800783 3.1204101-4.20556642.7520508 3.24433592 3.6639649 5.67050782 7.1338868 5.67050782 3.4699218 0 6.3817382-2.4261719 7.1338867-5.67050782 1.8037109.54755859 3.1204101 2.22548832 3.1204101 4.20556642v5.8595703c0 .8077148-.6571289 1.4649414-1.4648437 1.4649414-.8077149 0-1.4649414-.6571289-1.4649414-1.4649414v-2.9297852c0-.8089843-.6558594-1.4649414-1.4648438-1.4649414h-5.8597656-5.8595703c-.8089844 0-1.4648438.6558594-1.4648438 1.4649414v2.9297852c0 .8077148-.6571289 1.4649414-1.4649414 1.4649414s-1.4649414-.6571289-1.4649414-1.4649414v-5.8595703zm-6.34619142 14.6923828 5.31054692-2.4763672c.733789-.3420898 1.6045898-.025293 1.9467773.7084961.3421875.7336914.025293 1.6046875-.7084961 1.9467773l-2.6552734 1.2381836c-.7332032.3418946-1.0503907 1.2134766-.7084961 1.9467774l2.4743164 5.3061523c-1.4889649-3.1876953-4.93427737-4.7539062-8.15234377-4.0666992-.26523438-1.865332.69902343-3.7667969 2.49296875-4.6033203zm.88027343 15.8504883c-2.20019531 1.0259765-4.909375-.0175781-5.93789062-2.2233399-1.01435547-2.1755859-.01699219-4.7955078 2.2234375-5.8401367 2.20517578-1.0283203 4.81582031-.0711914 5.84013671 2.1256836 1.0270508 2.2023438.0536133 4.921582-2.12568359 5.937793zm13.09775389.3578125-5.3105469 2.4763672c-1.7952148.8371093-3.8730468.3522461-5.1314453-1.0519532 1.0732422-.84375 1.8950196-1.9811523 2.3727539-3.3164062.6667969-1.8638672.5795899-3.865918-.2455078-5.637793l2.4745117 5.3066406c.3416016.7325196 1.213379 1.0504883 1.9467774.7084961l2.6552734-1.2381836c.7337891-.3420898 1.6045899-.0252929 1.9467774.7084961.3496093.7499024.0185547 1.7052735-.7085938 2.044336zm2.6223633-4.3946289c-1.2359375-1.3524414-3.2838867-1.859961-5.0989258-1.0135742l-1.3276367.6190429-3.7145508-7.9658203 1.3276367-.619043c2.1961914-1.0240234 3.1497071-3.6439453 2.1256836-5.8402343-.2851562-.6115235-.6943359-1.1263672-1.1833007-1.5293946 1.9838867-.4234375 3.4764648-2.1891601 3.4764648-4.2974609v-1.4649414h8.7893555v1.4649414c0 2.1083008 1.4926757 3.8739258 3.4764648 4.2974609-.4890625.4029297-.8981445.9177735-1.1833008 1.5293946-1.0240234 2.196289-.0705078 4.8161132 2.1256836 5.8402343l1.3277344.619043-3.7145508 7.9658203-1.3276367-.6190429c-1.8148438-.8460938-3.8628906-.3391602-5.0991211 1.0135742zm7.9331055 6.8710937-5.3105469-2.4763672c-.7271484-.3390625-1.0582031-1.2943359-.7084961-2.0444336.3414063-.7321289 1.2147461-1.0499023 1.9467773-.7084961l2.6552735 1.2381836c.7326172.3416016 1.6049805.0246094 1.9467773-.7084961l2.4735352-5.3043945c-.8240235 1.7714844-.9110352 3.7724609-.2445313 5.6355469.4777344 1.3352539 1.2994141 2.4726562 2.3727539 3.3164062-1.2584961 1.4042969-3.3362304 1.8891602-5.1315429 1.0520508zm13.7248047-5.0576172c-1.0278321 2.2041993-3.7364258 3.25-5.9378907 2.2233399-2.1791992-1.0161133-3.1526367-3.7353516-2.1256836-5.9378906 1.0265625-2.2017579 3.6386719-3.1521485 5.8401368-2.1256836 2.240625 1.0447265 3.2380859 3.6646484 2.2234375 5.8402343z" fill="#fff" transform=""/></svg>