<svg height="30" viewBox="0 0 30 30" width="30" xmlns="http://www.w3.org/2000/svg"><g fill="none" transform=""><circle cx="15.031268" cy="14.978571" fill="#d6ecf7" r="14.937646"/><path d="m14.9844266.46243461-14.51613686 6.50885312 14.51613686 6.50885307 14.5161971-6.50885307z" fill="#d6ecf7"/><path d="m14.9844266 13.9484306c-.0468411 0-.1404628 0-.1873039-.0468411l-14.51613679-6.50885308c-.18730382-.09368209-.28098591-.23414487-.28098591-.42144869 0-.18730383.09368209-.37460765.28098591-.4214487l14.51613679-6.50885311c.1404628-.04684105.280986-.04684105.3746077 0l14.5161972 6.50885311c.1873038.0936821.2809859.23414487.2809859.4214487 0 .18730382-.0936217.37460764-.2809859.42144869l-14.5161972 6.50885308c-.0467807.0468411-.1404628.0468411-.1873038.0468411zm-13.39231392-6.97714287 13.39237422 5.99378267 13.3923743-5.99378267-13.3924346-5.9937827z" fill="#194b86"/><path d="m23.6005231 7.4395171c-5.3850301-2.48179074-11.8471026-2.48179074-17.23213276 0v7.4453722c5.38503016 2.4817908 11.84710266 2.4817908 17.23213276 0z" fill="#fff"/><g fill="#194b86"><path d="m14.9844266 17.2262777c-3.0437023 0-6.08740447-.6555936-8.80334008-1.8730383-.18730382-.0936821-.28098592-.2341448-.28098592-.4214487v-7.44543255c0-.18730382.0936821-.3277666.28098592-.42144869 2.71593561-1.21750503 5.75963778-1.87303823 8.80334008-1.87303823 3.0437022 0 6.0874044.65559356 8.80334 1.87303823.1873038.09368209.2809859.23414487.2809859.42144869v7.44543255c0 .1873039-.0936821.3277666-.2809859.4214487-2.7158753 1.2174447-5.7595775 1.8730383-8.80334 1.8730383zm-8.14774652-2.6223139c2.52863179 1.1238229 5.33818912 1.6857344 8.14780682 1.6857344s5.6191751-.5619115 8.1478069-1.6857344v-6.83661974c-2.5286318-1.12382293-5.3381892-1.6857344-8.1478069-1.6857344s-5.61917503.56191147-8.14780682 1.6857344z"/><path d="m14.9844266 14.8849497c-2.341328 0-4.6358149-.4214487-6.74299803-1.217505v-4.96358152c2.10718313-.79605634 4.40167003-1.21750503 6.74299803-1.21750503 2.3413279 0 4.6358148.42144869 6.7429979 1.21750503v4.96358152c-2.1071831.7960563-4.40167 1.217505-6.7429979 1.217505z"/><path d="m2.90323944 13.1992153c-.28098592 0-.46828974-.1873038-.46828974-.4682897v-4.68265598c0-.28098592.18730382-.46828974.46828974-.46828974.28098591 0 .46828974.18730382.46828974.46828974v4.68265598c0 .2809859-.23414487.4682897-.46828974.4682897z"/></g><ellipse cx="2.903239" cy="13.854749" fill="#fff" rx="1.217505" ry="1.123823"/><g transform="translate(1.207243 10.684105)"><path d="m1.69599598 4.76275654c-.93651912 0-1.68573441-.70237425-1.68573441-1.59211268s.74921529-1.59211267 1.68573441-1.59211267c.93651911 0 1.6857344.70237424 1.6857344 1.59211267s-.74921529 1.59211268-1.6857344 1.59211268zm0-2.24764588c-.4214487 0-.7492153.28098592-.7492153.65559357 0 .37460764.3277666.65559356.7492153.65559356.42144869 0 .74921529-.28098592.74921529-.65559356 0-.32782697-.3277666-.65559357-.74921529-.65559357z" fill="#194b86"/><g fill="#fff"><path d="m10.499336.03332h1v1h-1z"/><path d="m13.308954.03332h1v1h-1z"/><path d="m16.118511.03332h1v1h-1z"/></g></g><path d="m29.5006237 27.3875855v-3.558833c0-1.170664-.9365191-2.1071831-2.1071831-2.1071831h-4.5421328c-2.1540241 0-3.8865996 1.7325755-3.8865996 3.8865996 0 2.1540242 1.7325755 3.8865996 3.8865996 3.8865996h4.5421932c1.1706036 0 2.1071227-.9365191 2.1071227-2.1071831z" fill="#fff"/><path d="m27.3934406 21.25334h-4.5421328c-2.388169 0-4.3548289 1.9667204-4.3548289 4.354829 0 2.3881087 1.9667203 4.354829 4.3548289 4.354829h4.5421932c1.4048089 0 2.5754728-1.170664 2.5754728-2.5754728v-3.558833c-.0000603-1.4046882-1.1707243-2.5753522-2.5755332-2.5753522zm1.6389538 6.1342455c0 .8896781-.7492153 1.6389537-1.6389538 1.6389537h-4.5421328c-1.8730382 0-3.4183098-1.5452716-3.4183098-3.4183098 0-1.8730383 1.5452716-3.4183099 3.4183098-3.4183099h4.5421932c.8896781 0 1.6389537.7492153 1.6389537 1.6389537v3.5587123z" fill="#194b86"/><path d="m22.8513078 29.4947686h1.6857345v-3.8865996h-5.5723341c0 2.1540242 1.7325755 3.8865996 3.8865996 3.8865996z" fill="#fff"/><path d="m24.5838833 29.9630584h-1.6857344c-2.388169 0-4.354829-1.9667204-4.354829-4.354829 0-.2809859.1873038-.4682898.4682898-.4682898h5.572334c.2809859 0 .4682897.1873039.4682897.4682898v3.8865996c-.0001207.2809255-.2342052.4682294-.4683501.4682294zm-5.1041046-3.8865996c.2341448 1.6388933 1.6389537 2.9500804 3.3715291 2.9500804h1.2175051v-2.9500804z" fill="#194b86"/><path d="m24.5838833 21.7216298h-1.6857344c-2.1540242 0-3.8865996 1.7325754-3.8865996 3.8865996h5.572334z" fill="#fff"/><path d="m24.5838833 26.0764588h-5.6191751c-.2809859 0-.4682897-.1873039-.4682897-.4682898 0-2.388169 1.9667203-4.354829 4.354829-4.354829h1.6857344c.2809859 0 .4682897.1873039.4682897.4682898v3.8865996c.0468411.2809255-.1872434.4682294-.4213883.4682294zm-5.1041046-.9365192h4.6358149v-2.9500804h-1.2175051c-1.7793561 0-3.184165 1.3111267-3.4183098 2.9500804z" fill="#194b86"/><path d="m20.3226761 25.608169c0 .4682898.3746076.7960564.7960563.7960564h1.2642857c.4682897 0 .7960563-.3746077.7960563-.7960564 0-.4682897-.3746076-.7960563-.7960563-.7960563h-1.2642857c-.4214487.0000603-.7960563.3278269-.7960563.7960563z" fill="#fff"/><g fill="#194b86" transform="translate(0 16.358149)"><path d="m22.3830181 10.5612072h-1.2642857c-.7023743 0-1.2642857-.56191143-1.2642857-1.26428567 0-.70237425.5619114-1.26428572 1.2642857-1.26428572h1.2642857c.7023743 0 1.2642857.56191147 1.2642857 1.26428572.0468411.6555332-.5150704 1.26428567-1.2642857 1.26428567zm-1.217505-1.63895368c-.1873038 0-.3277666.14046278-.3277666.3277666s.1404628.3277666.3277666.3277666h1.2642857c.1873038 0 .3277666-.14046278.3277666-.3277666s-.1404628-.3277666-.3277666-.3277666z"/><path d="m18.9647082 9.71830986h-16.57653919c-1.31118712 0-2.38816901-1.07698189-2.38816901-2.38816901 0-1.31112677 1.07698189-2.38816902 2.38816901-2.38816902h10.62959759c.7960563 0 1.4515895-.65559356 1.4515895-1.45158954v-2.99686116c0-.28098592.1873039-.46828974.4682898-.46828974s.4682897.18730382.4682897.46828974v2.99686116c0 1.31112676-1.0769819 2.38816902-2.388169 2.38816902h-10.62959759c-.79605633 0-1.45158953.65559356-1.45158953 1.45158954 0 .79599597.65559356 1.45158953 1.45158953 1.45158953h16.57653919c.280986 0 .4682898.18730383.4682898.46828974-.0000604.28098592-.1873642.46828974-.4682898.46828974z"/></g></g></svg>