<svg height="40" viewBox="0 0 169 40" width="169" xmlns="http://www.w3.org/2000/svg"><g fill="none" fill-rule="evenodd"><g fill="#000" transform="translate(46 11)"><path d="m3.89742222 13.6635556h3.33111111c3.67799997 0 5.13533337-2.6833334 5.06599997-5.32044449-.0693333-2.52155555-1.55-5.04288889-5.06599997-5.04288889h-3.33111111zm11.42733338-5.29733338c.0695555 4.09444448-2.4286667 8.23533338-8.09622227 8.23533338h-6.36155555v-16.19311116h6.36155555c5.55177777 0 8.02688887 3.95577778 8.09622227 7.95777778z"/><path d="m17.128 16.6015556h2.8224444v-11.45066671h-2.8224444zm3.0766667-14.62000004c0 2.19777777-3.3311111 2.19777777-3.3311111 0 0-2.19755556 3.3311111-2.19755556 3.3311111 0z"/><path d="m24.7149111 10.6101778c0 1.9893333 1.3417778 3.1691111 2.9842222 3.1691111 1.6191111 0 2.9608889-1.2028889 2.9608889-3.1691111 0-1.96644447-1.3417778-3.21555558-2.9608889-3.21555558-1.6424444 0-2.9842222 1.22622222-2.9842222 3.21555558zm6.7315556-6.5697778 2.082 1.57311111-1.2722223 1.61911111c.8791112.99488889 1.2028889 2.12844445 1.2028889 3.37755558 0 1.4108889-.5322222 3.4004444-2.4057777 4.2562222 1.8968888.9484444 2.3595555 2.3133333 2.3595555 3.7708889 0 3.146-2.4057778 5.0888889-5.7137778 5.0888889s-5.7833333-2.0122222-5.7833333-5.0888889h2.7991111c0 1.4804444 1.3648889 2.452 2.9842222 2.452 1.6191111 0 2.8913334-.8791111 2.8913334-2.452 0-1.5731111-1.4802223-2.2904445-2.8913334-2.2904445-3.5624444 0-5.7833333-2.1744444-5.7833333-5.7366666 0-3.56244447 2.5908889-5.78311113 5.7833333-5.78311113.9022223 0 1.8275556.11555555 2.614.64755555z"/><path d="m35.2624444 16.6015556h2.8222223v-11.45066671h-2.8222223zm3.0766667-14.62000004c0 2.19777777-3.3311111 2.19777777-3.3311111 0 0-2.19755556 3.3311111-2.19755556 3.3311111 0z"/><path d="m44.6076 1.9816v3.23866667h3.146v2.42888889h-3.1691111v4.92711114c0 1.0873333.6013333 1.6195555 1.4804444 1.6195555.4395556 0 .9484445-.1391111 1.3648889-.3473333l.7864445 2.406c-.8097778.3237778-1.4804445.4626667-2.3364445.4857778-2.4751111.0926666-4.0942222-1.3186667-4.0942222-4.164v-4.92711114h-2.1284444v-2.42888889h2.1284444v-2.938z"/><path d="m52.0554222 10.8876222c0 2.1746667 1.5035556 3.4697778 3.3773334 3.4697778 4.4415555 0 4.4415555-6.91644444 0-6.91644444-1.8737778 0-3.3773334 1.27222222-3.3773334 3.44666664zm6.8471111-5.69066664h2.7066667v11.40444444h-2.6602222l-.1388889-1.6653333c-.6477778 1.3415555-2.4288889 1.9891111-3.7013333 2.0124444-3.3773334.0228889-5.8755556-2.0588889-5.8755556-6.0608889 0-3.93266664 2.614-5.99133331 5.9453333-5.96799998 1.5266667 0 2.9837778.71688889 3.6315556 1.85044445z"/><path d="m63.9906667 16.6015556h2.7991111v-16.16977782h-2.7991111z"/><path d="m77.4299778.40846667v15.01333333h9.1144444v1.1797778h-10.3635555v-16.19311113z"/><path d="m97.5085556 5.17386667-6.9631112 16.19288893h-1.2028888l2.1053333-4.9042223-4.5804445-11.28866663h1.226l2.6604445 6.75488893 1.3417778 3.308 1.3184444-3.3313334 2.8682222-6.73155553z"/><path d="m100.815844 5.17386667v2.03577777c.878889-1.57311111 2.475112-2.22088888 4.071112-2.244 3.053777 0 5.158666 1.87377778 5.158666 5.04288886v6.5928889h-1.133333v-6.5697778c0-2.59066662-1.596222-3.9784444-4.071333-3.95555551-2.359556.02311111-4.002 1.80444444-4.002 4.16377781v6.3615555h-1.133556v-11.42755553z"/><path d="m122.374422 15.0053556c-1.156444 1.1566666-2.660444 1.7117777-4.163778 1.7117777-3.215555 0-5.875777-2.2206666-5.875777-5.8295555 0-3.60866669 2.567777-5.82933336 5.875777-5.82933336 1.503334 0 3.007334.57822223 4.163778 1.71177778l-.740222.71711111c-.925333-.92533333-2.197778-1.36466666-3.423556-1.36466666-2.590888 0-4.765555 1.68844444-4.765555 4.76511113 0 3.0766666 2.174667 4.7655555 4.765555 4.7655555 1.225778 0 2.474889-.4857777 3.400223-1.4113333z"/></g><circle cx="20" cy="20" fill="#fff" r="20"/><g transform=""><g transform="translate(9 9)"><path d="m9.6688 21.1381778s-.84577778-.856-1.874-2.3666667c-.12044444.0846667-.256.1488889-.40177778.1886667-.24044444 1.0182222-.37444444 1.6128889-.41844444 1.622.86155555.3651111 1.75733333.6131111 2.748.7344444z" fill="#da3538"/><path d="m5.77775556 17.9544667c-1.98355556-.22-3.116-.7671111-3.12222223-.7702223.92333334 1.2455556 2.13244445 2.2908889 3.50666667 3.0128889.00044444-.0017777.12044444-.5117777.33155556-1.3162222-.36555556-.1748889-.63688889-.5157778-.716-.9264444" fill="#1b80c3"/><path d="m21.3730222 10.1291556c-.0195555.0373333-.3486666.6566666-.9995555 1.5277777.0915555.1784445.144.3802223.144.5946667 0 .2173333-.0535556.4217778-.1473334.6017778.3866667.6651111.5955556 1.1593333.5955556 1.1593333.2915555-.9626667.4477778-2.0024444.4433333-3.0602222-.0013333-.2773333-.0137778-.5511111-.036-.8233333" fill="#da3538"/><path d="m19.7438889 13.4431778c-.1602222.0711111-.3368889.1111111-.5231111.1111111-.1486667 0-.2911111-.0262222-.424-.0724445-1.4522222 1.4575556-3.5331111 3.0117778-6.2842222 3.8093334-1.5611112.4528889-2.96888893.662-4.20288893.7271111-.00177778.0075555-.00377778.0151111-.00577778.0224444.66111111.9311111 1.522 1.9875556 2.70977781 3.3553334 4.2417777 0 7.8942222-2.5333334 9.5104444-6.1926667-.0057778-.0173333-.4513333-1.1628889-.7802222-1.7602222" fill="#da3538"/><path d="m18.1842222 11.4708444c-1.2993333-1.57888884-3.1015555-3.07822218-5.382-3.97066662-.2373333.30711111-.6071111.50533333-1.0237778.50533333-.0773333 0-.1528888-.008-.2266666-.02111111-.2233334.35866667-.4477778.73777778-.6724445 1.14422222-1.4573333 2.63755558-2.40755552 5.39533338-3.02199997 7.55511108.19.1517778.33622223.3557778.418.5906667 1.51111111-.0424444 3.13955557-.2942222 4.70555557-.9293333 2.2817778-.9253334 3.9177778-2.1862223 5.1233333-3.4331111-.114-.1937778-.1804444-.4191112-.1804444-.6604445 0-.2933333.0977778-.5631111.2604444-.7806667" fill="#f4c714"/><path d="m17.0824444 2.55808889c-.0404444.01333333-1.8213333.60666667-4.0488888 3.42422222.1095555.19111111.1733333.412.1733333.64844445 0 .02288888-.0024445.04511111-.0035556.06755555.4935556.19711111.9922223.42466667 1.4975556.68822222 1.8911111.98666667 3.2982222 2.32511111 4.2935555 3.54155557.1137778-.0326667.2335556-.0513333.3577778-.0513333.156 0 .3048889.0291111.4433334.0797777.6153333-.8615555 1.0462222-1.61177774 1.3811111-2.09711108-.5291111-2.58288889-1.9924445-4.77688889-4.0942223-6.30133333" fill="#00ae62"/><path d="m4.12182222 4.90206667c.09311111-1.24111111.29266667-1.93644445.32711111-1.964-1.08066666.88222222-1.98155555 1.97777777-2.63933333 3.22333333.45777778-.06377778.90866667-.12311111 1.35622222-.17933333.07222222-.52466667.45466667-.94888889.956-1.08" fill="#1b80c3"/><path d="m4.69831111 12.0005778c-.43977778-1.7471111-.64666667-3.28866669-.72222222-4.58288891-.38111111-.10377778-.69266667-.37666667-.84844445-.73488889-.80022222.12844444-1.37511111.27511111-1.73822222.37822222-.48933333 1.21-.77088889 2.516-.77088889 3.89155558 0 1.9344444.50466667 3.7493333 1.41711111 5.3028889.06955556.0246666 1.66822223.5722222 3.88333334.8162222.12422222-.224.31222222-.4068889.53955555-.5248889-.68288889-1.2973333-1.328-2.8284444-1.76022222-4.5462222" fill="#1b80c3"/><path d="m10.4829333 6.72964444c-.0431111-.00688888-.0851111-.01577777-.1284444-.02222222-1.81466668-.27377778-3.42177779-.32488889-4.77244446-.26755555-.09333333.43-.398.77977777-.79911111.93577777.05333334 1.20311112.22466667 2.52044445.61044445 3.84466666.65844444 2.2606667 1.07177778 3.6642222 1.82511111 5.0831111.46577778-1.5564444 1.05622222-3.3364444 1.71088889-4.8582222.55977778-1.3008889 1.20088892-2.58111111 1.95511112-3.8-.2415556-.23155556-.3942222-.55533333-.4015556-.91555556" fill="#f4c714"/><path d="m11.0100667.59606667c-2.08311114 0-4.02200003.61688889-5.64822226 1.67711111-.00222222.00933333-.27111111 1.07288889-.39355555 2.68066666.33422222.14266667.59555555.42266667.71644444.76911112 1.72177778-.11133334 3.408-.06511112 5.12755557.30488888.2264444-.38044444.6391111-.63577777 1.1124444-.63577777.1893334 0 .3686667.04177777.5308889.11511111 1.0613334-1.30422222 2.308-2.48866667 3.7977778-3.48533334-1.5395556-.90555555-3.3306667-1.42577777-5.2433333-1.42577777" fill="#00ae62"/></g><path d="m19.9907556 37.5734c-4.434 0-8.4833334-1.6444444-11.57422227-4.356l3.23133337-3.2302222c-2.80377781-2.3724445-4.58444448-5.9173334-4.58444448-9.8786667 0-2.3251111.61355556-4.5064444 1.68688889-6.3917778l-1.78955555-1.7904444c-1.49022223 2.37-2.35222223 5.1753333-2.35222223 8.1822222 0 3.8022222 1.37911111 7.2817778 3.66311111 9.9671111l-3.22266666 3.2093334c3.66177778 4.1191111 8.99822222 6.7151111 14.94177782 6.7151111 4.266 0 8.2193333-1.338 11.4655555-3.616l-1.7451111-1.7457778c-2.7837778 1.8537778-6.1257778 2.9351111-9.7204444 2.9351111" fill="#f4c714"/><path d="m36.3711778 8.49971111-1.7453334 1.74599999c1.8382223 2.7775556 2.9095556 6.1071111 2.9095556 9.6875556 0 4.4148889-1.6284444 8.4484444-4.3157778 11.5351111l-3.2386666-3.2437778c-2.3706667 2.8995556-5.9746667 4.7504444-10.0108889 4.7504444-2.3331111 0-4.5217778-.6186666-6.4113334-1.7004444l-1.7886666 1.7895556c2.3735555 1.4993333 5.1853333 2.3668888 8.2 2.3668888 3.8628889 0 7.392-1.4257777 10.0933333-3.7784444l3.2617778 3.2604444c4.1062222-3.6628888 6.6748889-9.0633333 6.6748889-15 0-4.2522222-1.3673334-8.1726666-3.6288889-11.41333329" fill="#da3538"/><path d="m28.0600889 7.00557778c-2.3457778-1.44933334-5.1097778-2.28644445-8.0693333-2.28644445-3.7857778 0-7.2513334 1.36911111-9.9311112 3.63822223l-3.32222218-3.32866667c-4.132 3.664-6.73755555 9.01288891-6.73755555 14.97133331 0 4.2586667 1.33155555 8.2055556 3.59911111 11.4491111l1.74555555-1.7464444c-1.844-2.7804445-2.91888889-6.1157778-2.91888889-9.7026667 0-4.4211111 1.63222223-8.4606666 4.32622223-11.54911109l3.34866663 3.32999999c2.3713334-2.81622221 5.9215556-4.60577777 9.8902223-4.60577777 2.2777777 0 4.4173333.59 6.276 1.62466667z" fill="#1b80c3"/><path d="m31.6671778 10.0130667 3.3017778-3.27777781c-4.2035556-4.76111111-9.8273334-6.73533333-14.9115556-6.73533333-4.2142222 0-8.1231111 1.30577777-11.34666667 3.53333333l1.74777777 1.74866667c2.7591111-1.80511112 6.056-2.85533334 9.5988889-2.85533334 4.4351111 0 8.4857778 1.64533334 11.5771111 4.35822222l-1.6057778 1.60644445c-.0004444-.00022222-.0006666-.00044445-.0011111-.00088889l-1.7417778 1.7426667c2.87 2.3722222 4.6988889 5.96 4.6988889 9.9753333 0 2.2553333-.5773333 4.3755556-1.5917777 6.2215556l1.7957777 1.7966666c1.4275556-2.3351111 2.2508889-5.0804444 2.2508889-8.0182222 0-3.8628889-1.4228889-7.3931111-3.7724444-10.0953333" fill="#00ae62"/></g></g></svg>