<svg height="80" viewBox="0 0 1047 218" width="200" xmlns="http://www.w3.org/2000/svg"><g fill="none" fill-rule="evenodd"><path d="m107.69 203.877c-23.886 0-45.702-8.888-62.352-23.547l8.018-8.05c.003 0 .003.002.01.007l9.38-9.419c-15.103-12.825-24.696-31.984-24.696-53.4 0-12.568 3.304-24.36 9.084-34.551l-9.639-9.68c-8.028 12.815-12.67 27.98-12.67 44.23 0 20.556 7.427 39.363 19.73 53.883l-8.064 8.097c-.013-.018-.026-.026-.036-.041l-9.256 9.29c19.724 22.27 48.474 36.305 80.49 36.305 22.98 0 44.28-7.234 61.764-19.549l-9.4-9.44c-14.998 10.022-32.998 15.865-52.363 15.865" fill="#f9bc15"/><path d="m196.646 47-9.411 9.402c9.91 14.951 15.687 32.88 15.687 52.154 0 23.771-8.78 45.489-23.267 62.106l-8.08-8.067c.003 0 .006-.006.01-.01l-9.397-9.387c-12.782 15.611-32.216 25.575-53.977 25.575-12.581 0-24.381-3.328-34.569-9.153l-9.642 9.635c12.797 8.07 27.958 12.745 44.211 12.745 20.83 0 39.858-7.677 54.424-20.345l8.03 8.023c-.002.006-.01.01-.012.016l9.261 9.25c22.142-19.717 36.086-48.421 36.086-80.388 0-22.893-7.159-44.11-19.354-61.556" fill="#d23d2f"/><path d="m151 39.319c-12.623-7.809-27.497-12.319-43.423-12.319-20.371 0-39.02 7.374-53.445 19.6l-8.645-8.658c.005-.005.01-.01.015-.012l-9.246-9.261c-22.237 19.738-36.256 48.553-36.256 80.653 0 22.94 7.165 44.204 19.37 61.678l9.392-9.407c-9.923-14.979-15.708-32.945-15.708-52.27 0-23.819 8.782-45.58 23.279-62.217l3.942 3.946.053-.057 14.027 14.05c12.76-15.173 31.865-24.815 53.222-24.815 12.256 0 23.77 3.179 33.774 8.755z" fill="#557dbf"/><path d="m170.675 55.11 8.607-8.635c.01.01.015.024.023.031l9.26-9.287a.282.282 0 0 1 -.029-.03l.041-.042-.688-.69a107.525 107.525 0 0 0 -7.392-7.418l-.699-.705-.044.043c-19.032-17.024-44.123-27.377-71.624-27.377-22.705 0-43.762 7.057-61.13 19.095l9.416 9.452c14.863-9.759 32.63-15.433 51.714-15.433 23.893 0 45.716 8.89 62.37 23.553l-8.65 8.68c-.003 0-.006 0-.008-.006l-9.383 9.416c15.462 12.824 25.317 32.212 25.317 53.913 0 12.185-3.111 23.64-8.578 33.618l9.675 9.712c7.69-12.622 12.127-27.457 12.127-43.33 0-20.877-7.664-39.953-20.325-54.56" fill="#34a850"/><path d="m100.711 164.036s-4.62-4.715-10.241-13.036a6.875 6.875 0 0 1 -2.197 1.042c-1.311 5.609-1.98 8.983-2.272 8.907 4.706 2.016 9.745 3.384 15 4.051l-.289-.964z" fill="#d23d2f"/><path d="m80.068 147.087c-10.896-1.17-17.032-4.07-17.068-4.087 5.074 6.627 11.626 12.111 19.185 16 .003-.01.658-2.698 1.815-6.984-2.006-.927-3.5-2.744-3.932-4.929" fill="#557dbf"/><path d="m164.796 104c-.115.206-2.017 3.57-5.777 8.299.528.971.83 2.069.83 3.233a6.726 6.726 0 0 1 -.849 3.272c2.232 3.613 3.272 5.97 3.272 5.97l.13.226a53.755 53.755 0 0 0 2.598-16.526c0-1.508-.082-2.996-.204-4.474m-9.041 18a7.197 7.197 0 0 1 -2.868.601c-.82 0-1.6-.143-2.33-.394-7.968 7.883-19.38 16.284-34.469 20.599-8.565 2.445-16.288 3.58-23.057 3.93-.013.041-.023.082-.031.12 3.625 5.037 8.348 10.75 14.866 18.144 23.265 0 43.263-13.806 52.134-33.59-.036-.098-.067-.177-.098-.277-.954-2.8-2.343-5.903-4.147-9.133" fill="#d23d2f"/><path d="m147 111.53c-7.046-8.56-16.82-16.69-29.185-21.53a7 7 0 0 1 -5.55 2.74c-.423 0-.831-.042-1.228-.114a136.002 136.002 0 0 0 -3.65 6.204c-7.901 14.304-13.051 29.254-16.387 40.967a7.07 7.07 0 0 1 2.267 3.203c8.196-.228 17.024-1.598 25.517-5.04 12.37-5.019 21.246-11.854 27.784-18.614a7.048 7.048 0 0 1 .432-7.815" fill="#f9bc15"/><path d="m140.096 63c-.22.072-10.06 3.408-22.096 18.81.59 1.042.937 2.25.937 3.545 0 .124-.015.246-.02.37a86.736 86.736 0 0 1 8.09 3.762c10.22 5.393 17.82 12.708 23.2 19.358a7.038 7.038 0 0 1 1.935-.282c.843 0 1.645.16 2.394.437 3.326-4.71 5.656-8.81 7.464-11.464a57.183 57.183 0 0 0 -21.904-34.536" fill="#36a852"/><path d="m69.265 75.969c.492-6.933 1.552-10.813 1.735-10.969-5.731 4.929-10.512 11.046-14 18 2.425-.357 4.816-.687 7.194-1.001.382-2.932 2.41-5.298 5.07-6.03m4.09 38.693c-2.41-9.42-3.54-17.729-3.959-24.702a7.102 7.102 0 0 1 -4.648-3.96c-4.385.688-7.657 1.487-9.649 2.042a55.574 55.574 0 0 0 -4.098 20.97 55.511 55.511 0 0 0 7.882 28.562c.377.132 9.023 3.11 21.158 4.426a7.105 7.105 0 0 1 2.96-2.83c-3.745-6.994-7.275-15.245-9.646-24.508" fill="#557dbf"/><path d="m104.826 85.698c-.232-.038-.462-.085-.694-.121-9.814-1.496-18.506-1.775-25.811-1.463a7.103 7.103 0 0 1 -4.321 5.114c.288 6.571 1.216 13.768 3.298 21.004 3.564 12.349 5.8 20.018 9.873 27.768 2.521-8.504 5.712-18.225 9.253-26.538 3.028-7.11 6.495-14.102 10.576-20.763a7.14 7.14 0 0 1 -2.174-5" fill="#f9bc15"/><path d="m107.192 52a56.404 56.404 0 0 0 -31.03 9.262c-.015.052-1.491 5.925-2.162 14.807a7.2 7.2 0 0 1 3.936 4.246c9.457-.611 18.722-.358 28.168 1.685 1.246-2.098 3.512-3.511 6.112-3.511 1.04 0 2.03.232 2.92.635 5.83-7.203 12.676-13.742 20.864-19.25-8.46-5-18.3-7.874-28.808-7.874" fill="#34a851"/><path d="m474.812 11.073c0 14.526 22.048 14.526 22.048 0 0-7.257-5.504-10.894-11.023-10.894-5.508 0-11.025 3.637-11.025 10.894zm-120.022 0c0 14.526 22.047 14.526 22.047 0 0-7.257-5.508-10.894-11.022-10.894-5.511 0-11.025 3.637-11.025 10.894zm392.538-10.399v107.022h68.581v-7.798h-60.32v-99.224zm-498.474 0v107.022h42.097c37.512 0 54.043-27.366 53.585-54.424-.457-26.45-16.84-52.598-53.585-52.598h-42.097zm20.052 19.113h22.045c23.274 0 33.07 16.665 33.53 33.329.457 17.428-9.187 35.164-33.53 35.164h-22.045zm397.738 87.91h18.521v-106.871h-18.52v106.87zm-146.974-94.637v19.418h-14.076v16.052h14.076v32.565c0 18.803 10.722 28.127 27.101 27.522 5.666-.154 10.102-1.072 15.462-3.213l-5.206-15.9c-2.753 1.377-6.12 2.295-9.03 2.295-5.817 0-9.799-3.519-9.799-10.704v-32.565h20.973v-16.05h-20.823v-21.408zm-75.93 21.098c-5.208-3.516-11.331-4.285-17.302-4.285-21.122 0-38.273 14.676-38.273 38.226 0 23.543 14.699 37.914 38.273 37.914 9.341 0 19.135 4.742 19.135 15.138 0 10.39-8.411 16.206-19.135 16.206-10.712 0-19.747-6.42-19.747-16.206h-18.526c0 20.337 16.38 33.631 38.273 33.631 21.895 0 37.817-12.835 37.817-33.63 0-9.633-3.061-18.652-15.616-24.925 12.406-5.655 15.92-18.8 15.92-28.128 0-8.255-2.147-15.748-7.961-22.321l8.42-10.702-13.78-10.4zm-37.05 33.942c0-13.148 8.881-21.252 19.747-21.252 10.724 0 19.602 8.255 19.602 21.252 0 12.995-8.878 20.947-19.602 20.947-10.866 0-19.747-7.801-19.747-20.947zm162.28 1.836c0 26.45 16.535 40.212 38.883 40.056 8.421-.154 20.21-4.434 24.497-13.305l.923 11.01h17.6v-75.373h-17.911l-.612 10.397c-4.287-7.494-13.932-12.23-24.034-12.23l-.37-.003c-21.868.003-38.977 13.6-38.977 39.447zm18.679 0c0-14.376 9.953-22.78 22.345-22.78 29.397 0 29.397 45.712 0 45.712-12.392 0-22.345-8.563-22.345-22.932zm316.44-24.311v-13.455h-7.346v75.525h7.5v-42.041c0-15.593 10.866-27.366 26.485-27.52 16.382-.154 26.951 9.022 26.951 26.143v43.42h7.499v-43.573c0-20.947-13.933-33.328-34.144-33.328-10.565.151-21.125 4.431-26.945 14.828zm76.242 24.311c0 23.848 17.598 38.527 38.884 38.527 9.953 0 19.903-3.67 27.55-11.312l-5.045-5.047c-6.123 6.114-14.39 9.325-22.505 9.325-17.145 0-31.532-11.161-31.532-31.493 0-20.336 14.387-31.497 31.532-31.497 8.115 0 16.536 2.9 22.662 9.022l4.889-4.74c-7.648-7.493-17.598-11.314-27.551-11.314-21.893 0-38.884 14.677-38.884 38.53zm-503.831 37.76h18.68v-75.673h-18.68zm-120.022 0h18.677v-75.673h-18.677zm517.603-75.525-18.98 44.49-8.73 22.013-8.881-21.86-17.603-44.643h-8.118l30.32 74.61-13.933 32.41h7.964l46.076-107.02z" fill="#000"/><path d="m249 169h798v-1h-798z" fill="#fff"/><path d="m249 217h5v-27h-5zm28.01-27h4.99v26.958h-3.102v.042l-13.91-18.19v18.148h-4.988v-26.916h4.044l12.965 16.692zm28.002 0h4.988v26.958h-3.1v.042l-13.912-18.19v18.148h-4.988v-26.916h4.044l12.968 16.692zm14.871 13.226c.112 4.406 2.44 9.134 8.636 9.134 6.197 0 8.526-4.757 8.6-9.178.076-4.526-2.403-9.581-8.6-9.581-6.195 0-8.748 5.102-8.636 9.625m22.116-.114c-.074 6.945-4.243 13.888-13.48 13.888-9.236 0-13.519-6.795-13.519-13.847 0-7.06 4.433-14.153 13.519-14.153 9.052 0 13.554 7.093 13.48 14.112m17.072 13.888h-5.142l-10.929-27h5.557l7.921 20.932 7.962-20.932h5.56zm27.43-21.33-4.885 11.488h9.768zm6.875 16.24h-13.749l-2.256 5.09h-5.371l11.798-27h5.407l11.795 27h-5.41zm14.103-17.285h-8.479v-4.625h22v4.625h-8.479v22.375h-5.042zm17.521 22.375h5v-27h-5zm14.883-13.774c.112 4.406 2.44 9.134 8.633 9.134 6.198 0 8.529-4.757 8.602-9.178.077-4.526-2.404-9.581-8.602-9.581-6.192 0-8.745 5.102-8.633 9.625m22.116-.114c-.074 6.945-4.243 13.888-13.483 13.888-9.233 0-13.516-6.795-13.516-13.847 0-7.06 4.433-14.153 13.516-14.153 9.052 0 13.557 7.093 13.483 14.112m22.011-13.112h4.99v26.958h-3.102v.042l-13.908-18.19v18.148h-4.99v-26.916h4.043l12.967 16.692zm73.99 27h-20v-27h20v4.943h-15v6.208h14.465v4.74h-14.465v6.093h15zm9.034-4.898h5.528c6.104 0 8.521-4.475 8.407-8.867-.117-4.212-2.573-8.41-8.407-8.41h-5.528zm18.964-8.836c.114 6.823-4.031 13.734-13.436 13.734h-10.562v-27h10.562c9.215 0 13.321 6.6 13.436 13.266zm27.002-13.266v15.168c0 7.818-4.757 11.832-11.353 11.832-6.291 0-11.647-3.855-11.647-11.832v-15.168h4.907v15.168c0 4.761 2.698 7.29 6.78 7.29 4.078 0 6.401-2.762 6.401-7.29v-15.168zm30 23.01c-2.711 2.726-6.218 3.99-10.023 3.99-9.797 0-13.941-6.862-13.977-13.847-.038-7.018 4.446-14.153 13.977-14.153 3.58 0 6.973 1.381 9.684 4.105l-3.32 3.264c-1.728-1.727-4.064-2.537-6.364-2.537-6.366 0-9.116 4.837-9.077 9.321.035 4.45 2.56 9.09 9.077 9.09 2.3 0 4.897-.958 6.63-2.726zm14.503-17.34-4.885 11.488h9.767zm6.87 16.24h-13.747l-2.255 5.09h-5.371l11.797-27h5.406l11.797 27h-5.409l-2.217-5.09zm13.104-17.285h-8.477v-4.625h22v4.625h-8.48v22.375h-5.043zm17.523 22.375h5v-27h-5zm14.883-13.774c.112 4.406 2.438 9.134 8.633 9.134 6.198 0 8.526-4.757 8.6-9.178.079-4.526-2.402-9.581-8.6-9.581-6.195 0-8.747 5.102-8.633 9.625m22.116-.114c-.076 6.945-4.245 13.888-13.483 13.888-9.235 0-13.516-6.795-13.516-13.847 0-7.06 4.43-14.153 13.516-14.153 9.052 0 13.557 7.093 13.483 14.112m23.011-13.112h4.99v26.958h-3.1v.042l-13.912-18.19v18.148h-4.988v-26.916h4.044l12.965 16.692zm55.99 27h5v-27h-5zm28.01-27h4.99v26.958h-3.102v.042l-13.91-18.19v18.148h-4.988v-26.916h4.044l12.965 16.692zm33.99 23.01c-2.711 2.726-6.219 3.99-10.022 3.99-9.8 0-13.945-6.862-13.978-13.847-.038-7.018 4.446-14.153 13.978-14.153 3.581 0 6.971 1.381 9.683 4.105l-3.321 3.264c-1.727-1.727-4.064-2.537-6.362-2.537-6.369 0-9.119 4.837-9.08 9.321.033 4.45 2.563 9.09 9.08 9.09 2.298 0 4.898-.958 6.632-2.726l3.39 3.492zm26-23.01v15.168c0 7.818-4.758 11.832-11.354 11.832-6.29 0-11.646-3.855-11.646-11.832v-15.168h4.905v15.168c0 4.761 2.698 7.29 6.781 7.29 4.081 0 6.404-2.762 6.404-7.29v-15.168zm11.033 22.257h7.817c2.094 0 5.078-.698 5.078-3.234 0-2.44-2.984-3.704-5.078-3.704h-7.817zm0-11.42h7.817c3.22 0 4.26-1.356 4.26-2.891 0-1.236-1.002-3.323-4.26-3.323h-7.817zm17.154-3.004c0 2.074-1.006 4.083-3.525 5.209 3.177.96 4.338 4.315 4.338 6.01 0 6.023-4.53 7.948-10.15 7.948h-12.85v-27h12.85c5.345 0 9.337 2.393 9.337 7.833zm17.313-2.163-4.882 11.488h9.764zm6.874 16.24h-13.748l-2.255 5.09h-5.371l11.797-27h5.404l11.799 27h-5.409zm13.106-17.285h-8.48v-4.625h22v4.625h-8.48v22.375h-5.04zm17.52 22.375h5v-27h-5zm14.883-13.774c.114 4.406 2.44 9.134 8.632 9.134 6.2 0 8.528-4.757 8.601-9.178.077-4.526-2.402-9.581-8.601-9.581-6.192 0-8.744 5.102-8.632 9.625m22.116-.114c-.076 6.945-4.245 13.888-13.484 13.888-9.232 0-13.515-6.795-13.515-13.847 0-7.06 4.43-14.153 13.515-14.153 9.054 0 13.555 7.093 13.484 14.112m23.011-13.112h4.99v26.958h-3.102l-13.91-18.147v18.147h-4.988v-26.916h4.044l12.965 16.692zm-535.01 19h14v-4h-14zm269 0h14v-4h-14z" fill="#747474"/></g></svg>