<?xml version="1.0" encoding="UTF-8"?>
<svg width="50px" height="50px" viewBox="0 0 50 50" version="1.1" xmlns="http://www.w3.org/2000/svg" xmlns:xlink="http://www.w3.org/1999/xlink">
    <!-- Generator: Sketch 49.3 (51167) - http://www.bohemiancoding.com/sketch -->
    <title>149435</title>
    <desc>Created with Sketch.</desc>
    <defs></defs>
    <g id="Page-1" stroke="none" stroke-width="1" fill="none" fill-rule="evenodd">
        <g id="Sub-Event-and-blog" transform="translate(-1177.000000, -649.000000)" fill="#FFFFFF" fill-rule="nonzero">
            <g id="Group-7" transform="translate(1177.000000, 649.000000)">
                <g id="149435">
                    <path d="M17.5175,24.1475 C15.625,22.01 13.1016667,20.8333333 10.4108333,20.8333333 C7.72,20.8333333 5.19666667,22.01 3.305,24.1475 C-0.538333333,28.49 -0.538333333,35.5541667 3.305,39.8966667 L10.4108333,47.9241667 L17.5166667,39.8966667 C21.3608333,35.5541667 21.3608333,28.49 17.5175,24.1475 Z M16.2691667,38.7916667 L10.4116667,45.4091667 L4.55333333,38.7916667 C1.24833333,35.0591667 1.24833333,28.985 4.55333333,25.2525 C6.12416667,23.4775 8.205,22.5 10.4108333,22.5 C12.6166667,22.5 14.6983333,23.4775 16.2683333,25.2525 C19.5733333,28.985 19.5733333,35.0583333 16.2691667,38.7916667 Z" id="Shape"></path>
                    <path d="M40.6225,20.4225 L46.0091667,14.3508333 C48.9075,11.0841667 48.9075,5.77083333 46.0091667,2.50416667 C44.5758333,0.889166667 42.6625,0 40.6216667,0 C38.5816667,0 36.6683333,0.889166667 35.235,2.50416667 C32.3366667,5.77083333 32.3366667,11.0841667 35.235,14.3508333 L40.6225,20.4225 Z M36.4816667,3.61083333 C37.5941667,2.35666667 39.0641667,1.66666667 40.6216667,1.66666667 C42.18,1.66666667 43.65,2.35666667 44.7625,3.61083333 C47.1191667,6.26666667 47.1191667,10.5883333 44.7625,13.2441667 L40.6225,17.9116667 L36.4816667,13.2441667 C34.125,10.5883333 34.125,6.26666667 36.4816667,3.61083333 Z" id="Shape"></path>
                    <path d="M43.8366667,45.4308333 C43.3875,45.33 42.9416667,45.6116667 42.8408333,46.0608333 C42.745,46.4858333 42.5591667,46.8766667 42.2883333,47.2208333 C42.0041667,47.5825 42.0658333,48.1066667 42.4283333,48.3908333 C42.5816667,48.5108333 42.7625,48.5691667 42.9425,48.5691667 C43.19,48.5691667 43.4341667,48.46 43.5983333,48.2508333 C44.0183333,47.7175 44.3183333,47.0875 44.4666667,46.4275 C44.5675,45.9775 44.2858333,45.5316667 43.8366667,45.4308333 Z" id="Shape"></path>
                    <path d="M26.6625,25.8333333 C26.3016667,25.8325 25.9508333,25.7683333 25.6191667,25.6416667 C25.1925,25.4791667 24.7083333,25.6933333 24.5433333,26.1233333 C24.38,26.5533333 24.5958333,27.035 25.025,27.1991667 C25.5466667,27.3975 26.0958333,27.4991667 26.6608333,27.5 L26.9583333,27.5 C27.4191667,27.5 27.7916667,27.1275 27.7916667,26.6666667 C27.7916667,26.2058333 27.4191667,25.8333333 26.9583333,25.8333333 L26.6625,25.8333333 Z" id="Shape"></path>
                    <path d="M24.6841667,20.5633333 C24.835,20.5633333 24.9866667,20.5225 25.1241667,20.4375 C25.4933333,20.2075 25.9016667,20.0666667 26.3358333,20.0183333 C26.7933333,19.9675 27.1233333,19.5558333 27.0733333,19.0983333 C27.0233333,18.6408333 26.6141667,18.3141667 26.1533333,18.3608333 C25.4683333,18.4366667 24.825,18.6583333 24.2416667,19.0225 C23.8508333,19.2658333 23.7325,19.78 23.9758333,20.1708333 C24.1341667,20.4241667 24.4058333,20.5633333 24.6841667,20.5633333 Z" id="Shape"></path>
                    <path d="M15.0533333,48.3333333 L13.3866667,48.3333333 C12.9258333,48.3333333 12.5533333,48.7058333 12.5533333,49.1666667 C12.5533333,49.6275 12.9258333,50 13.3866667,50 L15.0533333,50 C15.5141667,50 15.8866667,49.6275 15.8866667,49.1666667 C15.8866667,48.7058333 15.5133333,48.3333333 15.0533333,48.3333333 Z" id="Shape"></path>
                    <path d="M29.9941667,33.3333333 C29.9225,33.3333333 29.8516667,33.335 29.7808333,33.3383333 C29.3208333,33.3566667 28.9641667,33.745 28.9825,34.205 C29,34.6533333 29.37,35.0041667 29.8141667,35.0041667 C29.8258333,35.0041667 29.8375,35.0041667 29.8491667,35.0033333 L31.4816667,35 C31.9425,35 32.315,34.6275 32.315,34.1666667 C32.315,33.7058333 31.9425,33.3333333 31.4816667,33.3333333 L29.9941667,33.3333333 Z" id="Shape"></path>
                    <path d="M29.5775,20 L31.2441667,20 C31.705,20 32.0775,19.6275 32.0775,19.1666667 C32.0775,18.7058333 31.705,18.3333333 31.2441667,18.3333333 L29.5775,18.3333333 C29.1166667,18.3333333 28.7441667,18.7058333 28.7441667,19.1666667 C28.7441667,19.6275 29.1166667,20 29.5775,20 Z" id="Shape"></path>
                    <path d="M39.815,33.3333333 C39.3541667,33.3333333 38.9816667,33.7058333 38.9816667,34.1666667 C38.9816667,34.6275 39.3541667,35 39.815,35 L41.4816667,35 C41.9425,35 42.315,34.6275 42.315,34.1666667 C42.315,33.7058333 41.9425,33.3333333 41.4816667,33.3333333 L39.815,33.3333333 Z" id="Shape"></path>
                    <path d="M42.7925,26.6666667 C42.7925,26.2058333 42.42,25.8333333 41.9591667,25.8333333 L40.2925,25.8333333 C39.8316667,25.8333333 39.4591667,26.2058333 39.4591667,26.6666667 C39.4591667,27.1275 39.8316667,27.5 40.2925,27.5 L41.9591667,27.5 C42.4191667,27.5 42.7925,27.1275 42.7925,26.6666667 Z" id="Shape"></path>
                    <path d="M34.815,35 L36.4816667,35 C36.9425,35 37.315,34.6275 37.315,34.1666667 C37.315,33.7058333 36.9425,33.3333333 36.4816667,33.3333333 L34.815,33.3333333 C34.3541667,33.3333333 33.9816667,33.7058333 33.9816667,34.1666667 C33.9816667,34.6275 34.355,35 34.815,35 Z" id="Shape"></path>
                    <path d="M36.2441667,20 C36.705,20 37.0775,19.6275 37.0775,19.1666667 C37.0775,18.7058333 36.705,18.3333333 36.2441667,18.3333333 L34.5775,18.3333333 C34.1166667,18.3333333 33.7441667,18.7058333 33.7441667,19.1666667 C33.7441667,19.6275 34.1166667,20 34.5775,20 L36.2441667,20 Z" id="Shape"></path>
                    <path d="M30.2925,25.8333333 C29.8316667,25.8333333 29.4591667,26.2058333 29.4591667,26.6666667 C29.4591667,27.1275 29.8316667,27.5 30.2925,27.5 L31.9591667,27.5 C32.42,27.5 32.7925,27.1275 32.7925,26.6666667 C32.7925,26.2058333 32.42,25.8333333 31.9591667,25.8333333 L30.2925,25.8333333 Z" id="Shape"></path>
                    <path d="M37.7925,26.6666667 C37.7925,26.2058333 37.42,25.8333333 36.9591667,25.8333333 L35.2925,25.8333333 C34.8316667,25.8333333 34.4591667,26.2058333 34.4591667,26.6666667 C34.4591667,27.1275 34.8316667,27.5 35.2925,27.5 L36.9591667,27.5 C37.4191667,27.5 37.7925,27.1275 37.7925,26.6666667 Z" id="Shape"></path>
                    <path d="M49.5216667,29.6933333 C49.4483333,29.2383333 49.0191667,28.9275 48.5666667,29.0025 C48.1116667,29.075 47.8025,29.5033333 47.8758333,29.9575 C47.8991667,30.1058333 47.9125,30.2566667 47.9108333,30.4175 C47.9108333,30.6975 47.8708333,30.9741667 47.7925,31.2408333 C47.6633333,31.6825 47.9158333,32.1458333 48.3583333,32.275 C48.4366667,32.2975 48.515,32.3083333 48.5925,32.3083333 C48.9533333,32.3083333 49.2858333,32.0733333 49.3925,31.7091667 C49.515,31.29 49.5775,30.8558333 49.5775,30.4233333 C49.5791667,30.1833333 49.5608333,29.9375 49.5216667,29.6933333 Z" id="Shape"></path>
                    <path d="M35.0533333,48.3333333 L33.3866667,48.3333333 C32.9258333,48.3333333 32.5533333,48.7058333 32.5533333,49.1666667 C32.5533333,49.6275 32.9258333,50 33.3866667,50 L35.0533333,50 C35.5141667,50 35.8866667,49.6275 35.8866667,49.1666667 C35.8866667,48.7058333 35.5133333,48.3333333 35.0533333,48.3333333 Z" id="Shape"></path>
                    <path d="M30.0533333,48.3333333 L28.3866667,48.3333333 C27.9258333,48.3333333 27.5533333,48.7058333 27.5533333,49.1666667 C27.5533333,49.6275 27.9258333,50 28.3866667,50 L30.0533333,50 C30.5141667,50 30.8866667,49.6275 30.8866667,49.1666667 C30.8866667,48.7058333 30.5133333,48.3333333 30.0533333,48.3333333 Z" id="Shape"></path>
                    <path d="M39.2208333,41.6666667 C39.2208333,41.2058333 38.8483333,40.8333333 38.3875,40.8333333 L36.7208333,40.8333333 C36.26,40.8333333 35.8875,41.2058333 35.8875,41.6666667 C35.8875,42.1275 36.26,42.5 36.7208333,42.5 L38.3875,42.5 C38.8475,42.5 39.2208333,42.1275 39.2208333,41.6666667 Z" id="Shape"></path>
                    <path d="M34.2208333,41.6666667 C34.2208333,41.2058333 33.8483333,40.8333333 33.3875,40.8333333 L31.7208333,40.8333333 C31.26,40.8333333 30.8875,41.2058333 30.8875,41.6666667 C30.8875,42.1275 31.26,42.5 31.7208333,42.5 L33.3875,42.5 C33.8475,42.5 34.2208333,42.1275 34.2208333,41.6666667 Z" id="Shape"></path>
                    <path d="M39.9941667,48.3333333 L38.3858333,48.3333333 C37.925,48.3333333 37.5525,48.7058333 37.5525,49.1666667 C37.5525,49.6275 37.925,50 38.3858333,50 L40.0283333,49.9991667 L40.0525,49.1658333 L40.0525,49.9991667 C40.5133333,49.9991667 40.8566667,49.6266667 40.8566667,49.1658333 C40.8566667,48.7058333 40.455,48.3333333 39.9941667,48.3333333 Z" id="Shape"></path>
                    <path d="M42.9425,43.9325 C43.1225,43.9325 43.305,43.8741667 43.4566667,43.7541667 C43.8191667,43.4691667 43.8808333,42.945 43.5966667,42.5841667 C43.1775,42.0516667 42.6366667,41.6116667 42.0308333,41.3108333 C41.6166667,41.105 41.1183333,41.2741667 40.9133333,41.6858333 C40.7083333,42.0983333 40.8766667,42.5983333 41.2883333,42.8033333 C41.6741667,42.9941667 42.0191667,43.275 42.2858333,43.615 C42.4508333,43.8233333 42.695,43.9325 42.9425,43.9325 Z" id="Shape"></path>
                    <path d="M46.1208333,33.1075 C45.7633333,33.2575 45.385,33.3333333 44.9941667,33.3333333 L44.815,33.3333333 C44.3541667,33.3333333 43.9816667,33.7058333 43.9816667,34.1666667 C43.9816667,34.6275 44.3541667,35 44.815,35 L44.9941667,35 C45.6075,35 46.2033333,34.88 46.765,34.6441667 C47.19,34.4658333 47.3891667,33.9775 47.2108333,33.5533333 C47.0333333,33.1291667 46.5416667,32.9291667 46.1208333,33.1075 Z" id="Shape"></path>
                    <path d="M23.3575,24.8791667 C23.7941667,24.735 24.0325,24.2641667 23.8891667,23.8266667 C23.7933333,23.5341667 23.7441667,23.2283333 23.7441667,22.92 C23.745,22.7941667 23.7525,22.6683333 23.7675,22.5458333 C23.825,22.0891667 23.5016667,21.6716667 23.045,21.615 C22.5741667,21.5625 22.1708333,21.8825 22.1141667,22.3375 C22.0908333,22.5258333 22.0783333,22.7175 22.0775,22.9158333 C22.0775,23.4058333 22.1541667,23.8875 22.305,24.3475 C22.4208333,24.6983333 22.7466667,24.9208333 23.0966667,24.9208333 C23.1833333,24.9208333 23.2716667,24.9083333 23.3575,24.8791667 Z" id="Shape"></path>
                    <path d="M20.0533333,48.3333333 L18.3866667,48.3333333 C17.9258333,48.3333333 17.5533333,48.7058333 17.5533333,49.1666667 C17.5533333,49.6275 17.9258333,50 18.3866667,50 L20.0533333,50 C20.5141667,50 20.8866667,49.6275 20.8866667,49.1666667 C20.8866667,48.7058333 20.5133333,48.3333333 20.0533333,48.3333333 Z" id="Shape"></path>
                    <path d="M28.435,42.1616667 C28.7516667,42.1616667 29.0533333,41.9808333 29.1933333,41.675 C29.3841667,41.2558333 29.2008333,40.7616667 28.7825,40.5708333 C28.3916667,40.3916667 28.0375,40.1225 27.7591667,39.7908333 C27.4625,39.4383333 26.9375,39.3925 26.585,39.6891667 C26.2325,39.985 26.1866667,40.5108333 26.4833333,40.8633333 C26.92,41.3825 27.475,41.8058333 28.0891667,42.0858333 C28.2016667,42.1366667 28.3191667,42.1616667 28.435,42.1616667 Z" id="Shape"></path>
                    <path d="M47.2883333,26.4483333 C46.6933333,26.1033333 46.0433333,25.9008333 45.3575,25.8466667 C44.9,25.8133333 44.4975,26.1525 44.4616667,26.6125 C44.4258333,27.0716667 44.7683333,27.4725 45.2275,27.5083333 C45.6625,27.5425 46.075,27.6708333 46.4525,27.89 C46.5841667,27.9666667 46.7283333,28.0025 46.87,28.0025 C47.1575,28.0025 47.4375,27.8533333 47.5916667,27.5875 C47.8225,27.19 47.6866667,26.68 47.2883333,26.4483333 Z" id="Shape"></path>
                    <path d="M25.0533333,48.3333333 L23.3866667,48.3333333 C22.9258333,48.3333333 22.5533333,48.7058333 22.5533333,49.1666667 C22.5533333,49.6275 22.9258333,50 23.3866667,50 L25.0533333,50 C25.5141667,50 25.8866667,49.6275 25.8866667,49.1666667 C25.8866667,48.7058333 25.5133333,48.3333333 25.0533333,48.3333333 Z" id="Shape"></path>
                    <path d="M27.1291667,37.3658333 C27.2116667,36.9375 27.385,36.5416667 27.645,36.1883333 C27.9175,35.8183333 27.8383333,35.2966667 27.4675,35.0233333 C27.0966667,34.7516667 26.5758333,34.83 26.3025,35.2008333 C25.895,35.7558333 25.6216667,36.3783333 25.4916667,37.0525 C25.405,37.5041667 25.7008333,37.9408333 26.1533333,38.0283333 C26.2058333,38.0383333 26.2591667,38.0433333 26.3108333,38.0433333 C26.7025,38.0416667 27.0516667,37.7641667 27.1291667,37.3658333 Z" id="Shape"></path>
                    <path d="M40.8275,12.5 C43.3541667,12.5 45.4108333,10.4433333 45.4108333,7.91666667 C45.4108333,5.39 43.3541667,3.33333333 40.8275,3.33333333 C38.3008333,3.33333333 36.2441667,5.39 36.2441667,7.91666667 C36.2441667,10.4433333 38.3008333,12.5 40.8275,12.5 Z M40.8275,5 C42.4358333,5 43.7441667,6.30833333 43.7441667,7.91666667 C43.7441667,9.525 42.4358333,10.8333333 40.8275,10.8333333 C39.2191667,10.8333333 37.9108333,9.525 37.9108333,7.91666667 C37.9108333,6.30833333 39.22,5 40.8275,5 Z" id="Shape"></path>
                    <path d="M10.4108333,25.8333333 C7.65333333,25.8333333 5.41083333,28.0758333 5.41083333,30.8333333 C5.41083333,33.5908333 7.65333333,35.8333333 10.4108333,35.8333333 C13.1683333,35.8333333 15.4108333,33.5908333 15.4108333,30.8333333 C15.4108333,28.0758333 13.1683333,25.8333333 10.4108333,25.8333333 Z M10.4108333,34.1666667 C8.5725,34.1666667 7.0775,32.6716667 7.0775,30.8333333 C7.0775,28.995 8.5725,27.5 10.4108333,27.5 C12.2491667,27.5 13.7441667,28.995 13.7441667,30.8333333 C13.7441667,32.6716667 12.2491667,34.1666667 10.4108333,34.1666667 Z" id="Shape"></path>
                </g>
            </g>
        </g>
    </g>
</svg>