<svg height="50" viewBox="0 0 50 50" width="50" xmlns="http://www.w3.org/2000/svg"><g fill="#fff" fill-rule="evenodd" transform=""><path d="m43.2255 13.308c.096.096.222.144.348.144s.252-.048.348-.144c.19225-.19225.19225-.504 0-.69625l-6.534-6.5339c-.19225-.1922-.50375-.1922-.696 0-.19225.192225-.19225.503875 0 .6961z"/><path d="m44.283 12.2505c.096.0961.222.14415.348.14415s.252-.048075.348-.14415c.19225-.192225.19225-.503875 0-.6961l-6.534-6.534c-.19225-.1922-.50375-.192175-.696 0-.19225.192225-.19225.503875 0 .6961z"/><path d="m45.35175 11.18165c.096.0961.222.144175.348.144175s.252-.048075.348-.144175c.19225-.192225.19225-.50385 0-.696075l-6.534-6.533975c-.192-.192225-.50375-.192225-.696 0s-.19225.50385 0 .696075z"/><path d="m40.4245 3.420875 1.7915-1.791525c.38925-.3892 1.0225-.389225 1.41175-.000025l4.74225 4.7424c.38925.3892.38925 1.022475 0 1.411675l-1.7915 1.791575c-.19225.192225-.19225.50385 0 .696075.096.096125.222.144175.348.14415.126 0 .252-.04805.348-.14415l1.79175-1.7916c.773-.773.773-2.0308 0-2.8038l-4.7425-4.7424c-.773-.77295-2.03075-.773-2.80375 0l-1.79175 1.791575c-.192.1922-.192.50385 0 .69605.19225.192225.504.192225.69625 0"/><path d="m37.473 9.7837c-.193-.1915-.5045-.1903-.696.00265l-27.80345 28.01415c-.1915.193-.1903.5045.00265.696.096.09525.22135.143.3467.143.126575 0 .25315-.0485.34935-.1455l27.80325-28.014225c.1915-.19295.1905-.504575-.0025-.696075"/><path d="m11.868575 41.185c.1266 0 .25315-.0485.34935-.1455l27.803325-28.014c.1915-.193.19025-.50475-.0025-.696125-.193-.191475-.50475-.19035-.69625.002625l-27.80325 28.014c-.191525.193-.190325.50475.0026.69625.096025.09525.221375.14275.346725.14275"/><path d="m39.64 48.914-2.4025-2.4025 2.03725-2.0375c.19225-.192.19225-.50375.00025-.696-.1925-.19225-.504-.19225-.69625 0l-2.03725 2.03725-.8665-.86625 2.05825-2.0585c.19225-.19225.19225-.50375 0-.696s-.50375-.19225-.696 0l-2.05825 2.05825-.81725-.817 2.0375-2.03725c.19225-.19225.19225-.504 0-.69625s-.504-.19225-.696 0l-2.0375 2.03725-.82275-.82275 2.03725-2.03725c.19225-.19225.19225-.50375 0-.696s-.50375-.19225-.696 0l-2.03725 2.03725-.83875-.83875c.0325-.02.0635-.0435.09175-.0715l3.97025-3.959c.1925-.192.19275-.50375.001-.69625-.192-.1925-.50375-.19275-.69625-.001l-3.97 3.95925c-.02875.0285-.0525.05975-.0725.09275l-.7635-.7635 2.02675-2.02675c.19225-.19225.19225-.50375 0-.696s-.50375-.19225-.696 0l-2.02675 2.02675-.8665-.8665 2.04775-2.04775c.19225-.19225.19225-.50375 0-.696s-.50375-.19225-.696 0l-2.04775 2.04775-.81725-.817 2.02675-2.027c.19225-.19225.19225-.50375 0-.696-.192-.19225-.50375-.19225-.696 0l-2.02675 2.02675-.82275-.82275 2.02675-2.02675c.19225-.19225.19225-.504 0-.69625-.19225-.192-.50375-.192-.696.00025l-2.02675 2.02675-.506-.506 9.27375-9.274 15.76775 15.76775zm-33.24885-2.4735c-.853925.37875-1.607775.706-2.263225.9845l-1.547525-1.54675c.27765-.65425.6035-1.4065.98005-2.2585.91345-2.06675 1.762325-3.89825 2.1909-4.765l5.39285 5.393c-.8749.43325-2.724975 1.29375-4.75305 2.19275zm-4.8553 2.02825c.137575-.37925.347625-.9155.63365-1.6095l.97725.977c-.69475.28625-1.231675.496-1.6109.6325zm14.5159-23.143c.02775-.01825.05425-.0395.07875-.064l3.97-3.959c.1925-.192.193-.50375.001-.696-.192-.1925-.50375-.193-.696-.001l-3.97 3.959c-.02475.02475-.0465.0515-.06475.07975l-.84025-.84025 2.0265-2.0265c.19225-.19225.19225-.504 0-.696-.19225-.19225-.504-.19225-.696 0l-2.02675 2.0265-.86625-.8665 2.0475-2.0475c.19225-.19225.19225-.50375 0-.696s-.50375-.19225-.696 0l-2.047625 2.0475-.8171-.817 2.026475-2.02675c.19225-.192.19225-.50375 0-.696-.192-.19225-.50375-.19225-.696 0l-2.02655 2.0265-.822775-.82275 2.026575-2.0265c.192225-.19225.192225-.50375 0-.696-.1922-.19225-.50385-.19225-.696075 0l-2.026575 2.0265-.83605-.836c.027725-.01825.054-.03925.078375-.06375l3.97015-3.959c.192425-.192.192925-.5035.00095-.696-.19195-.1925-.50355-.193-.69605-.001l-3.970175 3.959c-.0247.02475-.046125.05125-.0645.0795l-6.636525-6.6366 9.2739-9.2739 15.767075 15.767-9.27375 9.274zm33.73225 13.79225-15.94175-15.94175 8.8145-8.8145c.19225-.19225.19225-.50375 0-.696-.192-.19225-.50375-.19225-.696 0l-30.0032 30.00325-5.627075-5.62725 30.003275-30.003175c.19225-.192225.19225-.50385 0-.696075-.19225-.1922-.504-.1922-.69625 0l-8.8145 8.8145-15.940975-15.941075c-.13925-.139275-.324675-.21595-.5221-.21595-.197375 0-.3828.076675-.522025.21595l-9.62195 9.621925c-.139275.13925-.21595.324675-.21595.52205 0 .1974.076675.382825.21595.522075l15.94105 15.941025-10.870525 10.87075h-.00025c-.076.076-.170975.17175-1.007575 1.95975-.502075 1.07325-1.12085 2.43925-1.697575 3.7475-.4593 1.04175-1.10845 2.538-1.5926 3.7495-.218875.5475-.381975.98275-.484775 1.293-.13325.4025-.259125.7825.00525 1.047.11525.11525.2519.15725.4025.15725.197475 0 .418975-.07225.647625-.147.312025-.102.7487-.265 1.29785-.484 1.20795-.482 2.706875-1.134 3.751575-1.59575 1.297825-.574 2.662475-1.19425 3.744-1.702 1.785225-.83825 1.878275-.93125 1.9531-1.006l10.87065-10.87075 15.94175 15.94175c.13925.13925.32475.216.522.216.1975 0 .383-.07675.52225-.216l9.62175-9.62175c.288-.288.288-.75625 0-1.04425z"/><path d="m9.665625 9.665475c-.2985.298475-.6953.46285-1.1174.46285-.422075 0-.818875-.16435-1.1173-.4628-.298425-.298425-.462775-.6952-.462775-1.11725 0-.422075.1644-.8189.46285-1.117375.2984-.2984.69515-.462725 1.117175-.462725.422075 0 .81885.16435 1.117325.4628.616075.616075.616125 1.618475.000125 2.2345zm-1.11745-3.6817c-.684975 0-1.328925.266725-1.81325.75105-.4844.4844-.751175 1.1284-.751175 1.813425-.000025.685025.26675 1.329.751125 1.81335.484325.484375 1.128325.751125 1.81335.751125s1.32905-.266775 1.813475-.751175c.999825-.999875.99975-2.626775-.000125-3.62665-.4844-.484375-1.128375-.751125-1.8134-.751125z"/></g></svg>