<svg height="80" viewBox="0 0 80 80" width="80" xmlns="http://www.w3.org/2000/svg" xmlns:xlink="http://www.w3.org/1999/xlink"><mask id="a" fill="#fff"><path d="m.0123999.10767244v69.12549726h79.3630586v-69.12549726z" fill="none"/></mask><g fill="none" fill-rule="evenodd" transform="translate(0 5)"><path d="m10.7052756 69.0373087c.1717111.0787253.3746778.109981.5624074.109981.3594407 0 .718686-.1412367.9843595-.3906963l9.7986647-9.3767127h18.4252403c3.8292151 0 6.9387674-3.1103337 6.9387674-6.9395487v-10.4548392c0-.7813928-.6403514-1.4217441-1.4217441-1.4217441s-1.4223301.6403513-1.4223301 1.4217441v10.4548392c0 2.2664296-1.8442821 4.0946932-4.0946932 4.0946932h-19.0028849c-.360222 0-.7196627.1412367-.9851408.3906964l-7.8139272 7.4705051v-6.4234389c0-.7813927-.640156-1.4217441-1.4215487-1.4217441h-4.31367855c-2.26564819 0-4.0946932-1.8442821-4.0946932-4.0946932v-20.4724892c0-2.2656482 1.84428217-4.1101257 4.0946932-4.1101257h16.76849245c.7813927 0 1.4225254-.6409374 1.4225254-1.4223301s-.6411327-1.4215487-1.4225254-1.4215487h-16.76849245c-3.82843363 0-6.93876735 3.1095523-6.93876735 6.938572v20.4719032c0 3.829215 3.11033372 6.9395487 6.93876735 6.9395487h2.90639022v8.3603161c0 .5629934.34420353 1.0781266.86011803 1.2971119z" fill="#404f54" mask="url(#a)"/><path d="m15.7104575 41.6879084h17.9370497" mask="url(#a)" stroke="#1caba0" stroke-linecap="round" stroke-width="2"/><path d="m33.3641953 27.8168949v-21.82319818c0-2.41467321 1.9674503-4.38191682 4.3812968-4.38191682h35.7449755c2.4136399 0 4.3810901 1.96724361 4.3810901 4.38191682v21.82319818c0 2.4138465-1.9674502 4.3812968-4.3810901 4.3812968h-4.6129682c-.8266598 0-1.5047275.6780677-1.5047275 1.5047274v4.5708149c0 .5522847-.4477153 1-1 1-.2575187 0-.5051106-.0993452-.691208-.2773442l-6.6576424-6.3679217c-.281891-.2649445-.645208-.4133299-1.0422113-.4133299h-20.2362181c-2.4138465 0-4.3812968-1.9674503-4.3812968-4.3982433z" fill="#ff7f45" mask="url(#a)"/><path d="m55.6178765 18.7075174c-.39721 0-.7774735-.1492121-1.0583312-.4463962-.2808576-.2808577-.4463962-.6611212-.4463962-1.0583312s.1655386-.7774735.4463962-1.0583312c.2808577-.2808577.6611212-.4463963 1.0583312-.4463963.3963834 0 .7766469.1655386 1.0575045.4463963.281891.2808577.4463963.6611212.4463963 1.0583312s-.1645053.7774735-.4463963 1.0583312c-.2808576.2808576-.6611211.4463962-1.0575045.4463962zm5.5880135 0c-.3972101 0-.7935934-.1492121-1.0583312-.4463962-.2808577-.2808577-.4463963-.6611212-.4463963-1.0583312s.1655386-.7774735.4463963-1.0583312c.2808576-.2808577.6611211-.4463963 1.0583312-.4463963.3963833 0 .7774735.1655386 1.0583311.4463963.2810644.2808577.4463963.6611212.4463963 1.0583312s-.1653319.7774735-.4463963 1.0583312c-.2808576.2808576-.6619478.4463962-1.0583311.4463962zm-11.159907 0c-.3972101 0-.7774736-.1492121-1.0583312-.4463962-.2808577-.2808577-.4463963-.6611212-.4463963-1.0583312s.1655386-.7774735.4463963-1.0583312c.2808576-.2808577.6611211-.4463963 1.0583312-.4463963.3963833 0 .7774735.1655386 1.0583311.4463963.2810644.2808577.4463963.6611212.4463963 1.0583312s-.1653319.7774735-.4463963 1.0583312c-.2808576.2808576-.6619478.4463962-1.0583311.4463962z" fill="#fff" mask="url(#a)"/></g></svg>