<svg height="208" viewBox="0 0 208 208" width="208" xmlns="http://www.w3.org/2000/svg" xmlns:xlink="http://www.w3.org/1999/xlink"><filter id="a" height="107%" width="107%" x="-3.5%" y="-2.5%"><feOffset dy="2" in="SourceAlpha" result="shadowOffsetOuter1"/><feGaussianBlur in="shadowOffsetOuter1" result="shadowBlurOuter1" stdDeviation="2"/><feColorMatrix in="shadowBlurOuter1" result="shadowMatrixOuter1" values="0 0 0 0 0.49914966 0 0 0 0 0.496156022 0 0 0 0 0.496156022 0 0 0 0.5 0"/><feMerge><feMergeNode in="shadowMatrixOuter1"/><feMergeNode in="SourceGraphic"/></feMerge></filter><mask id="b" fill="#fff"><path d="m0 .388h105.606v109.776h-105.606z" fill="none"/></mask><mask id="c" fill="#fff"><path d="m.086.33h8.572v13.062h-8.572z" fill="none"/></mask><g fill="none" fill-rule="evenodd" filter="url(#a)" transform="translate(4 2)"><circle cx="100" cy="100" fill="#fff" r="100"/><g fill="#204993"><path d="m73.175 71.116c0 1.723-1.427 3.124-3.18 3.124h-13.285l.063.307c.042.2.062.41.062.625v23.323c0 .342-.054.676-.162.993l-.093.272 15.042 3.142c.485.102.907.333 1.191.653.266.299.374.637.305.954-.093.433-.516.771-1.103.882l-.621.117.524.348c.57.378.912 1.006.912 1.682 0 1.116-.924 2.025-2.06 2.025-1.137 0-2.062-.909-2.062-2.025a2.04 2.04 0 0 1 1.335-1.897l.834-.31-17.366-3.626.69.631c.424.388.657.915.657 1.484 0 1.117-.924 2.025-2.061 2.025-1.136 0-2.062-.908-2.062-2.025 0-.57.235-1.096.658-1.484l.692-.63-17.366 3.625.832.31a2.04 2.04 0 0 1 1.337 1.897c0 1.116-.926 2.025-2.063 2.025-1.136 0-2.06-.909-2.06-2.025 0-.676.34-1.304.91-1.682l.524-.348-.62-.117c-.587-.11-1.01-.449-1.104-.882-.147-.683.524-1.404 1.496-1.607l15.042-3.142-.092-.271a3.128 3.128 0 0 1 -.163-.994v-23.323c0-.212.02-.422.063-.623l.066-.309h-13.287c-1.752 0-3.178-1.401-3.178-3.124v-2.028c0-1.723 1.426-3.124 3.178-3.124h12.129v-18.418h-13.4c-1.593 0-2.944-.924-3.014-2.06l-.232-3.81-.947-15.6c-.032-.525.161-1.024.56-1.44.557-.58 1.43-.914 2.392-.914h39.456c.96 0 1.826.332 2.376.912.393.417.58.913.542 1.439l-1.428 19.41c-.084 1.137-1.448 2.063-3.043 2.063h-13.121v18.418h12.126c1.753 0 3.18 1.4 3.18 3.124v2.028zm-43.939-39.437h.716l.084 1.362h-.8c-2.894 0-5.249-2.314-5.249-5.16v-22.019c0-2.844 2.355-5.159 5.249-5.159h47.133c2.896 0 5.25 2.315 5.25 5.159v22.02c0 2.846-2.354 5.16-5.25 5.16h-.897l.1-1.362h.797c2.135 0 3.866-1.7 3.866-3.797v-22.023c0-2.097-1.73-3.798-3.866-3.798h-47.133c-2.135 0-3.863 1.701-3.863 3.798v22.02c0 2.099 1.728 3.798 3.863 3.798zm40.759 33.771h-11.605v-15.29h33.367l-.005 60.003h2.68c.162-.169.322-.341.483-.513h-2.641l.005-60.002h-33.889v-1.59h12.6c1.863 0 3.46-1.14 3.563-2.539l.245-3.332h26.686c1.986 0 3.602 1.587 3.602 3.54v.38c0 1.952-1.616 3.54-3.602 3.54h-2.58v55.458l.522-.614v-54.331h2.058c2.273 0 4.123-1.819 4.123-4.053v-.38c0-2.235-1.85-4.052-4.123-4.052h-26.648l.612-8.32h.921c3.071 0 5.57-2.456 5.57-5.474v-22.021c0-3.018-2.499-5.473-5.57-5.473h-47.133c-3.07 0-5.569 2.455-5.569 5.473v22.02c0 3.019 2.5 5.475 5.569 5.475h.819l.505 8.32h-26.436c-2.274.001-4.124 1.818-4.124 4.053v.38c0 2.234 1.85 4.053 4.124 4.053h2.637v54.809l.52.098v-55.42h-3.156c-1.987 0-3.604-1.588-3.604-3.54v-.38c0-1.953 1.617-3.54 3.604-3.54h26.468l.202 3.328c.084 1.402 1.67 2.543 3.533 2.543h12.878v1.59h-33.298l-.005 56.978c.176.057.348.121.522.182l.005-56.648h32.775v15.29h-11.605c-2.04 0-3.7 1.632-3.7 3.637v2.028c0 2.005 1.66 3.637 3.7 3.637h12.662a3.823 3.823 0 0 0 -.024.42v23.322c0 .298.037.592.11.88l-14.484 3.026c-1.252.262-2.103 1.255-1.897 2.214.108.5.486.908 1.027 1.135a2.514 2.514 0 0 0 -.749 1.788c0 1.399 1.158 2.538 2.582 2.538s2.583-1.14 2.583-2.538c0-.807-.394-1.555-1.03-2.028l14.185-2.963a2.511 2.511 0 0 0 -.349 1.273c0 1.399 1.159 2.537 2.583 2.537s2.583-1.138 2.583-2.537c0-.45-.123-.89-.349-1.273l14.187 2.963a2.536 2.536 0 0 0 -1.032 2.028c0 1.399 1.16 2.538 2.583 2.538 1.424 0 2.582-1.14 2.582-2.538 0-.678-.273-1.317-.749-1.788.54-.227.918-.635 1.027-1.135.103-.478-.047-.975-.423-1.398-.357-.402-.881-.692-1.475-.816l-14.483-3.025a3.55 3.55 0 0 0 .109-.88v-23.325c0-.142-.009-.282-.024-.419h12.66c2.042 0 3.702-1.632 3.702-3.637v-2.028c0-2.005-1.66-3.637-3.701-3.637z" mask="url(#b)" transform="translate(48 59.836)"/><path d="m101 48.36c-1.328 0-2.304.955-2.304 2.314 0 1.286.936 2.277 2.265 2.277h.039c1.407 0 2.304-.991 2.304-2.277 0-1.359-.897-2.313-2.304-2.313"/><path d="m4.04.33c-1.466 0-3.014.423-3.954 1.084l.663 1.665c.692-.528 1.798-.82 2.794-.82 1.741 0 2.626.927 2.626 2.275 0 1.164-.691 2.195-1.936 3.596-1.382 1.586-1.88 3.147-1.714 4.574l.055.688h2.186l-.055-.688c-.083-1.348.36-2.512 1.576-3.887 1.327-1.48 2.378-2.802 2.378-4.574-.001-2.01-1.438-3.913-4.619-3.913" mask="url(#c)" transform="translate(96.391 30)"/></g></g></svg>