<svg height="102" viewBox="0 0 85 102" width="85" xmlns="http://www.w3.org/2000/svg"><g fill="none" fill-rule="evenodd" stroke="#00ae62" transform="translate(1 1)"><path d="m14.286 20.106h38.094m-38.094 16.402h38.094m-38.094 15.873h38.094m-38.094 16.402h38.094m-38.094 15.873h38.094" fill="#00ae62" fill-rule="nonzero" stroke-linecap="round" stroke-linejoin="round" stroke-width="2"/><path d="m62.434 16.819a33.81 33.81 0 0 1 2.551 5.403c.642-4.566 2.942-8.72 6.444-11.64m-8.995 23.202a32.158 32.158 0 0 1 2.551 5.37c.651-4.564 2.949-8.714 6.444-11.64" stroke-linecap="round" stroke-linejoin="round" stroke-width="2"/><path d="m83.069 29.126v-17.81c-.019-6.242-5.056-11.298-11.276-11.316h-60.517c-6.228 0-11.276 5.066-11.276 11.316v77.368c0 6.25 5.048 11.316 11.276 11.316h60.517c6.227 0 11.276-5.066 11.276-11.316zm-3.97 26.515v33.043c0 4.055-3.266 7.347-7.306 7.366h-60.517c-4.046-.019-7.321-3.306-7.34-7.366v-77.368c.019-4.055 3.3-7.332 7.34-7.332h60.517c1.937 0 3.796.772 5.166 2.147a7.345 7.345 0 0 1 2.14 5.185v44.324z"/><rect height="13.757" rx="6.878" width="14.286" x="58.201" y="11.64"/><rect height="13.757" rx="6.878" width="14.286" x="58.201" y="28.571"/><rect height="13.757" rx="6.878" width="14.286" x="58.201" y="44.974"/><rect height="13.757" rx="6.878" width="14.286" x="58.201" y="60.847"/><rect height="13.757" rx="6.878" width="14.286" x="58.201" y="77.249"/></g></svg>