<svg height="130" viewBox="0 0 130 130" width="130" xmlns="http://www.w3.org/2000/svg"><g fill="none" fill-rule="evenodd" stroke="#fff" stroke-width="2.4"><path d="m51.39 21.677c3.068 0 5.547 2.49 5.547 5.565 0 3.076-2.48 5.565-5.547 5.565-3.069 0-5.548-2.49-5.548-5.565s2.48-5.565 5.548-5.565zm-9.193 14.767h24.17v5.83h-34.966l-.136-.008a3.029 3.029 0 0 0 -.121-.01c-.684-.04-1.593.005-2.64.21a12.22 12.22 0 0 0 -4.533 1.885c-4.705 3.189-7.576 9.679-7.576 20.53 0 10.897 2.525 17.603 6.646 21.075 1.317 1.11 2.719 1.81 4.127 2.184.888.235 1.613.304 2.087.288l.085-.002h7.241v-10.666-.056c-.01-.636.04-1.54.202-2.622.255-1.698.73-3.386 1.483-4.975 2.297-4.845 6.668-7.785 13.434-7.785h23.99c-.004 0-.004 0 0 0 .429.003 1.135-.04 2.022-.178 1.432-.223 2.856-.628 4.175-1.257 3.805-1.815 6.05-5.1 6.05-10.432v-21.965l.014-.182c0-.002.004-.032.008-.087.044-.53.003-1.236-.192-2.05-.292-1.216-.878-2.418-1.834-3.555-3.237-3.845-9.962-6.219-21.218-6.219-10.791 0-17.32 1.977-20.522 5.163-.95.946-1.531 1.935-1.827 2.926-.19.637-.236 1.172-.207 1.547.001.022.002.028 0 .02l.013.167.025 10.225zm33.466 28.278h.007z"/><path d="m78.76 108.344c-3.068 0-5.548-2.49-5.548-5.565s2.48-5.565 5.548-5.565 5.548 2.49 5.548 5.565c0 3.076-2.48 5.565-5.548 5.565zm9.193-14.767h-24.17v-5.83h34.966l.136.008c.011.002.052.005.12.01.685.041 1.594-.005 2.641-.21a12.22 12.22 0 0 0 4.533-1.885c4.705-3.188 7.575-9.678 7.575-20.53 0-10.897-2.524-17.603-6.645-21.075-1.317-1.11-2.719-1.81-4.127-2.183-.888-.235-1.613-.305-2.087-.29-.018.002-.018.002-.085.004h-7.242v10.664l.001.056c.01.636-.04 1.54-.202 2.622-.255 1.698-.73 3.386-1.483 4.975-2.297 4.845-6.668 7.786-13.434 7.786h-23.99c.004 0 .004 0 0 0-.429-.004-1.136.04-2.022.177-1.432.223-2.856.628-4.174 1.257-3.806 1.815-6.05 5.1-6.05 10.432v21.966l-.014.183-.009.086c-.044.53-.003 1.236.192 2.05.292 1.216.878 2.419 1.834 3.555 3.237 3.845 9.962 6.219 21.218 6.219 10.791 0 17.32-1.977 20.522-5.163.95-.946 1.531-1.935 1.827-2.926.19-.637.236-1.172.208-1.547l-.002-.02-.012-.167-.025-10.225z"/></g></svg>