<svg height="84" viewBox="0 0 86 84" width="86" xmlns="http://www.w3.org/2000/svg"><g fill="none" fill-rule="evenodd" transform="translate(.317073 .317073)"><circle cx="37.757974" cy="16.963727" fill="#ff7f45" r="15.869293"/><g fill-rule="nonzero"><path d="m70.4440025 44.2857041c-.6860947 0-1.2423066.5562119-1.2423066 1.2423066 0 .8698313-.7076029 1.5774342-1.5774343 1.5774342-.8696646 0-1.5774342-.7076029-1.5774342-1.5774342 0-.6862615-.5562119-1.2423066-1.2423066-1.2423066s-1.2423066.5562119-1.2423066 1.2423066c0 2.2398532 1.8223609 4.0620474 4.0620474 4.0620474 2.2396866 0 4.0620475-1.8223609 4.0620475-4.0620474 0-.6864282-.5562119-1.2423066-1.2423066-1.2423066z" fill="#1caba0"/><path d="m82.1052782 44.4886147-3.4966654-1.1200934c-.4478373-.1435546-.8008051-.5010242-.9440263-.9563643-.7369474-2.3430592-1.8490377-4.5427306-3.3054259-6.5381574-.6637528-.9095131-1.4018673-1.7780107-2.2081745-2.6048256.5158632-2.2630288.7963033-4.8241711.7599562-7.0368474-.0520199-3.1653725-.6845942-5.0219131-1.9337367-5.6761623-.6727563-.3528011-2.7202029-1.4245427-13.802258 3.6483898-.2624333.1200457-.5075267.2679354-.7344465.4373333-.7471179-.2007432-1.5107421-.3864806-2.2790348-.5532108-.0925353-.0201743-.1879049-.0380144-.2811071-.0576886.8980087-1.9617473 1.4223752-4.0923923 1.5209127-6.2918969.0306784-.6855945-.5000238-1.266149-1.1856183-1.2966607-.6837605-.0340129-1.266149.4998571-1.2966607 1.1854517-.161895 3.6165443-1.6621331 7.0193407-4.2241091 9.5814834-1.5307498 1.5307498-3.3230993 2.6426734-5.233327 3.3429401-3.312762-.4648437-6.6870475-.4648437-9.9998095 0-1.9103944-.7002667-3.7025771-1.8121903-5.2333269-3.3429401-2.7333747-2.7333746-4.2387815-6.3675924-4.2387815-10.2332317 0-3.8658061 1.5054068-7.49985712 4.2387815-10.23323174 2.7333746-2.73354135 6.3677591-4.23894817 10.2332317-4.23894817 3.8654725 0 7.499857 1.50540682 10.2332317 4.23894817 1.0984184 1.09841844 2.0060975 2.35189596 2.6978611 3.72525244.3086175.6129002 1.0557355.8596609 1.6684689.5508766.6129001-.3084509.8594941-1.05556883.5508765-1.66830225-.8108089-1.61044684-1.8740472-3.07883956-3.1600371-4.36499619-3.2027201-3.20272008-7.461009-4.96655869-11.9902344-4.96655869s-8.7875143 1.76383861-11.9902344 4.96655869c-3.2027201 3.20288681-4.9665587 7.46100894-4.9665587 11.99023434 0 4.5292255 1.7638386 8.7875143 4.9665587 11.9902344.923852.923852 1.9289015 1.7183213 2.9919731 2.3839082.0003335 0 .000667-.0001668.0010004-.0001668-.7724609.2007432-1.5390863.4261624-2.2972084.6795923-.6507479.2175828-1.0018817.921351-.7842988 1.5722656.2174161.6507479.9215177 1.0018817 1.5720989.7844655 6.7752477-2.2650295 14.2380907-2.2650295 21.0133384 0 .1307165.0436833.2634337.0643578.3939834.0643578.519698 0 1.0042159-.3287919 1.1781155-.8488233.2175829-.6507479-.1335509-1.3546828-.7842988-1.5722656-.7581221-.2534299-1.5247475-.4790159-2.2972085-.6795923.0003335 0 .000667.0001668.0010004.0001668 1.0632384-.6655869 2.0681212-1.4600562 2.9919732-2.3839082.8173113-.8173113 1.5387528-1.709818 2.1651581-2.658346.3424638.0665253.6824267.1362185 1.0173876.2089129.44617.0968702.8903392.2009099 1.3305069.3101181-.0138387.0540206-.0280107.1078745-.0395151.1627287-.6058975 2.875262-.5665492 5.4182307.1168779 7.5578792.614234 1.9232326 1.7228229 3.4813262 3.2945884 4.6312643 1.852539 1.3551829 4.0890577 1.9405726 6.1149962 1.9405726 1.5247475 0 2.9304497-.3317931 3.962843-.9165158 1.1677782-.6614187 2.1461509-2.0551163 2.9206126-4.1475801.3579697.4178259.6972656.8458222 1.0170541 1.2839892 1.2966606 1.7763433 2.2865377 3.7340891 2.9421208 5.8185499.38498 1.2242997 1.3406774 2.1876667 2.5563072 2.5773152l3.4966654 1.1200933c.9175161.2939453 1.5339176 1.1384337 1.5339176 2.1018007v5.7980421c0 .963367-.6164015 1.8078554-1.5339176 2.1018007l-5.6336462 1.8045208c-.9013434.2889434-1.664134.908346-2.1478182 1.7443312-2.2133432 3.8251238-5.6931688 6.9904963-10.3434404 9.4082507-.5372046.2796065-.9093464.7796304-1.0213891 1.3721894l-1.804354 9.5541397c-.0498523.263267-.2804402.454173-.5483756.454173h-5.8667349c-.2679354 0-.4985233-.1910728-.5483756-.454173l-.9993807-5.2801782c-.1967416-1.0388957-1.1711128-1.728992-2.2198457-1.5700981-2.5271294.3821456-5.1311214.5757193-7.7392816.5757193-1.9404059 0-3.8559689-.1082079-5.6938358-.3217892-1.0162204-.1168779-1.9629144.575886-2.1528201 1.5792683l-.9496951 5.0170779c-.0498523.263267-.2804402.454173-.5483756.454173h-5.8667349c-.2679354 0-.4985233-.1910728-.5490425-.4581745l-1.7373285-9.023771c-.111876-.5813881-.4770151-1.0757431-1.0023819-1.35635-7.9270198-4.2317788-12.1169493-11.3018055-12.1169493-20.4452887 0-4.6197599 1.0107184-8.7048161 3.0039777-12.1421256 1.8600419-3.207722 4.5767435-5.859899 8.074576-7.8831698.593893-.3436309.7968036-1.103587.4533394-1.6976467-.3434642-.5938929-1.1034203-.7964701-1.69748-.4533394-6.7824171 3.9234947-10.8731421 9.9764673-11.99940452 17.664396v-.0001667c-.11954554-.0108375-.23925781-.0211748-.35846989-.0335128.02167492-.8294826-.12838224-1.6664682-.4551734-2.4787776-.72077458-1.7916826-2.2013386-3.0848419-3.77210366-3.2944217-1.23780487-.1657298-2.41575362.3598037-3.2332317 1.4398819-1.18528487 1.5662633-.99204459 2.8057355-.6214034 3.5696932.62573838 1.2893245 2.23418446 2.2013386 4.90336795 2.7747237-.07336128.1098752-.15405869.2202506-.24242568.3311261-1.5771008 1.9779202-3.43514196 2.4152535-4.64160156 2.4564358-.70626906.0238424-1.27181784.5908918-1.27181784 1.297661v.0060023c0 .6970989.55004287 1.2656488 1.24647485 1.2974943.08920065.0041682.18240282.0063357.27943978.0063357 1.52658156 0 3.9766816-.5630478 6.33057832-3.5146722.37164158-.4658441.67442359-.9573647.90717893-1.4652249.23442263.0265101.45967511.0491854.67542397.0691931 0-.0005002 0-.0008337.00016673-.0013339-.04234947.6732565-.06585843 1.3563501-.06585843 2.0514482 0 5.1733041 1.23330315 9.7858946 3.66539635 13.7102229 2.242521 3.618045 5.4532441 6.5805069 9.5461366 8.8083556l1.6889768 8.7726753c.2716034 1.4352134 1.5289157 2.4769436 2.9896389 2.4769436h5.8667349c1.4607232 0 2.7180355-1.0417302 2.9896389-2.4769436l.8586605-4.5363948c1.783346.1889053 3.6297161.2846084 5.4962605.2846084 2.5609756 0 5.11895-.1784013 7.6118997-.5305354l.9051782 4.7826553c.2717702 1.4352134 1.5290825 2.4767768 2.9896389 2.4767768h5.866735c1.4607231 0 2.7180354-1.0417302 2.9898056-2.4774438l1.7568359-9.3020436c4.9632241-2.6244998 8.704316-6.0721465 11.1215702-10.249738.174233-.3011147.4425019-.5220322.7552877-.622237l5.6334794-1.8045208c1.950243-.6250715 3.2605755-2.4205888 3.2605755-4.4685356v-5.7980421c0-2.0477802-1.3103325-3.8432975-3.2605755-4.4680355zm-11.8655202-14.7651248c-.4781822 4.0892245-1.7608375 7.5872237-3.0496618 8.3171684-1.4648914.8298162-4.8470131.9900439-7.3863138-.8674971-2.5423018-1.8597085-3.3884575-5.2039825-2.4472656-9.671351 0-.0001667 0-.0001667 0-.0001667.094536-.4486709.4133241-.8368188.8526581-1.0378954 6.2197028-2.8470846 9.8055688-3.7782727 11.137743-3.7782727.2010766 0 .3508003.0211748.4505049.0601896.4001525.4264958.9250191 2.8509194.4423352 6.9778249zm-66.75159584 13.7932546c-.12854897-.265101.17489996-.7311119.36730659-.9855421.3049495-.4028202.58588986-.4851849.79813739-.4851849.04485041 0 .08669969.0036681.12504763.0088367.57121761.0761957 1.37152249.7047685 1.79551734 1.75867.09987138.2480945.22958746.6590844.25993236 1.171613-1.71982184-.3563024-3.05599752-.8699981-3.34594131-1.4683927z" fill="#404f54"/><path d="m39.6681117 15.5520913v-4.4456936c1.533084.1095417 2.1026343.8103087 2.6281678.8103087.6570837 0 .9637005-.8321504.9637005-1.2483089 0-1.0732422-2.1026343-1.53308405-3.5918683-1.57693409v-.59155868c0-.26276677-.3286252-.50369189-.6570837-.50369189-.3724752 0-.635242.24092512-.635242.50369189v.63507526c-2.0806259.21908346-4.1612519 1.31416731-4.1612519 4.07371861 0 2.8034012 2.1901677 3.5918683 4.1612519 4.2926352v5.1467941c-2.2340177-.1752335-2.8252429-1.7083175-3.5480183-1.7083175-.5475419 0-1.0073837.7227753-1.0073837 1.2484756 0 1.0730755 1.8397008 2.5404678 4.555402 2.5843178v.6789254c0 .2627667.2629335.5036918.635242.5036918.3286252 0 .6570837-.2409251.6570837-.5036918v-.744617c2.3654011-.3286252 3.9860184-1.8178592 3.9860184-4.5117188 0-2.978468-2.0806259-3.9423352-3.9860184-4.6431021zm-1.1609423-.4159918c-1.1607755-.4380002-2.1024676-.8978421-2.1024676-2.1461509 0-1.1389339.8760004-1.6864758 2.1024676-1.8397009zm1.0293921 7.4681783v-4.6210937c1.0730755.4598418 1.9272342 1.0730754 1.9272342 2.4527677 0 1.2486423-.744617 1.9494093-1.9272342 2.168326z" fill="#fff"/></g></g></svg>