<svg height="80" viewBox="0 0 80 80" width="80" xmlns="http://www.w3.org/2000/svg"><g fill="none" fill-rule="evenodd" transform="translate(0 1)"><circle cx="35.384615" cy="15.897436" fill="#ff7f45" r="14.871795"/><g fill-rule="nonzero"><path d="m66.0160937 41.5020312c-.6429687 0-1.1642187.52125-1.1642187 1.1642188 0 .8151562-.663125 1.4782812-1.4782813 1.4782812-.815 0-1.4782812-.663125-1.4782812-1.4782812 0-.643125-.52125-1.1642188-1.1642188-1.1642188-.6429687 0-1.1642187.52125-1.1642187 1.1642188 0 2.0990625 1.7078125 3.8067187 3.8067187 3.8067187 2.0989063 0 3.8067188-1.7078125 3.8067188-3.8067187 0-.6432813-.52125-1.1642188-1.1642188-1.1642188z" fill="#1caba0"/><path d="m76.944375 41.6921875-3.276875-1.0496875c-.4196875-.1345312-.7504687-.4695312-.8846875-.89625-.690625-2.1957812-1.7328125-4.2571875-3.0976562-6.1271875-.6220313-.8523437-1.31375-1.66625-2.069375-2.4410937.4834375-2.1207813.74625-4.5209375.7121875-6.5945313-.04875-2.9664062-.6415625-4.70625-1.8121875-5.319375-.6304688-.330625-2.5492188-1.335-12.9346875 3.4190625-.2459375.1125-.475625.2510938-.6882813.4098438-.7001562-.188125-1.4157812-.3621875-2.1357812-.5184375-.0867188-.0189063-.1760938-.035625-.2634375-.0540625.8415625-1.8384375 1.3329687-3.8351563 1.4253125-5.8964063.02875-.6425-.4685938-1.1865625-1.1110938-1.2151562-.6407812-.031875-1.1865625.4684375-1.2151562 1.1109375-.1517188 3.3892187-1.5576563 6.578125-3.9585938 8.9792187-1.4345312 1.4345313-3.1142187 2.4765625-4.904375 3.1328125-3.1045312-.435625-6.2667187-.435625-9.37125 0-1.7903125-.65625-3.4698437-1.6982812-4.904375-3.1328125-2.5615625-2.5615625-3.9723437-5.9673437-3.9723437-9.59 0-3.6228125 1.4107812-7.0284375 3.9723437-9.59 2.5615625-2.56171875 5.9675-3.9725 9.59-3.9725s7.0284375 1.41078125 9.59 3.9725c1.029375 1.029375 1.88 2.2040625 2.5282813 3.49109375.2892187.57437505.989375.80562505 1.5635937.51625005.574375-.2890625.8054688-.9892188.51625-1.56343755-.7598437-1.50921875-1.75625-2.8853125-2.9614062-4.090625-3.0014063-3.00140625-6.9920313-4.654375-11.2365625-4.654375-4.2445313 0-8.2351563 1.65296875-11.2365625 4.654375-3.0014063 3.0015625-4.654375 6.99203125-4.654375 11.23656255 0 4.2445312 1.6529687 8.2351562 4.654375 11.2365625.8657812.8657812 1.8076562 1.6103125 2.8039062 2.2340625.0003125 0 .000625-.0001563.0009375-.0001563-.7239062.188125-1.4423437.399375-2.1528125.636875-.6098437.2039063-.9389062.8634375-.735 1.4734375.20375.6098438.8635938.9389063 1.4732813.7351563 6.349375-2.1226563 13.343125-2.1226563 19.6925 0 .1225.0409375.246875.0603125.3692187.0603125.4870313 0 .9410938-.308125 1.1040625-.7954688.2039063-.6098437-.1251562-1.2695312-.735-1.4734375-.7104687-.2375-1.4289062-.4489062-2.1528125-.636875.0003125 0 .000625.0001563.0009375.0001563.9964063-.62375 1.938125-1.3682813 2.8039063-2.2340625.7659375-.7659375 1.4420312-1.6023438 2.0290625-2.49125.3209375.0623437.6395312.1276562.9534375.1957812.418125.0907813.834375.1882813 1.246875.290625-.0129688.050625-.02625.1010938-.0370313.1525-.5678125 2.6945313-.5309375 5.0776563.1095313 7.0828125.575625 1.8023438 1.6145312 3.2625 3.0875 4.3401563 1.7360937 1.27 3.8320312 1.8185937 5.730625 1.8185937 1.4289062 0 2.74625-.3109375 3.71375-.8589062 1.094375-.6198438 2.01125-1.9259375 2.7370312-3.886875.3354688.3915625.6534375.7926562.953125 1.2032812 1.2151563 1.6646875 2.1428125 3.499375 2.7571875 5.4528125.3607813 1.1473438 1.2564063 2.0501563 2.395625 2.4153125l3.276875 1.0496875c.8598438.2754688 1.4375 1.066875 1.4375 1.9696875v5.4335938c0 .9028125-.5776562 1.6942187-1.4375 1.9696875l-5.2795312 1.6910937c-.8446875.2707813-1.5595313.85125-2.0128125 1.6346875-2.0742188 3.5846875-5.3353125 6.5510938-9.6932813 8.816875-.5034375.2620313-.8521875.730625-.9571875 1.2859375l-1.6909375 8.9535938c-.0467187.2467187-.2628125.425625-.5139062.425625h-5.4979688c-.2510937 0-.4671875-.1790625-.5139062-.425625l-.9365625-4.9482813c-.184375-.9735937-1.0975-1.6203125-2.0803125-1.4714062-2.3682813.358125-4.8085938.5395312-7.2528125.5395312-1.8184375 0-3.6135938-.1014062-5.3359375-.3015625-.9523438-.1095312-1.8395313.5396875-2.0175 1.48l-.89 4.7017188c-.0467188.2467187-.2628125.425625-.5139063.425625h-5.4979687c-.2510938 0-.4671875-.1790625-.5145313-.429375l-1.628125-8.4565625c-.1048437-.5448438-.4470312-1.008125-.939375-1.2710938-7.42875-3.9657812-11.3553125-10.5914062-11.3553125-19.1601562 0-4.329375.9471875-8.1576563 2.8151563-11.3789063 1.743125-3.0060937 4.2890625-5.4915625 7.5670312-7.3876562.5565625-.3220313.7467188-1.0342188.4248437-1.5909375-.321875-.5565625-1.0340624-.7464063-1.5907812-.4248438-6.3560938 3.676875-10.1896875 9.349375-11.24515625 16.5540625v-.0001562c-.11203125-.0101563-.22421875-.0198438-.3359375-.0314063.0203125-.7773437-.1203125-1.5617187-.4265625-2.3229687-.67546875-1.6790625-2.06296875-2.8909375-3.535-3.0873438-1.16-.1553125-2.26390625.3371875-3.03 1.349375-1.11078125 1.4678125-.9296875 2.629375-.58234375 3.3453125.58640625 1.2082813 2.09375 2.0629687 4.59515625 2.6003125-.06875.1029688-.144375.2064063-.2271875.3103125-1.47796875 1.8535938-3.21921875 2.2634375-4.34984375 2.3020313-.661875.0223437-1.191875.55375-1.191875 1.2160937v.005625c0 .6532813.51546875 1.1860938 1.168125 1.2159375.08359375.0039062.1709375.0059375.261875.0059375 1.430625 0 3.72671875-.5276563 5.93265625-3.29375.34828125-.4365625.63203125-.8971875.85015625-1.373125.2196875.0248438.43078125.0460938.63296875.0648438 0-.0004688 0-.0007813.00015625-.00125-.0396875.6309375-.06171875 1.2710937-.06171875 1.9225 0 4.848125 1.15578125 9.1707812 3.43499995 12.8484375 2.1015626 3.390625 5.1104688 6.166875 8.9460938 8.2546875l1.5828125 8.22125c.2545312 1.345 1.4328125 2.32125 2.8017188 2.32125h5.4979687c1.3689063 0 2.5471875-.97625 2.8017188-2.32125l.8046875-4.25125c1.67125.1770312 3.4015625.2667187 5.1507812.2667187 2.4 0 4.7971875-.1671875 7.1334375-.4971875l.8482813 4.4820313c.2546875 1.345 1.4329687 2.3210937 2.8017187 2.3210937h5.4979688c1.3689062 0 2.5471875-.97625 2.801875-2.3217188l1.6464062-8.7173437c4.65125-2.4595312 8.1571875-5.6904687 10.4225-9.6054687.1632813-.2821875.4146875-.4892188.7078125-.5831251l5.279375-1.6910937c1.8276562-.5857812 3.055625-2.2684375 3.055625-4.1876562v-5.4335938c0-1.9190625-1.2279688-3.6017187-3.055625-4.1871875zm-11.1196875-13.8370312c-.448125 3.8321875-1.6501562 7.1103125-2.8579687 7.794375-1.3728125.7776562-4.5423438.9278124-6.9220313-.8129688-2.3825-1.7428125-3.1754687-4.876875-2.2934375-9.0634375 0-.0001562 0-.0001562 0-.0001562.0885938-.4204688.3873438-.7842188.7990625-.9726563 5.82875-2.668125 9.1892188-3.5407812 10.4376563-3.5407812.1884375 0 .32875.0198437.4221875.0564062.375.3996875.866875 2.6717188.4145312 6.5392188zm-62.55578125 12.9262499c-.12046875-.2484374.16390625-.6851562.34421875-.9235937.28578125-.3775.5490625-.4546875.74796875-.4546875.04203125 0 .08125.0034375.1171875.0082812.5353125.0714063 1.2853125.6604688 1.68265625 1.648125.09359375.2325.21515625.6176563.24359375 1.0979688-1.61171875-.3339062-2.86390625-.8153125-3.135625-1.3760938z" fill="#404f54"/><path d="m37.1746875 14.5745313v-4.16625c1.4367188.1026562 1.9704688.759375 2.4629688.759375.6157812 0 .903125-.7798438.903125-1.1698438 0-1.00578125-1.9704688-1.43671875-3.3660938-1.4778125v-.554375c0-.24625-.3079687-.47203125-.6157812-.47203125-.3490625 0-.5953125.22578125-.5953125.47203125v.59515625c-1.9498438.2053125-3.8996875 1.2315625-3.8996875 3.81765625 0 2.6271875 2.0525 3.3660937 3.8996875 4.0228125v4.8232812c-2.0935938-.1642187-2.6476563-1.6009375-3.325-1.6009375-.513125 0-.9440625.6773438-.9440625 1.17 0 1.005625 1.7240625 2.3807813 4.2690625 2.421875v.63625c0 .24625.2464062.4720313.5953125.4720313.3079687 0 .6157812-.2257813.6157812-.4720313v-.6978125c2.2167188-.3079687 3.7354688-1.7035937 3.7354688-4.228125 0-2.7912499-1.9498438-3.6945312-3.7354688-4.3512499zm-1.0879687-.3898438c-1.0878125-.4104687-1.9703125-.8414063-1.9703125-2.01125 0-1.0673438.8209375-1.5804687 1.9703125-1.7240625zm.9646875 6.99875v-4.330625c1.005625.4309375 1.8060937 1.005625 1.8060937 2.2985938 0 1.1701562-.6978125 1.8268749-1.8060937 2.0320312z" fill="#fff"/></g></g></svg>