<svg height="100" viewBox="0 0 100 100" width="100" xmlns="http://www.w3.org/2000/svg"><g fill="#4a90e2" fill-rule="evenodd"><path d="m86.451 26.616c.192.192.444.288.696.288s.504-.096.696-.288c.3845-.3845.3845-1.008 0-1.3925l-13.068-13.0678c-.3845-.3844-1.0075-.3844-1.392 0-.3845.38445-.3845 1.00775 0 1.3922z"/><path d="m88.566 24.501c.192.1922.444.2883.696.2883s.504-.09615.696-.2883c.3845-.38445.3845-1.00775 0-1.3922l-13.068-13.068c-.3845-.3844-1.0075-.38435-1.392 0-.3845.38445-.3845 1.00775 0 1.3922z"/><path d="m90.7035 22.3633c.192.1922.444.28835.696.28835s.504-.09615.696-.28835c.3845-.38445.3845-1.0077 0-1.39215l-13.068-13.06795c-.384-.38445-1.0075-.38445-1.392 0s-.3845 1.0077 0 1.39215z"/><path d="m80.849 6.84175 3.583-3.58305c.7785-.7784 2.045-.77845 2.8235-.00005l9.4845 9.4848c.7785.7784.7785 2.04495 0 2.82335l-3.583 3.58315c-.3845.38445-.3845 1.0077 0 1.39215.192.19225.444.28835.696.2883.252 0 .504-.0961.696-.2883l3.5835-3.5832c1.546-1.546 1.546-4.0616 0-5.6076l-9.485-9.4848c-1.546-1.5459-4.0615-1.546-5.6075 0l-3.5835 3.58315c-.384.3844-.384 1.0077 0 1.3921.3845.38445 1.008.38445 1.3925 0"/><path d="m74.946 19.5674c-.386-.383-1.009-.3806-1.392.0053l-55.6069 56.0283c-.383.386-.3806 1.009.0053 1.392.192.1905.4427.286.6934.286.25315 0 .5063-.097.6987-.291l55.6065-56.02845c.383-.3859.381-1.00915-.005-1.39215"/><path d="m23.73715 82.37c.2532 0 .5063-.097.6987-.291l55.60665-56.028c.383-.386.3805-1.0095-.005-1.39225-.386-.38295-1.0095-.3807-1.3925.00525l-55.6065 56.028c-.38305.386-.38065 1.0095.0052 1.3925.19205.1905.44275.2855.69345.2855"/><path d="m79.28 97.828-4.805-4.805 4.0745-4.075c.3845-.384.3845-1.0075.0005-1.392-.385-.3845-1.008-.3845-1.3925 0l-4.0745 4.0745-1.733-1.7325 4.1165-4.117c.3845-.3845.3845-1.0075 0-1.392s-1.0075-.3845-1.392 0l-4.1165 4.1165-1.6345-1.634 4.075-4.0745c.3845-.3845.3845-1.008 0-1.3925s-1.008-.3845-1.392 0l-4.075 4.0745-1.6455-1.6455 4.0745-4.0745c.3845-.3845.3845-1.0075 0-1.392s-1.0075-.3845-1.392 0l-4.0745 4.0745-1.6775-1.6775c.065-.04.127-.087.1835-.143l7.9405-7.918c.385-.384.3855-1.0075.002-1.3925-.384-.385-1.0075-.3855-1.3925-.002l-7.94 7.9185c-.0575.057-.105.1195-.145.1855l-1.527-1.527 4.0535-4.0535c.3845-.3845.3845-1.0075 0-1.392s-1.0075-.3845-1.392 0l-4.0535 4.0535-1.733-1.733 4.0955-4.0955c.3845-.3845.3845-1.0075 0-1.392s-1.0075-.3845-1.392 0l-4.0955 4.0955-1.6345-1.634 4.0535-4.054c.3845-.3845.3845-1.0075 0-1.392-.384-.3845-1.0075-.3845-1.392 0l-4.0535 4.0535-1.6455-1.6455 4.0535-4.0535c.3845-.3845.3845-1.008 0-1.3925-.3845-.384-1.0075-.384-1.392.0005l-4.0535 4.0535-1.012-1.012 18.5475-18.548 31.5355 31.5355zm-66.4977-4.947c-1.70785.7575-3.21555 1.412-4.52645 1.969l-3.09505-3.0935c.5553-1.3085 1.207-2.813 1.9601-4.517 1.8269-4.1335 3.52465-7.7965 4.3818-9.53l10.7857 10.786c-1.7498.8665-5.44995 2.5875-9.5061 4.3855zm-9.7106 4.0565c.27515-.7585.69525-1.831 1.2673-3.219l1.9545 1.954c-1.3895.5725-2.46335.992-3.2218 1.265zm29.0318-46.286c.0555-.0365.1085-.079.1575-.128l7.94-7.918c.385-.384.386-1.0075.002-1.392-.384-.385-1.0075-.386-1.392-.002l-7.94 7.918c-.0495.0495-.093.103-.1295.1595l-1.6805-1.6805 4.053-4.053c.3845-.3845.3845-1.008 0-1.392-.3845-.3845-1.008-.3845-1.392 0l-4.0535 4.053-1.7325-1.733 4.095-4.095c.3845-.3845.3845-1.0075 0-1.392s-1.0075-.3845-1.392 0l-4.09525 4.095-1.6342-1.634 4.05295-4.0535c.3845-.384.3845-1.0075 0-1.392-.384-.3845-1.0075-.3845-1.392 0l-4.0531 4.053-1.64555-1.6455 4.05315-4.053c.38445-.3845.38445-1.0075 0-1.392-.3844-.3845-1.0077-.3845-1.39215 0l-4.05315 4.053-1.6721-1.672c.05545-.0365.108-.0785.15675-.1275l7.9403-7.918c.38485-.384.38585-1.007.0019-1.392-.3839-.385-1.0071-.386-1.3921-.002l-7.94035 7.918c-.0494.0495-.09225.1025-.129.159l-13.27305-13.2732 18.5478-18.5478 31.53415 31.534-18.5475 18.548zm67.4645 27.5845-31.8835-31.8835 17.629-17.629c.3845-.3845.3845-1.0075 0-1.392-.384-.3845-1.0075-.3845-1.392 0l-60.0064 60.0065-11.25415-11.2545 60.00655-60.00635c.3845-.38445.3845-1.0077 0-1.39215-.3845-.3844-1.008-.3844-1.3925 0l-17.629 17.629-31.88195-31.88215c-.2785-.27855-.64935-.4319-1.0442-.4319-.39475 0-.7656.15335-1.04405.4319l-19.2439 19.24385c-.27855.2785-.4319.64935-.4319 1.0441 0 .3948.15335.76565.4319 1.04415l31.8821 31.88205-21.74105 21.7415h-.0005c-.152.152-.34195.3435-2.01515 3.9195-1.00415 2.1465-2.2417 4.8785-3.39515 7.495-.9186 2.0835-2.2169 5.076-3.1852 7.499-.43775 1.095-.76395 1.9655-.96955 2.586-.2665.805-.51825 1.565.0105 2.094.2305.2305.5038.3145.805.3145.39495 0 .83795-.1445 1.29525-.294.62405-.204 1.4974-.53 2.5957-.968 2.4159-.964 5.41375-2.268 7.50315-3.1915 2.59565-1.148 5.32495-2.3885 7.488-3.404 3.57045-1.6765 3.75655-1.8625 3.9062-2.012l21.7413-21.7415 31.8835 31.8835c.2785.2785.6495.432 1.044.432.395 0 .766-.1535 1.0445-.432l19.2435-19.2435c.576-.576.576-1.5125 0-2.0885z"/><path d="m19.33125 19.33095c-.597.59695-1.3906.9257-2.2348.9257-.84415 0-1.63775-.3287-2.2346-.9256-.59685-.59685-.92555-1.3904-.92555-2.2345 0-.84415.3288-1.6378.9257-2.23475.5968-.5968 1.3903-.92545 2.23435-.92545.84415 0 1.6377.3287 2.23465.9256 1.23215 1.23215 1.23225 3.23695.00025 4.469zm-2.2349-7.3634c-1.36995 0-2.65785.53345-3.6265 1.5021-.9688.9688-1.50235 2.2568-1.50235 3.62685-.00005 1.37005.5335 2.658 1.50225 3.6267.96865.96875 2.25665 1.50225 3.6267 1.50225s2.6581-.53355 3.62695-1.50235c1.99965-1.99975 1.9995-5.25355-.00025-7.2533-.9688-.96875-2.25675-1.50225-3.6268-1.50225z"/></g></svg>