<svg height="80" viewBox="0 0 80 80" width="80" xmlns="http://www.w3.org/2000/svg"><g fill="none" fill-rule="evenodd"><path d="m78.0495313 51.0504688h-.7851563v-3.4470313c3.1059375-3.143125 2.7525-8.75125 2.69375-9.4625v-5.8720312c0-1.890625-1.5382812-3.42875-3.4285937-3.42875h-.1317188c-.5978125 0-1.160625.15375-1.6504687.4239062-.62875-.789375-1.5979688-1.2965625-2.6832813-1.2965625h-.1317187c-.5789063 0-1.1292188.1421875-1.613125.39875-.629375-.7470312-1.5717188-1.2225-2.6228125-1.2225h-.1317188c-.479375 0-.9403125.0989063-1.360625.2803125-.6139062-.9296875-1.6682813-1.544375-2.8634375-1.544375h-.1317188c-1.8904687 0-3.4285937 1.5382813-3.4285937 3.4289063v3.3042187c-1.3771875-.1476563-2.4532813.1151563-3.2670313.7964063-1.7646875 1.4770312-1.5871875 4.4078125-1.4153125 7.2423437.2345313 3.86875 3.6834375 7.1146875 5.0125 8.2284375v2.1703125h-.6620312c-.6971875 0-1.2620313.5648437-1.2620313 1.2620312v6.4920313 19.4645312c0 .6971875.5648438 1.2620313 1.2620313 1.2620313h18.6014062c.6971875 0 1.2620313-.5648438 1.2620313-1.2620313v-19.4643749-6.4920313c-.0001562-.696875-.5651562-1.2620312-1.2623437-1.2620312zm-20.4321876-10.5515626c-.1215625-2.0021875-.2725-4.4942187.5157813-5.1537499.2928125-.2453125.8667188-.3079688 1.6470312-.1859375v1.7142187c0 .6971875.5648438 1.2620313 1.2620313 1.2620313s1.2620313-.5648438 1.2620313-1.2620313v-7.5645312c0-.4989063.4057812-.9048438.9045312-.9048438h.1317187c.4989063 0 .9048438.4059375.9048438.9048438v.5854687 4.286875c0 .6971875.5648438 1.2620313 1.2620313 1.2620313s1.2620312-.5648438 1.2620312-1.2620313v-4.0367187c.1554688-.2895313.4578125-.4760938.7951563-.4760938h.1317187c.4989063 0 .9048438.4059375.9048438.9048438v.1782812 3.43c0 .6971875.5648437 1.2620313 1.2620312 1.2620313s1.2620313-.5648438 1.2620313-1.2620313v-3.1946875c.1517187-.3007812.4596875-.494375.806875-.494375h.1317187c.49875 0 .9045313.4059375.9045313.9046875v.8728125 2.5310938c0 .6971875.5648437 1.2620312 1.2620312 1.2620312.6970313 0 1.2620313-.5648437 1.2620313-1.2620312v-2.5310938c0-.49875.4060937-.9046875.9051562-.9046875h.1317188c.49875 0 .9045312.4059375.9045312.9046875v5.9271875c0 .0403125.0020313.0807813.0057813.1210938.145625 1.5085937.024375 5.8457812-2.2528125 7.7734375-.2834375.2398437-.4465625.5920312-.4465625.9634375v3.9965624h-12.1059376v-2.7765624c0-.3992188-.1895312-.7751563-.5085937-1.013125-.0429687-.0323438-4.295-3.2440626-4.5082813-6.7631251zm19.1701563 36.5082813h-16.0773437v-16.9404688h16.0773437z" fill="#404f54" fill-rule="nonzero"/><path d="m76.7875 57.5426562h-16.0773437v-3.9679687h.6620312 14.6301563.7851562z" fill="#f4fafa"/><path d="m53.6153125 20.68375 5.77375 2.4384375c.41625.1757813.8548437.26375 1.2934375.26375.4235937 0 .8473437-.081875 1.25125-.2460937.823125-.3342188 1.4667188-.9690625 1.8120313-1.7870313l.7023437-1.6628125c.345625-.818125.351875-1.7220312.0176562-2.545-.3342187-.8229687-.9689062-1.4664062-1.7889062-1.8125l-6.85375-2.880625.316875-1.1457812c.223125-.93625.075-1.85625005-.4054687-2.6357813-.4804688-.77984375-1.2357813-1.325625-2.1257813-1.53703125-.7114062-.1690625-1.2940625-.149375-1.833125.00046875-.4292187-.91359375-1.2551563-1.63078125-2.3114062-1.881875-.6901563-.16390625-1.2581251-.1528125-1.7875001-.0153125-.0442187-.0875-.0923437-.17328125-.1442187-.25765625-.480625-.77984375-1.2359375-1.325625-2.1259375-1.53703125-.5948438-.1415625-1.0654688-.15234375-1.5153125-.07265625-.0792187-.21625-.1807812-.4259375-.304375-.6265625-.4804687-.77984375-1.2357812-1.32578125-2.12875-1.5378125-1.0176562-.2415625-1.9378125-.0934375-2.7173437.38703125-.7739063.476875-1.3173438 1.224375-1.5321875 2.106875l-.2246875.8346875-8.8870313-3.73453125c-.1546875-.05296875-.175625-.0578125-.1967187-.06296875-.14-.025625-.1659375-.02859375-.1915625-.030625-.004375-.0003125-2.8277605-.1825-8.4701563-.5465625-.5317187-.03546875-1.019375.26390625-1.2340625.74609375-.2146875.48234375-.1067187 1.04734375.2710938 1.41625l5.9404687 5.80203125c.1095313.096875.1229688.10609375.13625.11625.2815625.18265625.4498438.2753125.6253125.34921875l5.4046875 2.28250005c-.3985937 1.1703125-.641875 2.560625-.8598438 3.8128125-.6896875 3.9565625 2.1332813 8.06 3.0821876 9.3048437l.0043749 5.738125h-1.0506249c-.6971875 0-1.2620313.5648438-1.2620313 1.2620313v6.4923437 40.7882812c0 .6971876.5648438 1.2620313 1.2620313 1.2620313h18.6015624c.6971875 0 1.2620313-.5648437 1.2620313-1.2620313v-31.5818749c0-.6971876-.5648438-1.2620313-1.2620313-1.2620313s-1.2620312.5648437-1.2620312 1.2620313v30.3196875h-16.0773437v-38.2640626h16.0773437v2.1037501 1.4021874c0 .6971876.5648438 1.2620313 1.2620312 1.2620313.6971876 0 1.2620313-.565 1.2620313-1.2620313v-1.4021874-3.3657813-6.4923437c0-.6971875-.5648437-1.2621875-1.2620313-1.2621875h-.5292187l.0114063-3.2603125c2.1315625-1.411875 3.328125-3.8642188 3.9732812-5.7826563zm6.6973438-3.6065625 1.384375.5817188c.1970312.0829687.3498437.2379687.4303125.4359375.080625.1982812.0790625.4159375-.0042188.6129687l-.7023437 1.663125c-.083125.1970313-.238125.3498438-.4364063.4303125-.198125.080625-.4159375.0790625-.6129687-.0042187l-1.4759376-.6232813zm-35.5884375-11.985625-2.2471875-2.19484375 3.1920312.205625zm23.0870312 19.5253125c-.4225.214375-.6895312.6473437-.6910937 1.12125l-.0135938 3.8589062h-11.9740625l-.0045312-6.0479687c-.0001563-.295625-.1053125-.5832813-.2951563-.8101563-.0340625-.0415625-3.429375-4.14875-2.8239062-7.6214062.1909375-1.0951563.4025-2.3067188.705625-3.2614063l2.2821875.9640625c.1375.3692188.4445312.6692188.8540625.7795313.671875.1807812 1.365625-.2176563 1.5465625-.890625l2.2526562-8.3696875c.0651563-.27140625.2089063-.4709375.4148438-.5978125.205625-.12671875.448125-.165625.6853125-.109375l.1264062.02984375c.2348438.0559375.434375.19984375.56125.40578125.1267188.20578125.1657813.4484375.1096875.6840625l-.128125.53984375-1.4867187 5.15124995c-.1932813.6698438.1928125 1.369375.8626562 1.5626563.116875.0335937.2346875.0498437.350625.0498437.5479688 0 1.0523438-.3598437 1.211875-.9123437l1.4365625-4.9775c.2173438-.25890625.563125-.37796875.8982813-.29796875l.1292187.03078125c.2353125.0559375.4345313.19984375.5614063.40578125.124375.20203125.1632812.43984375.1115625.6715625l-1.3221875 4.46562495c-.1978125.6684375.1835937 1.370625.8520312 1.5682813.1195313.0353125.2401563.0523437.35875.0523437.5445313 0 1.0471875-.3551562 1.2095313-.9042187l1.2239062-4.1340625c.2135938-.29140625.5775-.4309375.93625-.3453125l.1276563.0303125c.4853125.11546875.7865625.60390625.6710937 1.08953125l-.1910937.80578125-1.0760938 3.429375c-.2085937.665.1614063 1.3732812.8264063 1.5820312.1257812.039375.2529687.0582813.378125.0582813.536875 0 1.0345312-.3453125 1.2039062-.8846875l1.0895313-3.4723438c.015625-.059375.0203125-.0723437.0234375-.0860937.1153125-.4853125.60375-.78671875 1.0884375-.67125l.129375.03078125c.479375.11390625.7789062.59203125.6751562 1.07140625l-1.8665625 6.7490625c-.0146875.0526562-.0259375.1082812-.0334375.1621875-.0075.0534375-.7989062 5.4270312-3.9878125 7.0440625z" fill="#404f54" fill-rule="nonzero"/><path d="m32.8204688 36.2192187v-3.968125h16.0773437v3.968125z" fill="#1caba0"/><path d="m54.2865625 18.0082813.8584375-3.103125 2.8395313 1.1932812-1.4153125 3.0928125-2.3165625-.978125c.015-.0853125.0260937-.1545312.0339062-.2048437z" fill="#ff7f45"/><path d="m26.7946875 6.6159375 1.4357812-3.0228125 8.09125 3.40046875-.8810937 3.27359375z" fill="#ff7f45"/><path d="m24.9640625 45.1010937v-5.8714062c0-1.8907813-1.5382812-3.4289063-3.4289063-3.4289063h-.1317187c-.5978125 0-1.1604687.15375-1.6503125.4239063-.62875-.7895313-1.598125-1.2965625-2.6834375-1.2965625h-.1317187c-.57875 0-1.1289063.1423437-1.6128125.3990625-.6295313-.7473438-1.571875-1.2228125-2.623125-1.2228125h-.1317188c-.4792187 0-.9401562.0989062-1.3603125.2801562-.6139062-.9295312-1.66828125-1.5442187-2.8634375-1.5442187h-.13171875c-1.89078125 0-3.42890625 1.5382812-3.42890625 3.4289062v3.304375c-1.3775-.1485937-2.45265625.1151563-3.26671875.79625-1.7646875 1.4767188-1.5871875 4.4078125-1.4153125 7.2425.23453125 3.86875 3.683125 7.1146875 5.0121875 8.2284375v2.1703125h-.66203125c-.6971875 0-1.26203125.5648438-1.26203125 1.2620313v6.4923437 12.5040625c0 .6971875.56484375 1.2620313 1.26203125 1.2620313h18.6017188c.6971875 0 1.2620312-.5648438 1.2620312-1.2620313v-12.5040625-6.4923437c0-.6971875-.5648437-1.2620313-1.2620312-1.2620313h-.7851563v-3.4470312c3.105625-3.143125 2.7521875-8.7515625 2.6934375-9.4629688zm-3.170625 31.9060938h-16.07765625v-9.98h16.07765625zm-1.600625-23.9559375c-.2834375.2398438-.4465625.5920313-.4465625.9634375v3.9965625h-12.1065625v-.0001562-2.7767188c0-.3995312-.18921875-.7754688-.50984375-1.0132812-1.19328125-.885625-4.32890625-3.8262501-4.50671875-6.7617188-.1215625-2.0021875-.2725-4.494375.51578125-5.1539063.2925-.245.8671875-.3076562 1.64671875-.1859375v1.7142188c0 .6971875.56484375 1.2620312 1.26203125 1.2620312s1.26203125-.5648437 1.26203125-1.2620312v-7.565c0-.4989063.4059375-.9048438.90484375-.9048438h.131875c.49890625 0 .90484375.4059375.90484375.9048438v.5854687 4.286875c0 .6971875.56484375 1.2620313 1.2620312 1.2620313.6971875 0 1.2620313-.5648438 1.2620313-1.2620313v-4.0367187c.155625-.2896875.4576562-.47625.7948437-.47625h.1317188c.4989062 0 .9048437.4059375.9048437.9048437v.1785938 3.4298437c0 .6971875.5648438 1.2620313 1.2620313 1.2620313s1.2620312-.5648438 1.2620312-1.2620313v-3.1946875c.151875-.3009375.4596875-.4945312.806875-.4945312h.1317188c.4989062 0 .9048437.4059375.9048437.9046875v.8729687 2.5310938c0 .6971875.5648438 1.2620312 1.2620313 1.2620312s1.2620312-.565 1.2620312-1.2620312v-2.53125c0-.4989063.4059375-.9048438.9048438-.9048438h.1317187c.4989063 0 .9048438.4059375.9048438.9048438v5.926875c0 .0403125.0020312.0807813.0057812.1210937.1457813 1.5085938.0245313 5.8459375-2.2526562 7.7735938z" fill="#404f54" fill-rule="nonzero"/><path d="m21.7934375 64.5032813h-16.07765625v-3.968125h.661875 14.63046875.7853125z" fill="#f4fafa"/></g></svg>