<?xml version="1.0" encoding="UTF-8"?>
<svg width="45px" height="45px" viewBox="0 0 45 45" version="1.1" xmlns="http://www.w3.org/2000/svg" xmlns:xlink="http://www.w3.org/1999/xlink">
    <!-- Generator: Sketch 49.3 (51167) - http://www.bohemiancoding.com/sketch -->
    <title>shutterstock_754816570</title>
    <desc>Created with Sketch.</desc>
    <defs>
        <path d="M39.8562955,35.0123031 L39.8562955,31.1547047 L40.8205227,30.6722835 L43.7136136,29.2255512 L43.7136136,33.0833268 L39.8562955,35.0123031 Z M34.7123864,29.2255512 L37.6054773,30.6722835 L38.4518864,31.0958858 L38.5695,31.1547047 L38.5695,35.0123031 L34.7123864,33.0833268 L34.7123864,29.2255512 Z M27.0002045,41.4387992 L23.1428864,43.3679528 L23.1428864,39.5101772 L27.0002045,37.5815551 L27.0002045,41.4387992 Z M17.9993864,37.5815551 L21.8565,39.5101772 L21.8565,43.3679528 L17.9993864,41.4387992 L17.9993864,37.5815551 Z M6.43029545,35.0123031 L6.43029545,31.1547047 L10.2876136,29.2255512 L10.2876136,33.0833268 L6.43029545,35.0123031 Z M1.28659091,29.2255512 L4.17947727,30.6722835 L5.14370455,31.1547047 L5.14370455,35.0123031 L1.28659091,33.0833268 L1.28659091,29.2255512 Z M1.28659091,12.5107087 L5.14370455,14.439685 L5.14370455,18.2972835 L1.28659091,16.3683071 L1.28659091,12.5107087 Z M9.64247727,11.5448031 L5.78515909,13.4737795 L4.82277273,12.9922441 L1.92988636,11.545689 L5.787,9.61688976 L9.64247727,11.5448031 Z M26.3567045,3.1863189 L23.4642273,4.63322835 L22.4997955,5.11547244 L18.6424773,3.1863189 L22.4997955,1.25751969 L26.3567045,3.1863189 Z M43.0701136,11.545689 L39.2144318,13.4737795 L35.3571136,11.5449803 L39.2127955,9.61688976 L43.0701136,11.545689 Z M39.8562955,18.2972835 L39.8562955,14.439685 L43.7136136,12.5107087 L43.7136136,16.3683071 L39.8562955,18.2972835 Z M6.43029545,18.2972835 L6.43029545,14.4395079 L7.39472727,13.9574409 L10.2876136,12.5107087 L10.2876136,16.3683071 L6.43029545,18.2972835 Z M27.0002045,4.15133858 L27.0002045,8.00929134 L23.1432955,9.93826772 L23.1432955,6.08031496 L27.0002045,4.15133858 Z M23.1432955,26.6531102 L23.1432955,22.7953346 L27.0002045,20.8663583 L27.0002045,24.7241339 L23.1432955,26.6531102 Z M22.4997955,17.9725394 L26.3567045,19.9013386 L22.4997955,21.830315 L18.6424773,19.9013386 L22.4997955,17.9725394 Z M17.9993864,24.7241339 L17.9993864,20.8663583 L20.8922727,22.3132677 L21.8565,22.7953346 L21.8565,26.6531102 L17.9993864,24.7241339 Z M33.7475455,17.1726378 L38.5692955,19.5838583 L38.5692955,25.3670669 L34.0699091,27.6168898 L28.287,24.7241339 L28.287,19.9013386 C28.287,19.7022047 28.1642727,19.5181299 27.96525,19.4187402 L23.1432955,17.0076969 L23.1432955,11.2248425 L27.6435,8.97431102 L33.426,11.8660039 L33.426,16.6902165 C33.426,16.8889961 33.5485227,17.0730709 33.7475455,17.1726378 Z M34.7123864,12.5107087 L38.5692955,14.4395079 L38.5692955,18.2972835 L34.7123864,16.3683071 L34.7123864,12.5107087 Z M20.8922727,5.59824803 L21.8565,6.08031496 L21.8565,9.93826772 L17.9993864,8.00929134 L17.9993864,4.15133858 L20.8922727,5.59824803 Z M17.3562955,8.97448819 L21.8565,11.2248425 L21.8565,17.0076969 L17.0343409,19.4187402 C16.8355227,19.5181299 16.7127955,19.7022047 16.7127955,19.9013386 L16.7127955,24.7241339 L10.9300909,27.6168898 L6.43029545,25.3668898 L6.43029545,19.5838583 L11.2526591,17.1726378 C11.4514773,17.0730709 11.574,16.8889961 11.574,16.6902165 L11.574,11.8656496 L17.3562955,8.97448819 Z M1.92988636,28.2607087 L5.787,26.3319094 L9.6435,28.2603543 L5.78679545,30.1895079 L4.82277273,29.7072638 L1.92988636,28.2607087 Z M27.6437045,35.9730709 L22.8211364,33.5618504 C22.6223182,33.4624606 22.3768636,33.4624606 22.1780455,33.5618504 L17.3560909,35.9730709 L11.574,33.0819094 L11.574,28.5815551 L17.3560909,25.6891535 L22.1780455,28.1007283 C22.2776591,28.1503346 22.3889318,28.175315 22.4997955,28.175315 C22.6108636,28.175315 22.7219318,28.1503346 22.8215455,28.1007283 L27.6435,25.6893307 L33.426,28.5815551 L33.426,33.081378 L27.6437045,35.9730709 Z M22.4997955,34.6875591 L26.3569091,36.6163583 L22.7442273,38.4227362 L22.4997955,38.5453346 L18.6424773,36.6163583 L22.4997955,34.6875591 Z M40.1772273,29.7072638 L39.2127955,30.1895079 L35.3562955,28.2603543 L39.2127955,26.3319094 L43.0701136,28.2607087 L40.1772273,29.7072638 Z M44.6784545,17.1726378 C44.8772727,17.0730709 45,16.8889961 45,16.6902165 L45,11.545689 C45,11.3467323 44.8772727,11.1626575 44.6784545,11.0630906 L39.5345455,8.49100394 C39.3355227,8.39179134 39.0900682,8.39179134 38.89125,8.49100394 L34.0705227,10.9015157 L28.287,8.00929134 L28.287,3.1863189 C28.287,2.9873622 28.1642727,2.8032874 27.96525,2.70372047 L22.8215455,0.131811024 C22.6223182,0.0324212598 22.3770682,0.0324212598 22.1780455,0.131811024 L17.0343409,2.70372047 C16.8355227,2.8032874 16.7127955,2.9873622 16.7127955,3.1863189 L16.7127955,8.00929134 L10.9292727,10.9013386 L6.10854545,8.49100394 C5.90952273,8.39179134 5.66427273,8.39179134 5.46525,8.49100394 L0.32175,11.0630906 C0.122727273,11.1626575 0,11.3467323 0,11.545689 L0,16.6902165 C0,16.8889961 0.122727273,17.0730709 0.32175,17.1726378 L5.14370455,19.5842126 L5.14370455,25.3668898 L0.32175,27.7781102 C0.122727273,27.8776772 0,28.061752 0,28.2607087 L0,33.4048819 C0,33.6040157 0.122727273,33.7879134 0.32175,33.8874803 L5.46525,36.4599213 C5.56486364,36.5097047 5.67593182,36.5345079 5.787,36.5345079 C5.89806818,36.5345079 6.00913636,36.5097047 6.10854545,36.4599213 L10.9325455,34.0474606 L16.7127955,36.9379134 L16.7127955,41.7608858 C16.7127955,41.9596654 16.8355227,42.1437402 17.0343409,42.2429528 L22.1780455,44.8153937 C22.2776591,44.8651772 22.3887273,44.8899803 22.4997955,44.8899803 C22.6108636,44.8899803 22.7219318,44.8651772 22.8211364,44.8153937 L27.96525,42.2429528 C28.1642727,42.1437402 28.287,41.9596654 28.287,41.7608858 L28.287,36.9379134 L34.06725,34.0474606 L38.89125,36.4599213 C38.9906591,36.5097047 39.1017273,36.5345079 39.2127955,36.5345079 C39.3238636,36.5345079 39.4349318,36.5097047 39.5345455,36.4599213 L44.6784545,33.8874803 C44.8772727,33.7879134 45,33.6040157 45,33.4048819 L45,28.2607087 C45,28.061752 44.8772727,27.8776772 44.6784545,27.7781102 L39.8558864,25.3668898 L39.8558864,19.5842126 L44.6784545,17.1726378 Z" id="path-1"></path>
        <linearGradient x1="0.25781251%" y1="49.7500002%" x2="101.257813%" y2="49.7500002%" id="linearGradient-3">
            <stop stop-color="#3023AE" offset="0%"></stop>
            <stop stop-color="#53A0FD" offset="47.5247532%"></stop>
            <stop stop-color="#B4EC51" offset="100%"></stop>
        </linearGradient>
    </defs>
    <g id="Page-1" stroke="none" stroke-width="1" fill="none" fill-rule="evenodd">
        <g id="Artboard-9" transform="translate(-26.000000, -227.000000)">
            <g id="shutterstock_754816570" transform="translate(26.000000, 227.000000)">
                <g id="Group-6">
                    <mask id="mask-2" fill="white">
                        <use xlink:href="#path-1"></use>
                    </mask>
                    <g id="Clip-5"></g>
                    <path d="M39.8562955,35.0123031 L39.8562955,31.1547047 L40.8205227,30.6722835 L43.7136136,29.2255512 L43.7136136,33.0833268 L39.8562955,35.0123031 Z M34.7123864,29.2255512 L37.6054773,30.6722835 L38.4518864,31.0958858 L38.5695,31.1547047 L38.5695,35.0123031 L34.7123864,33.0833268 L34.7123864,29.2255512 Z M27.0002045,41.4387992 L23.1428864,43.3679528 L23.1428864,39.5101772 L27.0002045,37.5815551 L27.0002045,41.4387992 Z M17.9993864,37.5815551 L21.8565,39.5101772 L21.8565,43.3679528 L17.9993864,41.4387992 L17.9993864,37.5815551 Z M6.43029545,35.0123031 L6.43029545,31.1547047 L10.2876136,29.2255512 L10.2876136,33.0833268 L6.43029545,35.0123031 Z M1.28659091,29.2255512 L4.17947727,30.6722835 L5.14370455,31.1547047 L5.14370455,35.0123031 L1.28659091,33.0833268 L1.28659091,29.2255512 Z M1.28659091,12.5107087 L5.14370455,14.439685 L5.14370455,18.2972835 L1.28659091,16.3683071 L1.28659091,12.5107087 Z M9.64247727,11.5448031 L5.78515909,13.4737795 L4.82277273,12.9922441 L1.92988636,11.545689 L5.787,9.61688976 L9.64247727,11.5448031 Z M26.3567045,3.1863189 L23.4642273,4.63322835 L22.4997955,5.11547244 L18.6424773,3.1863189 L22.4997955,1.25751969 L26.3567045,3.1863189 Z M43.0701136,11.545689 L39.2144318,13.4737795 L35.3571136,11.5449803 L39.2127955,9.61688976 L43.0701136,11.545689 Z M39.8562955,18.2972835 L39.8562955,14.439685 L43.7136136,12.5107087 L43.7136136,16.3683071 L39.8562955,18.2972835 Z M6.43029545,18.2972835 L6.43029545,14.4395079 L7.39472727,13.9574409 L10.2876136,12.5107087 L10.2876136,16.3683071 L6.43029545,18.2972835 Z M27.0002045,4.15133858 L27.0002045,8.00929134 L23.1432955,9.93826772 L23.1432955,6.08031496 L27.0002045,4.15133858 Z M23.1432955,26.6531102 L23.1432955,22.7953346 L27.0002045,20.8663583 L27.0002045,24.7241339 L23.1432955,26.6531102 Z M22.4997955,17.9725394 L26.3567045,19.9013386 L22.4997955,21.830315 L18.6424773,19.9013386 L22.4997955,17.9725394 Z M17.9993864,24.7241339 L17.9993864,20.8663583 L20.8922727,22.3132677 L21.8565,22.7953346 L21.8565,26.6531102 L17.9993864,24.7241339 Z M33.7475455,17.1726378 L38.5692955,19.5838583 L38.5692955,25.3670669 L34.0699091,27.6168898 L28.287,24.7241339 L28.287,19.9013386 C28.287,19.7022047 28.1642727,19.5181299 27.96525,19.4187402 L23.1432955,17.0076969 L23.1432955,11.2248425 L27.6435,8.97431102 L33.426,11.8660039 L33.426,16.6902165 C33.426,16.8889961 33.5485227,17.0730709 33.7475455,17.1726378 Z M34.7123864,12.5107087 L38.5692955,14.4395079 L38.5692955,18.2972835 L34.7123864,16.3683071 L34.7123864,12.5107087 Z M20.8922727,5.59824803 L21.8565,6.08031496 L21.8565,9.93826772 L17.9993864,8.00929134 L17.9993864,4.15133858 L20.8922727,5.59824803 Z M17.3562955,8.97448819 L21.8565,11.2248425 L21.8565,17.0076969 L17.0343409,19.4187402 C16.8355227,19.5181299 16.7127955,19.7022047 16.7127955,19.9013386 L16.7127955,24.7241339 L10.9300909,27.6168898 L6.43029545,25.3668898 L6.43029545,19.5838583 L11.2526591,17.1726378 C11.4514773,17.0730709 11.574,16.8889961 11.574,16.6902165 L11.574,11.8656496 L17.3562955,8.97448819 Z M1.92988636,28.2607087 L5.787,26.3319094 L9.6435,28.2603543 L5.78679545,30.1895079 L4.82277273,29.7072638 L1.92988636,28.2607087 Z M27.6437045,35.9730709 L22.8211364,33.5618504 C22.6223182,33.4624606 22.3768636,33.4624606 22.1780455,33.5618504 L17.3560909,35.9730709 L11.574,33.0819094 L11.574,28.5815551 L17.3560909,25.6891535 L22.1780455,28.1007283 C22.2776591,28.1503346 22.3889318,28.175315 22.4997955,28.175315 C22.6108636,28.175315 22.7219318,28.1503346 22.8215455,28.1007283 L27.6435,25.6893307 L33.426,28.5815551 L33.426,33.081378 L27.6437045,35.9730709 Z M22.4997955,34.6875591 L26.3569091,36.6163583 L22.7442273,38.4227362 L22.4997955,38.5453346 L18.6424773,36.6163583 L22.4997955,34.6875591 Z M40.1772273,29.7072638 L39.2127955,30.1895079 L35.3562955,28.2603543 L39.2127955,26.3319094 L43.0701136,28.2607087 L40.1772273,29.7072638 Z M44.6784545,17.1726378 C44.8772727,17.0730709 45,16.8889961 45,16.6902165 L45,11.545689 C45,11.3467323 44.8772727,11.1626575 44.6784545,11.0630906 L39.5345455,8.49100394 C39.3355227,8.39179134 39.0900682,8.39179134 38.89125,8.49100394 L34.0705227,10.9015157 L28.287,8.00929134 L28.287,3.1863189 C28.287,2.9873622 28.1642727,2.8032874 27.96525,2.70372047 L22.8215455,0.131811024 C22.6223182,0.0324212598 22.3770682,0.0324212598 22.1780455,0.131811024 L17.0343409,2.70372047 C16.8355227,2.8032874 16.7127955,2.9873622 16.7127955,3.1863189 L16.7127955,8.00929134 L10.9292727,10.9013386 L6.10854545,8.49100394 C5.90952273,8.39179134 5.66427273,8.39179134 5.46525,8.49100394 L0.32175,11.0630906 C0.122727273,11.1626575 0,11.3467323 0,11.545689 L0,16.6902165 C0,16.8889961 0.122727273,17.0730709 0.32175,17.1726378 L5.14370455,19.5842126 L5.14370455,25.3668898 L0.32175,27.7781102 C0.122727273,27.8776772 0,28.061752 0,28.2607087 L0,33.4048819 C0,33.6040157 0.122727273,33.7879134 0.32175,33.8874803 L5.46525,36.4599213 C5.56486364,36.5097047 5.67593182,36.5345079 5.787,36.5345079 C5.89806818,36.5345079 6.00913636,36.5097047 6.10854545,36.4599213 L10.9325455,34.0474606 L16.7127955,36.9379134 L16.7127955,41.7608858 C16.7127955,41.9596654 16.8355227,42.1437402 17.0343409,42.2429528 L22.1780455,44.8153937 C22.2776591,44.8651772 22.3887273,44.8899803 22.4997955,44.8899803 C22.6108636,44.8899803 22.7219318,44.8651772 22.8211364,44.8153937 L27.96525,42.2429528 C28.1642727,42.1437402 28.287,41.9596654 28.287,41.7608858 L28.287,36.9379134 L34.06725,34.0474606 L38.89125,36.4599213 C38.9906591,36.5097047 39.1017273,36.5345079 39.2127955,36.5345079 C39.3238636,36.5345079 39.4349318,36.5097047 39.5345455,36.4599213 L44.6784545,33.8874803 C44.8772727,33.7879134 45,33.6040157 45,33.4048819 L45,28.2607087 C45,28.061752 44.8772727,27.8776772 44.6784545,27.7781102 L39.8558864,25.3668898 L39.8558864,19.5842126 L44.6784545,17.1726378 Z" id="Fill-4" fill="url(#linearGradient-3)" mask="url(#mask-2)"></path>
                </g>
            </g>
        </g>
    </g>
</svg>