<svg height="75" viewBox="0 0 75 75" width="75" xmlns="http://www.w3.org/2000/svg"><g fill="none" transform="translate(.406347)"><path d="m37.5139898 54.0969945c-9.2524395 0-16.7812437-7.5353674-16.7812437-16.7976499 0-9.2637288 7.5288042-16.8005424 16.7812437-16.8005424 7.6386081 0 14.0953778 5.1359097 16.1195295 12.137582h6.4928893c-2.161407-10.5162486-11.4774171-18.4479096-22.6124188-18.4479096-12.7286058 0-23.0848654 10.3672768-23.0848654 23.11087 0 12.7421469 10.3562596 23.1094236 23.0848654 23.1094236 11.1350017 0 20.4510118-7.9302144 22.6124188-18.4464631h-6.4928893c-2.0241517 7.0002258-8.4809214 12.1346894-16.1195295 12.1346894" fill="#435363"/><path d="m26.2012788 48.6226441c2.8982501 2.9013334 6.9003203 4.6991186 11.312711 4.6991186v-6.6979436c-2.5717274 0-4.90073-1.0456949-6.5868007-2.7321127z" fill="#435363"/><path d="m21.5085987 37.2978983c0 2.2924294.4883393 4.4734915 1.3581033 6.4477288l6.1201333-2.6945085c-.5056768-1.1483842-.7888557-2.4168135-.7888557-3.7532203 0-5.1503729 4.1711106-9.3244746 9.3145654-9.3244746v-6.6979435c-8.8247814 0-16.0039463 7.1882486-16.0039463 16.0224181" fill="#f38b00"/><path d="m43.3162693 22.3674576-2.4272485 6.2437966c1.9822528.7737853 3.6365383 2.2013108 4.6883456 4.0236836h7.24707c-1.4303427-4.7020112-4.9671903-8.4928361-9.5081671-10.2674802" fill="#435363"/><path d="m40.8919104 45.9845424 2.4258035 6.2437966c4.5409773-1.7746441 8.0778248-5.5669153 9.5096122-10.2689266h-7.24707c-1.054697 1.8238194-2.7075378 3.252791-4.6883457 4.02513" fill="#f38b00"/><path d="m7.90300268 46.2607911c-.10546989-.3500114-.20660541-.7029153-.30051698-1.0587119-.00577916-.0216949-.01155836-.0433898-.01733752-.0650847-.08668759-.3297627-.16615121-.6595254-.24272526-.9921809-.01589274-.0679776-.03034066-.1359547-.04478858-.2039322-.06357091-.2849267-.12136263-.5727458-.17770956-.8605649-.0245615-.1287233-.0462334-.2574466-.0679053-.3861695-.0404542-.2299661-.08090843-.458486-.11702825-.6913448-.03034066-.1981468-.05634694-.3948474-.08235322-.5929943-.18204394-1.3508701-.2802899-2.723435-.27884507-4.1133559h-6.32098657c-.00142862 1.5157514.09392774 3.0127005.2716373 4.4908474.00288959.0318192.00866876.0636384.01300314.0954577.04912297.402079.10402512.8041582.16615122 1.2018984.01733752.1099208.03611984.2198415.05490215.3312089.05490214.3268699.11124908.6537403.17481998.979164.03178545.1735593.06935007.3442258.1054699.516339.05345735.2588923.1083595.5177851.16759602.7752313.05201255.2256271.10835949.4512543.16615122.6768814.05056776.2010398.09969073.4020792.15314808.6031186.07223966.2661246.1488137.529356.22538774.7940339.03178545.1099212.06068132.2227348.09391157.3312093h.00288958c.43632756 1.4448814.95356353 2.8550509 1.55459751 4.2203839l5.79217604-2.5498754c-.49845366-1.1310284-.92900203-2.3025538-1.29164514-3.5015593z" fill="#435363"/><path d="m37.5139898 68.2724521c-8.5300441 0-16.2625638-3.476972-21.8640172-9.0858305l-4.4774063 4.4821695c6.742838 6.750011 16.0530691 10.9298983 26.3414235 10.9298983 19.0004423 0 34.6764208-14.23765 36.9693036-32.6363843h-6.3787505c-2.2538735 14.8725877-15.1125106 26.310147-30.5905531 26.310147" fill="#f38b00"/><path d="m37.5139898 6.32623729c6.9306609 0 13.3325283 2.29242936 18.4962101 6.16135591l3.7867964-5.08094913c-6.2154894-4.65138983-13.9277819-7.40664407-22.2830065-7.40664407-15.8103443 0-29.31913709 9.85816949-34.72843338 23.7703955l5.89619073 2.2967684c4.50052295-11.5431413 15.72799125-19.74092661 28.83224265-19.74092661" fill="#f38b00"/><path d="m68.1045429 32.6363842h6.3787505c-.6833857-5.4888136-2.5587242-10.6073673-5.3587285-15.0880904l-5.3717316 3.3554802c2.1931923 3.504452 3.7058881 7.4775141 4.3517096 11.7326102" fill="#435363"/><path d="m60.918154 32.6363842h6.4004224c-1.6701778-10.743322-9.0198281-19.6266667-18.868966-23.47534467l-2.2856587 5.88366107c7.4897948 2.9273672 13.1548191 9.5327457 14.7542023 17.5916836" fill="#f38b00"/><path d="m37.5139898 13.4117966.0014448-6.30888135h-.0014448c-12.7762839 0-23.7205733 7.99240675-28.1098473 19.24628255l5.8730741 2.2880903c3.4732767-8.9021469 12.1304624-15.2254915 22.2367732-15.2254915" fill="#435363"/><path d="m13.6532719 37.2978983h-6.30217696c0 12.6886326 7.86110606 23.5693559 18.96287756 28.0298305l2.3405609-5.8561809c-8.7828825-3.5290394-15.0012615-12.1361356-15.0012615-22.1736496" fill="#f38b00"/><path d="m37.5139898 61.184v6.3103275c15.0489396 0 27.5579373-11.0904406 29.8045866-25.5349151h-6.4018674c-2.1715204 10.9487007-11.8386147 19.2245876-23.4027192 19.2245876" fill="#435363"/></g></svg>