<svg height="75" viewBox="0 0 55 75" width="55" xmlns="http://www.w3.org/2000/svg"><g fill="none"><path d="m53.5202185 36.17041c0 14.8413174-11.7545394 26.8839862-26.2623944 26.8839862-14.5078551 0-26.26239463-12.0426688-26.26239463-26.8839862 0-14.8413171 11.75453953-26.88398583 26.26239463-26.88398583 14.507855 0 26.2623944 12.04266873 26.2623944 26.88398583" fill="#d33833"/><path d="m2.07557634 42.8278011s-1.90614154-28.0288877 23.91148656-28.8345592l-1.8002446-3.0106672-13.9995507 4.7068177-4.00289727 4.6008083-3.49459282 6.6997946-1.99085895 7.8022925.59302182 5.2156628" fill="#ef3d3a"/><path d="m9.27655549 17.8307825c-4.59591904 4.7280196-7.45513135 11.2369972-7.45513135 18.4456369 0 7.20864 2.85921231 13.7176176 7.45513135 18.4456372 4.61709841 4.7280197 10.94972421 7.6326774 17.98126861 7.6326774 7.0315442 0 13.36417-2.9046577 17.9812684-7.6326774 4.5959191-4.7280196 7.4551314-11.2369972 7.4551314-18.4456372 0-7.2086397-2.8592123-13.7176173-7.4551314-18.4456369-4.6170984-4.7068178-10.9497242-7.6326774-17.9812684-7.6326774-7.0103651 0-13.3641702 2.9046578-17.98126861 7.6326774zm-1.16486426 38.0149739c-4.89242997-5.0036442-7.92107708-11.9366594-7.92107708-19.569337 0-7.6326773 3.02864711-14.5656925 7.92107708-19.5905385 4.89242997-5.0036441 11.66982207-8.12032071 19.14613287-8.12032071 7.4763106 0 14.2537027 3.11667661 19.1461326 8.12032071 4.8924302 5.0036441 7.9210772 11.9366593 7.9210772 19.5905385 0 7.6326776-3.028647 14.5656928-7.9210772 19.569337-4.8924299 5.024846-11.669822 8.1203205-19.1461326 8.1203205-7.4763108 0-14.2537029-3.0954745-19.14613287-8.1203205z" fill="#231f20"/><path d="m38.3134449 36.3188233-4.0028972.5936528-5.4007344.6148545-3.4945929.0848074-3.4098752-.1060094-2.6050602-.8056713-2.3085492-2.5018223-1.8002448-5.1096534-.4024076-1.1024978-2.3932666-.8056714-1.3978372-2.3110051-.9954294-3.3074936 1.1013262-2.9046578 2.6050601-.9116809 2.0967557.9964884.9954294 2.2049957 1.207223-.1908169.4024077-.5088452-.4024077-2.3110051-.1058967-2.9046578.5930218-4.0071556-.0211794-2.28980324 1.8214242-2.92585968 3.1980819-2.31100511 5.5913485-2.39581262 6.2055497.91168091 5.4007344 3.90114622 2.4991633 4.00715564 1.6096306 2.90465778.4024076 7.2086398-1.2072228 6.2121513-2.2026525 5.5124893-2.0755763 2.9470615" fill="#f0d6b7"/><path d="m34.9247488 53.6407607-14.2960615.5936525v2.3958127l1.207223 8.417147-.5930218.6996621-9.9966534-3.4135029-.6989186-1.2085073-.99542945-11.3218047-2.3509079-6.7846022-.5083044-1.6113429 8.00579445-5.5124893 2.4991634-.9964885 2.2026524 2.7138408 1.9061415 1.6961507 2.2026525.6996619.9954295.2968265 1.207223 5.2156629.9107119 1.1024978 2.3085492-.8056716-1.6096305 3.1166767 8.6835338 4.113165z" fill="#335061"/><path d="m11.2038764 18.7000596 2.6050601-.9116809 2.0967557.9964885.9954294 2.2049956 1.207223-.1908169.2965109-1.2085072-.5930218-2.3110051.5930218-5.5124893-.5083044-3.01066716 1.8002448-2.09898631 3.8970005-3.09547472-1.1013263-1.50533359-5.506631 2.71384086-2.3085492 1.80215993-1.2919404 2.79864838-1.990859 2.71384081-.5930218 3.2014842z" fill="#6d6b6d"/><path d="m15.3126704 9.28642417s1.5037338-3.7103293 7.49749-5.51248923c5.9937561-1.80215994.296511-1.29331479.296511-1.29331479l-6.5020606 2.50182205-2.4991634 2.50182203-1.1013262 1.99297688z" fill="#dcd9d8"/><path d="m12.3052026 18.0003975s-2.0967557-7.0178228 5.9090388-8.01431124l-.2965109-1.20850724-5.5066311 1.29331478-1.6096307 5.2156629.4024077 3.4135029z" fill="#dcd9d8"/><g fill="#f7e4cd"><path d="m15.5032845 27.3080235 1.3131197-1.2721128s.5930219.0636055.6989186.7632677c.1058968.6996622.4024077 7.0178229 4.7018159 10.410124.4024076.3180282-3.198082-.5088451-3.198082-.5088451l-3.1980819-5.0036443"/><path d="m33.9081401 25.3998543s.2329729-3.031869 1.0589675-2.7986485c.8259945.2332207.8259945 1.0600942.8259945 1.0600942s-1.9908587 1.2721128-1.884962 1.7385543"/><path d="m42.2104455 14.2900682s-1.6519894.3392302-1.8002449 1.80216c-.1482553 1.4629298 1.8002449.2968263 2.0967557.1908169"/><path d="m30.1170362 14.3960776s-2.2026522.2968264-2.2026522 1.6961506 2.4991633 1.2933148 3.1980817.6996621"/><path d="m16.5198933 20.9050553s-3.7911037-2.3110051-4.1935113-.1060094c-.4024077 2.2049958-1.2919404 3.7951368.5930218 6.1061419l-1.2919404-.4028357-1.207223-3.0954747-.4024076-3.0106672 2.3085492-2.3958127 2.6050601.190817 1.5037338 1.2085072z"/><path d="m18.3201381 14.5868946s1.6943481-8.81998278 10.2931643-10.51613332c7.073903-1.39932419 10.8014687.29682635 12.199306 1.90816934 0 0-6.3114466-7.5054661-12.3052027-5.21566288-5.9937562 2.3110051-10.3990611 6.50897767-10.2931643 9.20161664.1694348 4.62201022.1058967 4.62201022.1058967 4.62201022"/><path d="m41.5115268 6.97541906s-2.9015709-.1060094-3.0074676 2.50182205c0 0 0 .40283575.1906141.80567149 0 0 2.3085492-2.60783145 3.7063863-1.20850724"/><path d="m28.8250959 10.5585371s-.5083043-3.98595379-3.8970004-1.67494868c-2.2026525 1.50533358-1.990859 3.60431988-1.6096306 4.00715568.4024076.4028357.2965109 1.2085072.5930217.6572583.2965109-.5512489.2117935-2.3534089 1.3131197-2.862254 1.0801469-.5088452 2.9015712-1.06009413 3.6004896-.1272113"/></g><path d="m19.4214644 37.612138-9.4036316 4.1979727s3.8970004 15.5197773 1.9061415 20.3326045l-1.3978371-.5088451-.1058968-5.915325-2.60506008-11.1945936-1.10132622-3.0954748 9.8060392-6.614987z" fill="#49728b"/><path d="m20.3745351 46.1989002 1.334299 1.6325449v6.0001325h-1.5884512s-.1906141-4.1979727-.1906141-4.7068178.1906141-2.3110051.1906141-2.3110051" fill="#49728b"/><path d="m20.4168938 54.7432585-4.5112016.1908169 1.2919404.911681 3.1980819.5088451" fill="#49728b"/><path d="m35.8142815 53.7467701 3.7063863-.1060094.9107122 9.2016167-3.7911037.508845z" fill="#335061"/><path d="m36.809711 53.7467701 5.5913486-.2968265s2.3085492-5.8093154 2.3085492-6.1061419c0-.2968263 1.990859-8.417147 1.990859-8.417147l-4.5112017-4.7068177-.9107121-.8056714-2.3932666 2.3958126v9.3076261z" fill="#335061"/><path d="m39.3088744 53.0471079-3.4945929.6996622.5083046 2.7986483c1.2919403.5936528 3.4945928-.9964885 3.4945928-.9964885" fill="#49728b"/><path d="m39.4147711 35.5131517 7.010365 5.215663.1906141-2.3958126-5.2948375-4.8976348z" fill="#49728b"/><path d="m23.8903072 73.4645199-2.0755763-8.417147-1.0377881-6.2121513-.1694348-4.6008084 9.3824523-.508845h5.8243212l-.5294837 10.5161333.9107122 8.1203207-.1058968 1.5053336-7.6033869.5936525z" fill="#fff"/><path d="m34.5223412 53.6407607s-.5083043 10.4101239.9954295 17.8307825c0 0-3.0074677 1.9081692-7.3915932 2.3958126l8.4082021-.2968263.9954295-.5936528-1.207223-16.4102564-.3176902-3.5195124" fill="#dcd9d8"/><path d="m40.5796355 62.0579077 3.8970004-1.1024979 7.3915933-.4028357 1.1013262-3.4135029-1.9908588-5.915325-2.3085492-.2968265-3.198082.9964884-3.0498264 1.5053338-1.63081-.2968265-1.2707612.5088453" fill="#fff"/><path d="m40.5160973 60.0437288s2.6050601-1.2085072 3.0074679-1.1024978l-1.1013262-5.5124891 1.2919403-.5088453s.9107122 5.215663.9107122 5.8093156c0 0 5.5913485.2968263 6.0996528.2968263 0 0 1.207223-2.311005.9107122-4.7068178l1.101326 3.2014842.1058968 1.8021601-1.6096306 2.3958126-1.8002447.4028356-3.0074679-.1060094-.9954295-1.2933147-3.4945928.5088451-1.1013262.4028359" fill="#dcd9d8"/><path d="m36.5767381 52.9410985-2.2026524-5.5972968-2.308549-3.3074936s.5083043-1.3993241 1.2072229-1.3993241h2.3085491l2.2026524.8056716-.1906141 3.7103292z" fill="#fff"/><path d="m37.0215045 51.0329293s-2.7956741-5.4064799-2.7956741-6.2121515c0 0 .5083043-1.2085073 1.2072229-.9116808.6989185.2968263 2.2026525 1.1024979 2.2026525 1.1024979v-1.9081695l-3.4098754-.6996622-2.3085493.2968265 3.8970004 9.2440203.8048154.1060094" fill="#dcd9d8"/><path d="m24.77984 37.8241568-2.7744948-.2968262-2.6050602-.8056716v.911681l1.270761 1.3993241 4.0028972 1.80216" fill="#fff"/><path d="m20.3109971 38.1209833s3.0921852 1.2933148 4.1087941.9964883l.1058967 1.2085072-2.7956744-.5936525-1.694348-1.2085073z" fill="#dcd9d8"/><path d="m40.5796355 42.9762141c-1.6943481-.0424036-3.2404407-.2544226-4.5747396-.6360564.0847173-.5512489-.0847176-1.0812959.0635379-1.4841316.3812282-.2756246.9954295-.2756246 1.567272-.3392302-.4871251-.2332207-1.1860438-.3392301-1.7367067-.1908171-.0211794-.3816337-.1906143-.6148544-.2965111-.9116807.953071-.3392302 3.198082-2.5654278 4.468843-1.8445637.6142013.3604318.8683533 2.3534088.9107121 3.3498972.0423588.8056716-.0847173 1.611343-.4024076 2.0565825" fill="#d33833"/><path d="m40.5796355 42.9762141c-1.6943481-.0424036-3.2404407-.2544226-4.5747396-.6360564.0847173-.5512489-.0847176-1.0812959.0635379-1.4841316.3812282-.2756246.9954295-.2756246 1.567272-.3392302-.4871251-.2332207-1.1860438-.3392301-1.7367067-.1908171-.0211794-.3816337-.1906143-.6148544-.2965111-.9116807.953071-.3392302 3.198082-2.5654278 4.468843-1.8445637.6142013.3604318.8683533 2.3534088.9107121 3.3498972.0423588.8056716-.0847173 1.611343-.4024076 2.0565825z" fill="#000" stroke="#d33833" stroke-width="2"/><path d="m32.4679442 40.1987677c0 .1272111 0 .2544225-.0211793.3816338-.5294838.3392301-1.3766577.3392301-1.9696796.6360564.8471739.0424039 1.5249132.2544227 2.1179351.530047-.0211794.3180284-.0211794.6572583-.0423588.9752866-.9742501.6572583-1.8637828 1.6537467-3.0074677 2.2898034-.5506631.2968263-2.4356253 1.060094-3.0074678.9116807-.3176903-.0848074-.3600491-.4876431-.487125-.8692771-.2753316-.8056714-.9107121-2.120188-.9742501-3.3498972-.0635382-1.5477374-.2329729-4.1555688 1.4401957-3.8375406 1.3554785.2544226 2.9227505.8692771 3.9605386 1.441728.6565598.3816337 1.0166088.8056713 1.9908589.890479" fill="#d33833"/><path d="m32.4679442 40.1987677c0 .1272111 0 .2544225-.0211793.3816338-.5294838.3392301-1.3766577.3392301-1.9696796.6360564.8471739.0424039 1.5249132.2544227 2.1179351.530047-.0211794.3180284-.0211794.6572583-.0423588.9752866-.9742501.6572583-1.8637828 1.6537467-3.0074677 2.2898034-.5506631.2968263-2.4356253 1.060094-3.0074678.9116807-.3176903-.0848074-.3600491-.4876431-.487125-.8692771-.2753316-.8056714-.9107121-2.120188-.9742501-3.3498972-.0635382-1.5477374-.2329729-4.1555688 1.4401957-3.8375406 1.3554785.2544226 2.9227505.8692771 3.9605386 1.441728.6565598.3816337 1.0166088.8056713 1.9908589.890479z" fill="#000" stroke="#d33833" stroke-width="2"/><path d="m33.421015 42.0433314c-.1482554-.8480754-.3176903-1.0812959-.2541521-1.823362 2.2661904-1.5053335 2.668598 2.5866297.2541521 1.823362" fill="#d33833"/><path d="m33.421015 42.0433314c-.1482554-.8480754-.3176903-1.0812959-.2541521-1.823362 2.2661904-1.5053335 2.668598 2.5866297.2541521 1.823362z" fill="#000" stroke="#d33833" stroke-width="2"/><path d="m36.6826349 42.7217915s-.6989184-.9964883-.1906141-1.2933148c.5083043-.2968263.9954295 0 1.2919403-.5088451.2965111-.5088451 0-.8056716.1058968-1.3993241.1058967-.5936528.5930219-.6996622 1.1013262-.8056716.5083046-.1060094 1.9061417-.2968263 2.0967558.1908169l-.593022-1.8021599-1.2072227-.4028356-3.7911039 2.2049955-.1906141 1.1024978v2.2049958" fill="#ef3d3a"/><path d="m26.177677 46.029285c-.1270759-1.5689391-.254152-3.1166765-.3812282-4.6856158-.2117934-2.332207.5506632-1.9293711 2.5838807-1.9293711.3176903 0 1.9061417.3604318 2.0120384.5936525.5506631 1.1236998-.9107121.8692772.6353805 1.7173526 1.2919403.699662 3.6004895-.4240378 3.0710058-2.0141788-.2965108-.3604321-1.5249132-.1060094-1.9696796-.3392302-.783636-.4028357-1.567272-.8056716-2.3509078-1.2085072-.9954295-.5088451-3.2827993-1.2721129-4.341767-.551249-2.6897774 1.823362.169435 6.4029684 1.1225057 8.3111376" fill="#ef3d3a"/><g fill="#231f20"><path d="m28.8250959 10.5585371c-2.7321362-.63605648-4.0876145 1.1449016-4.9136093 2.9894653-.7412772-.1696151-.4447664-1.1873054-.2541521-1.6961505.487125-1.3357186 2.4568046-3.13787855 4.0664352-2.88345596.6777392.08480752 1.6096308.72086397 1.1013262 1.59014116"/><path d="m42.1045487 13.6540118h.1270762c.6142011 1.2721129 1.1436848 2.6290333 1.9273208 3.7739349-.5294837 1.2297092-3.9393592 2.2898033-3.8970004.1272113.7412772-.3180282 2.0120381-.0636056 2.668598-.4876433-.3812282-1.0388922-.9107119-1.9293712-.8259946-3.4135029"/><path d="m30.2017538 13.6964156c.5930217 1.0812959.7836358 2.2049957 1.6096306 3.0106672.3812282.3604319 1.1013262.8056715.7412772 1.8233618-.0847174.2332207-.6989184.7632677-1.0589675.8692771-1.2919403.3816339-4.3205876.0848076-3.3039787-1.5477373 1.0801469.0424037 2.5203427.6996621 3.3251581-.0848076-.6142013-.9752865-1.7155275-2.9258596-1.3131197-4.0707612"/><path d="m41.6174236 24.5941827c-1.9485002 1.2509111-4.1299733 2.6290333-7.3492347 2.3110051-.677739-.5936528-.9530707-1.9293711-.2753314-2.7986483.3388696.5936526.1270761 1.6961505 1.1013262 1.8657656 1.8214241.3180282 3.9393592-1.1236998 5.2524789-1.6113431.8048152-1.3781223-.0635381-1.8657656-.8048154-2.7562445-1.5037338-1.80216-3.4945928-4.0495595-3.4310546-6.7421985.6142011-.4452395.6565599.6784603.7412772.8692772.783636 1.8233618 2.7533156 4.1767707 4.1723321 5.74571.3600488.3816338.9318913.7632677.9954295 1.0176902.1906141.7208641-.4871252 1.6113431-.4024078 2.0989863"/><path d="m15.8209748 23.279666c-.6142012-.3604318-.7624566-1.8869675-1.4825545-1.9293712-1.0377882-.0636056-.8471741 1.992977-.8471741 3.2014843-.6989185-.6360567-.8259946-2.6290334-.3176902-3.6467238-.5930218-.2968263-.847174.3180282-1.1860437.5300471.4447664-3.0742729 4.5112017-1.4205261 3.8334625 1.8445636"/><path d="m42.845826 25.8874974c-.9107122 1.7385543-2.2026525 3.6467238-4.8712506 3.7103293-.0635381-.5512489-.1058969-1.4205261 0-1.759756 2.054397-.212019 3.3251579-1.2509111 4.8712506-1.9505733"/><path d="m30.0534983 27.0111972c1.6943479.8904791 4.8288919.9964885 7.1586203.9328829.1270762.5088451.1270762 1.1449015.1270762 1.759756-2.9862883.1272113-6.5020605-.6148545-7.2856965-2.6926389"/><path d="m29.735808 28.664944c1.1860436 2.9682635 5.2312996 2.6290334 8.641175 2.5442259-.1482555.3816337-.4659457.8480752-.8895327.9964884-1.1013263.4452396-4.1087939.7844695-5.6337071-.0212019-.953071-.5088453-1.5884514-1.6749487-2.1179352-2.353409-.2329728-.3180282-1.5037338-1.1449015 0-1.1661034"/></g><path d="m41.4691683 45.0115949c-1.3766579 2.3746107-2.7109571 4.8128271-4.341767 6.8906115.6777392-2.0141788.9742501-5.4064799 1.0801468-7.9931094 1.4401959-.6784602 2.6685983.148413 3.2616202 1.1024979" fill="#81b0c4"/><g fill="#231f20"><path d="m48.9031203 53.5347513c-1.5460926.3180282-2.6262395 1.8233617-4.1511527 1.7173523.847174-1.1661034 2.2873698-1.6749487 4.1511527-1.7173523"/><path d="m49.5808593 55.9517658c-1.2707609.1272111-2.7533154.3392299-4.0240765.2332205.6142013-.9328827 2.9439297-.5936525 4.0240765-.2332205"/><path d="m50.0256257 58.0507519c-1.4190165.0212019-3.1769026 0-4.5323809-.1060094.8048152-.8692771 3.621669-.3180282 4.5323809.1060094"/></g><path d="m38.80057 63.77526c.2117935 1.7809582.9107122 3.583118.8259946 5.5336911-.7836358.2544226-1.2284022.4876433-2.2873698.4876433-.063538-1.6537468-.2965109-4.1979726-.2329729-5.7881136.5083045.0424038 1.2707611-.3604321 1.6943481-.2332208" fill="#dcd9d8"/><path d="m36.5132002 37.4849267c-.7200981.4664415-1.3131197 1.0388923-2.0120384 1.5477374-1.5249132.0848075-2.3509078-.1060094-3.452234-.9752865.0211794-.0636056.1270761-.0424037.1270761-.1272114 1.63081.7208641 3.7063863-.2968262 5.3371963-.4452395" fill="#f0d6b7"/><path d="m27.9991013 48.5735109c.4447664-1.9293712 2.2026525-2.9470615 3.7911037-4.0071556 1.63081 2.0777844 2.6262395 4.7492214 3.7275657 7.3358511-2.6050601-.7844696-5.2524789-2.0353808-7.5186694-3.3286955" fill="#81b0c4"/><path d="m37.1062219 64.0296827c-.063538 1.590141.1482555 4.1131649.2329729 5.7881137 1.0589676 0 1.503734-.2332208 2.2873698-.4876434.0847176-1.9505731-.6142011-3.7527329-.8259946-5.533691-.423587-.1484133-1.1860436.2544226-1.6943481.2332207zm-16.3504585-8.9895979c.6989187 6.3817665 1.6943482 11.7246406 3.5369516 17.385543 4.0876145 1.2509111 9.0012238 1.3569205 12.6228928.2332207-.6565599-3.1802823-.3812282-7.0602267-.7624566-10.4737295-.2965109-2.5654278-.1482553-5.1308555-.5506632-7.7386869-4.3841255-.9116808-10.5684958-.2120189-14.8467246.5936527zm15.8845129-.5512489c-.0423588 2.7350427.1270762 5.4488835.3388697 8.1839263 1.0589674-.1484133 1.7578861-.2544227 2.7321362-.4876432-.3176903-2.6290333-.2753317-5.6184987-.9318916-7.9507058-.7412772.021202-1.3978371 0-2.1391143.2544227zm5.3160169-.4452395c-.5083043-.1060094-1.0801468 0-1.5460926 0 .2329729 2.2261976.7624566 4.6856158.9530709 7.0390248.7412772.0212017 1.1436848-.3392302 1.7578859-.4452396.0423588-2.0565825-.1694347-4.8976346-1.1648642-6.5937852zm8.0693325 7.3782549c1.567272-.381634 2.5415221-2.2898034 2.0967557-4.2615782-.2965108-1.3145167-.8048154-3.8163389-1.3766577-4.6644141-.4024078-.6148545-1.5249132-1.441728-2.4356253-.8692772-1.4613753.9328829-4.0240766 1.2085073-5.0830442 2.3322071.5294839 1.7809581.6989186 4.1979724.9107121 6.445372 1.8214241.1060094 4.0452559-.5088451 5.5701692.1484132-1.0589675.33923-2.414446.33923-3.3251579.8480753.7624566.3604318 2.4991633.2968262 3.6428481.0212019zm-14.5290344-9.5196449c-1.1013262-2.5866297-2.0967557-5.2580667-3.7275657-7.3358511-1.5884512 1.0600941-3.3251579 2.0777844-3.7911037 4.0071556 2.2873699 1.2933147 4.9347887 2.5442259 7.5186694 3.3286955zm2.7109568-7.9931094c-.1058967 2.5866295-.4024076 5.9789306-1.0801468 7.9931094 1.6308099-2.0989863 2.9651091-4.5160008 4.341767-6.8906115-.5930219-.9540849-1.8214243-1.7809581-3.2616202-1.1024979zm-3.0710058-1.0812959c-.6142011-.0636058-1.1436848.7208639-1.9485002.3816337-.1906141.2120188-.3600488.4240376-.5506631.6360564 1.7790655 2.1625919 2.6050602 5.2156631 3.9817179 7.7386868.7412773-2.4382162.6565599-5.0884515.8259946-7.7386868-1.0166087.0424039-1.5884512-.9540846-2.3085492-1.0176901zm-1.9696794-2.6078317c-.0635382.7420661.1058967.9752866.2541521 1.823362 2.4144459.7632677 2.0120383-3.3286955-.2541521-1.823362zm-2.6897776-.8904788c-1.0377881-.5724509-2.6050601-1.1873056-3.9605386-1.441728-1.6731686-.3180282-1.5037339 2.2898032-1.4401957 3.8375406.063538 1.229709.6989185 2.5230239.9742501 3.3498972.1270759.3816338.1694347.7844697.487125.8692772.5718425.1272113 2.4779839-.6148545 3.0074678-.911681 1.1436849-.6148545 2.0332176-1.611343 3.0074677-2.2898032.0211794-.3180282.0211794-.6572584.0423588-.9752866-.5930219-.2968262-1.2495818-.4876431-2.1179351-.530047.5718425-.2968263 1.4401958-.2968263 1.9696796-.6360564 0-.1272113 0-.2544226.0211793-.381634-.9742501-.1060094-1.3342991-.530047-1.9908589-.8904788zm-9.9542947-1.80216c-.8683534.890479 2.4356253 2.0777844 3.4734134 2.1413899 0-.5512489.3176904-1.0812959.2541522-1.4841316-1.2495815-.2120188-2.8803917-.0636056-3.7275656-.6572583zm10.6743927.4028356c0 .0848077-.1058967.0636058-.1270761.1272114 1.1225054.8692771 1.9485002 1.060094 3.452234.9752865.6777393-.4876432 1.2919403-1.0812959 2.0120384-1.5477374-1.6519894.1484133-3.7275657 1.1661036-5.3371963.4452395zm9.7848598 2.9682635c-.0423588-.9752865-.2965108-2.9894654-.9107121-3.3498972-1.270761-.7420658-3.515772 1.5053335-4.468843 1.8445637.1058968.2968262.2753317.530047.2965111.9116809.5718423-.1484132 1.2495816-.0424038 1.7367067.1908169-.5718425.0636056-1.1860438.0636056-1.567272.3392301-.1270761.4028357.0423588.9328827-.0635379 1.4841317 1.3342989.3816339 2.8803915.5724508 4.5747396.6360564.3176903-.4240376.4447664-1.229709.4024076-2.0565825zm-21.9206277-2.5230239c-.2753316-.1908169-2.117935-2.5866295-2.3720872-2.4806201-3.3251581 1.3145167-6.4385226 3.5831179-9.21301749 5.7457098 2.64741879 5.7033062 3.72756569 12.6787252 3.91817979 19.3997218 3.0286471 1.4205261 5.6972453 3.4771086 9.8272186 3.6891274-.487125-3.3710992-.910712-6.4029682-1.1860436-9.5832505-1.0377881-.4452395-2.5203427.021202-3.4945928-.1272113 0-1.1661034 1.4825545-.5088451 1.6096306-1.2933147.0847174-.5936528-.8259946-.6360564-.5294837-1.5689394.7624566.2756246 1.1648642.8904791 1.9696796 1.1236998.7412772-1.6113429 0-4.473597.1058967-5.8305175.0211794-.2544224.1270761-1.3993241.6989186-1.2085073.5083044.1696152-.0211794 3.0742729.0211793 4.3463859.0423587 1.1873054-.1482554 2.311005.3388696 3.053071 3.981718-.5512489 8.0269739-.8904791 12.3475613-1.0176904-.9530707-.4028357-2.0755763-.7844697-3.3039787-1.4841316-.677739-.381634-2.7744948-1.1661037-2.9651091-1.8021601-.3176902-1.0176904.8048154-1.5477374.9954295-2.4170145-2.0120382 1.1024979-2.3932666-1.060094-2.8803915-2.5654276-.423587-1.3781224-.6777393-2.4170145-.783636-3.2014841-1.7578861-.8904791-3.621669-1.7173524-5.1042235-2.7774466zm20.1627416-2.2049958c2.774495-1.3357183 3.2827993 5.024846 2.1814731 7.0814287.1694349.6148545.7412772.8480752.9742501 1.3993241-1.5460926 2.7774464-3.2616199 5.3640761-4.8500711 8.0991188 1.1648642-.7420658 2.8592121-.1272113 4.23587-.6784602.5083043-.1908169.8683534-1.3569205 1.2495816-2.2898032 1.0589676-2.5442259 2.1602939-5.7669118 2.6474188-8.1839263.1058968-.551249.423587-1.7597562.3388696-2.2473996-.1270761-.8904791-1.3131197-1.5477374-1.9273208-2.0777844-1.1225056-1.0176902-1.8214242-1.8869673-3.0074678-2.8410521-.4447664.6996621-1.4613751 1.1661036-1.8426035 1.7385542zm-26.4953674-24.6153845c-1.3131197 1.4629298-1.0377882 4.1767707-.8895327 6.1273438 2.3932666-1.5053336 5.5489898.1272113 5.5278105 2.6714371 1.1436849-.0212019.423587-1.4205261.2117935-2.332207-.6777393-2.9470615 1.1436849-6.1273438.0847174-8.81998275-2.054397.16961504-3.7275657.99648845-4.9347887 2.35340885zm9.4459903-8.45955078c-2.9862884.84807528-6.8197508 3.03186908-8.0481532 5.72450806.9530708-.14841319 1.6096307-.61485457 2.5415221-.67846022.360049-.02120188.8259947.14841317 1.2284023.04240376.8048153-.21201882 1.5037339-2.03538064 2.1179351-2.71384085.5930218-.65725833 1.3131197-.95408468 1.8002447-1.54773737.3176902-.14841316.783636-.14841316.8048154-.61485455-.1270762-.14841319-.2753315-.25442259-.4447664-.21201883zm15.5668227.8056715c-3.1133647-1.75975618-8.3658436-3.07427283-11.6698223-1.42052607-2.668598 1.33571855-6.2690876 3.54071425-7.49749 6.31816075 1.143685 2.692639-.3388696 5.1520572-.4447663 7.8871-.0423587 1.4629298.6777392 2.7138408.7412772 4.3039819-.4024076.6572584-1.5884512.7208641-2.4144459.6784603-.2753316-1.3993242-.7624566-2.9682635-2.2026524-3.1378785-2.0332177-.2332207-3.5369516 1.4629298-3.621669 3.222686-.1058967 2.0777844 1.5884513 5.5124893 4.0028973 5.2792685.9318914-.0848074 1.1648642-1.0176903 2.181473-1.0176903.5506632 1.1024978-.847174 1.441728-.9954294 2.2261976-.0423587.2120188.1058967.9964885.2117935 1.3781222.4447663 1.8021601 1.4190165 4.1555688 2.3720872 5.5336913 1.2284024 1.7597562 3.6216689 2.0141786 6.2055498 2.1837938.4659457-.9964885 2.1602937-.911681 3.2616199-.6572584-1.3342991-.530047-2.5627015-1.80216-3.5793102-2.9258598-1.1648644-1.2933147-2.350908-2.671437-2.414446-4.3675876 2.2238317 3.0742729 4.045256 5.766912 8.0693325 7.1238323 3.0498265 1.0176904 6.6079575-.4664413 8.9588653-2.1201881.9742501-.6784602 1.5460926-1.7809581 2.245011-2.7562446 2.5838809-3.7315312 3.7911039-9.0320017 3.5369516-14.1840589-.1058967-2.1201882-.1058967-4.2403763-.8259946-5.6609024-.7412774-1.4841317-3.2616201-2.84105214-4.7441745-1.4841317-.2753315-1.46292984 1.2284023-2.35340888 2.9862884-1.82336183-1.2495817-1.63254489-2.5627015-3.56191613-4.3629461-4.57960645zm5.803142 47.93745438c2.4356252-1.2085072 6.9680063-3.2438878 8.4717401 0 .5718425 1.2085073 1.2284024 3.2226862 1.5037338 4.473597.4024078 1.7385543-.4447664 5.4276819-2.245011 6.0001325-1.5884514.5088453-3.4310549.4876434-5.3371963.1060094-.2329729-.1908169-.4659458-.5088451-.6565599-.8480752-1.3554785-.0424036-2.6474188.0636058-3.7063863.6360564.1058968 1.0176904-.5718425 1.1661037-1.2284024 1.3781225-.4659457 1.8869675.9530707 4.3463856.6142011 6.0425363-.2329729 1.229709-1.7367067 1.4205261-2.8380329 1.6325449-.0423586.67846.0423587 1.2509109.1270761 1.8233617-.2541523.9328827-1.3766577 1.4629299-2.4568048 1.590141-3.5369513.4240379-8.895327.6148547-12.2840231-.6148545-.9530707-2.332207-1.6943481-5.1520572-2.477984-7.8022925-3.3039787.3604321-5.9937562-1.420526-8.5140989-2.6078314-.8683534-.4028357-2.0755763-.6360564-2.4144459-1.3357186-.31769029-.67846-.19061419-1.971775-.27533159-3.1802822-.19061416-3.1166765-.38122831-6.1273436-1.18604364-9.3076259-.36004895-1.441728-1.01660882-2.6926391-1.46137517-4.0707613-.423587-1.2721131-1.14368492-2.8622541-1.33429908-4.1343669-.27533156-1.8869675 1.50373389-1.9929769 2.62623946-2.8198504 1.75788612-1.2721128 3.13454382-1.971775 5.04068542-3.1166765.5718424-.3392301 2.2661905-1.1873054 2.4568046-1.5901413.3812283-.7844694-.6565598-1.8869673-.9318914-2.501822-.4447663-.9752865-.6777392-1.8021598-.7412772-2.7562446-1.5884513-.2544225-2.8168537-1.2085073-3.5369516-2.2686013-1.20722295-1.7809581-2.05439698-5.0672498-.99542944-7.5478698.0847174-.190817.48712504-.5936527.55066314-.8904791.1270761-.5936527-.2329729-1.3781223-.2541522-2.0141787-.10589679-3.2438879.5506631-6.0425363 2.7321362-7.01782286.8895327-3.54071425 4.0664352-4.70681773 7.0527237-6.46657391 1.1225055-.65725833 2.3509079-1.08129597 3.6216688-1.54773736 4.5535605-1.67494866 11.5639253-1.35692043 15.3550292 1.5053336 1.6096306 1.20850725 4.1723321 3.77393494 5.083044 5.63970052 2.4356254 4.89763461 2.2450113 13.10276281.5506631 19.08169341-.2329728.8056716-.5506631 1.971775-1.0166086 2.9470615-.3176905.6784603-1.3131198 2.0141789-1.207223 2.6078317.1270759.6148545 2.2873698 2.2473993 2.7533154 2.6926389.8259947.8056715 2.4144459 1.8657656 2.5415221 2.8834559.1482555 1.081296-.4659458 2.5654276-.783636 3.6043199-1.0166087 3.4771086-2.0332176 6.6785927-3.1980818 9.7952692z" fill="#231f20"/><path d="m27.3425415 27.753263c.1270761-.1696149.8471739-.4452395 1.8637828.0424039 0 0-1.207223.1908169-1.1013262 2.2049957l-.5083046-.1060094c.0211794.0212019-.5083043-1.80216-.254152-2.1413902" fill="#f7e4cd"/><path d="m36.1107926 44.969191c0 .2968263-.2541523.551249-.5506631.551249-.2965111 0-.5506631-.2544227-.5506631-.551249s.254152-.5512489.5506631-.5512489c.3176902 0 .5506631.2544226.5506631.5512489" fill="#1d1919"/><path d="m36.6614557 47.5346188c0 .2968263-.2541523.5512487-.5506631.5512487-.2965111 0-.5506631-.2544224-.5506631-.5512487 0-.2968265.254152-.5512489.5506631-.5512489.3176902 0 .5506631.2332205.5506631.5512489" fill="#1d1919"/></g></svg>