<svg height="69" viewBox="0 0 59 69" width="59" xmlns="http://www.w3.org/2000/svg"><g fill="none" fill-rule="evenodd"><path d="m20.3542746 17.5943005-.1123057-7.65310879 4.553627-2.66658031 6.761658-4.55362694 2.778886-.1123057 2.8915803 3.10803108 1.5582902 10.32823836-2.1124353 3.7744819-8.7699482-.225z" fill="#fffffe"/><path d="m11.3593264 39.4713731 2.328886-6.5533679 4.553627-5.4369171 2.328886-4.6663213 1.0045337-1.5497409 16.648057-2.553886 3.3330311 5.2204663 9.3240932 22.3099741-3.2207254 3.9909327-8.4408031 14.111658-1.9911917.4414508-15.4360104.4414507-10.7696891-11.9902849-1.77512951-9.9905441z" fill="#fffffe"/><path d="m32.6737047 22.4860104s-.5541451-.1126943.9959844-.4503886c1.5579016-.3287565 1.5668394-.6579016 1.999741-1.1082902.4414507-.4414508.6664507-1.4455958.6664507-2.553886 0-1.1079016.5541451-4.3286269.4414508-5.2115285-.1037565-.8918394-1.9997409-4.21632125-2.7703368-4.66632125-.7791451-.44145077-9.4363989-1.22098445-9.4363989-1.22098445l-2.6665804 2.11243523-1.9997409 1.87888597.45 5.9996114s-.5626943 1.8870467-.45 2.6576425c.1126943.7791451 1.2291451 1.6709845 1.6709845 2.1124353.4414507.4503886 2.1034974 2.2336787 2.6576425 2.7792746.5626943.5537564.6753886 1.1079015 1.9997409.6664508 1.3332901-.4414508 2.1124352-.4414508 3.1169689-1.2205959.9955959-.7795337 3.3240933-1.7747409 3.3240933-1.7747409" fill="#fbd020"/><path d="m27.5659326 13.0492228c.3376943-.8914508.7791451-2.553886 1.549741-3.10803109.7791451-.55414508 2.4501295-1.0126943 3.4457254-.89145078 1.004145.1123057 2.8826425 1.10790157 3.3330311 1.88704667.4414507.779145.4414507 3.8871761.4414507 3.8871761l-.225 2.553886-1.5497409-.1123057-3.3330311-1.3332901h-.5541451s-.554145.2164508-2.2247409-.6664508c-1.6624352-.8918394-1.2209845-1.3247409-.8832902-2.2165803" fill="#fffffe"/><path d="m24.0164508 15.4908031c.0520725-.0520725.155829-.1212435.2945596-.1993523.675-.3722798 2.1470207-.9174871 2.1470207-.9174871s1.4370466-3.6536269.2164508-5.09922277c-1.2120467-1.44598445-3.878627-1.22059585-3.878627-1.22059585s-2.8830311 1.66204663-2.778886 2.32849742c.1123057.6668394.225 2.9957254.3373057 3.3244819.1041451.3376943.5541451 3.8871761.5541451 3.8871761l.9955958-.4414508 1.4459845-1.1079015s.3376943-.2164508.6664508-.5541451" fill="#fffffe"/><path d="m45.2185233 49.0204663s.7010363.0520726 1.6099741.1216321c.2339378.0170985.4678757.0256477.7014249.0345855 1.1945596.0431348 2.242228.225 3.3590673.363342.7360104.086658 1.9566063.5541451 2.0432643 1.48057.1212435 1.3678756-.2770726 2.8740932.8829015 3.4367875 1.1860104.8051814 3.8351037 2.6665803 3.8351037 2.6665803l.779145 1.4370467-2.3284974 2.1124352-11.4365285 6.8825129-5.2119171-1.7747409v-4.2159326l.2164508-5.6619171-.5541451-5.107772.8832902-2.0001296 2.2247409-.6664508z" fill="#fbd020"/><path d="m12.1474093 46.5275907c-.1126943-.1041451-2.1384715.4931347-2.26826422.519171-.94391192.1387305-2.1384715.7876943-2.1384715 1.8182642 0 .5281088-.04313472 1.0733161-.28562177 1.5493523-.1904145.3722798-.62331606.9349741-.61476684 1.0562177-.14727979.4068652-.4154145.9784974-.7876943 1.2209844-.43290155.0431347-2.35492228.2160622-2.35492228.2160622h-1.67098445l-.99559586 1.2120466.77914508 3.2292746-.225 2.5453368-.77059585 2.8915803 1.87888601.9955959 14.21541448 3.7744818 3.2203368-.9955958 1.6624352-4.1121762-.3376943-1.5497409-1.5497409-3.1080311s-6.7527202-9.8086787-7.7568653-11.2628238" fill="#fbd020"/><g fill="#1a1919"><path d="m19.384715 11.6813472c-.2335492-7.74831611 2.7878239-11.16800523 9.0645078-11.28031093 6.2677461-.12124352 10.198057 3.18575129 11.0032383 7.52331606.7966322 4.32862697.3376943 10.03367877 1.9395078 12.99443007 1.5928757 2.9696891 2.6145078 5.2465026 5.3588083 8.6661917 2.7357513 3.4196891 4.4413212 6.9 5.2375648 11.1244819.8051813 4.2163212 1.2555699 6.2075129-.7962436 8.3805699-2.0518134 2.1641192-5.6968911 5.6965026-8.4322538 1.70557-1.3768135-2.0001296-1.5237047-4.484456.7962435-5.0125648 1.4805699-.3466321 2.5453368-.2339378 3.6446891.3373057 1.1082902.5716321 1.3678756.3031088.0435233-.6839378-1.3332901-.9866581-1.6018135-.0777202-1.1428756-1.6709845.4589378-1.5928756 1.0562176-4.4584197-.1904145-7.6095855-.5801814-1.4545337-2.5453368-5.4369171-4.3892487-6.4150259-.1643783-.0952072-.6493524-.2945596-.3205959.1123057.4935233.6147668 3.1515544 4.5279793 3.9046632 6.8568653.8051814 2.5018135.9174871 4.8913212.5020726 6.4064767-.4154146 1.5237046-1.1428757 2.1295337-2.017228 2.1295337-.8743524 0-1.6709845.4154145-1.6709845-1.5928757 0-2.017228.2079016-5.0560881-.8739637-7.6270725-1.0822539-2.5628239-2.3984456-4.328627-2.6840674-5.4108809-.2770725-1.0822538-.9089378-3.9909326-2.2161917-5.6448186-1.3158031-1.6534974-1.8874352-2.7353627-1.2034974-4.6227979.6839378-1.8788861.1733161-2.3895078-1.1945596-2.7878239-1.3678756-.398316-3.1946891-.9695596-3.6446891-1.8870466-.4589378-.9093264-.1733161-2.7357513.8483161-3.1861399 1.0301813-.4589378 2.7357513.1647668 2.796373 1.4805699.0606218 1.3072539-.5712435 1.9911918-.398316 2.2768135.173316.2856218 1.0822539.7445596 1.5411917.2339378.45-.5195595.5712435-2.1124352.1123057-3.5930051-.4589379-1.48057-.6839379-2.5107513-2.3374353-2.848057-1.6534974-.34663216-2.398057-.23393786-3.1946891.7962435-.7962435 1.0216321-1.142487 2.6751295-.9089378 3.8786269.225 1.1945596-.2335492.5106218-1.0301813.45-.7962436-.0520725-.5712436-.1123057-1.3678757-.0520725-.7962435.0520725-.5106218-.4585492-.5712435-1.3158031-.0520726-.8568653-.1647669-2.623057-1.3678757-3.3069948-1.1949482-.68393786-3.2467616.1123057-3.1946891 2.9693005.0606218 2.8484456 1.0301814 4.2163212 1.6018135 3.1861399.5712435-1.0216321.2856217-.5110104-.2860104-.9695596-.5712435-.4503886-.9695596-2.3378238-.3462435-2.9005181.6322539-.5712436 1.3678756-.5712436 1.7747409-.2335493.3983161.3462436 1.0216322 1.4891192.9089379 2.224741-.1123057.7445596-.1729275.7966321-.9089379 1.3161917-.7445596.5106217-1.0301813.9695596-1.8870466 1.5322539-.8572539.5712435-1.1949482 1.8874352-.5110104 2.2247409.6839379.3462435.7445596.2860104 1.3072539 1.1428756.5716321.8572539 1.5411917 1.25557 3.9392487.8572539 2.3895078-.398316 3.3761658-.9699482 5.1858809-1.6018134 1.3158031-.45.8568652-.3983161 1.3158031-.9089379.45-.5106217 1.1945595.225.5106217.6839379-.6839378.4589378-2.2247409.9089378-3.3676166 1.3072538-1.1339378.4068653-2.4501295 1.5411918-4.8396373 1.4284975-2.398057-.1126943-.7445595-.0606218-1.4887305-.1126943-.7360104-.0606218-1.0822539.0520725-.2856218.623316.8047928.5716321.744171.7445596 1.4281088.9695596.6839378.2339378 1.5932643.2339378 2.6840674-.1643782 1.0818653-.4068653 3.8176166-1.6014249 4.6748704-2.173057.8483161-.5712436 1.5322539.173316.6839379.7445596-.8572539.5716321-1.0908031.398316-1.8874353.9089378-.7962435.5195596-2.2768134 1.3678756-3.246373 2.2857513-.9695596.9089378-1.1949482.9695596-2.398057 1.0216321-1.1949482.0606218-1.9391192-1.1949482-2.4501296-1.7661917-.5106217-.5712435-.4589378-.9089378-1.0822538-1.5928757-.6233161-.6839378-.6839379-.5195595-.7962436.225-.1126943.7445596-.9695595 2.623057-1.7141191 3.878627-.7360104 1.2551813-.7966322 2.796373-.6839379 3.8786269.1123057 1.0818653-.173316 1.1945596-1.0216321 2.449741-.8572539 1.2551813-2.2857513 4.9608808-2.5107513 6.1554404-.225 1.1949482-.5106217 3.6536269-.398316 5.0731865.1126943 1.4284974-.2856218 1.7141192-1.3158031.7445596-1.0216322-.9695596-1.3678757-2.0518135-1.3072539-3.4803109.0520725-1.2205958.2164507-2.0774611.3722798-2.5278497.155829-.4503886.0085492-.7616581-.3202073-.2079016-.7014249 1.2120466-.7360104 3.3073834-.5630829 4.051943.1647668.7356218.2253886 2.0518135 2.103886 3.8176166 1.8874352 1.7661917 4.6231865 4.2163212 6.9 5.8698186 2.2853627 1.6534975 3.0819948 3.7053109-.2856217 5.1858809 2.1124352 2.8566062 3.2549222 4.3371761 2.3374352 6.2156736 1.8870466-1.0818653 1.1599741-3.6361399.2510363-4.3200778-.9178757-.6835492-.3637306-1.2120466.4329015-.692487.7962435.5110103 1.0822539 1.5326425 4.2248705 1.4805699 3.1336787-.0606217 6.5102331-.3722798 8.3972798-3.1165803 1.878886-2.7357513 2.2426165-.4329015 1.7836787 1.1685233-.45 1.5928757-1.5757772 5.1944301.1904145 4.8571244.225-2.1124352.7445596-3.9392487.7445596-6.2160622 0-2.2857513.225-3.3851036.0520726-6.6920984-.1733161-3.1861399 1.2031088-3.4025907 2.623057-3.4025907 1.4284974 0 .9695595.917487.0606217.8572539-.9178756-.0606218-1.878886.2856217-1.9391192 2.623057-.0606217 2.3374352 0 2.1124352.3979275 4.2163212.3983161 2.1120467.4589378 2.7353627.1126943 5.0731866-.3376943 2.3374352-.6233161 3.5926165.9178757 5.0211139 1.5322538 1.4284974 3.8696891 1.0216322 5.0727979.1126943 1.1949482-.9093264 3.4717616-3.021373 5.5235751-3.7053108 2.0603627-.6843265 4.2248705-1.1949482 5.3677461-2.3378239 1.1339378-1.142487.8483161-1.9391191-.3466321-2.5624352-1.1945596-.6318653-2.3374352-.3462435-3.2463731-1.3678757-.917487-1.0301813-1.3678756-3.3069948-1.0301813-4.5104922.3462435-1.1945596.7445596-.6839378.7445596.1733161 0 .8568653.0520725 1.6534974.9089378 2.7357513.8572539 1.0818653 1.6534974 1.6014248 3.0213731 2.4497409 1.3678756.8572539 2.2251295 2.2251295.5110103 3.4286269-1.7055699 1.1945596-2.6751295 1.8784975-4.1036269 2.449741-1.4199482.5712435-3.7573834 1.9395078-5.1858809 3.3590673-1.4284974 1.4284974-2.2247409 2.6836788-5.0211139 2.6836788-2.7878239 0-4.0690415-.675-4.9002591-2.3374352-.5712435-1.1424871-.8568653-.9695596-2.1641192-1.0301814-1.3161917-.0516839-5.7054404-.1123057-9.1251295-.0516839-3.4196891.0516839-4.5621762.623316-6.1033679 1.8784974-1.5322539 1.2551813-2.1034974 2.2247409-5.0125648 1.2551813-2.9086787-.9695596-4.4498704-2.0518134-8.77849736-2.9086787-4.33756477-.8572539-1.99974094-.4589378-4.62318653-1.0301814-2.623057-.5626943-2.45012954-1.8182642-2.10349741-2.8484456.3373057-1.0216321 1.19455958-2.623057.45-4.726943-.73601036-2.1124352-.45-4.2765544 1.54080311-4.2765544 2.00012953 0 3.87862694.3979275 4.67525906-2.2251295.79624353-2.623057 1.03018135-.5712435.79624353.1126943-.225.6839378-.3373057 2.5624352-2.10349741 2.848057-1.76619171.2856217-2.16450777-.1123057-3.25531088-.1123057-1.08225389 0-1.53225389.7445596-.96955959 1.9997409.57124353 1.2551814 1.20349741 2.5624353 1.09080311 3.6446891-.12124352 1.0822539-.23393782 1.48057-1.03018135 2.5107513-.79663212 1.0216322-.68393782 1.5408031.74455959 1.8784974 1.41994819.3462436 3.99093264 1.03057 6.38044041 1.6018135 2.39805702.5626943 2.57137302.5626943 6.72668392 1.6534974 4.1642487 1.0822539 5.3071244-.8572539 5.6448187-3.1946891.3462435-2.3374352-1.25557-4.5621762-2.7357513-6.7873057-1.48057-2.2247409-3.0734456-4.7875648-5.0125648-7.125-1.9395078-2.3374352-3.0823834-2.5107513-4.05194299-1.9997409-.96955959.519171-1.14248705.4068653-1.19455959-.9093265-.06062176-1.3068652-.17331606-2.1641191.90893783-4.1032383 1.08225385-1.9395078 2.05181345-4.051943 3.19468915-7.2983161 1.1428756-3.246373 2.1641191-3.8786269 4.1036269-6.675 1.9391192-2.7874352 1.0822539-1.7051813 2.4501295-3.5840673 1.3674871-1.8870466.9695596-1.5408031.8568653-4.5104922-.1123057-2.9607513-.225-4.6748705-.3376943-8.5534974zm-5.4454663 23.184715c.2945596.3547927.7099741-.4849741 1.1428757-.8051814.3893782-.3551813.554145-.8658031.467487-1.3593264-.0431347-.2685233-.4760363-.1818653-.5626943-.086658-.2685233.2685233-.2079016.7014248-.3983161 1.0737046-.2164507.45-.9435233.8137306-.6493523 1.1774612zm24.5090674-11.9125648c.6147668.519171.9955958.9695596 1.3332901.1989637.3462435-.7705958.3462435-1.0822538-.4849741-1.3939119-.8222798-.3202072-1.1945596-.6579015-1.5668394-1.0822539-.3722797-.4325129-.5020725.3031088-.1989637 1.0216322.3718912.8832901.588342.9870466.9174871 1.2555699zm-12.8475389-7.0733161c-.4243523-.086658-.9349741-.0516839-1.2205959.2856218-.1126943.1126943-.0606217.4329016.138342.5195596.2599741.1126943.4329016-.1472798.4849741-.3462435.0260363-.0866581.0606218-.1989638.1472798-.225.1123057-.0606218.2766839-.0089379.3979275-.0606218.1387305-.0520725.086658-.1733161.0520725-.1733161zm2.017228.0781089c.1729274.2595854.4845855.2595854.7445596.3722797.1383419.0606218.4239637.1472798.5106217-.0520725.1993524-.6318653-.6579015-.4329015-1.0562176-.4329015-.0862694 0-.2856217-.0260363-.1989637.1126943zm4.1556995-2.7617876c.3893782.0170984.917487.7099741.9695595 1.5151554.0085493.1212436.3373057.1123057.4068653-.0089378.1814767-.3202072.0520726-.675-.0345855-1.0562176-.0695595-.311658-.4418393-.6318653-.7534974-.7702073-.2075129-.104145-.4239637-.1387305-.7010362-.104145-.069171.0345855-.3116581.398316.1126943.4243523zm-8.4932643-.1993523c-.3547927.0260362-.225.3031088-.2075129.5281088.4935233.2770725.536658.9003886.6404145 1.3939119.0089378.1904145.2945596.1041451.3205958.0435233.2164508-.3983161-.0520725-.8487047-.1472798-1.3161917-.086658-.2420985-.2510362-.519171-.4760362-.6839378-.0345855-.0345855-.0955959.0345855-.1301814.0345855zm10.8913213-8.73497413c-.3551814-.28562177-.9093265-.39831607-1.0737047.06917098-.1729275.39831606-.1037565.80518135-.1989637 1.2380829 0 .13834197-.1733161.17292746-.2685234.30272021-.1383419.16476684-.1037564.37266839-.0345854.43290155.329145.3376943.934974-.32875647 1.3764248-.5626943.3291451-.20751295.8051814.06062176 1.1689119-.17292746.1037565-.06917098.138342-.23393782.0345855-.36373057-.2339378-.40686528-.6408031-.64041451-1.004145-.94352331z"/><path d="m44.4393782 49.5920984c.051684-.2339378.1729275-.692487.3979275-.7620466.0781088-.0260363.1472798.0089378.1733161.086658.0520725.1472798-.1037565.9870467-.0431348 1.1774612.069171.1989637.3027203.173316.4674871.1212435.3893782-.1297927.6143782-.5887306.5972798-.6318653 0-.017487-.0089378-.017487-.0260363-.017487-.0606217.017487-.1126943.2339378-.2856217.2856217-.1126943.0345855-.1993524.0174871-.2339379-.0952072-.0345855-.1212435.1126943-.9870466.0435233-1.1860104-.0606217-.1989637-.259974-.2510362-.4503886-.1904145-.4239637.138342-.605829.7876943-.7185233 1.1685233h-.0085492l.0606218-.8914507-.5281088.1729274-.0260363 1.8443005.4935233-.1647668c.0085492-.3202073.0260363-.6839378.086658-.9174871"/><path d="m46.7247409 49.7910622c.4243524-.138342.6147669-.6404145.5972798-.7010363-.0085492-.017487-.0170984-.0260363-.0345855-.0260363-.0345855.0170985-.1126943.3031088-.3547927.3808291-.1041451.0345854-.1993523.0085492-.2253886-.0606218-.0345855-.1037565-.0085492-.2856218-.0085492-.4414508l.017487-.8312176.5801814-.1904145-.0089379-.1989637-.5801813.1904145.0260363-.7880829-.519171.2945596-.0260363 1.7576424c0 .1904145-.017487.3547928.0170984.4414508.0695596.225.3031089.2510363.5195596.1729275"/></g></g></svg>