<?xml version="1.0" encoding="UTF-8"?>
<svg width="75px" height="15px" viewBox="0 0 75 15" version="1.1" xmlns="http://www.w3.org/2000/svg" xmlns:xlink="http://www.w3.org/1999/xlink">
    <!-- Generator: Sketch 49.3 (51167) - http://www.bohemiancoding.com/sketch -->
    <title>maven-digital-lync</title>
    <desc>Created with Sketch.</desc>
    <defs>
        <polygon id="path-1" points="0 0.18284473 74.8231247 0.18284473 74.8231247 14.763019 0 14.763019"></polygon>
        <polygon id="path-3" points="0 0.18284473 74.8231247 0.18284473 74.8231247 14.763019 0 14.763019"></polygon>
        <polygon id="path-5" points="0 0.18284473 74.8231247 0.18284473 74.8231247 14.763019 0 14.763019"></polygon>
    </defs>
    <g id="Landing-Page" stroke="none" stroke-width="1" fill="none" fill-rule="evenodd">
        <g id="maven-digital-lync">
            <g id="Clipped">
                <mask id="mask-2" fill="white">
                    <use xlink:href="#path-1"></use>
                </mask>
                <g id="Shape"></g>
                <path d="M13.3759148,4.01765897 C13.6946818,3.88837482 14.0208286,3.82373274 14.3543552,3.82373274 C14.8510578,3.82373274 15.2364481,3.89247908 15.5107312,4.03017696 C15.7850144,4.16787485 15.9850894,4.38663184 16.1111612,4.68706359 C16.2446129,4.98729012 16.3241509,5.37514258 16.3501852,5.85062097 C16.3760146,6.32609936 16.3891342,6.90993017 16.3891342,7.60231864 L16.3891342,14.6212169 L20.4029336,14.6212169 L20.4029336,5.4752865 C20.4029336,3.76545227 20.0532124,2.45578327 19.3537699,1.54668994 C18.6543275,0.63759661 17.6309931,0.18284473 16.2837669,0.18284473 C15.5582901,0.18284473 14.8182586,0.39975481 14.0632625,0.83336976 C13.3082664,1.26718992 12.5311309,1.86374394 11.731856,2.6226214 C11.3763949,1.8218805 10.8839972,1.21506583 10.254868,0.80217739 C9.62573874,0.38928895 8.90026193,0.18284473 8.07843753,0.18284473 C7.31565164,0.18284473 6.61989908,0.35378711 5.99056486,0.69587709 C5.36143562,1.03796706 4.70237714,1.51344545 4.01400439,2.12210703 L4.01400439,0.57069719 L8.8817842e-16,0.57069719 L8.8817842e-16,14.6212169 L4.01400439,14.6212169 L4.01400439,4.66202761 C4.31022197,4.46173978 4.64395361,4.27232823 5.01458432,4.09276691 C5.38521503,3.9134108 5.76691546,3.82373274 6.15989061,3.82373274 C6.64900835,3.82373274 7.02886383,3.89247908 7.29945705,4.03017696 C7.57005027,4.16787485 7.77197021,4.38663184 7.90562686,4.68706359 C8.03887352,4.98729012 8.12025648,5.37739993 8.14998073,5.85677736 C8.17970499,6.33656522 8.19446462,6.9183439 8.19446462,7.60231864 L8.19446462,14.6212169 L12.208469,14.6212169 L12.208469,4.66202761 C12.6680675,4.36180108 13.0571477,4.14714834 13.3759148,4.01765897" id="Shape" fill="#0A0B09" fill-rule="nonzero" mask="url(#mask-2)"></path>
            </g>
            <g id="Clipped">
                <mask id="mask-4" fill="white">
                    <use xlink:href="#path-3"></use>
                </mask>
                <g id="Shape"></g>
                <path d="M29.5805536,12.1596876 C29.2168927,12.3035419 28.8583567,12.3753665 28.5045356,12.3753665 C28.0590817,12.3753665 27.7315,12.3443793 27.5219952,12.2819946 C27.3122855,12.2200203 27.132095,12.1237754 26.9816287,11.9928495 C26.8243977,11.8623341 26.7262051,11.7250466 26.6868461,11.5811924 C26.6474871,11.4373381 26.6278076,11.2510047 26.6278076,11.0223975 C26.6278076,10.6757929 26.7212853,10.3962928 26.9078306,10.1841027 C27.0945809,9.97150205 27.3647641,9.80979425 27.7185853,9.69856884 C28.0066031,9.60683865 28.4290975,9.52701082 28.9860685,9.45826448 C29.5426296,9.38972336 30.0602416,9.33595757 30.5384946,9.29655669 L30.5384946,11.5908374 C30.2633915,11.8264218 29.9440095,12.0158334 29.5805536,12.1596876 Z M30.5384946,14.4802356 L34.0463667,14.4802356 L34.0463667,6.96533767 C34.0463667,5.64089334 33.5992729,4.66859442 32.7050853,4.04885134 C31.8108977,3.42931347 30.3583041,3.11944193 28.3473045,3.11944193 C27.5023157,3.11944193 26.6587618,3.18675177 25.8172579,3.32116625 C24.975344,3.45558073 24.3679443,3.57193646 23.9946486,3.67023346 L23.9946486,6.33594958 L24.3187455,6.33594958 C24.6069683,6.22451895 25.0817364,6.06527371 25.7434598,5.85882949 C26.4049782,5.65218005 27.0273426,5.54895794 27.610348,5.54895794 C28.5797687,5.54895794 29.3134453,5.6655189 29.8113778,5.89823037 C30.3091053,6.13094185 30.5581741,6.55224402 30.5581741,7.16213688 L30.5581741,7.22103299 C29.5165952,7.28013432 28.5108904,7.37206972 27.5416747,7.49663397 C26.572049,7.62119823 25.7598594,7.83092586 25.1049008,8.12602207 C24.4431774,8.42111828 23.9321252,8.82436171 23.5721542,9.33595757 C23.2117732,9.84734822 23.0315827,10.5064922 23.0315827,11.3129791 C23.0315827,12.3228319 23.3854039,13.1523026 24.0928411,13.8015964 C24.8002784,14.4506849 25.6780664,14.7753318 26.7262051,14.7753318 C27.171454,14.7753318 27.5810337,14.7373674 27.9543294,14.6622595 C28.32783,14.5867411 28.687801,14.4703854 29.0352673,14.312987 C29.283926,14.1949896 29.5493944,14.0343079 29.8310573,13.8309418 C30.1125153,13.6279862 30.3484644,13.4541709 30.5384946,13.309701 L30.5384946,14.4802356 Z" id="Shape" fill="#E26129" fill-rule="nonzero" mask="url(#mask-4)"></path>
            </g>
            <g id="Clipped">
                <mask id="mask-6" fill="white">
                    <use xlink:href="#path-5"></use>
                </mask>
                <g id="Shape"></g>
                <path d="M44.7466885,3.43423858 L42.2188968,11.0371729 L39.658101,3.43423858 L35.9230946,3.43423858 L40.1480387,14.4802356 L44.1569183,14.4802356 L48.4115866,3.43423858 L44.7466885,3.43423858 Z M61.243855,8.37186717 C61.243855,6.66716326 60.7920463,5.36057246 59.888019,4.45229998 C58.9839917,3.5440275 57.6345105,3.08989126 55.8397805,3.08989126 C53.8943792,3.08989126 52.3628626,3.62282927 51.2462556,4.68829487 C50.1292386,5.75396567 49.5710376,7.19825436 49.5710376,9.02116092 C49.5710376,10.8639731 50.1606028,12.2836363 51.3395282,13.2801503 C52.5186587,14.2770748 54.2151962,14.7753318 56.4293457,14.7753318 C57.2874542,14.7753318 58.0703296,14.7030968 58.7777668,14.5588322 C59.4852041,14.4147727 60.2383552,14.181856 61.0376302,13.8604925 L61.0376302,11.0178828 L60.644655,11.0178828 C60.2383552,11.3263179 59.6848691,11.6146421 58.9839917,11.883471 C58.2829092,12.1525052 57.5592774,12.2867145 56.8124811,12.2867145 C55.6335556,12.2867145 54.740803,12.0572864 54.1350432,11.598225 C53.5290784,11.1393689 53.1998566,10.4769415 53.1475829,9.61135334 L61.243855,9.61135334 L61.243855,8.37186717 Z M53.1377432,7.53582965 C53.1900169,6.75561004 53.4356007,6.18840147 53.8746997,5.83420393 C54.3133887,5.48021161 54.8734347,5.30311284 55.5548376,5.30311284 C56.2883092,5.30311284 56.8286757,5.48985662 57.176142,5.8637546 C57.5231983,6.23744736 57.7066687,6.79501093 57.7263482,7.53582965 L53.1377432,7.53582965 Z M74.8231247,7.28998454 C74.8231247,5.90643889 74.4877531,4.86703534 73.8172149,4.17197911 C73.1466767,3.47692287 72.216205,3.12929215 71.0253899,3.12929215 C70.3189776,3.12929215 69.6761137,3.26062843 69.0972082,3.52268536 C68.5180977,3.78515271 67.9145928,4.16212888 67.2866936,4.65381909 L67.2866936,3.43423858 L63.7396675,3.43423858 L63.7396675,14.4802356 L67.2866936,14.4802356 L67.2866936,6.65054102 C67.6731089,6.42111295 68.0318499,6.25406961 68.3627116,6.14900059 C68.6933683,6.04413677 69.0193101,5.99160226 69.3403321,5.99160226 C69.7923458,5.99160226 70.1443219,6.04742018 70.3966706,6.15885081 C70.6486093,6.27048665 70.8402795,6.44758542 70.9714762,6.6899419 C71.0827884,6.89987474 71.1613014,7.2259581 71.2072203,7.66860242 C71.2529341,8.11124674 71.2760986,8.55573797 71.2760986,9.00146048 L71.2760986,14.4802356 L74.8231247,14.4802356 L74.8231247,7.28998454 Z" id="Shape" fill="#0A0B09" fill-rule="nonzero" mask="url(#mask-6)"></path>
            </g>
        </g>
    </g>
</svg>