<svg height="75" viewBox="0 0 75 75" width="75" xmlns="http://www.w3.org/2000/svg"><g fill="none"><path d="m74.7095842 5.5499614c-.5391139-.43737452-4.7758567-2.68540541-4.7758567-2.68540541l-4.5208157 2.59891891-.0024972-.00154439 4.5208154-2.59861005-4.5192547-2.6650193-.0015607 5.26362935-4.7149843-2.61127414s-3.8568343 2.23073358-5.7295298 3.30007721c-2.3571798 1.34579152-8.1385293 4.75181472-8.1385293 4.75181472v5.0298069l-4.7627459 12.2779923v6.6668727l-3.3426937 1.9305017-1.3301476 3.44278-9.3731535-24.059305.0015608-5.2762934-18.68012753-10.72247107-9.3310109 5.344556-.00905287-.00216218v5.43722005l5.81912193 13.8681081 3.53623805 2.0608495.00312169 6.3243242 14.01852413 33.6901931 14.0100957 7.933282v.0457141l13.9916778-8.0114285 23.3813761-56.0216216z" fill="#3185b8"/><path d="m37.397403 74.8546717-14.0203972-7.9391505-14.01852413-33.6901931-.00312169-6.3243242-3.53623805-2.0608495-5.81912193-13.8681081v-5.43722005l4.60447661 2.65637065v5.3525869l4.75899975 2.7326641.00062433-5.3837838 9.29823321 5.3232432.4482732 5.269807 13.5174948 34.7175288 9.3940688 5.414672v10.6180694l-4.6378787-2.6993051z" fill="#3185b8"/><path d="m28.0186305 16.1911969 9.3731535 24.059305-.0193543 13.2528186-4.7508834 2.673668-13.5109392-34.7298843-.4482732-5.2311969 9.3578574-5.3010038z" fill="#61a5ce"/><path d="m4.60447661 8.1911969v5.3525869l4.75962408-2.6511197z" fill="#61a5ce"/><path d="m9.36347636 16.2764479.00062433-5.3837838-4.75962408 2.6511197z" fill="#eae9e6"/><path d="m37.3724297 53.5033205 4.6856401 2.6529729 5.2169502-12.9606176 4.017601 2.3654053v-12.4213127l1.2817613-2.998919 3.4207358 1.982085v-5.2509653l-4.6566084-2.6770656 4.6825186-2.6897298-4.6044769-2.6254826-.0121745-5.336834-4.5770057-2.6403088v5.0298069l-4.7627459 12.2779923v6.6668727l-3.3426937 1.9305017-1.3301476 3.44278z" fill="#3185b8"/><path d="m37.3081229 58.9288031 4.7140478 2.689112-.0234126 10.6205406 9.3800212-5.3553669 23.3813761-56.0216216-.0505712-5.3115058-14.0141539 7.9928957v10.6634749l-4.7003122 2.6656371v5.2509653l-3.4207358-1.982085-1.2817613 2.998919v12.3953667l-6.5099496 3.7877992-2.7246016 6.8333591z" fill="#61a5ce"/><path d="m18.632678 21.5437838 4.701873-2.7027027v5.3473359z" fill="#eae9e6"/><path d="m23.334551 24.188417 4.662852 2.606332v-5.2509652l-4.662852-2.7027027z" fill="#3185b8"/><path d="m14.0022914 34.8058688v5.3859458l4.7078042-2.6804632z" fill="#61a5ce"/><path d="m23.4091591 40.2168339-4.7243491 2.7218534-4.6825186-2.7468727 4.7078042-2.6804632z" fill="#eae9e6"/><path d="m23.3454769 56.2162161v5.4316604l4.7321533-2.7073361z" fill="#61a5ce"/><path d="m32.6377789 66.8580695 4.7664919 2.7413128.0171691-5.5169114z" fill="#eae9e6"/><path d="m37.3871015 74.8945173.0171693-5.295135 4.5944873 2.6390734z" fill="#61a5ce"/><path d="m37.3724297 53.5033205-4.7508834 2.673668 4.6865766 2.7518146 4.7499469-2.7725097z" fill="#eae9e6"/><path d="m60.6954303 24.206332v-10.6634749l-4.6397514-2.6134363v5.3127414l-4.6391275 2.6375289z" fill="#3185b8"/><path d="m51.3385097 24.1949035 4.6825186-2.6897298 4.674402 2.7011583-4.7003122 2.6656371z" fill="#eae9e6"/><path d="m51.4165514 18.8796911 4.6391275-2.6375289v-5.3127414l-4.651302 2.6134363z" fill="#61a5ce"/><path d="m65.4104146 5.46223937.0015607-5.26393821 4.5192547 2.6650193z" fill="#3185b8"/><path d="m74.7095842 5.5499614-14.0141539 7.9928957-4.6397514-2.6134363-4.651302 2.6134363-4.5770057-2.6403088s5.7813495-3.4060232 8.1385293-4.75181472c1.8726955-1.06934363 5.7295298-3.30007721 5.7295298-3.30007721l4.7174815 2.61281853 4.5208157-2.59891891s4.2367428 2.24803089 4.7758567 2.68540541c-1.2748938.7369884 0 0 0 0" fill="#eae9e6"/><path d="m28.0201913 10.9149035-9.3578574 5.3010038-18.65328103-10.67891887 9.3310109-5.344556z" fill="#eae9e6"/><path d="m70.0049018 13.4211583v-5.18795367l-4.5595246 2.60324327z" fill="#3185b8"/><path d="m56.1842919 37.5400772 4.5370485-2.5754441v5.1654055z" fill="#3185b8"/><path d="m46.7031282 58.8932818v5.3525869l4.7259101-2.7051738z" fill="#eae9e6"/><path d="m51.4583821 61.5406949-.0583755-5.3093435-4.6968784 2.6619304z" fill="#3185b8"/></g></svg>