<svg height="208" viewBox="0 0 208 208" width="208" xmlns="http://www.w3.org/2000/svg" xmlns:xlink="http://www.w3.org/1999/xlink"><filter id="a" height="107%" width="107%" x="-3.5%" y="-2.5%"><feOffset dy="2" in="SourceAlpha" result="shadowOffsetOuter1"/><feGaussianBlur in="shadowOffsetOuter1" result="shadowBlurOuter1" stdDeviation="2"/><feColorMatrix in="shadowBlurOuter1" result="shadowMatrixOuter1" values="0 0 0 0 0.492160927 0 0 0 0 0.488995593 0 0 0 0 0.488995593 0 0 0 0.5 0"/><feMerge><feMergeNode in="shadowMatrixOuter1"/><feMergeNode in="SourceGraphic"/></feMerge></filter><mask id="b" fill="#fff"><path d="m.061.1h79.323v99.86h-79.324z" fill="none"/></mask><mask id="c" fill="#fff"><path d="m.065.018h36.338v45.655h-36.338z" fill="none"/></mask><mask id="d" fill="#fff"><path d="m.06.018h11.84v45.655h-11.84z" fill="none"/></mask><mask id="e" fill="#fff"><path d="m9.63 1.94h-1.173a.24.24 0 0 1 -.234-.245v-.86h-7.685v-.239h-.114v.237h-.346v-.747c.097.08.216.132.346.145v.009h.114v-.005h7.89v1.245a.25.25 0 0 0 .069.173c.043.044.101.072.166.072h1.174l.027-.002a.238.238 0 0 1 -.233.217z" fill="none"/></mask><g fill="none" fill-rule="evenodd" filter="url(#a)" transform="translate(4 2)"><circle cx="100" cy="100" fill="#fff" r="100"/><path d="m15.95 142.341c-.242 0-.418-.263-5.923-5.787-.473-.354-.223-1.111.367-1.111h13.44v-11.093l-.585-.314.392-.735-.004-.002c-.056-.145.075-.247.075-.247.053-.161.115-.314.181-.459.646.601 1.403 1.151 2.386 1.348.428.085 1.35.194 2.501.194.65 0 1.371-.035 2.118-.127h9.31v-11.435h7.392c.114-.61.265-1.072.265-1.072s.094-.012.257-.03l.02-.139c1.04.423 2.09.784 2.987.85.429.032 1.09.055 1.796.055l.454-.003.046.063c.117.164.122.156.203.26l.014.016h2.938v-11.433h16.373v-11.434h16.373v-11.434h16.375v-11.434h16.373v-11.436c4.827 0 7.725-.01 9.478-.01 2.915 0 2.654.03 2.815.191.766.769 1.431 1.434 2.01 2.012l-1.738-.749.922 1.703c.151.882.946 2.236 2.032 3.749h-8.648v11.434h-16.373v11.434h-16.372v11.434h-16.374v11.434h-16.373v11.435h-16.373v11.435h-16.374v11.434h-14.67c-.033 0-.06.003-.085.003m13.853-19.697a5.465 5.465 0 0 0 -.17-.04 3.746 3.746 0 0 1 -1.316-.554c-.715-.479-1.732-1.28-2.097-2.158h.002l-.028-.074a2.932 2.932 0 0 1 -.085-.287v-.007a5.742 5.742 0 0 0 -.324-.262 5.205 5.205 0 0 1 -.027-.424l.073.016 3.743-12.76h.001l.352-1.201.093-.317h10.61c.364 0 .66-.297.66-.663v-5.316a.656.656 0 0 0 .249-.515v-1.649h3.253l-.806 11.292.143.005-.035.252c-.163.017-.257.029-.257.029l-.001.003-.008.026-.007.022-.002.005h-9.77l-.445 1.518-3.745 12.76-.072-.016c.003.098.008.203.017.315m23.252-11.782c-.37-.05-.823-.12-1.07-.208a6.692 6.692 0 0 1 -.583-.242l-.004-.002a6.421 6.421 0 0 1 -.13-.063l-.098-.05-.038-.02a6.084 6.084 0 0 1 -.352-.202l-.053-.034a4.982 4.982 0 0 1 -.474-.339c-.026-.02-.053-.043-.078-.064a4.325 4.325 0 0 1 -.373-.346l-.02-.02a3.903 3.903 0 0 1 -.386-.464 3.308 3.308 0 0 1 -.168-.25 3.75 3.75 0 0 1 -.17-.298l-.03-.059a2.14 2.14 0 0 0 -.414-.157 3.186 3.186 0 0 1 -.054-.16l.383.013 2.81-17.496a2.129 2.129 0 0 0 -.295-1.461l3.584 2.98c.577.48.858 1.23.739 1.972zm-8.065-17.19-4.966-2.37a30.1 30.1 0 0 1 -2.103.152l-.092.41c.558.386.842.695.978 1.078h-2.421v-.203l-.087-.15h-.226v-1.519c0-.645-.522-1.169-1.165-1.169h-.033c-.063-.622-.313-1.003-1.074-1.528l.092-.412.234-1.044 10.97 5.236-.107 1.517m-10.39-.729h-1.826l.31-1.379a.489.489 0 0 0 .22.05.502.502 0 0 0 .505-.529v-.013h.197c.019.126.035.228.054.311 0 0 .035.483.576.483.034 0 .07-.002.107-.006.025-.002.099-.026.1-.15l.027-.638h.043v1.518h-.226l-.087.15zm-.716-7.332-4.776-.828c.72-6.394.55-5 .928-15.23 0-5.507 3.234-10.107 4.117-10.972.224-.219.427-.497.586-.764-.012-.005-.022-.01-.034-.013l.376-1.09.668-.652.18-.473.086.036-.009-.241.852-2.246c.01.001 1.633.229 1.97.229.018 0 .032 0 .042-.002.075-.01.216-.019.368-.06.264-.074.563-.246.613-.692.078-.702.172-1.011.172-1.011l.204-.252-.092-.117.217-.32-.046-.632.98-.568-1.015-2.245s.167-.685.47-1.042c.1-.117.107-.404.071-.739 1.046.025 2.035.294 2.77.806 1.07.745 1.344 1.79 1.537 2.043a7.674 7.674 0 0 1 -.394-.058c.38 1.832-.092 1.108-.426 2.481l1.015 2.245-.98.568.046.631-.217.32.092.118-.204.252c-.252.827.022 1.48-.786 1.702a1.366 1.366 0 0 1 -.413.057c-.302 0-.82-.059-1.966-.223l-.607 1.6c.118.123.03-.006.544.853l1.063 2.407c.061.521.05.425.065.546.747 6.299.535 4.953.93 6.352.998 2.494 1.176 4.082 1.238 4.338 0 .126.351 3.465.147 10.093l-3.028-2.52-2.416-2.009-.885-.736-2.513 4.997-1.54 3.06" fill="#d6e0e5"/><path d="m134.282 54.249a.645.645 0 0 1 -.643.638h-10.636v11.643h-16.426v11.642h-16.425v11.643h-16.425v11.642h-16.427v11.642h-16.425v11.643h-16.425v11.642h-14.716a.623.623 0 0 1 -.617-.628c0-.347.276-.629.617-.629h13.483v-11.642h16.425v-11.642h16.425v-11.643h16.425v-11.642h16.426v-11.642h16.426v-11.642h16.425v-11.644h11.897c.17 0 .324.07.436.184.11.111.177.265.18.434" fill="#32526e"/><path d="m79.057 99.965h-7.513l-3.617-42.377c-.01-.13-.185-.243-.503-.337-.34-.102-.844-.183-1.488-.243l-.205-2.399c-.022-.261-.795-.443-2.12-.541a23.82 23.82 0 0 0 -.32-.022c-.11-.962-.227-1.967-.355-3a13.262 13.262 0 0 1 1.05-7.035c.406-.91.849-1.898 1.304-2.908 1.665-3.693 3.5-7.68 4.342-9.211.112-.205.208-.366.282-.476.382-.564.682-1.208.81-1.917v-.006h.001c.278-1.56-.284-3.438-2.675-5.49-3.942-3.382-6.945-10.996-9.987-13.585a12.446 12.446 0 0 0 -4.918-2.56 11.69 11.69 0 0 0 -.942-.202c-1.536-1.09-7.498-5.038-7.696-5.155-.295-.173-.759-.567-1.457-1.05 1.843.842 2.634 1.568 3.21 1.863.203.105 6.377 3.715 7.971 4.717 2.187.25 4.285 1.124 6.008 2.431 3.182 2.416 6.61 9.85 10.736 13.009 1.99 1.519 3.519 3.582 2.848 5.994-.302 1.08-.368.58-1.793 4.023 3.067 2.656 4.945 5.203 7.119 8.3.351.499.263 2.969.032 3.334.862.844-2.53 4.651-3.843 4.65a.449.449 0 0 1 -.311-.107s-3.463-2.895-7.02-5.88c-1.486 4.016-.575 7.088-.09 9.947.427.002 2.409.01 2.468.426l.34 2.383c.417.017 1.623.07 1.941.343.104.088.964 5.086 6.391 43.08m-7.613-65.037a296 296 0 0 0 -.757 1.903c2.824 2.749 5.326 5.193 6.871 6.705.34-.514.348-.764-.063-1.967-.155-.455-3.966-4.785-6.05-6.641m-22.75-2.345c-.04 0-.079 0-.117-.002-1.8-.063-5.76.205-8.751-3.923.855-.052 1.856-.621 3.172-2.29l-.008.18-.002.074a15.79 15.79 0 0 1 -.028.637c-.077 1.226-.234 2.655.128 3.442.121.27.308.463.574.55.265.084.531.146.806.146.967 0 2.026-.773 3.398-4.049.318-.76.579-1.404.795-1.959a34.636 34.636 0 0 0 .66-1.828c.708 1.638 1.6 3.704 2.726 6.317.092.213-.32 1.169-1.174 1.884a4.31 4.31 0 0 1 -.182.144c-.228.17-.469.306-.704.409a3.278 3.278 0 0 1 -.502.17c-.248.063-.51.098-.792.098m-10.807-8.06a65.817 65.817 0 0 1 -.792-2.336c.414-.094.876-.25 1.394-.48-.033.15-.063.297-.088.44-.048.262-.104.537-.167.82-.111.504-.237 1.033-.347 1.555m-2.676-7.92c-.618-1.235-1.529-2.745-2.265-3.641-.47-.57-.907-1.064-1.325-1.488.94.358 1.91 1.103 3.059 2.272-1.345-1.42-5.26-5.595-7.706-8.975h1.96c.345 0 .649-.28.644-.622-.006-.305.235-.028-3.823-4.046l.036.015.002-.002c1.687.129 5.678 2.511 10.954 6.42 2.066 2.04 3.437 3.28 4.4 4.081-1.356 1.12-2.895 2.463-3.91 3.695-.203.247-.425.502-.657.762-.442.496-.92 1.012-1.369 1.53" fill="#cfd8dd" mask="url(#b)" transform="translate(111.104 57.603)"/><path d="m140.215 62.237h-2.1c-1.165-1.47-2.018-2.785-2.181-3.642l-.99-1.654 1.865.728c4.346 3.931 4.089 3.66 4.095 3.959.005.335-.32.609-.689.609" fill="#bfc7cc"/><path d="m161.435 81.404c-.27.928-.724 2.203-1.64 4.422-1.805 4.376-3.082 4.463-4.312 4.063-.273-.09-.464-.292-.59-.572-.37-.82-.21-2.308-.13-3.584.013-.229.024-.452.028-.663l.011-.265c-2.202 2.836-3.546 2.624-4.782 1.996-.339-.173-.545-.473-.651-.861-.318-1.14.188-3.035.545-4.675.064-.295.122-.58.17-.854.026-.148.057-.301.091-.457-3.097 1.389-4.222.191-5.055-1.048-.254-.38-.295-.815-.183-1.286.328-1.38 1.956-3.066 3.28-4.573.238-.27.466-.536.674-.793 1.105-1.361 2.816-2.853 4.265-4.059 2.812 2.322 4.432 2.773 4.788 3.872 1.69 5.106-.593-.262 3.49 9.337" fill="#e4a16a"/><path d="m154.15 84.085c.004-.053.008-.115.016-.2v-.002c-.006.068-.012.136-.016.202m5.714-1.28" fill="#daa276"/><path d="m153.985 84.745c-.011 0-.017-.002-.016-.008.01-.23.01-.302.013-.42l.008-.184c1.187-1.572 2.25-3.571 3.468-5.872-1.08-2.634-.916-2.32-1.057-2.973-.52.54-1.198 1.28-1.494 1.512-2.462 1.934-4.128 2.901-5.393 3.199.02-.108.05-.296.11-.58 1.082-.5 2.367-1.49 4.04-2.803.652-.513 1.673-1.913 2.367-2.678-.523-1.718-.288-1.264-2.576-2.927-.494-.357-1.068-.685-2.369-1.835.375-.34.75-.669 1.11-.981l.199.17c.468.4.828.68 1.123.896.51.383.973.7 1.378.974.46.324.817.564 1.089.775.353.285.588.545.68.84 1.614 5.016-.626-.414 3.445 9.443-.106.345-.236.738-.402 1.202-.072.202-.15.417-.236.648l-1.318-3.191c-.333.592-.85 1.533-1.1 1.96-1.208 2.053-2.887 2.833-3.069 2.833" fill="#dd9a65"/><path d="m148.056 74.161c-.159.41-1.666 1.837-2.299 1.952-.28.05-.604.022-.879-.024.321-1.184 1.923-2.63 3.224-3.922.153.668.086 1.652-.046 1.994m2.11 7.405c.096.352-.474 1.916-1.003 2.223-.235.136-.558.23-.845.294-.406-.968.242-2.578.696-3.972.544.428 1.071 1.162 1.152 1.455m5.26 3.61c.136.28-.023 1.608-.376 1.905-.155.13-.387.236-.595.313-.484-.758-.272-2.132-.17-3.31.493.303 1.027.858 1.141 1.092" fill="#f6e2ca"/><path d="m174.439 116.8-20.755 1.708c-2.74-5.718-5.102-6.228-7.148-12.097a.25.25 0 0 0 -.014.027c-1.642-4.367-3.006-8.114-3.277-9.188-.043-.172-5.277-22.424-5.277-22.424.004-.074.03-.929-1.642-4.062-1.449-2.708-.666-4.047 1.969-4.507 1.926-.338 3.45.688 5.655 3.431 1.063 1.325 2.495 3.977 2.853 5.147.591 1.92 2.277 8.338 3.895 10.654 2.959 4.234 6.896 3.96 8.68 4.024 2.34.083 3.577-2.371 3.425-2.731-7.721-18.345-4.28-9.96-6.203-15.812-.203-.634-.857-.933-2.322-1.975-.875-.62-1.999-1.152-6.831-6.056-4.832-4.905-4.245-6.7-3.032-8.156 1.222-1.46 4.476.706 6.802 1.737 2.352 1.048 3.57 2.257 4.144 2.601.195.119 6.08 4.108 7.595 5.208.32.057.63.125.93.204 2.255.593 3.905 1.76 4.855 2.587 3.002 2.616 5.966 10.31 9.857 13.726 3.436 3.02 3.045 5.665 1.84 7.49-.772 1.174-3.79 7.998-5.851 12.727a13.689 13.689 0 0 0 -1.036 7.109c.402 3.33.71 6.386.888 8.629" fill="#f0ae74"/><path d="m175.879 98.321c1.66-3.686 3.492-7.666 4.332-9.195-.84 1.529-2.671 5.509-4.332 9.195m-15.769-8.583v-.001a4.765 4.765 0 0 0 0 .001m20.383-1.087c.38-.563.68-1.205.807-1.913-.126.708-.426 1.35-.807 1.913m.808-1.92h.002z" fill="#d9a983"/><path d="m166.101 111.888c2.679-1.163 3.927-2.538 4.283-3.43.632-1.585.788-4.353.444-6.006-.085-1.875-7.432-9.065-10.718-12.234a3.034 3.034 0 0 0 .5-.171 3.554 3.554 0 0 0 .882-.553c3.228 3.103 7.218 6.896 10.76 10.25 2.388-4.534 5.89-11.086 6.745-12.192.932-1.202 1.492-2.827.636-4.793l.019.02c1.471 1.646 1.814 3.154 1.586 4.445h-.001l-.001.007c-.126.71-.425 1.353-.805 1.918a6.65 6.65 0 0 0 -.28.476c-.839 1.532-2.665 5.522-4.32 9.218-.453 1.01-.893 2-1.297 2.91a13.357 13.357 0 0 0 -1.045 7.04c.127 1.034.245 2.04.353 3.003a42.638 42.638 0 0 0 -2.548-.066c-.244 0-.494 0-.752.004a103.08 103.08 0 0 0 -4.44.154" fill="#e19e68"/><path d="m177.991 83.421c-.352-.544-.136-.403-3.386-4.23-3.409-4.016-7.59-11.243-8.995-12.595-.367-.356-1.18-.978-2.189-1.711.324.056.634.126.935.205.827.607 1.48 1.117 1.8 1.425 1.404 1.352 5.464 8.688 8.995 12.596.644.713 2.329 2.99 2.84 4.31" fill="#dc9964"/><path d="m185.833 103.453s-18.823-20.937-23.455-25.694c-12.492-12.83-23.94-22.366-27.193-22.804l-.903.893c.375 3.287 9.618 15.006 22.11 27.836 4.633 4.757 25.045 24.12 25.045 24.12.378.39 1.669-.27 2.883-1.472s1.892-2.49 1.513-2.88" fill="#32526e"/><path d="m134.612 56.279.995-.968-.486-.334-.001.002c-.377-.335-1.5-.686-1.5-.686s.335 1.118.665 1.497l-.001.001z" fill="#32526e"/><path d="m160.11 88.318 6.237-6.22.386.413-6.223 6.207a123.4 123.4 0 0 1 -.4-.4m-25.828-32.468c.253 2.151 4.288 7.326 5.644 9.035 1.54-1.011 3.462-2.922 4.29-4.316-1.695-1.344-6.838-5.331-9.002-5.614l-.932.896m52.004 47.643c.25-.351.477-2.809.156-3.327-.3-.484-2.903-5.008-6.213-8.276s-9.262-8.407-9.852-8.466c-.59-.06-1.043.736-.991.969.052.232.182 1.8.557 2 1.235.66 2.75.303 9.006 6.296 1.915 1.836 5.726 6.687 5.859 7.166.343 1.232.32 1.474-.057 1.976-.117-.128-.074-.08-.2-.215-.891 1.497-2.99 3.541-4.507 4.415l1.853 1.761c.879.892 5.28-3.332 4.39-4.299" fill="#e74b3c"/><path d="m149.665 57.6c-.714-.034-4.262-1.396-4.695-2.2l-.007-.011c-.296-.564.23-1.205.875-1.08 1.882.361 4.224 1.567 6.325 2.543-1 .497-1.903.778-2.498.749m-8.822 14.914a5.061 5.061 0 0 1 -.934 2.046c-.284.367-.54.576-.636.61-.138.047-.488.247-1.095.306-.12-.48-.263-.92-.421-1.33-.847-2.21-2.088-3.484-2.15-5.008-.043-1.129 1.624-1.124 2.668-.617 1.812.881 2.908 2.37 2.568 3.993" fill="#f6e2ca"/><path d="m137.32 74.815a11.55 11.55 0 0 0 -.389-1.305c.113-.011.24-.019.375-.019.471 0 1.059.09 1.612.426-.262.36-.498.564-.587.597-.128.047-.45.243-1.01.301" fill="#f9eddf"/><path d="m151.5 57.603-.002-.002c-.436-.218-.878-.44-1.322-.66.445.22.887.443 1.325.662" fill="#f1f8fb"/><path d="m151.5 57.272c-.218-.108-.44-.22-.661-.331l.002.001.66.33" fill="#f6cdaa"/><path d="m150.176 58.265a2.542 2.542 0 0 1 .352-1.324l.996.414c.214.09.428.178.64.264-.738.323-1.426.548-1.988.646" fill="#f9eddf"/><g transform="translate(146.203 111.888)"><path d="m30.554.642.881 10.2-28.817 2.397-.883-10.2c-.065-.758 6.333-1.909 14.29-2.572 7.96-.662 14.463-.583 14.53.175" fill="#fff" mask="url(#c)"/><path d="m36.403 45.68h-32.934l-3.403-39.36c-.076-.862 7.183-2.17 16.214-2.92 9.03-.751 16.41-.661 16.484.2z" fill="#32526e" mask="url(#c)"/></g><path d="m178.653 115.198c-.011-.121-.185-.226-.503-.315.318.088.493.193.503.315m-4.314-3.267a12.422 12.422 0 0 1 0 0" fill="#b8c0c5"/><path d="m174.68 112.1c-.72-.14-1.582-.21-2.556-.21a21.839 21.839 0 0 1 -.001-.001c.974 0 1.836.07 2.557.21z" fill="#c88d5d"/><g transform="translate(171.368 111.888)"><path d="m6.16 3.024c-.97-.089-2.25-.133-3.768-.133-.65 0-1.346.008-2.078.024l-.254-2.893c.265-.003.523-.004.774-.004.999 0 1.881.022 2.62.065l.329.022c1.355.098 2.145.278 2.167.537z" fill="#e3e3e3" mask="url(#d)"/><path d="m11.9 45.68h-7.828l-3.758-42.766a92.462 92.462 0 0 1 2.078-.024c1.518 0 2.799.044 3.768.133.66.06 1.175.14 1.523.241.326.095.504.206.516.336l3.7 42.078" fill="#2d4962" mask="url(#d)"/></g><path d="m47.527 110.408-.092.818-3.881-.505.092-.819 3.5.456.38.05zm-3.311-3.662s3.978-.444 5.298.175l-1.842.995-2.543-.322z" fill="#263e53"/><path d="m44.377 106.592-.16 1.297 2.783.495s3.94 1.36 3.044.652c-1.169-.922-1.33-2.33-1.33-2.33z" fill="#fff"/><path d="m55.471 111.138c-1.24.124-3.158.1-4.062.036-1.156-.078-2.558-.596-3.88-1.116l-3.97-.457c-.022-.4.028-.83.099-1.212.044-.238.096-.457.145-.638l.03-.11c.023-.08.044-.149.062-.206l.013-.041c.011-.038.022-.069.03-.092l.007-.02.008-.025v-.003l.24.125c.915.467 2.051.907 4.752.146l.315-.092a3.436 3.436 0 0 0 .205.335 4.057 4.057 0 0 0 .567.67l.02.02a4.661 4.661 0 0 0 .381.325c.026.02.053.041.08.06a5.081 5.081 0 0 0 .485.319l.054.031c.12.07.241.133.36.191l.038.019.1.047.133.058.004.002c.21.09.41.166.596.227.435.145 1.496.234 1.666.27 1.4.303 1.553.842 1.522 1.131" fill="#2d4a63"/><path d="m44.318 107.311-.102-.057z" fill="#263e53"/><path d="m47.04 107.916c-.997 0-1.619-.325-2.161-.662.542.337 1.165.662 2.162.662a5.1 5.1 0 0 0 -.001 0m.474-.022.012-.001h-.012m.011 0 .004-.001a.03.03 0 0 1 -.004 0" fill="#85939f"/><path d="m49.613 107.442c-.035-.06-.067-.124-.099-.188h.001c.032.064.063.128.098.188" fill="#738593"/><path d="m44.216 107.454.032-.11-.015.053zm.056-.193.002-.007-.002.005z" fill="#7b8d9b"/><path d="m44.483 107.406-.267-.151.267.15" fill="#263e53"/><path d="m44.912 108.578c-.417 0-.869-.023-1.358-.074.069-.433.159-.809.218-1.033l.005-.018a.967.967 0 0 0 .004-.018l.007-.026v-.001l.001-.002.043-.152.08.05.114.068.031.019c.523.313 1.124.615 2.085.615.143 0 .295-.006.455-.02h.001l.007-.001h.005l.002-.001c.566-.052 1.243-.2 2.073-.485l.114-.04.023-.008.03.06v.001c-.66.498-1.869 1.066-3.94 1.066" fill="#29435a"/><path d="m51.5 110.067-.3.416c-.148.2-.471-.011-.324-.209l.271-.372h.001c.12.06.238.114.353.165m-.662.048-.31.376c-.17.2-.47-.052-.305-.25l.285-.339c.109.076.219.147.33.213m-.663-.603-.31.326c-.187.195-.479-.097-.292-.293l.291-.305c.102.095.207.187.311.272m0-.626-.328.3c-.2.179-.462-.129-.263-.307l.322-.3c.087.107.178.209.27.307m-.663-.598-.372.255c-.217.153-.414-.234-.194-.384l.35-.243c.068.13.14.254.216.372m5.888 3.5-.001.002c-1.233.141-3.117.108-4.033.038-1.151-.085-2.55-.65-3.867-1.216h-.001l-.382-.048-3.517-.43c-.094-.084-.019-.232-.019-.232l3.957.497c1.317.567 2.715 1.132 3.868 1.216.9.07 2.813.096 4.049-.038 0 0 .067.135-.054.211m-34.365 4.734s2.88.352 4.636 2.168l-1.98.48-2.142-1.32z" fill="#263e53"/><path d="m21.608 116.522-.57.94 2.218 1.687s3.639 1.979 3.005 1.137c-.825-1.096-.587-2.555-.587-2.555z" fill="#fff"/><path d="m28.707 121.512c-.84-.599-2.085-1.657-2.282-2.776-3.22-.182-4.548-1.299-5.25-2.214l-.002.003c-.065.06-1.092 1.032-1.458 2.521l-.002.003 3.351 1.915c.91.971 1.93 2.285 3.537 2.627.713.152 2.757.37 4.98.044 0 0 .489-1.065-1.516-1.514a3.748 3.748 0 0 1 -1.358-.609" fill="#32526e"/><path d="m25.999 119.832a2.555 2.555 0 0 1 -.326-.662c.07.176.15.352.251.527.029.044.051.087.08.135h-.004" fill="#738593"/><path d="m20.375 118.508a7.87 7.87 0 0 1 0 0m1.323-1.322" fill="#7b8d9b"/><path d="m25.181 119.17c-3.214 0-4.522-1.065-4.806-1.34l.007-.013a5.84 5.84 0 0 1 .766-1.078l.002-.002c.084-.094.155-.166.205-.215l-.054.201.468.107c.802.82 2.222 1.677 5.109 1.834l.001.008c.025.133.066.265.119.396-.664.072-1.268.102-1.817.102" fill="#2b475f"/><path d="m20.08 119.17 2.944 1.843-.368.806-2.943-1.843.368-.806m8.241 2.198-.333.385c-.159.182-.44-.055-.283-.233l.316-.364c.102.075.203.145.3.212m-.662.027-.352.367c-.174.174-.423-.095-.254-.268l.33-.338c.09.084.183.163.276.239m-.662-.609-.354.321c-.189.171-.43-.143-.24-.315l.327-.298c.087.1.176.197.267.292m-.663-.622-.361.289c-.204.159-.423-.18-.22-.339l.348-.282c.073.113.15.223.233.332m0-.579-.396.223c-.223.13-.383-.29-.156-.416l.386-.222c.047.14.103.28.166.415" fill="#263e53"/><path d="m31.535 123.648c-2.211.302-4.245.099-4.954-.04-1.6-.316-2.614-1.526-3.519-2.422l-3.335-1.766c-.057-.146.077-.25.077-.25l3.258 1.726c.905.895 1.92 2.106 3.52 2.422.704.138 2.807.337 5.004.043 0 0 .135.175-.05.287" fill="#263e53"/><path d="m25.697 83.421.012 16.3-4.672 17.04 4.837 1.085 4.707-16.236 3.701-16.683z" fill="#32526e"/><path d="m22.362 117.515-1.325-.33z" fill="#85939f"/><path d="m30.31 105.268h-.001l.378-1.185zm4.536-17.468h-.001l.18-.405z" fill="#738593"/><path d="m25.675 85.407-.002-1.986 1.987.288-1.987-.287z" fill="#7b8d9b"/><path d="m22.305 116.522-.75-.16-.518-.11 3.73-12.891h5.567l-.095.31-.36 1.175h-4.103l-3.47 11.676m5.118-24.536h-1.538l-.007-8.565 1.545.257v2.95a30.18 30.18 0 0 0 2.755.377c-.007.325-.012.668-.015 1.038a30.629 30.629 0 0 1 -2.74-.234zm6.764-4.468c-.16-.106-.344-.219-.553-.34l.004-.044c.212-.004.426-.01.643-.017z" fill="#2b475f"/><path d="m38.197 77.463 13.194 10.917c.582.482.865 1.235.745 1.98l-2.835 17.557-5-.172 1.12-15.627-11.8-5.602 4.576-9.052" fill="#2d4a63"/><path d="m43.805 107.916.164-1.204zm1.073-15.853-10.596-5.331 10.596 5.33" fill="#738593"/><path d="m34.945 87.394-1.325-.662z" fill="#2b475f"/><path d="m34.282 84.745 1.987-2.648z" fill="#738593"/><path d="m33.62 86.732.662-1.325z" fill="#2b475f"/><path d="m42.23 80.111-2.65-1.985 2.65 1.984z" fill="#738593"/><path d="m45.774 107.916-1.574-.054 1.112-15.73-11.692-5.64 2.022-4.063c.778.779 1.934 1.609 3.304 2.578a12.934 12.934 0 0 1 -.246-2.307c-.027-1.157-.022-2.307.145-3.454.054-.375.122-.748.194-1.12l2.414 2.029c.013 1.926-.008 4.12-.085 6.588 1.751 1.292 3.66 2.82 5.497 4.709 0 0-1.07 13.557-1.091 16.464" fill="#29435a"/><path d="m40.11 44.122s.557 1.931.256 2.282c-.3.351-.466 1.026-.466 1.026l1.005 2.208-.97.559.045.62-.215.315.092.116-.202.248s-.094.304-.171.994-.766.714-.971.74c-.206.025-1.992-.224-1.992-.224l-1.097 2.877-1.773 1.72-1.835-2.313-.183-5.137.962-3.344 2.02-2.208 2.24-.9 1.309.088 1.945.333" fill="#f0ae74"/><path d="m39.125 53.3c-.375 0-2.182-.329-2.194-.33v-.001s1.818.33 2.193.33c.02 0 .035 0 .046-.003.085-.013.24-.027.41-.087-.168.06-.325.074-.41.088a.307.307 0 0 1 -.045.003" fill="#d9ba9f"/><path d="m36.945 53.63c-.667-.351-1.809-1.393-1.879-1.459-1.209-1.122-.659-2.512-.659-2.512.101 1.764 4.2 2.894 5.173 3.136-.145.043-.28.052-.352.062a.299.299 0 0 1 -.04.002c-.322 0-1.885-.234-1.885-.234l-.358 1.006" fill="#e5a36b"/><path d="m41.567 44.604c-1.56-.179-3.082-.858-3.478-.492-.832.772-.381 1.766-1.449 2.787-.479.458-.842.516-1.15.819-.027.026-.14.16-.247.323-.45.692-.59.516-1.068.897-1.028.822-1.148-.063-2.085 1.458-.127.207-.21.591-.305.587-.34-.017-.241-.254-.725-3.4-.123-.797-.118-1.249.01-1.905.22-1.12.772-1.927 1.1-2.245 1.215-1.18 2.807-1.526 3.492-1.63.757-.116 2.758-.287 4.278.728 1.133.756 1.423 1.816 1.627 2.073" fill="#654026"/><path d="m36.987 54.955 1.063 2.46.868 7.47-3.311-8.619z" fill="#e74b3c"/><path d="m36.27 58.319.191.608c.632-.137 1.263-.328 1.795-.597l-.07-.727s-.647.469-1.917.716" fill="#c1392b"/><path d="m30.971 52.559s.33.407.69 1.262c1.31.464 2.467 1.931 3.218 3.12.803-.675 1.39-1.806 1.39-1.806l-.431-.73c-1.318-1.489-4.41-2.713-4.526-2.759l-.003-.001z" fill="#fff"/><path d="m25.673 86.375s.108.068.315.125c1.403.385 7.313 1.772 14.418.053.92-11.792.286-17.68.286-17.849-.063-.255-.243-1.838-1.252-4.323-3.309-11.565-7.731-12.074-7.731-12.074l-.535 1.526.034.014c-.16.264-.353.53-.593.76-.891.863-4.161 5.448-4.161 10.935l-.78 20.833" fill="#32526e"/><path d="m27.201 72.916c.457 2.318.792 4.517.7 5.303-.09.786-.188 4.49 0 5.217.244.937 1.746 2.634 1.746 2.634s-1.303-6.799-1.288-10.095c.015-3.297-.534-5.545-.534-6.02s.442-5.587.9-7.5l.335-1.02s-.697.639-1.005 1.504c.017-.097.306-1.65.364-1.867.062-.223-.67-.336-.76.531-.092.866-.063 3.38-.275 4.637-.214 1.257-.64 4.358-.183 6.676m6.421.699c.067 2.015.961 12.455.961 12.455s1.117-1.827 1.018-4.802c-.129-3.863-1.253-8.158-1.253-8.97 0-.811.792-4.564.857-5.166.067-.601.265-5.557.265-5.557s-1.914 10.026-1.848 12.04m4.634-2.11a.662.662 0 1 0 1.324 0 .662.662 0 0 0 -1.324 0m0 5.296a.662.662 0 1 0 1.324 0 .662.662 0 0 0 -1.324 0" fill="#263e53"/><path d="m30.309 54.078c1.204.455 2.147 1.007 2.827 2.154.219.084.064.026.788.301l-.138.698c.533.764 2.536 5.316 2.905 6.151l3.552 5.475-3.099-5.726s-2.399-5.427-2.808-6.014l.182-.912-1.027-.39s-.85-1.461-2.877-2.184c-.09.151-.191.303-.305.447m-5.299 31.532s1.008.41 1.225.46l.1-10.593-1.324 10.133" fill="#263e53"/><path d="m29.442 89.38h5.045c.619 0 1.12.456 1.12 1.018v1.63h-1.114v-1.63h-5.057v1.63h-1.114v-1.63c0-.562.501-1.018 1.12-1.018" fill="#4c301c"/><path d="m34.945 93.02h1.986v-.33h-1.986zm-6.623 0h1.987v-.33h-1.987z" fill="#bcbec0"/><path d="m34.945 93.02h1.986l-.096-.33h-1.794zm-6.527-.33h1.795l.096.33h-1.987z" fill="#e6e6e6"/><path d="m34.945 93.02h1.324v-.33h-1.324z" fill="#abadae"/><path d="m36.27 93.02h-1.325l.128-.33h1.196v.33" fill="#d1d0d0"/><path d="m28.322 93.02h1.325v-.33h-1.325z" fill="#abadae"/><path d="m28.322 92.747.015-.057h.316-.316z" fill="#304c65"/><path d="m28.322 92.69h.662z" fill="#472e1c"/><path d="m29.647 93.02h-1.325l.113-.29.016-.04h1.196z" fill="#d1d0d0"/><path d="m23.024 93.45v10.477c0 .375.294.679.656.679h16.57a.668.668 0 0 0 .655-.68v-10.476a.84.84 0 0 0 -.473-.76h-16.936a.84.84 0 0 0 -.472.76" fill="#654026"/><path d="m40.25 103.944h-16.57a.652.652 0 0 1 -.656-.648v-.676c0 .358.294.648.656.648h16.57c.361 0 .655-.29.655-.648v.676a.652.652 0 0 1 -.656.648" fill="#5b3922"/><g fill="#c1855a"><path d="m24.349 104.275h.662v-.331h-.662zm1.324 0h.662v-.331h-.662z"/><path d="m25.673 104.275h.662v-.331h-.662z"/><path d="m25.673 104.275h.662v-.331h-.662zm1.325 0h.662v-.331h-.662zm.662 0h.662v-.331h-.662zm.662 0h.662v-.331h-.662zm.662 0h.663v-.331h-.663z"/><path d="m29.647 104.275h.662v-.331h-.662zm.662 0h.662v-.331h-.662zm.662 0h.662v-.331h-.662z"/><path d="m30.971 104.275h.662v-.331h-.662zm1.325 0h.662v-.331h-.662zm.662 0h.662v-.331h-.662zm.662 0h.662v-.331h-.662zm.662 0h.663v-.331h-.663zm.663 0h.662v-.331h-.662zm.662 0h.662v-.331h-.662zm.663 0h.661v-.331h-.662z"/><path d="m36.931 104.275h.663v-.331h-.663zm.663 0h.662v-.331h-.662zm.662 0h.662v-.331h-.662zm1.324 0h.663v-.331h-.663zm.663 0h.662v-.331h-.662z"/><path d="m40.243 104.275h.662v-.331h-.662z"/><path d="m40.243 104.275c.306 0 .572-.116.662-.289l-.232-.042c-.058.11-.235.188-.43.188zm-16.353-.331.127-.162a.403.403 0 0 1 -.132-.302v-.198h-.199v.198c0 .18.075.349.204.464m17.015-.662h.331v-.662h-.331zm-17.219 0h.331v-.662h-.33z"/><path d="m40.905 102.62h.331v-.662h-.331zm-17.219 0h.331v-.662h-.33zm17.219-.662h.331v-.662h-.331zm-17.219 0h.331v-.662h-.33z"/><path d="m40.905 101.958h.331v-.662h-.331zm-17.219 0h.331v-.662h-.33zm17.219-1.324h.331v-.662h-.331zm-17.219 0h.331v-.662h-.33zm17.219-.662h.331v-.662h-.331zm-17.219 0h.331v-.662h-.33z"/><path d="m40.905 99.31h.331v-.662h-.331zm-17.219 0h.331v-.662h-.33zm17.219-.662h.331v-.662h-.331zm-17.219 0h.331v-.662h-.33z"/><path d="m40.905 97.986h.331v-.662h-.331zm-17.219 0h.331v-.662h-.33z"/><path d="m40.905 97.986h.331v-.662h-.331zm-17.219-.662h.331v-.662h-.33zm17.219-.662h.331v-.662h-.331z"/><path d="m23.686 96.662h.331v-.662h-.33zm17.219-.662h.331v-.662h-.331zm-17.218 0h.33v-.662h-.33z"/><path d="m40.905 96h.331v-.662h-.331zm-17.219-.662h.331v-.662h-.33zm17.219-.662h.331v-.662h-.331z"/><path d="m23.686 94.676h.331v-.662h-.33zm17.219-.662h.331v-.662h-.331zm-17.219-.662h.331v-.66l-.33-.002v.662m16.77-.332.117-.052a.586.586 0 0 0 -.191-.266l-.016-.012h-.124v.14h.084c.058.05.103.115.13.19"/><path d="m23.826 93.02.05-.055h.473v-.275h-.54l-.025.024a.979.979 0 0 0 -.098.105l.14.202m1.184-.001h.663v-.33h-.662z"/><path d="m25.673 93.02h.662v-.33h-.662z"/><path d="m25.673 93.02h.662v-.33h-.662zm.662 0h.663v-.33h-.663zm1.325 0h.662v-.33h-.662zm.662 0h.662v-.33h-.662z"/><path d="m28.322 93.02h.662v-.33h-.662zm1.325 0h.662v-.33h-.662zm.662 0h.662v-.33h-.662z"/><path d="m30.309 93.02h.662v-.33h-.662zm.662 0h.662v-.33h-.662zm.662 0h.663v-.33h-.663zm.663 0h.662v-.33h-.662zm1.324 0h.662v-.33h-.662zm.662 0h.663v-.33h-.663zm.663 0h.662v-.33h-.662zm.662 0h.662v-.33h-.662z"/><path d="m35.607 93.02h.662v-.33h-.662zm1.324 0h.663v-.33h-.663z"/><path d="m36.931 93.02h.663v-.33h-.663zm1.325 0h.662v-.33h-.662zm.662 0h.662v-.33h-.662zm1.325 0h.662v-.33h-.662z"/><path d="m40.243 93.02h.662v-.33h-.662z"/></g><path d="m.078 1.94h9.786v-1.854h-9.786z" fill="#4b3324" mask="url(#e)" transform="translate(23.024 97.986)"/><path d="m23.686 98.979h.331v-.331h-.33zm.331-.969h-.33v-.024c.062.006.126.01.19.01h.14z" fill="#825c43"/><path d="m41.567 98.648h-.327v-.037h-.108v.037h-7.451v-.53h-.06 7.511v.176h.108v-.18a.633.633 0 0 0 .327-.128z" fill="#4b3324"/><path d="m40.905 98.774h.331v-.126h-.331zm.331-.457h-.331v-.326h.14c.065 0 .129-.002.191-.005v.33" fill="#825c43"/><path d="m23.679 98.648h17.233a.665.665 0 0 0 .655-.675v-5.283h-18.543v5.283c0 .373.293.675.655.675" fill="#654026"/><path d="m24.175 97.655h.174v-.189h-.174a.406.406 0 0 1 -.314-.142l-.175.11a.632.632 0 0 0 .49.22m.173.663h.662v-.331h-.662zm1.324 0h.662v-.331h-.662z" fill="#c1855a"/><path d="m25.673 98.317h.662v-.331h-.662z" fill="#c1855a"/><path d="m25.673 98.317h.662v-.331h-.662zm1.325 0h.662v-.331h-.662zm.662 0h.662v-.331h-.662zm.662 0h.662v-.331h-.662zm.662 0h.663v-.331h-.663z" fill="#c1855a"/><path d="m29.647 98.317h.662v-.331h-.662zm.662 0h.662v-.331h-.662zm.662 0h.662v-.331h-.662z" fill="#c1855a"/><path d="m30.971 98.317h.662v-.331h-.662zm1.325 0h.662v-.331h-.662zm.662 0h.662v-.331h-.662zm.662 0h.662v-.331h-.662zm.662 0h.663v-.331h-.663zm.663 0h.662v-.331h-.662zm.662 0h.662v-.331h-.662zm.663 0h.661v-.331h-.662z" fill="#c1855a"/><path d="m36.931 98.317h.663v-.331h-.663zm.663 0h.662v-.331h-.662zm.662 0h.662v-.331h-.662zm1.324 0h.663v-.331h-.663zm.663 0h.662v-.331h-.662z" fill="#c1855a"/><path d="m40.243 98.317h.662v-.331h-.662zm.662-.662h.002c.307 0 .579-.12.66-.293l-.236-.038c-.052.11-.226.188-.424.188zm-17.219.331h.331v-.662h-.33z" fill="#c1855a"/><path d="m40.905 97.986h.331v-.662h-.331zm-17.219-.662h.331v-.662h-.33zm17.219 0h.331v-.662h-.331z" fill="#c1855a"/><path d="m23.686 96.662h.331v-.662h-.33zm17.219-.662h.331v-.662h-.331zm-17.219 0h.331v-.662h-.33z" fill="#c1855a"/><path d="m40.905 96h.331v-.662h-.331zm-17.219-.662h.331v-.662h-.33z" fill="#c1855a"/><path d="m23.686 94.676h.331v-.662h-.33zm17.219 0h.331v-.662h-.331zm0-.662h.331v-.662h-.331zm-9.272-.994h.663v-.33h-.663zm.663 0h.662v-.33h-.662z" fill="#c1855a"/><path d="m31.254 99.31h1.42c.157 0 .284-.097.284-.218v-1.106h-1.988v1.106c0 .12.127.218.283.218" fill="#bcbec0"/><path d="m31.633 98.979a.331.331 0 1 0 .663 0 .331.331 0 0 0 -.663 0" fill="#808080"/><path d="m30.971 97.986v1.106c0 .12.13.218.29.218h1.456c.1 0 .19-.039.24-.097a.362.362 0 0 1 -.16.036h-1.454c-.16 0-.29-.097-.29-.217v-1.046z" fill="#8d8f90"/><path d="m32.875 98.123v1.065a.192.192 0 0 1 -.046.122c.078-.04.129-.109.129-.187v-1.137h-1.988v.137h1.904" fill="#d7d8d9"/><path d="m30.971 98.648h1.987v-5.958h-1.988z" fill="#4c301c"/><path d="m32.958 93.02h.331v-.33h-.331z" fill="#c1855a"/><path d="m32.958 93.05h.331v-.36h-.331zm0 .723h.331v-.361h-.331zm0 .722h.331v-.36h-.331zm0 .722h.331v-.36h-.331zm0 .723h.331v-.361h-.331v.36zm0 .722h.331v-.362h-.331v.36zm0 .993h.331v-.331h-.331zm-1.325-4.635h.331v-.33h-.33z" fill="#c1855a"/><path d="m31.633 93.05h.331v-.36h-.33v.36zm0 .723h.331v-.361h-.33v.361zm0 .722h.331v-.36h-.33v.36zm0 .722h.331v-.36h-.33v.36zm0 .723h.331v-.361h-.33v.36zm0 .722h.331v-.362h-.33v.36zm0 .993h.331v-.331h-.33z" fill="#c1855a"/><path d="m31.106 97.986h-.135.331z" fill="#3b2b22"/><path d="m31.302 97.986h-.33v-.753l.167-.053v-3.828h.163v4.188h-.156v.11h.156z" fill="#4b3324"/><path d="m30.971 98.317h.162v-.331h-.162z" fill="#825c43"/><path d="m30.971 97.986h.202z" fill="#7f7e80"/><path d="m31.173 97.986h-.202z" fill="#8f8e8f"/><path d="m30.971 97.986v-4.634z" fill="#3c291e"/><path d="m30.971 98.648h1.987v-1.324h-1.988z" fill="#bcbec0"/><path d="m30.971 98.648h.21v-1.324h-.21z" fill="#8d8f90"/><path d="m30.971 97.324h1.987v1.324h-.069v-1.13h-1.918z" fill="#d7d8d9"/><path d="m23.686 93.352h.331v-.662h-.33z" fill="#c1855a"/><path d="m23.686 93.02h.331v-.33h-.33zm17.219.332h.331v-.662h-.331z" fill="#c1855a"/><path d="m40.905 93.02h.331v-.33h-.331z" fill="#c1855a"/><path d="m41.567 93.352h-8.527v-.662h8.074v.238h.112v-.238h.341zm-10.069 0h-8.474v-.662h.34v.374h.113v-.374h8.074-.053z" fill="#74523a"/><path d="m30.971 93.352h1.987v-.662h-1.988v.662zm1.652-.409h.202v-.253h-.202zm-1.467 0h.202v-.253h-.202z" fill="#664935"/><path d="m32.958 93.02h.331v-.33h-.331zm-1.325 0h.331v-.33h-.33z" fill="#a47656"/><path d="m30.971 93.352h.168v-.662h-.168z" fill="#664b39"/><path d="m30.971 93.352v-.662z" fill="#5e4636"/><path d="m23.686 93.02h.331v-.33h-.33zm17.219 0h.331v-.33h-.331z" fill="#a47656"/><path d="m33.62 93.352h7.947v-.662h-7.947zm7.525-.253h.202v-.352h-.202z" fill="#69452b"/><path d="m30.971 93.352h1.987v-.662h-1.988v.662zm1.652-.205h.202v-.37h-.202zm-1.467 0h.202v-.37h-.202z" fill="#533722"/><path d="m32.958 93.352h.331v-.662h-.331zm-1.325 0h.331v-.662h-.33z" fill="#ba8159"/><path d="m23.024 93.352h7.947v-.662h-7.947zm.32-.158h.202v-.352h-.202z" fill="#69452b"/><path d="m30.971 93.352h.168v-.662h-.168z" fill="#523929"/><path d="m30.971 93.352v-.662z" fill="#453024"/><path d="m23.686 93.352h.331v-.662h-.33zm17.219 0h.331v-.662h-.331z" fill="#ba8159"/><path d="m34.9 91.11c-.003.121-.07.145-.093.147a.518.518 0 0 1 -.628-.468c-.029-.134-.05-.314-.087-.57-.045-.318-.046-.722-.094-.722l-.05 1c-.003.589-.706.701-.889.206v.194c-.002.626-.887.624-.885-.003l.001-.175c-.003.674-.953.672-.952-.003l.001-.305h-.006c-.088.597-.91.525-.91-.077 0-1.487 0-2.595.033-3.56l3.162-.042-.061.76c1.734 1.13 1.526 1.454 1.457 3.618" fill="#f0ae74"/><path d="m35.327 91.366c-.737 0-.785-.534-.785-.534-.042-.15-.074-.353-.128-.641-.064-.344-.07-.776-.131-.811.07.022.169.336.232.681.054.288.087.49.13.641 0 0 .047.534.784.534.046 0 .094-.002.145-.007.009 0 .02-.002.033-.007a.148.148 0 0 1 -.134.137c-.052.005-.1.007-.146.007" fill="#e5a36b"/><path d="m31.957 91.366c-.187-.08-.324-.23-.324-.452l.003-.187v-.005l-.002.191c0 .222.136.373.323.453m1-.495v-.167l.001.002z" fill="#8e7869"/><path d="m32.294 91.366a.953.953 0 0 1 -.338-.06c-.186-.072-.324-.21-.323-.411l.002-.174s.279.223.665.223c.198 0 .425-.06.657-.24v.086l-.001.107c-.002.313-.332.469-.662.469m.664-.659v-.002-.001z" fill="#e5a36b"/><path d="m31.633 92.028c.328 0 .657-.298.662-.893-.005.596-.334.893-.662.893m.663-.9v-.002zm-1.325-.349v-.075z" fill="#8e7869"/><path d="m30.971 90.877v-.173l.001.002v.171" fill="#9a6943"/><path d="m31.632 92.028a.591.591 0 0 1 -.321-.096c-.195-.126-.34-.377-.34-.751v-.477c.047.143.259.699.747.699.161 0 .352-.06.578-.217v.009c-.006.555-.335.833-.664.833m.664-.841" fill="#e5a36b"/><path d="m31.633 90.72v-.001-.015z" fill="#b88a66"/><path d="m31.633 90.72v-.013zm0-.014v-.002z" fill="#e09e67"/><path d="m30.98 91.366c-.29 0-.58-.229-.671-.662.09.433.382.661.671.661.28 0 .558-.213.653-.661-.095.448-.373.662-.653.662" fill="#8e7869"/><path d="m31.612 90.766a1.129 1.129 0 0 1 0 0m-1.262-.062h-.001a.351.351 0 0 1 -.04-.164v-.498l.001.001v.497c0 .06.014.114.04.164" fill="#9a6943"/><path d="m30.982 91.366a.657.657 0 0 1 -.646-.478.786.786 0 0 1 -.027-.21v-.636c.026.075.305.85.917.85a.92.92 0 0 0 .407-.105.86.86 0 0 1 -.021.1.637.637 0 0 1 -.63.479" fill="#e5a36b"/><path d="m33.718 91.366c.28 0 .561-.226.563-.646v-.016h.001v.015c-.001.422-.283.647-.564.647" fill="#d9ba9f"/><path d="m34.285 90.704h-.003l.173-1.317.005-.007z" fill="#9a6943"/><path d="m33.553 90.704a.997.997 0 0 1 -.113-.007c-.203-.023-.39-.11-.482-.264a.653.653 0 0 0 .139.013c.257 0 .812-.12 1.183-1.061l-.07.855v.011c-.002.295-.33.453-.657.453m.73-1.324" fill="#e5a36b"/><path d="m30.309 88.056h3.973v-1.324h-3.972z" fill="#fff"/><path d="m35.276 90.042-.04 1.324c-.416-.043-.373-1.319.04-1.324" fill="#f5e0cd"/></g></svg>