<svg height="208" viewBox="0 0 208 208" width="208" xmlns="http://www.w3.org/2000/svg" xmlns:xlink="http://www.w3.org/1999/xlink"><filter id="a" height="107%" width="107%" x="-3.5%" y="-2.5%"><feOffset dy="2" in="SourceAlpha" result="shadowOffsetOuter1"/><feGaussianBlur in="shadowOffsetOuter1" result="shadowBlurOuter1" stdDeviation="2"/><feColorMatrix in="shadowBlurOuter1" result="shadowMatrixOuter1" values="0 0 0 0 0.575520833 0 0 0 0 0.568492594 0 0 0 0 0.568492594 0 0 0 0.5 0"/><feMerge><feMergeNode in="shadowMatrixOuter1"/><feMergeNode in="SourceGraphic"/></feMerge></filter><mask id="b" fill="#fff"><path d="m2.151 1.406c-1.344.853-2.016 1.97-2.016 3.089v1.044c0 1.118.672 2.236 2.016 3.089 2.69 1.706 7.048 1.706 9.736 0 1.344-.853 2.016-1.97 2.016-3.09v-1.042c0-1.118-.672-2.237-2.016-3.09-1.344-.852-3.106-1.279-4.867-1.279s-3.523.427-4.868 1.28" fill="none"/></mask><mask id="c" fill="#fff"><path d="m.55.38c-.27.134-.403.31-.403.484v82.285c0 .174.134.35.403.483.538.267 1.41.267 1.948 0 .268-.134.403-.309.403-.483v-82.285c0-.175-.135-.35-.403-.484-.27-.133-.622-.2-.974-.2-.354 0-.705.067-.974.2" fill="none"/></mask><mask id="d" fill="#fff"><path d="m10.584.112-10.204 5.572a.54.54 0 0 0 -.262.426v7.7c0 .156.118.22.262.142l10.203-5.573a.54.54 0 0 0 .261-.426v-7.7c0-.11-.059-.175-.145-.175a.246.246 0 0 0 -.116.034" fill="none"/></mask><mask id="e" fill="#fff"><path d="m10.654.027-10.31 5.49a.53.53 0 0 0 -.265.42v7.599c.008.15.123.33.264.405l1.585.839a.63.63 0 0 0 .515.006c-.139.065-.25.003-.25-.146v-7.586a.53.53 0 0 1 .264-.42l10.31-5.49c.064-.033.12-.039.166-.024l-.207-.112-1.826-.966a.337.337 0 0 0 -.146-.04.208.208 0 0 0 -.1.025" fill="none"/></mask><mask id="f" fill="#fff"><path d="m.48 5.834 9.89-5.66a.444.444 0 0 1 .037-.019l.192.11v.001c-.045-.015-.1-.01-.16.025l-9.889 5.661a.553.553 0 0 0 -.254.433v7.822c0 .153.107.218.24.15a.043.043 0 0 1 -.006.004c-.079.044-.2.06-.314.044a.345.345 0 0 1 -.058-.198v-7.822" fill="none"/></mask><mask id="g" fill="#fff"><path d="m.017.284.833.578v-.172l-.833-.58z" fill="none"/></mask><mask id="h" fill="#fff"><path d="m.035.611v.217l.835-.371v-.217z" fill="none"/></mask><mask id="i" fill="#fff"><path d="m.013.31.624.58.314-.298-.625-.578z" fill="none"/></mask><mask id="j" fill="#fff"><path d="m.034.3.834.577v-.173l-.834-.578z" fill="none"/></mask><mask id="k" fill="#fff"><path d="m.07.507v.289l.833-.496v-.288z" fill="none"/></mask><mask id="l" fill="#fff"><path d="m.025.326.626.578.313-.297-.626-.577z" fill="none"/></mask><mask id="m" fill="#fff"><path d="m.083.582.43.396.482-.445-.43-.397z" fill="none"/></mask><mask id="n" fill="#fff"><path d="m.077.15v.378l.755.436v-.378a.32.32 0 0 0 -.144-.25l-.467-.27a.127.127 0 0 0 -.064-.02c-.047.001-.08.04-.08.104" fill="none"/></mask><mask id="o" fill="#fff"><path d="m.07.061h.001l.003-.003-.004.002" fill="none"/></mask><mask id="p" fill="#fff"><path d="m.104.302c.026-.02.069-.023.116-.002l.467.202c.08.034.144.119.144.187v.284l.119-.055v-.284c0-.068-.066-.153-.145-.187l-.468-.203a.164.164 0 0 0 -.063-.012.26.26 0 0 0 -.17.07" fill="none"/></mask><mask id="q" fill="#fff"><path d="m.172.532.763.33.857-.371-.762-.331z" fill="none"/></mask><mask id="r" fill="#fff"><path d="m.114.182v.284l.755.327v-.283c0-.07-.065-.154-.145-.188l-.467-.202a.164.164 0 0 0 -.063-.015c-.047 0-.08.029-.08.077" fill="none"/></mask><mask id="s" fill="#fff"><path d="m.098.131a.015.015 0 0 0 .002-.003c.001.001 0 .001-.003.002" fill="none"/></mask><mask id="t" fill="#fff"><path d="m.14.122c.027-.02.07-.023.118-.002l.467.202c.079.034.145.118.145.187v.284l.115-.055v-.283c0-.07-.065-.155-.144-.188l-.467-.203a.16.16 0 0 0 -.063-.011c-.063 0-.13.03-.17.07" fill="none"/></mask><mask id="u" fill="#fff"><path d="m3.368.234-2.866 1.489c-.256.132-.465.458-.465.723v1.514l.423-.22v-1.124c0-.207.162-.46.36-.563l2.228-1.158c.199-.103.361-.018.361.188v1.124l.422-.22v-1.512c0-.189-.105-.298-.257-.298a.453.453 0 0 0 -.206.057" fill="none"/></mask><mask id="v" fill="#fff"><path d="m3.303.08-2.713 1.487c-.242.133-.44.458-.44.724v1.512l.307.155v-1.512c0-.265.198-.591.44-.723l2.714-1.49c.119-.065.227-.071.306-.03l-.334-.168a.248.248 0 0 0 -.084-.014.411.411 0 0 0 -.196.057" fill="none"/></mask><mask id="w" fill="#fff"><path d="m.287.059c.003.01.007.021.007.033v.802l.486.093v-.785c0-.104-.122-.164-.299-.164a.975.975 0 0 0 -.194.022" fill="none"/></mask><mask id="x" fill="#fff"><path d="m.236.206v.284l.567.327v-.284a.24.24 0 0 0 -.109-.187l-.349-.202a.096.096 0 0 0 -.049-.015c-.035 0-.06.028-.06.077" fill="none"/></mask><mask id="y" fill="#fff"><path d="m.249.155.003-.003z" fill="none"/></mask><mask id="z" fill="#fff"><path d="m.009.146c.026-.02.068-.023.117-.003l.467.203c.079.035.144.118.144.187v.284l.116-.055v-.284c0-.069-.065-.153-.143-.187l-.468-.202a.16.16 0 0 0 -.062-.014c-.063 0-.13.03-.17.07" fill="none"/></mask><mask id="A" fill="#fff"><path d="m.018.276v.284l.755.327v-.283c0-.07-.065-.154-.143-.188l-.468-.202a.166.166 0 0 0 -.064-.015c-.047.001-.08.028-.08.077" fill="none"/></mask><mask id="B" fill="#fff"><path d="m.026.225.004-.003z" fill="none"/></mask><mask id="C" fill="#fff"><path d="m.044.216c.027-.02.07-.023.118-.002l.468.202c.08.035.144.118.144.188v.283l.116-.055v-.284c0-.069-.065-.153-.144-.187l-.468-.202a.159.159 0 0 0 -.064-.013.262.262 0 0 0 -.17.07" fill="none"/></mask><g fill="none" fill-rule="evenodd" filter="url(#a)" transform="translate(4 2)"><circle cx="100" cy="100" fill="#fff" r="100"/><path d="m15.714 192.714h149v-149h-149z"/><path d="m105.215 135.266-2.533-1.464 2.533-1.464 2.533 1.464zm5.065 2.928-2.533-1.464 2.533-1.464 2.533 1.464zm5.066 2.928-2.533-1.464 2.533-1.464 2.532 1.464zm5.064 2.928-2.532-1.464 2.533-1.464 2.533 1.464zm5.066 2.928-2.532-1.464 2.532-1.464 2.533 1.464z" fill="#fff"/><path d="m105.215 138.194-2.533-1.464 2.533-1.464 2.533 1.464zm5.065 2.928-2.533-1.464 2.533-1.464 2.533 1.464zm5.066 2.928-2.533-1.464 2.533-1.464 2.532 1.464zm5.065 2.928-2.533-1.464 2.533-1.464 2.533 1.464z" fill="#fff"/><path d="m108.214 136.714-2.5-1.5 2.5-1.5 2.5 1.5zm5 2-2.5-1.5 2.5-1.5 2.5 1.5zm4 4-2.5-1.5 2.5-1.5 2.5 1.5zm6 2-2.5-1.5 2.5-1.5 2.5 1.5zm-21-8-2.5-1.5 2.5-1.5 2.5 1.5z" fill="#af0000"/><path d="m108.214 138.714-2.5-1.5 2.5-1.5 2.5 1.5zm5 4-2.5-1.5 2.5-1.5 2.5 1.5zm4.001 2-2.5-1.5 2.5-1.5 2.5 1.5zm5.999 3-2.5-1.5 2.5-1.5 2.5 1.5z" fill="#af0000"/><path d="m115.35 143.554-.068-.109 1.365-.73.067.108-1.365.731zm-2.73 1.462-.068-.108 1.365-.731.067.108zm-2.73 1.463-.068-.109 1.365-.731.068.108zm-2.73 1.462-.067-.109 1.365-.73.067.107zm-2.73 1.462-.067-.109 1.365-.73.067.108-1.365.73zm-2.73 1.462-.067-.108 1.365-.731.067.108-1.364.731zm-2.73 1.462-.067-.108 1.365-.731.068.108-1.365.731zm-2.729 1.463-.067-.109 1.365-.731.067.108zm-2.73 1.462-.067-.109 1.365-.73.067.108-1.364.73zm-2.73 1.462-.067-.108 1.365-.731.068.108-1.365.731zm-3.144 3-.923-.5.923-.5.077.126-.69.374.69.374zm4.466 2.89-1.389-.778.067-.112 1.388.778zm2.777 1.555-1.389-.777.067-.113 1.388.779zm2.776 1.556-1.388-.778.067-.112 1.388.778zm2.777 1.555-1.388-.777.066-.112 1.389.778zm2.777 1.556-1.389-.778.067-.112 1.388.778zm2.777 1.555-1.389-.777.067-.112 1.388.777zm2.777 1.556-1.389-.778.067-.112 1.388.778zm2.776 1.555-1.388-.778.067-.111 1.388.777zm2.777 1.556-1.388-.778.066-.112 1.389.778zm2.777 1.555-1.388-.777.066-.112 1.389.777zm2.777 1.556-1.389-.778.067-.112 1.388.778zm2.777 1.555-1.389-.778.067-.112 1.388.778zm-16.298-39.16-.068-.109 1.365-.73.067.108-1.365.731zm-2.73 1.462-.068-.108 1.365-.732.067.11zm-2.73 1.462-.068-.108 1.365-.731.068.108zm-2.73 1.463-.067-.109 1.365-.731.067.108zm-2.73 1.462-.067-.109 1.365-.73.067.108-1.365.73zm-2.73 1.462-.067-.108 1.365-.731.067.108-1.364.731zm-2.73 1.462-.067-.108 1.365-.731.068.108-1.365.731zm-2.729 1.463-.067-.109 1.365-.731.067.108zm-2.73 1.462-.067-.109 1.365-.73.067.108-1.364.73zm-2.73 1.462-.067-.108 1.365-.731.068.108-1.365.731zm-2.567 2-.5-.784.046-.216.454.712.454-.712.046.216zm-33.111-19.11-1.389-.778.067-.112 1.388.778zm2.777 1.555-1.389-.777.067-.112 1.388.777zm2.776 1.556-1.388-.778.067-.112 1.388.778zm2.777 1.555-1.388-.777.066-.112 1.389.777zm2.777 1.556-1.389-.778.067-.112 1.389.778zm2.777 1.555-1.389-.777.067-.113 1.388.778zm2.777 1.556-1.389-.778.067-.112 1.388.778zm2.776 1.555-1.388-.777.067-.112 1.388.777zm2.777 1.556-1.388-.778.066-.112 1.389.778zm2.777 1.555-1.388-.777.066-.112 1.389.777zm2.777 1.556-1.389-.778.067-.112 1.389.777zm2.777 1.555-1.389-.778.067-.111 1.388.777zm30.672-12.072-.066-.117 1.394-.81.066.116zm-2.787 1.623-.067-.117 1.394-.811.067.116zm-2.788 1.622-.066-.116 1.393-.812.067.117zm-2.787 1.623-.067-.117 1.394-.811.067.116zm-2.788 1.622-.067-.116 1.394-.812.067.117zm-2.787 1.623-.067-.117 1.394-.811.066.116zm-2.788 1.622-.067-.116 1.394-.812.067.117zm-2.787 1.623-.067-.116 1.393-.811.067.116zm-2.788 1.623-.067-.117 1.394-.81.067.116-1.394.81zm-2.788 1.622-.067-.116 1.394-.811.067.116zm-2.787 1.623-.067-.117 1.394-.81.066.116-1.393.81zm-2.788 1.622-.067-.116 1.394-.811.067.116zm-2.788 1.623-.066-.117 1.393-.81.067.116zm-2.787 1.622-.067-.116 1.394-.812.067.117zm-2.788 1.623-.067-.117 1.394-.81.067.116-1.394.81zm-2.787 1.622-.067-.116 1.394-.812.066.117zm-2.788 1.623-.067-.117 1.394-.811.067.117zm-2.788 1.622-.066-.116 1.393-.812.067.117zm-2.787 1.623-.067-.117 1.394-.81.067.115zm-2.788 1.622-.067-.116 1.394-.812.067.117zm-2.787 1.623-.067-.117 1.394-.811.066.117-1.393.81zm-2.788 1.622-.067-.116 1.394-.811.067.116zm-6.067-41.001v2l3-2zm5 44h3l-3-2zm76 3v-2l-3 2z" fill="#fff"/><path d="m2.151 1.406c-1.344.853-2.016 1.97-2.016 3.089v1.044c0 1.118.672 2.236 2.016 3.089 2.69 1.706 7.048 1.706 9.736 0 1.344-.853 2.016-1.97 2.016-3.09v-1.042c0-1.118-.672-2.237-2.016-3.09-1.344-.852-3.106-1.279-4.867-1.279s-3.523.427-4.868 1.28" mask="url(#b)" transform="translate(73.714 128.714)"/><path d="m88.307 130.364c2.852 1.644 2.852 4.306 0 5.949-2.853 1.642-7.477 1.642-10.33 0-2.852-1.643-2.852-4.305 0-5.949 2.853-1.642 7.477-1.642 10.33 0" fill="#d4d4d4"/><path d="m107.166 59.233-23.836 13.726 1.003.566 23.836-13.725z" fill="#fafafa"/><path d="m84.333 73.525 23.836-13.726 3.422 2.207-3.422 6.146-23.836 13.726z" fill="#ababab"/><path d="m59.157 52.797 23.836 13.725-1.003.567-23.836-13.726z" fill="#fafafa"/><path d="m81.99 67.089-23.836-13.726-3.421 2.207 3.421 6.146 23.836 13.726z" fill="#d4d4d4"/><path d="m61.312 60.316a.581.581 0 0 0 -.1-.316 2.18 2.18 0 0 0 -.347-.386 4.263 4.263 0 0 1 -.657-.72 1.177 1.177 0 0 1 -.222-.67c0-.23.085-.368.255-.416s.386.004.65.156c.268.154.485.361.653.622.168.26.25.508.244.745l-.003.01-.473-.273a.72.72 0 0 0 -.113-.38.87.87 0 0 0 -.316-.302c-.13-.075-.231-.1-.302-.074-.072.026-.107.09-.107.195 0 .094.038.194.114.3.077.104.208.244.395.42.268.24.472.47.61.691.138.22.207.446.207.676 0 .24-.082.381-.247.425-.164.044-.38-.012-.65-.167a2.239 2.239 0 0 1 -.693-.635c-.197-.27-.293-.545-.287-.826l.003-.01.474.274c0 .167.045.314.133.443.089.128.212.238.37.329.132.076.234.103.304.08.07-.022.105-.085.105-.19m2.781-.469v1.858c0 .314-.09.505-.27.571-.181.067-.417.016-.709-.152a2.048 2.048 0 0 1 -.704-.66 1.582 1.582 0 0 1 -.268-.882v-1.858l.49.282v1.856a.92.92 0 0 0 .482.83c.153.087.272.111.36.07.086-.041.13-.154.13-.34v-1.857zm2.261 3.149.003.013c.005.304-.075.497-.24.58-.164.082-.392.04-.683-.129a1.918 1.918 0 0 1 -.713-.736 1.99 1.99 0 0 1 -.274-.994v-.556c0-.34.089-.567.267-.682.178-.116.41-.092.695.072.3.174.535.398.704.673.17.275.252.564.248.868l-.004.01-.474-.273c0-.185-.038-.348-.115-.49a.91.91 0 0 0 -.36-.355c-.145-.084-.261-.082-.347.005-.085.087-.128.236-.128.447v.56c0 .214.045.415.135.603s.212.327.366.415c.152.088.265.106.338.054.073-.053.11-.172.11-.358zm2.186 1.258.003.014c.005.304-.075.497-.24.58-.164.082-.392.039-.683-.13a1.917 1.917 0 0 1 -.713-.735 1.991 1.991 0 0 1 -.274-.994v-.556c0-.34.089-.567.267-.683.178-.115.41-.09.695.073.3.173.535.397.704.672.17.275.252.565.248.869l-.004.01-.474-.274c0-.184-.038-.348-.115-.49a.91.91 0 0 0 -.36-.354c-.145-.084-.26-.082-.347.005-.085.087-.128.236-.128.447v.56c0 .213.045.415.135.603s.212.327.366.415c.152.088.265.106.338.054.073-.053.11-.172.11-.358zm1.845.786-1.007-.58v.798l1.178.678v.433l-1.665-.959v-2.8l1.661.957v.432l-1.174-.676v.704l1.007.58zm1.782 1.526a.581.581 0 0 0 -.1-.317 2.174 2.174 0 0 0 -.347-.385 4.257 4.257 0 0 1 -.657-.72 1.176 1.176 0 0 1 -.222-.67c0-.23.085-.369.255-.416.17-.048.386.004.65.156.268.154.485.36.653.621.168.26.25.509.244.745l-.003.01-.473-.272a.72.72 0 0 0 -.113-.38.868.868 0 0 0 -.316-.302c-.13-.075-.231-.1-.302-.074s-.107.09-.107.194c0 .095.038.195.114.3.077.105.208.245.395.42.268.241.472.471.61.692.138.22.207.446.207.675 0 .24-.082.382-.246.426-.165.044-.381-.012-.651-.167a2.243 2.243 0 0 1 -.693-.635c-.197-.27-.293-.546-.287-.826l.003-.01.474.274c0 .166.045.314.133.442.089.129.212.239.37.33.133.076.234.103.304.08.07-.022.105-.086.105-.19m2.17 1.248a.581.581 0 0 0 -.1-.316 2.174 2.174 0 0 0 -.348-.386 4.24 4.24 0 0 1 -.656-.72 1.176 1.176 0 0 1 -.223-.67c0-.23.086-.368.255-.416.17-.048.387.004.65.156.268.154.486.361.654.621s.25.509.243.746l-.003.01-.472-.273a.72.72 0 0 0 -.113-.38.868.868 0 0 0 -.317-.302c-.13-.075-.23-.1-.302-.074-.071.026-.107.09-.107.195 0 .094.038.194.115.299.076.105.208.245.395.42.268.241.471.472.61.692.137.22.206.446.206.675 0 .24-.082.382-.246.426s-.381-.012-.65-.167a2.244 2.244 0 0 1 -.694-.635c-.197-.27-.292-.546-.287-.826l.003-.01.475.274c0 .166.044.314.132.442.089.13.212.239.37.33.133.076.234.103.304.08.07-.022.106-.085.106-.19" fill="#566666"/><path d="m.55.38c-.27.134-.403.31-.403.484v82.285c0 .174.134.35.403.483.538.267 1.41.267 1.948 0 .268-.134.403-.309.403-.483v-82.285c0-.175-.135-.35-.403-.484-.27-.133-.622-.2-.974-.2-.354 0-.705.067-.974.2" fill="#d8d8d8" mask="url(#c)" transform="translate(81.714 49.714)"/><path d="m83.846 50.097c.464.27.464.705 0 .974-.463.269-1.215.269-1.68 0-.463-.269-.463-.705 0-.974.465-.268 1.217-.268 1.68 0" fill="#fafafa"/><path d="m82.859 71.805-23.723 13.749-3.405-2.21 3.405-6.158 23.723-13.749z" fill="#ababab"/><path d="m82.859 63.437-1-.567-23.722 13.75-3.404 6.156.998.567 3.405-6.157z" fill="#fafafa"/><path d="m87.256 77.621-.485.281v-2.805l.485-.28zm.969-2.933v1.938l.32-.186c.175-.1.311-.248.41-.44.098-.194.148-.4.148-.62v-.467c0-.217-.05-.365-.148-.444-.099-.079-.235-.068-.41.033zm-.485 2.653v-2.805l.83-.482c.297-.171.54-.203.732-.095s.288.333.288.676v.464c0 .345-.096.681-.288 1.01a2.017 2.017 0 0 1 -.731.75zm3.718-3.388-1.002.58v.8l1.171-.679v.434l-1.657.96v-2.805l1.654-.958v.433l-1.168.677v.705l1.002-.58zm1.035-.413.61-.354-.299-.928-.01.005-.3 1.277zm.73.018-.85.492-.164.7-.49.285.832-3.288.497-.288.83 2.325-.49.284zm2.187-1.395c0-.108-.033-.175-.099-.203-.066-.027-.181-.021-.346.016-.289.071-.506.083-.653.036-.148-.047-.222-.185-.222-.415s.085-.467.254-.71c.169-.244.385-.442.647-.594.266-.155.483-.198.65-.132.167.067.248.222.243.466l-.003.013-.47.273c0-.13-.038-.213-.113-.25s-.18-.016-.315.062a.878.878 0 0 0 -.3.275.578.578 0 0 0 -.107.317c0 .095.038.151.114.169.076.017.207.005.393-.035.267-.068.469-.072.606-.01.138.061.206.207.206.437 0 .24-.081.477-.245.71-.163.234-.379.428-.647.584-.264.153-.494.207-.69.164-.196-.044-.291-.21-.286-.496l.004-.014.472-.274c0 .167.044.264.132.29.088.028.21-.005.368-.096a.903.903 0 0 0 .302-.27.555.555 0 0 0 .105-.313" fill="#566666"/><path d="m82.859 97.718-23.723 13.749-3.405-2.21 3.405-6.157 23.723-13.75z" fill="#ababab"/><path d="m82.859 89.35-1-.567-23.722 13.75-3.404 6.156.998.567 3.405-6.156z" fill="#fafafa"/><path d="m83.329 64.47 23.722 13.75 3.405-2.21-3.404-6.157-23.723-13.75z" fill="#d4d4d4"/><path d="m83.329 56.103.999-.567 23.722 13.75 3.405 6.156-.999.568-3.404-6.157z" fill="#fafafa"/><path d="m83.329 87.938 23.722 13.75 3.405-2.211-3.404-6.157-23.723-13.75z" fill="#d4d4d4"/><path d="m83.329 79.57.999-.567 23.722 13.75 3.405 6.156-.999.568-3.404-6.157z" fill="#fafafa"/><path d="m86.704 62.897.003.014c.004.304-.075.498-.239.58-.163.082-.39.04-.68-.129a1.916 1.916 0 0 1 -.71-.736 2.005 2.005 0 0 1 -.273-.997v-.556c0-.34.09-.569.266-.684.178-.116.408-.092.692.073.299.173.533.398.701.673.169.276.25.566.246.87l-.003.01-.472-.274c0-.185-.039-.349-.115-.491a.908.908 0 0 0 -.357-.355c-.145-.084-.26-.082-.346.005-.085.087-.128.237-.128.448v.56c0 .215.045.416.135.605s.21.327.364.416c.151.088.264.106.336.053.073-.052.11-.171.11-.358zm.834-.115.419.242c.136.08.238.105.305.077s.1-.108.1-.239a.711.711 0 0 0 -.1-.364.796.796 0 0 0 -.297-.286l-.427-.247zm0 .433v1.121l-.485-.281v-2.805l.912.529c.276.16.492.358.647.593.156.237.234.485.234.746 0 .145-.033.25-.098.317-.066.066-.161.094-.288.085.143.132.246.273.309.424.062.15.093.31.093.478v.206c0 .078.01.166.028.262a.66.66 0 0 0 .094.244v.04l-.5-.29a.594.594 0 0 1 -.087-.256c-.013-.104-.02-.199-.02-.285v-.198a.742.742 0 0 0 -.377-.662zm3.252 1.773-1.002-.58v.8l1.172.678v.434l-1.657-.96v-2.806l1.654.959v.433l-1.169-.677v.705l1.002.58zm1.036.787.61.354-.3-1.276-.01-.005zm.73.864-.85-.492-.164.51-.49-.284.832-2.323.497.288.83 3.286-.49-.284-.166-.7zm2.553-.287-.685-.397v2.372l-.486-.281v-2.372l-.681-.395v-.433l1.852 1.073zm.786 2.828-.486-.282v-2.805l.486.282zm1.305.01.03.17.01.006.027-.132.527-1.759.512.297-.823 2.329-.498-.29-.821-3.28.512.296zm1.86 1.824-.486-.281v-2.806l.485.282zm2.155-1.122-.685-.397v2.371l-.485-.281v-2.372l-.682-.395v-.433l1.852 1.073zm1.145 1.522.01.006.528-.986.532.308-.83 1.337v.987l-.484-.28v-1.016l-.816-2.263.531.308zm-41.163 36.064-.485.282v-2.806l.485-.281zm2.44-1.414-.483.28-.978-1.35-.01.007v1.916l-.485.28v-2.804l.485-.282.978 1.349.01-.008v-1.913l.483-.28zm2.41-1.397-.483.28-.978-1.35-.01.008v1.915l-.485.281v-2.805l.486-.281.977 1.348.01-.007v-1.914l.483-.28zm1.915-2.767c0-.218-.047-.37-.141-.456s-.224-.081-.39.015a.952.952 0 0 0 -.383.431c-.09.193-.137.399-.137.619v.51c0 .222.047.377.139.464s.22.083.384-.012a.97.97 0 0 0 .388-.436c.094-.194.14-.403.14-.625zm.485.226c0 .344-.093.683-.281 1.017a1.975 1.975 0 0 1 -.732.761c-.299.173-.54.201-.727.084-.186-.117-.28-.347-.28-.692v-.504c0-.343.094-.681.28-1.014.185-.333.427-.586.725-.759.3-.174.544-.203.733-.086.188.116.282.345.282.688zm1.159-.266.03.134.01-.006.028-.164.527-2.37.512-.296-.823 3.282-.499.29-.82-2.33.511-.297zm1.678-1.274.61-.354-.299-.928-.01.006-.3 1.276zm.73.018-.85.492-.164.7-.49.285.833-3.288.497-.288.829 2.325-.49.284zm2.553-3.246-.685.397v2.371l-.485.282v-2.372l-.682.395v-.434l1.852-1.073zm.786 1.916-.485.281v-2.805l.485-.281zm1.945-2.784c0-.22-.047-.372-.142-.457-.094-.086-.223-.08-.388.015a.95.95 0 0 0 -.384.432c-.091.192-.137.398-.137.618v.51c0 .222.046.377.138.464s.22.083.384-.012a.97.97 0 0 0 .39-.436 1.43 1.43 0 0 0 .139-.625v-.51zm.485.225c0 .345-.094.683-.282 1.017a1.975 1.975 0 0 1 -.732.762c-.298.172-.54.2-.726.083s-.28-.347-.28-.691v-.505c0-.343.093-.68.28-1.014.185-.333.427-.586.725-.759.3-.174.544-.203.732-.086.189.116.283.346.283.689zm2.335-.203-.483.28-.978-1.35-.01.008v1.915l-.485.28v-2.804l.485-.281.978 1.348.01-.008v-1.913l.483-.28zm-13.386-18.501a2.192 2.192 0 0 1 -.336.49 2.27 2.27 0 0 1 -.578.464c-.296.171-.537.205-.725.1-.187-.104-.28-.327-.28-.667v-.586c0-.34.09-.668.27-.986s.411-.56.695-.724c.295-.17.52-.218.677-.143.157.076.237.248.24.517l-.003.013-.457.265c-.009-.143-.05-.238-.123-.282s-.18-.026-.32.056a.92.92 0 0 0 -.36.407c-.09.186-.136.383-.136.592v.59c0 .212.047.358.141.436.095.078.221.071.381-.021.113-.066.204-.132.273-.199a.926.926 0 0 0 .156-.19v-.519l-.429.249v-.39l.914-.53zm1.905-1.953-1.002.58v.8l1.171-.679v.434l-1.657.96v-2.805l1.654-.959v.434l-1.168.677v.705l1.002-.58zm2.423-.172-.484.28-.977-1.35-.01.008v1.915l-.485.281v-2.805l.485-.281.978 1.348.01-.007v-1.913l.483-.28zm.97-.561-.486.281v-2.805l.485-.281zm2.397-4.195v1.86c0 .315-.09.61-.269.885-.18.275-.414.497-.705.665-.289.167-.522.217-.7.15-.178-.068-.267-.26-.267-.574v-1.861l.487-.282v1.86c0 .184.043.298.128.34s.203.02.352-.067a.993.993 0 0 0 .358-.343.92.92 0 0 0 .13-.492v-1.86zm1.731 1.07c0-.108-.033-.176-.1-.203-.065-.027-.18-.022-.346.016-.288.07-.506.083-.653.036s-.221-.186-.221-.416.084-.466.253-.71c.17-.244.385-.442.648-.594.266-.154.482-.198.65-.13.167.066.248.221.242.464l-.003.014-.47.272c0-.13-.038-.212-.113-.25-.074-.036-.18-.016-.315.063a.876.876 0 0 0 -.3.274.577.577 0 0 0 -.107.318c0 .095.038.151.114.168s.207.006.393-.034c.267-.069.47-.072.607-.01.137.061.206.207.206.437 0 .24-.082.477-.245.71-.164.234-.38.428-.648.584-.263.152-.493.207-.69.163-.196-.043-.29-.209-.285-.496l.003-.013.472-.274c0 .167.044.264.132.29.088.027.211-.005.368-.096a.902.902 0 0 0 .303-.27.555.555 0 0 0 .105-.313m9.855 13.42v.808l.447.26c.129.074.227.098.294.073.068-.026.102-.102.102-.229a.75.75 0 0 0 -.087-.364.696.696 0 0 0 -.272-.267l-.484-.28zm0-.388.349.202c.13.075.23.102.3.08.069-.02.104-.09.104-.208a.601.601 0 0 0 -.106-.349.95.95 0 0 0 -.315-.274l-.332-.193zm-.485 1.348v-2.805l.817.474c.285.165.507.358.667.579.16.22.24.46.24.715 0 .13-.03.228-.09.296-.059.068-.145.095-.258.08.145.12.254.26.326.42.073.161.11.319.11.474 0 .269-.077.428-.23.477-.153.05-.37-.007-.65-.17zm2.669-.008.419.243c.136.08.238.105.305.077s.1-.107.1-.238a.71.71 0 0 0 -.1-.365.795.795 0 0 0 -.297-.286l-.427-.247zm0 .434v1.121l-.485-.281v-2.806l.912.529c.276.16.492.357.647.593.156.237.234.485.234.746 0 .145-.033.25-.098.317-.066.066-.161.094-.288.085.143.132.246.273.309.424.062.15.093.31.093.478v.206c0 .078.01.166.028.262a.66.66 0 0 0 .094.244v.04l-.5-.29a.594.594 0 0 1 -.087-.256 2.263 2.263 0 0 1 -.02-.285v-.198a.74.74 0 0 0 -.377-.662l-.462-.268zm2.333 1.428.61.353-.299-1.275-.01-.006-.3.928zm.73.864-.85-.493-.164.51-.49-.284.833-2.323.496.288.83 3.286-.49-.284zm1.396 1.414-.485-.281v-2.806l.485.282zm2.44 1.414-.484-.28-.977-2.484-.01-.004v1.915l-.485-.28v-2.806l.485.281.977 2.482.01.004v-1.914l.484.28zm1.76.288a.585.585 0 0 0 -.099-.318 2.18 2.18 0 0 0 -.346-.385 4.254 4.254 0 0 1 -.654-.722 1.185 1.185 0 0 1 -.22-.671c0-.23.084-.37.253-.417.17-.048.385.005.647.157.266.154.483.361.65.622.167.26.248.51.243.746l-.004.01-.47-.272a.727.727 0 0 0 -.112-.38.867.867 0 0 0 -.315-.303c-.13-.076-.23-.1-.3-.075-.072.026-.107.09-.107.195 0 .095.038.195.114.3.075.105.207.246.393.422.267.24.469.471.606.692.138.221.206.446.206.676 0 .24-.081.383-.245.426-.163.045-.379-.011-.647-.166a2.235 2.235 0 0 1 -.69-.636c-.196-.271-.291-.547-.286-.828l.004-.01.472.274c0 .167.044.315.132.444s.21.239.368.33c.132.076.233.103.302.08.07-.022.105-.086.105-.191m2.524-.176-.684-.397v2.371l-.485-.281v-2.372l-.682-.395v-.433l1.852 1.073zm1.678 1.686c0-.219-.047-.426-.142-.62a.978.978 0 0 0 -.388-.436c-.166-.096-.294-.1-.384-.014-.091.087-.137.241-.137.461v.51c0 .222.046.43.138.624s.22.338.384.433c.166.096.296.101.39.015.092-.086.139-.241.139-.464v-.51zm.485.788c0 .345-.094.575-.282.69-.187.116-.431.087-.732-.087a1.951 1.951 0 0 1 -.726-.758 2.056 2.056 0 0 1 -.28-1.015v-.505c0-.343.094-.573.279-.691.186-.118.428-.09.726.082.3.174.544.429.733.763.188.335.282.674.282 1.016zm.864.097.42.242c.136.08.237.105.304.077s.1-.107.1-.239a.712.712 0 0 0 -.1-.364.796.796 0 0 0 -.296-.286l-.428-.247zm0 .433v1.121l-.485-.28v-2.806l.913.529c.276.16.491.358.647.594s.233.484.233.745c0 .145-.032.25-.098.317-.065.066-.16.094-.287.085.143.132.245.273.308.424.063.15.094.31.094.478v.206c0 .079.01.166.027.262.019.096.05.177.094.244v.04l-.5-.29a.597.597 0 0 1 -.087-.256 2.26 2.26 0 0 1 -.02-.285v-.198a.744.744 0 0 0 -.377-.662zm2.399-.294.616 2.425.01.006.622-1.707.635.368v2.805l-.486-.281v-.837l.047-1.211-.01-.008-.648 1.701-.326-.189-.645-2.443-.01-.004.047 1.259v.836l-.486-.281v-2.807z" fill="#566666"/><path d="m139.624 131.154c-.168 1.86-1.803 2.755-3.315 3.447a8.738 8.738 0 0 1 -1.024.308c-.988.263-1.96.257-2.932.147a24.606 24.606 0 0 1 -1.462-.22c-2.283-.33-4.958-.927-6.899.651-.375.23-.753.463-1.153.653s-.82.339-1.283.4c-.455.068-.919.09-1.387.081-1.407-.026-2.856-.325-4.193-.623-1.04-.299-1.932-1.194-2.359-2.117a2.727 2.727 0 0 1 -.24-1.234c.018-.44.14-.91.394-1.401 2.205-2.857 6.069-3.453 9.268-2.38.43.08.862.151 1.294.21 1.296.18 2.595.246 3.882.056a9.318 9.318 0 0 0 1.283-.282 12.525 12.525 0 0 1 4.234-1.316 9.589 9.589 0 0 1 1.528-.064c1.818.024 3.898 1.218 4.416 3.055.009.2-.009.409-.052.63" fill="#5c5c5c"/><path d="m121.67 103.762s-.496 1.237-.707 1.967c-.212.729-.019 2.077.353 2.75.373.674.4 1.016.713.887.313-.13.24-.517.276-.61.037-.092-.009-.304.157-.433.165-.13.469-.665.469-.877 0-.213-.047-.49 0-.831.045-.342.68-1.56.56-2.142-.12-.581.015-1.56.015-1.56l-1.835.85z" fill="#f2a983"/><path d="m121.358 106.366c.065.027.156.784.193 1.199s.368.785.524.795c.157.009.313-.545.166-1.31-.147-.766-.101-.887.448-1.617.55-.729.205-1.458.196-1.514 0 0-.08-.294-.171-.64l.792-.366s-.134.979-.015 1.56c.12.582-.515 1.8-.56 2.142-.046.341 0 .618 0 .83 0 .213-.304.748-.47.878-.165.13-.119.341-.156.434-.034.084.024.415-.205.57-.242-.49-.547-1.1-.742-1.429-.285-.48-.065-1.56 0-1.532" fill="#d88f69"/><path d="m121.403 104.26-.121.433s.701.798 1.529.955c.828.159.43-1.105.43-1.105z" fill="#d5dce0"/><path d="m116.109 133.542c-.517-.44-.122-1.202.581-2.018.704-.816 2.99-2.195 3.616-3.09 0 0 1.517.575 2.682-.518 0 0 .956.673.538 2.516 0 0-.465.254-.912.417-.446.165-1.05.261-1.461.598-.825.673-1.539 1.765-2.594 2.13-1.055.364-2.19.188-2.45-.035" fill="#313131"/><path d="m115.882 133.15c.024.149.096.28.227.392.26.223 1.395.399 2.45.034 1.055-.364 1.77-1.456 2.593-2.129.413-.337 1.016-.433 1.462-.597.447-.164.912-.418.912-.418v.591s-.465.254-.912.418c-.29.107-.648.186-.976.32l.01-.359c-.179.074-.35.162-.496.282-.824.673-1.538 1.765-2.593 2.13-1.055.363-2.19.187-2.45-.035a.655.655 0 0 1 -.227-.629" fill="#181818"/><path d="m133.777 134.023c-.536.037-1.444-.259-1.278-2.025.167-1.766.389-3.086.389-3.086s-.167-.484.889-.595c1.055-.112 1.24 1.041 1.482.967.24-.075.185-1.45.185-1.45s.333.817.351 1.45c.019.632.667 4.55-2.018 4.739" fill="#313131"/><path d="m133.777 134.023c2.685-.188 2.037-4.107 2.018-4.74a2.783 2.783 0 0 0 -.047-.413c.055.222.1.463.106.683.018.632.666 4.551-2.019 4.738-.434.03-1.113-.158-1.266-1.171.223.777.815.93 1.208.903" fill="#181818"/><path d="m120.717 120.183c.23-2.97.361-5.962.736-8.765s2.23-8.764 2.23-8.764c.77 1.025 2.156 1.355 3.048 1.52 3.819.702 6.036-1.248 6.036-1.248.855 3.493.938 6.38 1.188 8.89s.813 4.999 1.313 6.923c.5 1.925.61 9.393.61 9.393s-.683 2.415-1.85 2.457-1.852-1.931-1.852-1.931-.555-4.71-1.284-8.099c-.73-3.389-1.938-6.63-2.417-8.869-.198-.926-.525-1.537-.823-2.863-.587 2.129-1.411 4.444-1.531 5.248-.188 1.255-.71 5.627-.792 7.195-.084 1.57-1.702 8.452-1.702 8.452-2.847.336-4.525-.155-4.525-.155s1.386-6.414 1.615-9.384" fill="#0d242b"/><path d="m126.731 104.173c-.878-.161-2.233-.485-3.011-1.473l.822-11.198 1.158-3.308s1.062-1.243 1.062-1.13c0 .114-.143 1.119 1.248 1.321s3.23-.8 3.23-.8l.39.39v15.63l-.003.017c-1.018.477-2.69.957-4.896.551" fill="#f2f2f2"/><path d="m128.01 86.05s-1.75 1.113-2.537 5.408c-1.018 5.552-1.284 13.758-1.913 15.234-.536 1.258-1.601.75-1.601.75s1.459-5.771 1.436-7.397c-.022-1.625.314-8.57.426-10.21.143-2.075 1.725-3.514 1.725-3.514s.363-.062.49-.08c.491-.07 1.974-.191 1.974-.191" fill="#12252b"/><path d="m122.633 95.594c.083-1.35.408-5.076 1.154-7.413.43-1.347 1.184-1.749 1.747-1.848-.143.134-1.578 1.53-1.713 3.503-.112 1.64-.448 8.584-.426 10.21.013.942-.472 3.28-.882 5.078-.833-.125-1.231-.758-1.231-.758s1.268-7.42 1.351-8.772" fill="#0d242b"/><path d="m131.235 84.785c-.304.454-.649.84-.987 1.112-.728.583-1.84 1.07-2.707 1.154-.263.006-.342.63-.454 1.206-.146.752 1.723 1.23 3.075.453 1.353-.777 1.614-1.782 1.614-1.782s-.656-1.16-.54-2.143" fill="#d88f69"/><path d="m131.235 84.785c-.304.454-.649.84-.987 1.112-.728.583-1.84 1.07-2.707 1.154.014.036.029.08.044.13.415-.015 1.227-.092 2.022-.453.818-.37 1.51.4 1.83.857.266-.378.339-.657.339-.657s-.656-1.16-.54-2.143" fill="#d88f69"/><path d="m127.278 89.712-.305-.844 1.037-.483.605 1.161-.042.022-.882.466c-.178 1.14-.854 8.374-.718 12.265l-.89.91-.61-1.272s.138-8.066 1.805-12.225" fill="#b61617"/><path d="m126.646 86.816.871.202s-.307.754.493 1.367l-1.463 1.161s.038-1.752.1-2.73m4.851-.807s-1.757 2.084-3.488 2.376l.714 1.994 3.714-3.162z" fill="#fff"/><path d="m124.649 97.46-.145-8.065 1.009-.004-.42-1.327s.883-1.749 2.526-2.85l.97.355s-1.865.606-2.9 4.913c-.416 1.733-.755 4.366-1.04 6.978" fill="#223b42"/><path d="m130.956 79.528c-.91-.614-2.348-.547-3.362.142-1.014.688-1.283 1.52-1.372 1.893-.09.375-.201.696-.29.98-.09.285.204.641.204.641-.319.402-.071 1.355-.005 1.586a.517.517 0 0 0 -.053.217c.013.141.088.207.179.237.07.31.13.674.13.83 0 .23-.031.995.864 1.01.894.015 2.184-.516 2.997-1.167.812-.652 1.662-1.969 1.908-3.286s-.29-2.47-1.2-3.083" fill="#f2a983"/><path d="m126.131 84.77c.126-.303.432-.773.516-1.08.109-.396-.68-.793-.68-.793.065.162.168.287.168.287-.318.402-.07 1.355-.004 1.586" fill="#d88f69"/><path d="m130.956 79.528c-.91-.614-2.348-.547-3.362.142-.807.547-1.142 1.185-1.29 1.611.135.31.322.55.585.607.89.192 1.726-.087 2.176.048.341.102.514.75.552 1.336s.402.788.288 1.441c-.1.567-.898 1.414-1.12 2.015a5.874 5.874 0 0 0 1.463-.831c.812-.652 1.662-1.969 1.908-3.286s-.29-2.47-1.2-3.083" fill="#f2a983"/><path d="m131.063 79.107c-1.404-.984-3.051-.587-3.907 0-.3.206-.638.52-1.002 1.18-.3.542-.306 1.649.962 1.748.686.054 1.595-.08 2.284-.213.744.484.448 1.279.548 1.545s.209.606.377.702c.102.06.296-.11.346-.167.121-.14.966-1.122 1.02.09.212-.44.377-.91.466-1.38.036-.197.055-.39.058-.577.237-.477.201-1.98-1.152-2.928" fill="#563317"/><path d="m129.948 83.367c.1.266.209.606.377.702.102.06.296-.11.346-.167.121-.14.966-1.122 1.02.09.212-.44.377-.91.465-1.38.037-.197.056-.39.06-.577-.795.411-1.775.558-2.304.61.038.305-.016.584.036.722" fill="#634024"/><path d="m126.762 86.946c.077-1.113-.129-1.675-.129-1.675-.012-.049-.218.006-.376-.047.07.31.13.674.13.83 0 .176-.018.665.375.892" fill="#d88f69"/><path d="m130.614 85.007c.11.07.363.171.856-.359.494-.53.485-1.03.24-1.197-.244-.167-.48-.066-.607.127-.126.193-.489 1.43-.489 1.43" fill="#f2a983"/><path d="m130.614 85.007c.11.07.363.171.856-.359.494-.53.485-1.03.24-1.197-.244-.167-.48-.066-.607.127-.126.193-.489 1.43-.489 1.43" fill="#f2a983"/><path d="m129.236 90.904c.706-1.78 1.668-3.252 2.176-4.088.27-.443.085-.807.085-.807l1.153.937-.033.1 2.982 2.147-.284 4.82s-2.58 5.023-2.48 5.762c.063.466.224 2.21.335 3.434 0 0 1.786 2.435 1.913 3.345.232 1.668-.918 3.498-.918 3.498l-1.278-2.61-1.988-1.95c-2.277-3.689-3.013-12.027-1.663-14.588" fill="#12252b"/><path d="m132.617 87.046-1.319 4.051-1.24.341.652 1.316s-1.273 2.662-1.58 7.758v-.001c-.767-3.722-.784-7.92.106-9.607.706-1.78 1.668-3.252 2.176-4.088.27-.443.085-.807.085-.807l1.153.937zm-.644 17.248 2.612 1.86s4.29-6.86 4.546-8.375c.257-1.515-2.49-7.5-3.231-8.348-.742-.849-3.138-.581-2.981 2.06.156 2.64 2.828 6.22 2.828 6.22z" fill="#223b42"/><path d="m132.015 104.324 2.137 1.52-.184.309-2.082-1.657z" fill="#d5dce0"/><path d="m131.886 104.496 1.777 1.414c-.31.588-.776 1.531-.776 1.531l-1.988-1.949c.22-.399.622-.744.987-.996" fill="#f2a983"/><path d="m10.584.112-10.204 5.572a.54.54 0 0 0 -.262.426v7.7c0 .156.118.22.262.142l10.203-5.573a.54.54 0 0 0 .261-.426v-7.7c0-.11-.059-.175-.145-.175a.246.246 0 0 0 -.116.034" mask="url(#d)" transform="translate(138.714 119.714)"/><path d="m10.654.027-10.31 5.49a.53.53 0 0 0 -.265.42v7.599c.008.15.123.33.264.405l1.585.839a.63.63 0 0 0 .515.006c-.139.065-.25.003-.25-.146v-7.586a.53.53 0 0 1 .264-.42l10.31-5.49c.064-.033.12-.039.166-.024l-.207-.112-1.826-.966a.337.337 0 0 0 -.146-.04.208.208 0 0 0 -.1.025" mask="url(#e)" transform="translate(136.714 117.714)"/><path d="m.48 5.834 9.89-5.66a.444.444 0 0 1 .037-.019l.192.11v.001c-.045-.015-.1-.01-.16.025l-9.889 5.661a.553.553 0 0 0 -.254.433v7.822c0 .153.107.218.24.15a.043.043 0 0 1 -.006.004c-.079.044-.2.06-.314.044a.345.345 0 0 1 -.058-.198v-7.822a.69.69 0 0 1 .323-.55" mask="url(#f)" transform="translate(138.798 118.248)"/><path d="m137.83 132.023v-7.986c0-.248.17-.539.389-.663l9.831-5.628.07.04-9.87 5.65a.665.665 0 0 0 -.306.522l-.032 6.767.019 1.355z" fill="#2e373a"/><path d="m.017.284.833.578v-.172l-.833-.58z" mask="url(#g)" transform="translate(137.714 121.714)"/><path d="m.035.611v.217l.835-.371v-.217z" mask="url(#h)" transform="translate(139.714 121.714)"/><path d="m.013.31.624.58.314-.298-.625-.578z" mask="url(#i)" transform="translate(137.714 121.714)"/><path d="m.034.3.834.577v-.173l-.834-.578z" mask="url(#j)" transform="translate(146.714 119.714)"/><path d="m.07.507v.289l.833-.496v-.288z" mask="url(#k)" transform="translate(147.714 119.714)"/><path d="m.025.326.626.578.313-.297-.626-.577z" mask="url(#l)" transform="translate(146.714 119.714)"/><path d="m.083.582.43.396.482-.445-.43-.397z" mask="url(#m)" transform="translate(139.714 119.714)"/><path d="m.077.15v.378l.755.436v-.378a.32.32 0 0 0 -.144-.25l-.467-.27a.127.127 0 0 0 -.064-.02c-.047.001-.08.04-.08.104" mask="url(#n)" transform="translate(140.714 119.714)"/><path d="m.07.061h.001l.003-.003-.004.002" mask="url(#o)" transform="translate(140.714 119.714)"/><path d="m.104.302c.026-.02.069-.023.116-.002l.467.202c.08.034.144.119.144.187v.284l.119-.055v-.284c0-.068-.066-.153-.145-.187l-.468-.203a.164.164 0 0 0 -.063-.012.26.26 0 0 0 -.17.07" mask="url(#p)" transform="translate(140.714 119.714)"/><path d="m.172.532.763.33.857-.371-.762-.331z" mask="url(#q)" transform="translate(142.714 119.714)"/><path d="m.114.182v.284l.755.327v-.283c0-.07-.065-.154-.145-.188l-.467-.202a.164.164 0 0 0 -.063-.015c-.047 0-.08.029-.08.077" mask="url(#r)" transform="translate(143.714 119.714)"/><path d="m.098.131a.015.015 0 0 0 .002-.003c.001.001 0 .001-.003.002" mask="url(#s)" transform="translate(143.714 119.714)"/><path d="m.14.122c.027-.02.07-.023.118-.002l.467.202c.079.034.145.118.145.187v.284l.115-.055v-.283c0-.07-.065-.155-.144-.188l-.467-.203a.16.16 0 0 0 -.063-.011c-.063 0-.13.03-.17.07" mask="url(#t)" transform="translate(143.714 119.714)"/><path d="m3.368.234-2.866 1.489c-.256.132-.465.458-.465.723v1.514l.423-.22v-1.124c0-.207.162-.46.36-.563l2.228-1.158c.199-.103.361-.018.361.188v1.124l.422-.22v-1.512c0-.189-.105-.298-.257-.298a.453.453 0 0 0 -.206.057" mask="url(#u)" transform="translate(140.714 119.714)"/><path d="m3.303.08-2.713 1.487c-.242.133-.44.458-.44.724v1.512l.307.155v-1.512c0-.265.198-.591.44-.723l2.714-1.49c.119-.065.227-.071.306-.03l-.334-.168a.248.248 0 0 0 -.084-.014.411.411 0 0 0 -.196.057" mask="url(#v)" transform="translate(140.714 119.714)"/><path d="m.287.059c.003.01.007.021.007.033v.802l.486.093v-.785c0-.104-.122-.164-.299-.164a.975.975 0 0 0 -.194.022" mask="url(#w)" transform="translate(143.714 119.714)"/><path d="m.236.206v.284l.567.327v-.284a.24.24 0 0 0 -.109-.187l-.349-.202a.096.096 0 0 0 -.049-.015c-.035 0-.06.028-.06.077" mask="url(#x)" transform="translate(140.714 120.714)"/><path d="m.249.155.003-.003z" mask="url(#y)" transform="translate(140.714 120.714)"/><path d="m.009.146c.026-.02.068-.023.117-.003l.467.203c.079.035.144.118.144.187v.284l.116-.055v-.284c0-.069-.065-.153-.143-.187l-.468-.202a.16.16 0 0 0 -.062-.014c-.063 0-.13.03-.17.07" mask="url(#z)" transform="translate(140.714 120.714)"/><path d="m.018.276v.284l.755.327v-.283c0-.07-.065-.154-.143-.188l-.468-.202a.166.166 0 0 0 -.064-.015c-.047.001-.08.028-.08.077" mask="url(#A)" transform="translate(143.714 119.714)"/><path d="m.026.225.004-.003z" mask="url(#B)" transform="translate(143.714 119.714)"/><path d="m.044.216c.027-.02.07-.023.118-.002l.468.202c.08.035.144.118.144.188v.283l.116-.055v-.284c0-.069-.065-.153-.144-.187l-.468-.202a.159.159 0 0 0 -.064-.013.262.262 0 0 0 -.17.07" mask="url(#C)" transform="translate(143.714 119.714)"/><path d="m152.888 76.479-5.632-3.252c-.933-.539-1.691-1.853-1.691-2.93v-6.057c0-1.077.758-1.515 1.69-.977l5.633 3.252c.933.539 1.691 1.852 1.691 2.929v6.058c0 1.077-.758 1.515-1.69.977m-18.952.913a.937.937 0 0 0 .847 0c.224-.13.231-.335.027-.47l1.63-.995 13.365 7.716v-8.825l3.082 1.779c.99.57 1.794.106 1.794-1.036v-6.058c0-1.142-.805-2.535-1.794-3.106l-5.632-3.252c-.99-.57-1.793-.106-1.793 1.035v6.059c0 1.142.804 2.535 1.793 3.106l2.41 1.391v8.664l-13.227-7.637-1.78 1.086c-.229-.077-.526-.06-.722.054-.234.135-.234.354 0 .489" fill="#ef1616"/><path d="m150.15 72.645-.272-.157v-.406l.272.157zm-.258-1.68c.002-.296.024-.494.067-.593.044-.099.159-.193.347-.284.267-.142.459-.282.576-.423.117-.14.176-.39.176-.75 0-.372-.087-.713-.259-1.025a1.912 1.912 0 0 0 -.732-.74c-.313-.18-.556-.213-.728-.097-.173.116-.263.35-.269.7l-.152-.088-.01-.029c-.005-.436.102-.71.32-.82.217-.11.497-.066.84.132.361.209.647.502.855.88.209.378.313.778.313 1.199 0 .36-.069.63-.207.81s-.348.335-.63.465c-.153.047-.246.123-.279.228-.033.104-.05.284-.05.54l-.178-.104z" fill="#e31515"/></g></svg>