<svg height="47" viewBox="0 0 52 47" width="52" xmlns="http://www.w3.org/2000/svg"><g fill="none" transform="translate(1 1)"><path d="m20.677143 6.251837h8.673469v18.234694h-8.673469z"/><g stroke="#8bc0ff"><path d="m.9322449 45.4355102h48.122449c.5102041 0 .9285714-.4183673.9285714-.9285714 0-.1734694-.0510204-.3469388-.1326531-.4795919l-4.6632653-9.4591836v-25.47959187c0-.51020408-.4183673-.92857143-.9285714-.92857143h-10.255102c-.5102041 0-.9285715.41836735-.9285715.92857143s.4183674.92857147.9285715.92857147h9.3367347v23.8469387h-36.6326531v-23.8469387h9.1020408c.5102041 0 .9285714-.41836739.9285714-.92857147s-.4183673-.92857143-.9285714-.92857143h-10.04081631c-.51020408 0-.92857143.41836735-.92857143.92857143v25.47959187l-4.74489796 9.5306122c-.14285714.2857143-.12244898.622449.04081633.8979592.17346939.2755102.47959184.4387755.79591837.4387755zm17.6836735-1.8469388.8163265-1.632653h11.1428571l.8061225 1.632653zm-12.27551024-7.877551h37.33673474l3.877551 7.8673469h-14.122449l-1.4591837-2.9693877c-.1530612-.3163265-.4795918-.5204082-.8265306-.5204082h-12.2959184c-.3469387 0-.6734693.1938776-.8265306.5102041l-1.4795918 2.9693878h-14.12244898z"/><path d="m30.2689796 3.39469388c0-1.8367347-1.4897959-3.3367347-3.3367347-3.3367347h-3.8571429c-1.8367347 0-3.3367347 1.48979592-3.3367347 3.3367347v2.53061224c0 .06122449.0102041.1122449.0204082.16326531-.0102041.05102041-.0204082.1122449-.0204082.1632653v18.23469387.0204082c0 .0408163.0102041.0918367.0102041.132653 0 .0102041 0 .0204082.0102041.0408164.0102041.0510204.0306123.1020408.0510204.1530612.0102041.0102041.0102041.0204082.0204082.0408163.0204081.0408163.0408163.0714286.0612245.1020408.0102041.0102041.0204081.0306123.0306122.0408164.0102041.010204.0102041.0204081.0204082.0306122l4.3367347 5.6836735c.1734694.2244898.4489796.3673469.7346939.3673469.2857142 0 .5612244-.1326531.7346938-.3673469l4.3367347-5.6836735c.0102041-.0102041.0102041-.0204082.0204082-.0306122.0102041-.0102041.0204081-.0306123.0306122-.0408164.0204082-.0306122.0408164-.0714285.0612245-.1020408.0102041-.0102041.0102041-.0204081.0204082-.0408163.0204081-.0510204.0306122-.1020408.0510204-.1530612 0-.0102041 0-.0204082.0102041-.0408164.0102041-.0408163.0102041-.0918367.0102041-.132653 0-.0102041 0-.0204082 0-.0204082v-18.26530611c0-.05102041-.0102041-.10204082-.0102041-.15306122.0102041-.05102041.0102041-.10204082.0102041-.15306123v-2.52040816zm-8.6632653 3.45918367h2.4897959v16.70408165h-2.4897959zm4.3367347 0h2.4897959v16.70408165h-2.4897959zm-4.3367347-3.45918367c0-.81632653.6632653-1.47959184 1.4795918-1.47959184h3.8571429c.8163265 0 1.4795918.66326531 1.4795918 1.47959184v1.60204081h-6.8163265zm3.4081633 25.25510202-2.4693878-3.2346939h4.9285714z"/></g></g></svg>