<svg height="43" viewBox="0 0 75 43" width="75" xmlns="http://www.w3.org/2000/svg"><g fill="none"><path d="m43.2092572 13.4124228h6.6990065v6.85535h3.3872384c1.5641737 0 3.1730649-.2789575 4.6543934-.7814266.7278765-.2470722 1.5448743-.5908999 2.262866-1.0233155-.9456589-1.2359892-1.4284517-2.7966435-1.5706066-4.3349938-.1929917-2.0923386.2286088-4.81578721 1.6432529-6.45340618l.7041844-.81535391.8391211.67524687c2.1127093 1.69919064 3.8894877 4.07347112 4.2026675 6.78011312 2.5438807-.7490701 5.5305439-.5718943 7.7728555.7236247l.9199269.5313701-.484205.9460367c-1.896339 3.7049834-5.8608264 4.8526989-9.7368202 4.6496064-5.7999478 14.4611839-18.4270919 21.3075809-33.7374478 21.3075809-7.9098325 0-15.1669454-2.9599972-19.2994768-9.9852976l-.0677824-.1146615-.6020398-1.2262509c-1.39691422-3.0924077-1.86087866-6.4801082-1.54612971-9.8649815l.09445609-1.0138913h5.72839952v-6.85535h6.6988494v-6.70628993h13.3983264v-6.70613287h8.0389643z" fill="#364548"/><path d="m64.9131275 15.9484861c.4492155-3.4945086-2.163232-6.23947587-3.7834204-7.54269134-1.8669978 2.16082144-2.1571131 7.82400494.7719665 10.20833794-1.6346235 1.4535321-5.0792885 2.771041-8.6061715 2.771041h-42.9331067c-.3429916 3.6856636.3034519 7.079647 1.7796025 9.9848264l.4884414.8942035c.3092574.5254013.6470711 1.0324253 1.0121862 1.5206011h.0001569c1.7650105.1134051 3.3924163.1526727 4.8812762.1196878h.0006276c2.9259414-.0648701 5.3132322-.4104254 7.1226464-1.0380801.2694038-.0937712.5629707.0493203.6561716.3186964.0930439.2693763-.0494247.5634128-.3185146.6568698-.2405335.0834045-.4914227.1614685-.7504708.2356059-.0003138.0001569-.0006276.0001569-.0009414.0003141-1.4246862.4071272-2.9523012.6812157-4.9234833.8029455.1168934.0018846-.1219142.0175919-.1225418.0177488-.0669979.0040839-.1514121.0136654-.2187238.0174349-.7757323.0435087-1.6131277.0526186-2.4691946.0526186-.9362448 0-1.8583682-.0177487-2.8892259-.0700535l-.0263599.0174349c3.577249 4.0249362 9.1705544 6.4389558 16.1816421 6.4389558 14.8383894 0 27.4244247-6.5847173 32.9976466-21.367739 3.9541319.4061848 7.7541841-.6031514 9.4827929-3.9811136-2.7535043-1.5906548-6.2941945-1.0834735-8.3330022-.0576449" fill="#22a0c8"/><path d="m64.9131275 15.9484861c.4492155-3.4945086-2.163232-6.23947587-3.7834204-7.54269134-1.8669978 2.16082144-2.1571131 7.82400494.7719665 10.20833794-1.6346235 1.4535321-5.0792885 2.771041-8.6061715 2.771041h-40.390795c-.1752615 5.6444921 1.9172071 9.9290661 5.6193515 12.5193188h.0006276c2.9259414-.0648701 5.3132322-.4104254 7.1226464-1.0380801.2694038-.0937712.5629707.0493203.6561716.3186964.0930439.2693763-.0494247.5634128-.3185146.6568698-.2405335.0834045-.4914227.1614685-.7504708.2356059-.0003138.0001569-.0006276.0001569-.0009414.0003141-1.4246862.4071272-3.0836297.7163993-5.0548117.8381292-.0004707 0-.0476988-.0457075-.0483264-.0455506 5.0497908 2.5930799 12.3721756 2.5838128 20.7671547-.6444608 9.4132846-3.620008 18.1724373-10.5169819 24.2843098-18.4053858-.0922594.0416237-.1820083.0843469-.2687763.1278555" fill="#37b1d9"/><path d="m10.4427301 25.8632589c.2668933 1.9742215.8436716 3.8227863 1.6992678 5.5067412l.4884414.8942035c.3092574.5254013.6470711 1.0324253 1.0123431 1.5206011 1.7653243.1134051 3.3928871.1526727 4.8819038.1196878 2.9259414-.0648701 5.3132322-.4104254 7.1226464-1.0380801.2694038-.0937712.5629707.0493203.6561716.3186964.0930439.2693763-.0494247.5634128-.3185146.6568698-.2405335.0834045-.4914227.1614685-.7504708.2356059-.0003138.0001569-.0006276.0001569-.0009414.0003141-1.4246862.4071272-3.0748431.6988075-5.0460251.8206943-.0676255.0040839-.1856171.0048693-.2538703.0086388-.7754184.043666-1.6041841.0702108-2.4604079.0702108-.9360879 0-1.8933578-.017906-2.9240586-.0702108 3.577092 4.0249365 9.205387 6.4477519 16.2164747 6.4477519 12.7030861 0 23.7550735-4.8267822 30.1696131-15.4917247z" fill="#1b81a5"/><path d="m13.2911611 25.8632589c.7594142 3.4663931 2.5843619 6.1877996 5.2335251 8.0412336 2.9259414-.0648701 5.3132322-.4104254 7.1226464-1.0380801.2694038-.0937712.5629707.0493203.6561716.3186964.0930439.2693763-.0494247.5634128-.3185146.6568698-.2405335.0834045-.4914227.1614685-.7504708.2356059-.0003138.0001569-.0006276.0001569-.0009414.0003141-1.4246862.4071272-3.1098326.6988075-5.0810146.8206943 5.0494769 2.5926088 12.35068 2.555383 20.7450312-.6725765 5.0783473-1.953174 9.9658998-4.8608666 14.3508894-8.3627575z" fill="#1d91b4"/><path d="m16.1896443 14.5299807h5.8057532v5.8122437h-5.8057532zm.4835775.4844061h.458159v4.8437457h-.458159zm.8614016 0h.4765168v4.8437457h-.4765168zm.8794456 0h.4765168v4.8437457h-.4765168zm.8799163 0h.4765168v4.8437457h-.4765168zm.8797595 0h.4765167v4.8437457h-.4765167zm.8796025 0h.4584728v4.8437457h-.4584728z" fill="#23a3c2"/><path d="m22.8883368 7.82384786h5.8063808v5.81192944h-5.8063808zm.4842051.48440599h.4578451v4.84327455h-.4578451zm.8614016 0h.4762029v4.84327455h-.4762029zm.8792887 0h.4765168v4.84327455h-.4765168zm.8797594 0h.4765168v4.84327455h-.4765168zm.8799164 0h.4765167v4.84327455h-.4765167zm.8794456 0h.4587866v4.84327455h-.4587866z" fill="#23a3c2"/><path d="m22.8883368 14.5299807h5.8063808v5.8122437h-5.8063808zm.4842051.4844061h.4578451v4.8437457h-.4578451zm.8614016 0h.4762029v4.8437457h-.4762029zm.8792887 0h.4765168v4.8437457h-.4765168zm.8797594 0h.4765168v4.8437457h-.4765168zm.8799164 0h.4765167v4.8437457h-.4765167zm.8794456 0h.4587866v4.8437457h-.4587866z" fill="#34bbde"/><path d="m29.587657 14.5299807h5.8060667v5.8122437h-5.8060667zm.4838912.4844061h.4578452v4.8437457h-.4578452zm.8612447 0h.4765169v4.8437457h-.4765169zm.8797593 0h.4765169v4.8437457h-.4765169zm.8797594 0h.4765169v4.8437457h-.4765169zm.8796027 0h.4768303v4.8437457h-.4768303zm.8797593 0h.4581589v4.8437457h-.4581589z" fill="#23a3c2"/><path d="m29.587657 7.82384786h5.8060667v5.81192944h-5.8060667zm.4838912.48440599h.4578452v4.84327455h-.4578452zm.8612447 0h.4765169v4.84327455h-.4765169zm.8797593 0h.4765169v4.84327455h-.4765169zm.8797594 0h.4765169v4.84327455h-.4765169zm.8796027 0h.4768303v4.84327455h-.4768303zm.8797593 0h.4581589v4.84327455h-.4581589z" fill="#34bbde"/><path d="m36.2868202 14.5299807h5.80591v5.8122437h-5.80591zm.4838912.4844061h.4580019v4.8437457h-.4580019zm.8614017 0h.4765166v4.8437457h-.4765166zm.8794456 0h.4765166v4.8437457h-.4765166zm.8799161 0h.4765169v4.8437457h-.4765169zm.8797594 0h.4765169v4.8437457h-.4765169zm.8796026 0h.4583159v4.8437457h-.4583159z" fill="#34bbde"/><path d="m36.2868202 7.82384786h5.80591v5.81192944h-5.80591zm.4838912.48440599h.4580019v4.84327455h-.4580019zm.8614017 0h.4765166v4.84327455h-.4765166zm.8794456 0h.4765166v4.84327455h-.4765166zm.8799161 0h.4765169v4.84327455h-.4765169zm.8797594 0h.4765169v4.84327455h-.4765169zm.8796026 0h.4583159v4.84327455h-.4583159z" fill="#23a3c2"/><path d="m36.2868202 1.11755792h5.80591v5.81224362h-5.80591zm.4838912.48409185h.4580019v4.84374578h-.4580019zm.8614017 0h.4765166v4.84374578h-.4765166zm.8794456 0h.4765166v4.84374578h-.4765166zm.8799161 0h.4765169v4.84374578h-.4765169zm.8797594 0h.4765169v4.84374578h-.4765169zm.8796026 0h.4583159v4.84374578h-.4583159z" fill="#34bbde"/><path d="m42.9858264 14.5299807h5.806067v5.8122437h-5.806067zm.4835774.4844061h.4584727v4.8437457h-.4584727zm.8614017 0h.4765166v4.8437457h-.4765166zm.8799164 0h.4765166v4.8437457h-.4765166zm.8794456 0h.4765166v4.8437457h-.4765166zm.8800731 0h.4763599v4.8437457h-.4763599zm.8796024 0h.4581591v4.8437457h-.4581591z" fill="#23a3c2"/><path d="m28.3311715 29.765523c.8844666 0 1.6015169.7181273 1.6015169 1.6035347 0 .8854075-.7170503 1.6032204-1.6015169 1.6032204-.8846234 0-1.6018305-.7178129-1.6018305-1.6032204 0-.8854074.7172071-1.6035347 1.6018305-1.6035347" fill="#d3ecec"/><path d="m28.3311715 30.2203998c.1465482 0 .2863494.0276443.4153243.0777498-.1398012.0808914-.2344142.2324646-.2344142.4058708 0 .2588525.2096234.4683846.4682008.4683846.1771444 0 .331067-.0984833.4106171-.2439307.0561715.1355522.0873955.284455.0873955.4405834 0 .6340943-.513546 1.1481867-1.1471235 1.1481867-.6334205 0-1.1472803-.5140924-1.1472803-1.1481867 0-.6344086.5138598-1.1486579 1.1472803-1.1486579" fill="#364548"/><path d="m0 26.4428498h74.5099896c-1.6223851-.4119965-5.1331067-.9684979-4.5541319-3.0969627-2.9499477 3.4172298-10.0642781 2.3973698-11.859728.7123155-1.9994247 2.9029804-13.6390166 1.7995588-14.4508368-.4619449-2.5065375 2.9447612-10.2735879 2.9447612-12.7802825 0-.8121339 2.2615037-12.451569 3.3649253-14.4511506.4619449-1.7954498 1.6850543-8.9091527 2.7049143-11.85941419-.7123155.57897489 2.1284648-2.93174686 2.6849662-4.55444561 3.0969627" fill="#364548"/><path d="m32.5890691 41.3202709c-3.9666842-1.8843772-6.1440377-4.4458857-7.3554917-7.2423723-1.4733264.4211064-3.244613.6901686-5.3025627.8057727-.7752616.0435085-1.5906904.0658125-2.4466005.0658125-.9866109 0-2.0262552-.0292152-3.1176778-.0871741 3.6376569 3.6393278 8.1128661 6.4414689 16.3989538 6.4926739.611768 0 1.2191423-.0119374 1.8233789-.0347127" fill="#bdd9d7"/><path d="m26.7070607 36.6582557c-.5488494-.7457713-1.0812239-1.6830122-1.4725419-2.5806712-1.4736401.4212636-3.2452406.6904827-5.3035041.8060868 1.4137029.7682326 3.4357217 1.4800769 6.776046 1.7745844" fill="#d3ecec"/></g></svg>