<svg height="76" viewBox="0 0 75 76" width="75" xmlns="http://www.w3.org/2000/svg"><path d="m226.585415 3575.32817-32.746141-32.90655c-1.884468-1.89549-4.943232-1.89549-6.83017 0l-6.799722 6.83355 8.625764 8.66867c2.004614-.68063 4.303007-.22412 5.901103 1.38193 1.605501 1.61596 2.056457 3.94564 1.362742 5.96684l8.313058 8.35441c2.011197-.69634 4.331809-.24562 5.938133 1.37117 2.244904 2.25525 2.244904 5.91061 0 8.16751-2.245727 2.2569-5.882998 2.2569-8.129548 0-1.688616-1.69867-2.105832-4.19126-1.250827-6.28193l-7.752654-7.79122-.000823 20.50312c.547237.27291 1.064025.63596 1.519919 1.09247 2.244904 2.25524 2.244904 5.91061 0 8.16916-2.245727 2.25607-5.884645 2.25607-8.12708 0-2.244904-2.25855-2.244904-5.91392 0-8.16916.554643-.55657 1.196514-.97752 1.881177-1.26036v-20.69415c-.684663-.28118-1.325711-.69965-1.881177-1.26036-1.700959-1.70694-2.109947-4.21525-1.238483-6.31419l-8.502327-8.54627-22.453156 22.56319c-1.886937 1.89715-1.886937 4.97113 0 6.86663l32.74614 32.90737c1.885292 1.89549 4.943233 1.89549 6.830993 0l32.593079-32.75438c1.886113-1.89632 1.886113-4.97196 0-6.86745" fill="#de4c36" transform="translate(-153 -3541)"/></svg>